<?xml version="1.0" encoding="utf-8" standalone="no"?>
<!DOCTYPE svg PUBLIC "-//W3C//DTD SVG 1.1//EN"
  "http://www.w3.org/Graphics/SVG/1.1/DTD/svg11.dtd">
<svg xmlns:xlink="http://www.w3.org/1999/xlink" width="993.989063pt" height="415.21875pt" viewBox="0 0 993.989063 415.21875" xmlns="http://www.w3.org/2000/svg" version="1.1">
 <metadata>
  <rdf:RDF xmlns:dc="http://purl.org/dc/elements/1.1/" xmlns:cc="http://creativecommons.org/ns#" xmlns:rdf="http://www.w3.org/1999/02/22-rdf-syntax-ns#">
   <cc:Work>
    <dc:type rdf:resource="http://purl.org/dc/dcmitype/StillImage"/>
    <dc:date>2025-12-22T17:14:43.891924</dc:date>
    <dc:format>image/svg+xml</dc:format>
    <dc:creator>
     <cc:Agent>
      <dc:title>Matplotlib v3.10.5, https://matplotlib.org/</dc:title>
     </cc:Agent>
    </dc:creator>
   </cc:Work>
  </rdf:RDF>
 </metadata>
 <defs>
  <style type="text/css">*{stroke-linejoin: round; stroke-linecap: butt}</style>
 </defs>
 <g id="figure_1">
  <g id="patch_1">
   <path d="M 0 415.21875 
L 993.989063 415.21875 
L 993.989063 0 
L 0 0 
z
" style="fill: #ffffff"/>
  </g>
  <g id="axes_1">
   <g id="patch_2">
    <path d="M 57.809063 378.785 
L 491.789062 378.785 
L 491.789062 20.24 
L 57.809063 20.24 
z
" style="fill: #ffffff"/>
   </g>
   <g id="matplotlib.axis_1">
    <g id="xtick_1">
     <g id="line2d_1">
      <path d="M 57.809063 378.785 
L 57.809063 20.24 
" clip-path="url(#p959ba9f654)" style="fill: none; stroke-dasharray: 1.85,0.8; stroke-dashoffset: 0; stroke: #b0b0b0; stroke-opacity: 0.3; stroke-width: 0.5"/>
     </g>
     <g id="line2d_2">
      <defs>
       <path id="m4f2194bc30" d="M 0 0 
L 0 -4 
" style="stroke: #000000; stroke-width: 0.8"/>
      </defs>
      <g>
       <use xlink:href="#m4f2194bc30" x="57.809063" y="378.785" style="stroke: #000000; stroke-width: 0.8"/>
      </g>
     </g>
     <g id="text_1">
      <!-- 0 -->
      <g transform="translate(53.991563 391.403125) scale(0.12 -0.12)">
       <defs>
        <path id="DejaVuSerif-30" d="M 2034 219 
Q 2513 219 2750 744 
Q 2988 1269 2988 2328 
Q 2988 3391 2750 3916 
Q 2513 4441 2034 4441 
Q 1556 4441 1318 3916 
Q 1081 3391 1081 2328 
Q 1081 1269 1318 744 
Q 1556 219 2034 219 
z
M 2034 -91 
Q 1275 -91 848 546 
Q 422 1184 422 2328 
Q 422 3475 848 4112 
Q 1275 4750 2034 4750 
Q 2797 4750 3222 4112 
Q 3647 3475 3647 2328 
Q 3647 1184 3222 546 
Q 2797 -91 2034 -91 
z
" transform="scale(0.015625)"/>
       </defs>
       <use xlink:href="#DejaVuSerif-30"/>
      </g>
     </g>
    </g>
    <g id="xtick_2">
     <g id="line2d_3">
      <path d="M 146.376409 378.785 
L 146.376409 20.24 
" clip-path="url(#p959ba9f654)" style="fill: none; stroke-dasharray: 1.85,0.8; stroke-dashoffset: 0; stroke: #b0b0b0; stroke-opacity: 0.3; stroke-width: 0.5"/>
     </g>
     <g id="line2d_4">
      <g>
       <use xlink:href="#m4f2194bc30" x="146.376409" y="378.785" style="stroke: #000000; stroke-width: 0.8"/>
      </g>
     </g>
     <g id="text_2">
      <!-- 1 -->
      <g transform="translate(142.558909 391.403125) scale(0.12 -0.12)">
       <defs>
        <path id="DejaVuSerif-31" d="M 909 0 
L 909 331 
L 1722 331 
L 1722 4213 
L 781 3603 
L 781 4013 
L 1919 4750 
L 2350 4750 
L 2350 331 
L 3163 331 
L 3163 0 
L 909 0 
z
" transform="scale(0.015625)"/>
       </defs>
       <use xlink:href="#DejaVuSerif-31"/>
      </g>
     </g>
    </g>
    <g id="xtick_3">
     <g id="line2d_5">
      <path d="M 234.943756 378.785 
L 234.943756 20.24 
" clip-path="url(#p959ba9f654)" style="fill: none; stroke-dasharray: 1.85,0.8; stroke-dashoffset: 0; stroke: #b0b0b0; stroke-opacity: 0.3; stroke-width: 0.5"/>
     </g>
     <g id="line2d_6">
      <g>
       <use xlink:href="#m4f2194bc30" x="234.943756" y="378.785" style="stroke: #000000; stroke-width: 0.8"/>
      </g>
     </g>
     <g id="text_3">
      <!-- 2 -->
      <g transform="translate(231.126256 391.403125) scale(0.12 -0.12)">
       <defs>
        <path id="DejaVuSerif-32" d="M 819 3553 
L 469 3553 
L 469 4384 
Q 803 4563 1142 4656 
Q 1481 4750 1806 4750 
Q 2534 4750 2956 4397 
Q 3378 4044 3378 3438 
Q 3378 2753 2422 1800 
Q 2347 1728 2309 1691 
L 1131 513 
L 3078 513 
L 3078 1088 
L 3444 1088 
L 3444 0 
L 434 0 
L 434 341 
L 1850 1753 
Q 2319 2222 2519 2614 
Q 2719 3006 2719 3438 
Q 2719 3909 2473 4175 
Q 2228 4441 1797 4441 
Q 1350 4441 1106 4219 
Q 863 3997 819 3553 
z
" transform="scale(0.015625)"/>
       </defs>
       <use xlink:href="#DejaVuSerif-32"/>
      </g>
     </g>
    </g>
    <g id="xtick_4">
     <g id="line2d_7">
      <path d="M 323.511103 378.785 
L 323.511103 20.24 
" clip-path="url(#p959ba9f654)" style="fill: none; stroke-dasharray: 1.85,0.8; stroke-dashoffset: 0; stroke: #b0b0b0; stroke-opacity: 0.3; stroke-width: 0.5"/>
     </g>
     <g id="line2d_8">
      <g>
       <use xlink:href="#m4f2194bc30" x="323.511103" y="378.785" style="stroke: #000000; stroke-width: 0.8"/>
      </g>
     </g>
     <g id="text_4">
      <!-- 3 -->
      <g transform="translate(319.693603 391.403125) scale(0.12 -0.12)">
       <defs>
        <path id="DejaVuSerif-33" d="M 622 4469 
Q 988 4606 1323 4678 
Q 1659 4750 1953 4750 
Q 2638 4750 3022 4454 
Q 3406 4159 3406 3634 
Q 3406 3213 3140 2930 
Q 2875 2647 2388 2547 
Q 2963 2466 3280 2130 
Q 3597 1794 3597 1259 
Q 3597 606 3158 257 
Q 2719 -91 1894 -91 
Q 1528 -91 1179 -12 
Q 831 66 488 225 
L 488 1131 
L 838 1131 
Q 869 681 1141 450 
Q 1413 219 1906 219 
Q 2384 219 2661 495 
Q 2938 772 2938 1253 
Q 2938 1803 2653 2086 
Q 2369 2369 1819 2369 
L 1522 2369 
L 1522 2688 
L 1678 2688 
Q 2225 2688 2498 2914 
Q 2772 3141 2772 3597 
Q 2772 4006 2547 4223 
Q 2322 4441 1900 4441 
Q 1478 4441 1245 4241 
Q 1013 4041 972 3647 
L 622 3647 
L 622 4469 
z
" transform="scale(0.015625)"/>
       </defs>
       <use xlink:href="#DejaVuSerif-33"/>
      </g>
     </g>
    </g>
    <g id="xtick_5">
     <g id="line2d_9">
      <path d="M 412.07845 378.785 
L 412.07845 20.24 
" clip-path="url(#p959ba9f654)" style="fill: none; stroke-dasharray: 1.85,0.8; stroke-dashoffset: 0; stroke: #b0b0b0; stroke-opacity: 0.3; stroke-width: 0.5"/>
     </g>
     <g id="line2d_10">
      <g>
       <use xlink:href="#m4f2194bc30" x="412.07845" y="378.785" style="stroke: #000000; stroke-width: 0.8"/>
      </g>
     </g>
     <g id="text_5">
      <!-- 4 -->
      <g transform="translate(408.26095 391.403125) scale(0.12 -0.12)">
       <defs>
        <path id="DejaVuSerif-34" d="M 2234 1581 
L 2234 4063 
L 641 1581 
L 2234 1581 
z
M 3609 0 
L 1484 0 
L 1484 331 
L 2234 331 
L 2234 1247 
L 197 1247 
L 197 1588 
L 2241 4750 
L 2859 4750 
L 2859 1581 
L 3750 1581 
L 3750 1247 
L 2859 1247 
L 2859 331 
L 3609 331 
L 3609 0 
z
" transform="scale(0.015625)"/>
       </defs>
       <use xlink:href="#DejaVuSerif-34"/>
      </g>
     </g>
    </g>
    <g id="text_6">
     <!-- Time [$\mu$s] -->
     <g transform="translate(241.549062 408.53875) scale(0.14 -0.14)">
      <defs>
       <path id="DejaVuSerif-54" d="M 1222 0 
L 1222 331 
L 1819 331 
L 1819 4294 
L 447 4294 
L 447 3566 
L 63 3566 
L 63 4666 
L 4206 4666 
L 4206 3566 
L 3822 3566 
L 3822 4294 
L 2450 4294 
L 2450 331 
L 3047 331 
L 3047 0 
L 1222 0 
z
" transform="scale(0.015625)"/>
       <path id="DejaVuSerif-69" d="M 622 4353 
Q 622 4497 726 4603 
Q 831 4709 978 4709 
Q 1122 4709 1226 4603 
Q 1331 4497 1331 4353 
Q 1331 4206 1228 4103 
Q 1125 4000 978 4000 
Q 831 4000 726 4103 
Q 622 4206 622 4353 
z
M 1356 331 
L 1900 331 
L 1900 0 
L 231 0 
L 231 331 
L 781 331 
L 781 2988 
L 231 2988 
L 231 3322 
L 1356 3322 
L 1356 331 
z
" transform="scale(0.015625)"/>
       <path id="DejaVuSerif-6d" d="M 3316 2675 
Q 3481 3041 3739 3227 
Q 3997 3413 4341 3413 
Q 4863 3413 5119 3089 
Q 5375 2766 5375 2113 
L 5375 331 
L 5894 331 
L 5894 0 
L 4300 0 
L 4300 331 
L 4800 331 
L 4800 2047 
Q 4800 2556 4650 2772 
Q 4500 2988 4153 2988 
Q 3769 2988 3567 2697 
Q 3366 2406 3366 1850 
L 3366 331 
L 3866 331 
L 3866 0 
L 2291 0 
L 2291 331 
L 2791 331 
L 2791 2069 
Q 2791 2566 2641 2777 
Q 2491 2988 2144 2988 
Q 1759 2988 1557 2697 
Q 1356 2406 1356 1850 
L 1356 331 
L 1856 331 
L 1856 0 
L 263 0 
L 263 331 
L 781 331 
L 781 2994 
L 231 2994 
L 231 3322 
L 1356 3322 
L 1356 2731 
Q 1516 3063 1762 3238 
Q 2009 3413 2322 3413 
Q 2709 3413 2968 3220 
Q 3228 3028 3316 2675 
z
" transform="scale(0.015625)"/>
       <path id="DejaVuSerif-65" d="M 3469 1600 
L 991 1600 
L 991 1575 
Q 991 903 1244 561 
Q 1497 219 1991 219 
Q 2369 219 2611 417 
Q 2853 616 2950 1006 
L 3413 1006 
Q 3275 459 2904 184 
Q 2534 -91 1931 -91 
Q 1203 -91 761 389 
Q 319 869 319 1663 
Q 319 2450 753 2931 
Q 1188 3413 1894 3413 
Q 2647 3413 3050 2948 
Q 3453 2484 3469 1600 
z
M 2791 1931 
Q 2772 2513 2545 2808 
Q 2319 3103 1894 3103 
Q 1497 3103 1269 2806 
Q 1041 2509 991 1931 
L 2791 1931 
z
" transform="scale(0.015625)"/>
       <path id="DejaVuSerif-20" transform="scale(0.015625)"/>
       <path id="DejaVuSerif-5b" d="M 550 4863 
L 2003 4863 
L 2003 4531 
L 1147 4531 
L 1147 -513 
L 2003 -513 
L 2003 -844 
L 550 -844 
L 550 4863 
z
" transform="scale(0.015625)"/>
       <path id="Cmmi10-b9" d="M 178 -1203 
Q 178 -1166 184 -1153 
L 1125 2625 
Q 1153 2716 1226 2772 
Q 1300 2828 1394 2828 
Q 1475 2828 1531 2779 
Q 1588 2731 1588 2650 
Q 1588 2631 1586 2620 
Q 1584 2609 1581 2597 
L 1203 1100 
Q 1141 834 1141 641 
Q 1141 403 1253 250 
Q 1366 97 1594 97 
Q 2059 97 2413 678 
Q 2416 684 2417 687 
Q 2419 691 2419 697 
L 2881 2553 
Q 2903 2638 2981 2698 
Q 3059 2759 3150 2759 
Q 3225 2759 3283 2709 
Q 3341 2659 3341 2578 
Q 3341 2541 3334 2528 
L 2875 684 
Q 2828 503 2828 372 
Q 2828 97 3016 97 
Q 3216 97 3317 344 
Q 3419 591 3494 941 
Q 3506 978 3547 978 
L 3622 978 
Q 3647 978 3664 958 
Q 3681 938 3681 916 
Q 3569 469 3436 198 
Q 3303 -72 3003 -72 
Q 2791 -72 2627 50 
Q 2463 172 2413 378 
Q 2253 178 2039 53 
Q 1825 -72 1588 -72 
Q 1188 -72 959 116 
L 634 -1178 
Q 616 -1269 541 -1325 
Q 466 -1381 372 -1381 
Q 294 -1381 236 -1332 
Q 178 -1284 178 -1203 
z
" transform="scale(0.015625)"/>
       <path id="DejaVuSerif-73" d="M 359 184 
L 359 959 
L 691 959 
Q 703 588 923 403 
Q 1144 219 1575 219 
Q 1963 219 2166 364 
Q 2369 509 2369 788 
Q 2369 1006 2220 1140 
Q 2072 1275 1594 1428 
L 1178 1569 
Q 750 1706 558 1912 
Q 366 2119 366 2438 
Q 366 2894 700 3153 
Q 1034 3413 1625 3413 
Q 1888 3413 2178 3344 
Q 2469 3275 2778 3144 
L 2778 2419 
L 2447 2419 
Q 2434 2741 2221 2922 
Q 2009 3103 1644 3103 
Q 1281 3103 1095 2975 
Q 909 2847 909 2591 
Q 909 2381 1050 2254 
Q 1191 2128 1613 1997 
L 2069 1856 
Q 2541 1709 2748 1489 
Q 2956 1269 2956 922 
Q 2956 450 2595 179 
Q 2234 -91 1600 -91 
Q 1278 -91 972 -22 
Q 666 47 359 184 
z
" transform="scale(0.015625)"/>
       <path id="DejaVuSerif-5d" d="M 1947 4863 
L 1947 -844 
L 494 -844 
L 494 -513 
L 1350 -513 
L 1350 4531 
L 494 4531 
L 494 4863 
L 1947 4863 
z
" transform="scale(0.015625)"/>
      </defs>
      <use xlink:href="#DejaVuSerif-54" transform="translate(0 0.015625)"/>
      <use xlink:href="#DejaVuSerif-69" transform="translate(66.699219 0.015625)"/>
      <use xlink:href="#DejaVuSerif-6d" transform="translate(98.681641 0.015625)"/>
      <use xlink:href="#DejaVuSerif-65" transform="translate(193.505859 0.015625)"/>
      <use xlink:href="#DejaVuSerif-20" transform="translate(252.685547 0.015625)"/>
      <use xlink:href="#DejaVuSerif-5b" transform="translate(284.472656 0.015625)"/>
      <use xlink:href="#Cmmi10-b9" transform="translate(323.486328 0.015625)"/>
      <use xlink:href="#DejaVuSerif-73" transform="translate(383.691406 0.015625)"/>
      <use xlink:href="#DejaVuSerif-5d" transform="translate(435.009766 0.015625)"/>
     </g>
    </g>
   </g>
   <g id="matplotlib.axis_2">
    <g id="ytick_1">
     <g id="line2d_11">
      <path d="M 57.809063 329.892438 
L 491.789062 329.892438 
" clip-path="url(#p959ba9f654)" style="fill: none; stroke-dasharray: 1.85,0.8; stroke-dashoffset: 0; stroke: #b0b0b0; stroke-opacity: 0.3; stroke-width: 0.5"/>
     </g>
     <g id="line2d_12">
      <defs>
       <path id="m2bb9919423" d="M 0 0 
L 4 0 
" style="stroke: #000000; stroke-width: 0.8"/>
      </defs>
      <g>
       <use xlink:href="#m2bb9919423" x="57.809063" y="329.892438" style="stroke: #000000; stroke-width: 0.8"/>
      </g>
     </g>
     <g id="text_7">
      <!-- −100 -->
      <g transform="translate(21.348438 334.4515) scale(0.12 -0.12)">
       <defs>
        <path id="DejaVuSerif-2212" d="M 678 2259 
L 4684 2259 
L 4684 1753 
L 678 1753 
L 678 2259 
z
" transform="scale(0.015625)"/>
       </defs>
       <use xlink:href="#DejaVuSerif-2212"/>
       <use xlink:href="#DejaVuSerif-31" transform="translate(83.789062 0)"/>
       <use xlink:href="#DejaVuSerif-30" transform="translate(147.412109 0)"/>
       <use xlink:href="#DejaVuSerif-30" transform="translate(211.035156 0)"/>
      </g>
     </g>
    </g>
    <g id="ytick_2">
     <g id="line2d_13">
      <path d="M 57.809063 264.702469 
L 491.789062 264.702469 
" clip-path="url(#p959ba9f654)" style="fill: none; stroke-dasharray: 1.85,0.8; stroke-dashoffset: 0; stroke: #b0b0b0; stroke-opacity: 0.3; stroke-width: 0.5"/>
     </g>
     <g id="line2d_14">
      <g>
       <use xlink:href="#m2bb9919423" x="57.809063" y="264.702469" style="stroke: #000000; stroke-width: 0.8"/>
      </g>
     </g>
     <g id="text_8">
      <!-- −50 -->
      <g transform="translate(28.983438 269.261531) scale(0.12 -0.12)">
       <defs>
        <path id="DejaVuSerif-35" d="M 3219 4666 
L 3219 4153 
L 1081 4153 
L 1081 2816 
Q 1244 2928 1461 2984 
Q 1678 3041 1947 3041 
Q 2703 3041 3140 2622 
Q 3578 2203 3578 1478 
Q 3578 738 3136 323 
Q 2694 -91 1894 -91 
Q 1572 -91 1234 -12 
Q 897 66 544 225 
L 544 1131 
L 897 1131 
Q 925 688 1179 453 
Q 1434 219 1894 219 
Q 2388 219 2653 544 
Q 2919 869 2919 1478 
Q 2919 2084 2655 2407 
Q 2391 2731 1894 2731 
Q 1613 2731 1398 2631 
Q 1184 2531 1019 2322 
L 750 2322 
L 750 4666 
L 3219 4666 
z
" transform="scale(0.015625)"/>
       </defs>
       <use xlink:href="#DejaVuSerif-2212"/>
       <use xlink:href="#DejaVuSerif-35" transform="translate(83.789062 0)"/>
       <use xlink:href="#DejaVuSerif-30" transform="translate(147.412109 0)"/>
      </g>
     </g>
    </g>
    <g id="ytick_3">
     <g id="line2d_15">
      <path d="M 57.809063 199.5125 
L 491.789062 199.5125 
" clip-path="url(#p959ba9f654)" style="fill: none; stroke-dasharray: 1.85,0.8; stroke-dashoffset: 0; stroke: #b0b0b0; stroke-opacity: 0.3; stroke-width: 0.5"/>
     </g>
     <g id="line2d_16">
      <g>
       <use xlink:href="#m2bb9919423" x="57.809063" y="199.5125" style="stroke: #000000; stroke-width: 0.8"/>
      </g>
     </g>
     <g id="text_9">
      <!-- 0 -->
      <g transform="translate(46.674063 204.071562) scale(0.12 -0.12)">
       <use xlink:href="#DejaVuSerif-30"/>
      </g>
     </g>
    </g>
    <g id="ytick_4">
     <g id="line2d_17">
      <path d="M 57.809063 134.322531 
L 491.789062 134.322531 
" clip-path="url(#p959ba9f654)" style="fill: none; stroke-dasharray: 1.85,0.8; stroke-dashoffset: 0; stroke: #b0b0b0; stroke-opacity: 0.3; stroke-width: 0.5"/>
     </g>
     <g id="line2d_18">
      <g>
       <use xlink:href="#m2bb9919423" x="57.809063" y="134.322531" style="stroke: #000000; stroke-width: 0.8"/>
      </g>
     </g>
     <g id="text_10">
      <!-- 50 -->
      <g transform="translate(39.039063 138.881594) scale(0.12 -0.12)">
       <use xlink:href="#DejaVuSerif-35"/>
       <use xlink:href="#DejaVuSerif-30" transform="translate(63.623047 0)"/>
      </g>
     </g>
    </g>
    <g id="ytick_5">
     <g id="line2d_19">
      <path d="M 57.809063 69.132562 
L 491.789062 69.132562 
" clip-path="url(#p959ba9f654)" style="fill: none; stroke-dasharray: 1.85,0.8; stroke-dashoffset: 0; stroke: #b0b0b0; stroke-opacity: 0.3; stroke-width: 0.5"/>
     </g>
     <g id="line2d_20">
      <g>
       <use xlink:href="#m2bb9919423" x="57.809063" y="69.132562" style="stroke: #000000; stroke-width: 0.8"/>
      </g>
     </g>
     <g id="text_11">
      <!-- 100 -->
      <g transform="translate(31.404063 73.691625) scale(0.12 -0.12)">
       <use xlink:href="#DejaVuSerif-31"/>
       <use xlink:href="#DejaVuSerif-30" transform="translate(63.623047 0)"/>
       <use xlink:href="#DejaVuSerif-30" transform="translate(127.246094 0)"/>
      </g>
     </g>
    </g>
    <g id="text_12">
     <!-- Energy [MHz] -->
     <g transform="translate(14.237813 249.7025) rotate(-90) scale(0.14 -0.14)">
      <defs>
       <path id="DejaVuSerif-45" d="M 353 0 
L 353 331 
L 947 331 
L 947 4331 
L 353 4331 
L 353 4666 
L 4109 4666 
L 4109 3628 
L 3725 3628 
L 3725 4281 
L 1581 4281 
L 1581 2719 
L 3109 2719 
L 3109 3303 
L 3494 3303 
L 3494 1753 
L 3109 1753 
L 3109 2338 
L 1581 2338 
L 1581 384 
L 3775 384 
L 3775 1038 
L 4159 1038 
L 4159 0 
L 353 0 
z
" transform="scale(0.015625)"/>
       <path id="DejaVuSerif-6e" d="M 263 0 
L 263 331 
L 781 331 
L 781 2988 
L 231 2988 
L 231 3322 
L 1356 3322 
L 1356 2731 
Q 1516 3069 1770 3241 
Q 2025 3413 2363 3413 
Q 2913 3413 3172 3097 
Q 3431 2781 3431 2113 
L 3431 331 
L 3944 331 
L 3944 0 
L 2356 0 
L 2356 331 
L 2853 331 
L 2853 1931 
Q 2853 2541 2703 2767 
Q 2553 2994 2175 2994 
Q 1775 2994 1565 2701 
Q 1356 2409 1356 1850 
L 1356 331 
L 1856 331 
L 1856 0 
L 263 0 
z
" transform="scale(0.015625)"/>
       <path id="DejaVuSerif-72" d="M 3059 3328 
L 3059 2497 
L 2728 2497 
Q 2713 2744 2591 2866 
Q 2469 2988 2234 2988 
Q 1809 2988 1582 2694 
Q 1356 2400 1356 1850 
L 1356 331 
L 2022 331 
L 2022 0 
L 263 0 
L 263 331 
L 781 331 
L 781 2994 
L 231 2994 
L 231 3322 
L 1356 3322 
L 1356 2731 
Q 1525 3078 1790 3245 
Q 2056 3413 2438 3413 
Q 2578 3413 2733 3391 
Q 2888 3369 3059 3328 
z
" transform="scale(0.015625)"/>
       <path id="DejaVuSerif-67" d="M 3359 2988 
L 3359 72 
Q 3359 -644 2965 -1033 
Q 2572 -1422 1844 -1422 
Q 1516 -1422 1216 -1362 
Q 916 -1303 641 -1184 
L 641 -488 
L 941 -488 
Q 997 -813 1206 -963 
Q 1416 -1113 1806 -1113 
Q 2313 -1113 2548 -827 
Q 2784 -541 2784 72 
L 2784 519 
Q 2616 206 2355 57 
Q 2094 -91 1709 -91 
Q 1097 -91 708 395 
Q 319 881 319 1663 
Q 319 2444 706 2928 
Q 1094 3413 1709 3413 
Q 2094 3413 2355 3264 
Q 2616 3116 2784 2803 
L 2784 3322 
L 3909 3322 
L 3909 2988 
L 3359 2988 
z
M 2784 1825 
Q 2784 2422 2554 2737 
Q 2325 3053 1888 3053 
Q 1444 3053 1217 2703 
Q 991 2353 991 1663 
Q 991 975 1217 622 
Q 1444 269 1888 269 
Q 2325 269 2554 583 
Q 2784 897 2784 1497 
L 2784 1825 
z
" transform="scale(0.015625)"/>
       <path id="DejaVuSerif-79" d="M 1381 -609 
L 1600 -56 
L 359 2988 
L -19 2988 
L -19 3322 
L 1509 3322 
L 1509 2988 
L 978 2988 
L 1913 703 
L 2847 2988 
L 2350 2988 
L 2350 3322 
L 3597 3322 
L 3597 2988 
L 3225 2988 
L 1703 -750 
Q 1547 -1138 1356 -1280 
Q 1166 -1422 819 -1422 
Q 672 -1422 517 -1397 
Q 363 -1372 206 -1325 
L 206 -691 
L 500 -691 
Q 519 -903 608 -995 
Q 697 -1088 884 -1088 
Q 1056 -1088 1161 -992 
Q 1266 -897 1381 -609 
z
" transform="scale(0.015625)"/>
       <path id="DejaVuSerif-4d" d="M 353 0 
L 353 331 
L 947 331 
L 947 4331 
L 319 4331 
L 319 4666 
L 1678 4666 
L 3316 1344 
L 4953 4666 
L 6228 4666 
L 6228 4331 
L 5606 4331 
L 5606 331 
L 6203 331 
L 6203 0 
L 4378 0 
L 4378 331 
L 4972 331 
L 4972 3938 
L 3372 684 
L 2931 684 
L 1331 3938 
L 1331 331 
L 1925 331 
L 1925 0 
L 353 0 
z
" transform="scale(0.015625)"/>
       <path id="DejaVuSerif-48" d="M 353 0 
L 353 331 
L 947 331 
L 947 4331 
L 353 4331 
L 353 4666 
L 2175 4666 
L 2175 4331 
L 1581 4331 
L 1581 2719 
L 4000 2719 
L 4000 4331 
L 3406 4331 
L 3406 4666 
L 5228 4666 
L 5228 4331 
L 4634 4331 
L 4634 331 
L 5228 331 
L 5228 0 
L 3406 0 
L 3406 331 
L 4000 331 
L 4000 2338 
L 1581 2338 
L 1581 331 
L 2175 331 
L 2175 0 
L 353 0 
z
" transform="scale(0.015625)"/>
       <path id="DejaVuSerif-7a" d="M 256 0 
L 256 269 
L 2338 2988 
L 691 2988 
L 691 2413 
L 359 2413 
L 359 3322 
L 3078 3322 
L 3078 3053 
L 997 331 
L 2803 331 
L 2803 934 
L 3138 934 
L 3138 0 
L 256 0 
z
" transform="scale(0.015625)"/>
      </defs>
      <use xlink:href="#DejaVuSerif-45"/>
      <use xlink:href="#DejaVuSerif-6e" transform="translate(72.998047 0)"/>
      <use xlink:href="#DejaVuSerif-65" transform="translate(137.402344 0)"/>
      <use xlink:href="#DejaVuSerif-72" transform="translate(196.582031 0)"/>
      <use xlink:href="#DejaVuSerif-67" transform="translate(244.384766 0)"/>
      <use xlink:href="#DejaVuSerif-79" transform="translate(308.398438 0)"/>
      <use xlink:href="#DejaVuSerif-20" transform="translate(364.892578 0)"/>
      <use xlink:href="#DejaVuSerif-5b" transform="translate(396.679688 0)"/>
      <use xlink:href="#DejaVuSerif-4d" transform="translate(435.693359 0)"/>
      <use xlink:href="#DejaVuSerif-48" transform="translate(538.085938 0)"/>
      <use xlink:href="#DejaVuSerif-7a" transform="translate(625.292969 0)"/>
      <use xlink:href="#DejaVuSerif-5d" transform="translate(677.978516 0)"/>
     </g>
    </g>
   </g>
   <g id="patch_3">
    <path d="M 57.809063 378.785 
L 57.809063 20.24 
" style="fill: none; stroke: #000000; stroke-width: 0.8; stroke-linejoin: miter; stroke-linecap: square"/>
   </g>
   <g id="patch_4">
    <path d="M 491.789062 378.785 
L 491.789062 20.24 
" style="fill: none; stroke: #000000; stroke-width: 0.8; stroke-linejoin: miter; stroke-linecap: square"/>
   </g>
   <g id="patch_5">
    <path d="M 57.809063 378.785 
L 491.789062 378.785 
" style="fill: none; stroke: #000000; stroke-width: 0.8; stroke-linejoin: miter; stroke-linecap: square"/>
   </g>
   <g id="patch_6">
    <path d="M 57.809063 20.24 
L 491.789062 20.24 
" style="fill: none; stroke: #000000; stroke-width: 0.8; stroke-linejoin: miter; stroke-linecap: square"/>
   </g>
   <g id="text_13">
    <!-- $|0_L\rangle$ -->
    <g style="fill: #e41a1c" transform="translate(422.706532 301.312375) scale(0.11 -0.11)">
     <defs>
      <path id="Cmsy10-6a" d="M 763 -1484 
L 763 4684 
Q 763 4734 800 4767 
Q 838 4800 891 4800 
Q 938 4800 978 4767 
Q 1019 4734 1019 4684 
L 1019 -1484 
Q 1019 -1534 978 -1567 
Q 938 -1600 891 -1600 
Q 838 -1600 800 -1567 
Q 763 -1534 763 -1484 
z
" transform="scale(0.015625)"/>
      <path id="Cmr10-30" d="M 1600 -141 
Q 816 -141 533 504 
Q 250 1150 250 2041 
Q 250 2597 351 3087 
Q 453 3578 754 3920 
Q 1056 4263 1600 4263 
Q 2022 4263 2290 4056 
Q 2559 3850 2700 3523 
Q 2841 3197 2892 2823 
Q 2944 2450 2944 2041 
Q 2944 1491 2842 1011 
Q 2741 531 2444 195 
Q 2147 -141 1600 -141 
z
M 1600 25 
Q 1956 25 2131 390 
Q 2306 756 2347 1200 
Q 2388 1644 2388 2144 
Q 2388 2625 2347 3031 
Q 2306 3438 2132 3767 
Q 1959 4097 1600 4097 
Q 1238 4097 1063 3765 
Q 888 3434 847 3029 
Q 806 2625 806 2144 
Q 806 1788 823 1472 
Q 841 1156 916 820 
Q 991 484 1158 254 
Q 1325 25 1600 25 
z
" transform="scale(0.015625)"/>
      <path id="Cmmi10-4c" d="M 300 0 
Q 238 0 238 84 
Q 241 100 250 139 
Q 259 178 276 201 
Q 294 225 319 225 
Q 709 225 863 269 
Q 947 297 984 441 
L 1863 3956 
Q 1875 4019 1875 4044 
Q 1875 4113 1797 4122 
Q 1678 4147 1338 4147 
Q 1275 4147 1275 4231 
Q 1297 4313 1309 4342 
Q 1322 4372 1381 4372 
L 3272 4372 
Q 3328 4372 3328 4288 
Q 3319 4222 3306 4184 
Q 3294 4147 3244 4147 
Q 2772 4147 2613 4116 
Q 2456 4088 2419 3928 
L 1544 416 
Q 1516 338 1516 275 
Q 1516 225 1734 225 
L 2328 225 
Q 2831 225 3143 425 
Q 3456 625 3606 876 
Q 3756 1128 3857 1398 
Q 3959 1669 4006 1678 
L 4063 1678 
Q 4128 1678 4128 1594 
L 3559 44 
Q 3550 0 3500 0 
L 300 0 
z
" transform="scale(0.015625)"/>
      <path id="Cmex10-ae" d="M 500 -7297 
Q 500 -7263 513 -7250 
L 2119 -3584 
L 513 84 
Q 500 97 500 128 
Q 500 175 537 215 
Q 575 256 628 256 
Q 703 256 750 178 
L 2381 -3541 
Q 2388 -3553 2388 -3584 
Q 2388 -3616 2381 -3634 
L 750 -7347 
Q 700 -7425 628 -7425 
Q 575 -7425 537 -7384 
Q 500 -7344 500 -7297 
z
" transform="scale(0.015625)"/>
     </defs>
     <use xlink:href="#Cmsy10-6a" transform="translate(0 0.658854)"/>
     <use xlink:href="#Cmr10-30" transform="translate(27.685547 0.658854)"/>
     <use xlink:href="#Cmmi10-4c" transform="translate(82.149687 -16.347396) scale(0.7)"/>
     <use xlink:href="#Cmex10-ae" transform="translate(136.139336 94)"/>
    </g>
   </g>
   <g id="text_14">
    <!-- $|1_L\rangle$ -->
    <g style="fill: #377eb8" transform="translate(422.706532 366.5025) scale(0.11 -0.11)">
     <defs>
      <path id="Cmr10-31" d="M 594 0 
L 594 225 
Q 1394 225 1394 428 
L 1394 3788 
Q 1063 3628 556 3628 
L 556 3853 
Q 1341 3853 1741 4263 
L 1831 4263 
Q 1853 4263 1873 4245 
Q 1894 4228 1894 4206 
L 1894 428 
Q 1894 225 2694 225 
L 2694 0 
L 594 0 
z
" transform="scale(0.015625)"/>
     </defs>
     <use xlink:href="#Cmsy10-6a" transform="translate(0 0.658854)"/>
     <use xlink:href="#Cmr10-31" transform="translate(27.685547 0.658854)"/>
     <use xlink:href="#Cmmi10-4c" transform="translate(82.149687 -16.347396) scale(0.7)"/>
     <use xlink:href="#Cmex10-ae" transform="translate(136.139336 94)"/>
    </g>
   </g>
   <g id="text_15">
    <!-- $|010\rangle$ -->
    <g style="fill: #666666; opacity: 0.8" transform="translate(422.706532 235.392562) scale(0.09 -0.09)">
     <use xlink:href="#Cmsy10-6a" transform="translate(0 0.658854)"/>
     <use xlink:href="#Cmr10-30" transform="translate(27.685547 0.658854)"/>
     <use xlink:href="#Cmr10-31" transform="translate(77.685547 0.658854)"/>
     <use xlink:href="#Cmr10-30" transform="translate(127.685547 0.658854)"/>
     <use xlink:href="#Cmex10-ae" transform="translate(177.685547 94)"/>
    </g>
   </g>
   <g id="text_16">
    <!-- $|011\rangle$ -->
    <g style="fill: #666666; opacity: 0.8" transform="translate(422.706532 227.569766) scale(0.09 -0.09)">
     <use xlink:href="#Cmsy10-6a" transform="translate(0 0.658854)"/>
     <use xlink:href="#Cmr10-30" transform="translate(27.685547 0.658854)"/>
     <use xlink:href="#Cmr10-31" transform="translate(77.685547 0.658854)"/>
     <use xlink:href="#Cmr10-31" transform="translate(127.685547 0.658854)"/>
     <use xlink:href="#Cmex10-ae" transform="translate(177.685547 94)"/>
    </g>
   </g>
   <g id="text_17">
    <!-- $|100\rangle$ -->
    <g style="fill: #666666; opacity: 0.8" transform="translate(422.706532 170.202438) scale(0.09 -0.09)">
     <use xlink:href="#Cmsy10-6a" transform="translate(0 0.658854)"/>
     <use xlink:href="#Cmr10-31" transform="translate(27.685547 0.658854)"/>
     <use xlink:href="#Cmr10-30" transform="translate(77.685547 0.658854)"/>
     <use xlink:href="#Cmr10-30" transform="translate(127.685547 0.658854)"/>
     <use xlink:href="#Cmex10-ae" transform="translate(177.685547 94)"/>
    </g>
   </g>
   <g id="text_18">
    <!-- $|101\rangle$ -->
    <g style="fill: #666666; opacity: 0.8" transform="translate(422.706532 162.379641) scale(0.09 -0.09)">
     <use xlink:href="#Cmsy10-6a" transform="translate(0 0.658854)"/>
     <use xlink:href="#Cmr10-31" transform="translate(27.685547 0.658854)"/>
     <use xlink:href="#Cmr10-30" transform="translate(77.685547 0.658854)"/>
     <use xlink:href="#Cmr10-31" transform="translate(127.685547 0.658854)"/>
     <use xlink:href="#Cmex10-ae" transform="translate(177.685547 94)"/>
    </g>
   </g>
   <g id="text_19">
    <!-- $|110\rangle$ -->
    <g style="fill: #666666; opacity: 0.8" transform="translate(422.706532 105.012625) scale(0.09 -0.09)">
     <use xlink:href="#Cmsy10-6a" transform="translate(0 0.658854)"/>
     <use xlink:href="#Cmr10-31" transform="translate(27.685547 0.658854)"/>
     <use xlink:href="#Cmr10-31" transform="translate(77.685547 0.658854)"/>
     <use xlink:href="#Cmr10-30" transform="translate(127.685547 0.658854)"/>
     <use xlink:href="#Cmex10-ae" transform="translate(177.685547 94)"/>
    </g>
   </g>
   <g id="text_20">
    <!-- $|111\rangle$ -->
    <g style="fill: #666666; opacity: 0.8" transform="translate(422.706532 39.8225) scale(0.09 -0.09)">
     <use xlink:href="#Cmsy10-6a" transform="translate(0 0.658854)"/>
     <use xlink:href="#Cmr10-31" transform="translate(27.685547 0.658854)"/>
     <use xlink:href="#Cmr10-31" transform="translate(77.685547 0.658854)"/>
     <use xlink:href="#Cmr10-31" transform="translate(127.685547 0.658854)"/>
     <use xlink:href="#Cmex10-ae" transform="translate(177.685547 94)"/>
    </g>
   </g>
   <g id="text_21">
    <g id="patch_7">
     <path d="M 70.828463 45.73635 
L 137.158463 45.73635 
Q 140.458462 45.73635 140.458462 42.43635 
L 140.458462 30.99635 
Q 140.458462 27.69635 137.158463 27.69635 
L 70.828463 27.69635 
Q 67.528463 27.69635 67.528463 30.99635 
L 67.528463 42.43635 
Q 67.528463 45.73635 70.828463 45.73635 
z
" style="fill: #ffffff; opacity: 0.9; stroke: #808080; stroke-linejoin: miter"/>
    </g>
    <!-- $E_p = 50$ MHz -->
    <g transform="translate(70.828463 39.02635) scale(0.11 -0.11)">
     <defs>
      <path id="Cmmi10-45" d="M 300 0 
Q 238 0 238 84 
Q 241 100 250 139 
Q 259 178 276 201 
Q 294 225 319 225 
Q 709 225 863 269 
Q 947 297 984 441 
L 1863 3956 
Q 1875 4019 1875 4044 
Q 1875 4113 1797 4122 
Q 1678 4147 1338 4147 
Q 1275 4147 1275 4231 
Q 1278 4247 1287 4286 
Q 1297 4325 1314 4348 
Q 1331 4372 1356 4372 
L 4825 4372 
Q 4891 4372 4891 4288 
L 4738 2963 
Q 4738 2947 4714 2926 
Q 4691 2906 4672 2906 
L 4616 2906 
Q 4550 2906 4550 2988 
Q 4588 3300 4588 3450 
Q 4588 3706 4500 3848 
Q 4413 3991 4267 4053 
Q 4122 4116 3945 4131 
Q 3769 4147 3481 4147 
L 2753 4147 
Q 2578 4147 2522 4117 
Q 2466 4088 2419 3928 
L 2034 2381 
L 2534 2381 
Q 2859 2381 3025 2426 
Q 3191 2472 3287 2615 
Q 3384 2759 3463 3072 
Q 3469 3094 3486 3111 
Q 3503 3128 3525 3128 
L 3584 3128 
Q 3647 3128 3647 3047 
L 3250 1466 
Q 3238 1409 3188 1409 
L 3128 1409 
Q 3066 1409 3066 1491 
Q 3128 1747 3128 1869 
Q 3128 2056 2959 2106 
Q 2791 2156 2509 2156 
L 1978 2156 
L 1544 416 
Q 1516 338 1516 275 
Q 1516 225 1734 225 
L 2509 225 
Q 2972 225 3259 297 
Q 3547 369 3736 526 
Q 3925 684 4062 928 
Q 4200 1172 4397 1638 
Q 4409 1678 4453 1678 
L 4513 1678 
Q 4538 1678 4556 1656 
Q 4575 1634 4575 1606 
Q 4575 1594 4569 1581 
L 3909 38 
Q 3897 0 3859 0 
L 300 0 
z
" transform="scale(0.015625)"/>
      <path id="Cmmi10-70" d="M -159 -1241 
Q -219 -1241 -219 -1159 
Q -197 -1019 -134 -1019 
Q 66 -1019 145 -983 
Q 225 -947 269 -800 
L 991 2081 
Q 1038 2200 1038 2388 
Q 1038 2663 850 2663 
Q 650 2663 553 2423 
Q 456 2184 366 1819 
Q 366 1778 313 1778 
L 238 1778 
Q 222 1778 203 1801 
Q 184 1825 184 1844 
Q 253 2122 317 2315 
Q 381 2509 517 2668 
Q 653 2828 856 2828 
Q 1075 2828 1240 2704 
Q 1406 2581 1453 2369 
Q 1628 2572 1840 2700 
Q 2053 2828 2278 2828 
Q 2547 2828 2745 2684 
Q 2944 2541 3044 2308 
Q 3144 2075 3144 1806 
Q 3144 1394 2933 953 
Q 2722 513 2361 220 
Q 2000 -72 1588 -72 
Q 1400 -72 1248 34 
Q 1097 141 1013 313 
L 722 -825 
Q 706 -919 703 -934 
Q 703 -1019 1125 -1019 
Q 1191 -1019 1191 -1100 
Q 1169 -1184 1155 -1212 
Q 1141 -1241 1081 -1241 
L -159 -1241 
z
M 1594 97 
Q 1816 97 2006 280 
Q 2197 463 2316 691 
Q 2403 863 2479 1111 
Q 2556 1359 2612 1640 
Q 2669 1922 2669 2088 
Q 2669 2234 2630 2362 
Q 2591 2491 2502 2577 
Q 2413 2663 2266 2663 
Q 2031 2663 1823 2495 
Q 1616 2328 1447 2081 
L 1447 2059 
L 1094 647 
Q 1138 419 1263 258 
Q 1388 97 1594 97 
z
" transform="scale(0.015625)"/>
      <path id="Cmr10-3d" d="M 481 850 
Q 428 850 393 890 
Q 359 931 359 978 
Q 359 1031 393 1068 
Q 428 1106 481 1106 
L 4500 1106 
Q 4547 1106 4581 1068 
Q 4616 1031 4616 978 
Q 4616 931 4581 890 
Q 4547 850 4500 850 
L 481 850 
z
M 481 2094 
Q 428 2094 393 2131 
Q 359 2169 359 2222 
Q 359 2269 393 2309 
Q 428 2350 481 2350 
L 4500 2350 
Q 4547 2350 4581 2309 
Q 4616 2269 4616 2222 
Q 4616 2169 4581 2131 
Q 4547 2094 4500 2094 
L 481 2094 
z
" transform="scale(0.015625)"/>
      <path id="Cmr10-35" d="M 556 728 
Q 622 541 758 387 
Q 894 234 1080 148 
Q 1266 63 1466 63 
Q 1928 63 2103 422 
Q 2278 781 2278 1294 
Q 2278 1516 2270 1667 
Q 2263 1819 2228 1959 
Q 2169 2184 2020 2353 
Q 1872 2522 1656 2522 
Q 1441 2522 1286 2456 
Q 1131 2391 1034 2303 
Q 938 2216 863 2119 
Q 788 2022 769 2016 
L 697 2016 
Q 681 2016 657 2036 
Q 634 2056 634 2075 
L 634 4213 
Q 634 4228 654 4245 
Q 675 4263 697 4263 
L 716 4263 
Q 1147 4056 1631 4056 
Q 2106 4056 2547 4263 
L 2566 4263 
Q 2588 4263 2606 4247 
Q 2625 4231 2625 4213 
L 2625 4153 
Q 2625 4122 2613 4122 
Q 2394 3831 2064 3668 
Q 1734 3506 1381 3506 
Q 1125 3506 856 3578 
L 856 2369 
Q 1069 2541 1236 2614 
Q 1403 2688 1663 2688 
Q 2016 2688 2295 2484 
Q 2575 2281 2725 1954 
Q 2875 1628 2875 1288 
Q 2875 903 2686 575 
Q 2497 247 2172 53 
Q 1847 -141 1466 -141 
Q 1150 -141 886 21 
Q 622 184 470 459 
Q 319 734 319 1044 
Q 319 1188 412 1278 
Q 506 1369 647 1369 
Q 788 1369 883 1276 
Q 978 1184 978 1044 
Q 978 906 883 811 
Q 788 716 647 716 
Q 625 716 597 720 
Q 569 725 556 728 
z
" transform="scale(0.015625)"/>
     </defs>
     <use xlink:href="#Cmmi10-45" transform="translate(0 0.09375)"/>
     <use xlink:href="#Cmmi10-70" transform="translate(73.779297 -16.9125) scale(0.7)"/>
     <use xlink:href="#Cmr10-3d" transform="translate(132.920312 0.09375)"/>
     <use xlink:href="#Cmr10-35" transform="translate(228.164453 0.09375)"/>
     <use xlink:href="#Cmr10-30" transform="translate(278.164453 0.09375)"/>
     <use xlink:href="#DejaVuSerif-20" transform="translate(328.164453 0.09375)"/>
     <use xlink:href="#DejaVuSerif-4d" transform="translate(359.951563 0.09375)"/>
     <use xlink:href="#DejaVuSerif-48" transform="translate(462.344141 0.09375)"/>
     <use xlink:href="#DejaVuSerif-7a" transform="translate(549.551172 0.09375)"/>
    </g>
   </g>
   <g id="text_22">
    <!-- (a) Repetition $[[3,1,3]]$ -->
    <g transform="translate(199.199062 14.24) scale(0.14 -0.14)">
     <defs>
      <path id="DejaVuSerif-28" d="M 2041 -997 
Q 1281 -656 893 83 
Q 506 822 506 1931 
Q 506 3044 893 3783 
Q 1281 4522 2041 4863 
L 2041 4556 
Q 1559 4225 1350 3623 
Q 1141 3022 1141 1931 
Q 1141 844 1350 242 
Q 1559 -359 2041 -691 
L 2041 -997 
z
" transform="scale(0.015625)"/>
      <path id="DejaVuSerif-61" d="M 2547 1044 
L 2547 1747 
L 1806 1747 
Q 1378 1747 1168 1562 
Q 959 1378 959 997 
Q 959 650 1171 447 
Q 1384 244 1747 244 
Q 2106 244 2326 466 
Q 2547 688 2547 1044 
z
M 3122 2075 
L 3122 331 
L 3634 331 
L 3634 0 
L 2547 0 
L 2547 359 
Q 2356 128 2106 18 
Q 1856 -91 1522 -91 
Q 969 -91 644 203 
Q 319 497 319 997 
Q 319 1513 691 1797 
Q 1063 2081 1741 2081 
L 2547 2081 
L 2547 2309 
Q 2547 2688 2317 2895 
Q 2088 3103 1672 3103 
Q 1328 3103 1125 2947 
Q 922 2791 872 2484 
L 575 2484 
L 575 3156 
Q 875 3284 1158 3348 
Q 1441 3413 1709 3413 
Q 2400 3413 2761 3070 
Q 3122 2728 3122 2075 
z
" transform="scale(0.015625)"/>
      <path id="DejaVuSerif-29" d="M 453 -997 
L 453 -691 
Q 934 -359 1145 242 
Q 1356 844 1356 1931 
Q 1356 3022 1145 3623 
Q 934 4225 453 4556 
L 453 4863 
Q 1216 4522 1603 3783 
Q 1991 3044 1991 1931 
Q 1991 822 1603 83 
Q 1216 -656 453 -997 
z
" transform="scale(0.015625)"/>
      <path id="DejaVuSerif-52" d="M 3066 2316 
Q 3284 2256 3442 2114 
Q 3600 1972 3725 1716 
L 4403 331 
L 4972 331 
L 4972 0 
L 3872 0 
L 3144 1484 
Q 2934 1916 2759 2042 
Q 2584 2169 2278 2169 
L 1581 2169 
L 1581 331 
L 2241 331 
L 2241 0 
L 353 0 
L 353 331 
L 947 331 
L 947 4331 
L 353 4331 
L 353 4666 
L 2719 4666 
Q 3400 4666 3770 4341 
Q 4141 4016 4141 3419 
Q 4141 2938 3870 2661 
Q 3600 2384 3066 2316 
z
M 1581 2503 
L 2503 2503 
Q 2975 2503 3200 2726 
Q 3425 2950 3425 3419 
Q 3425 3888 3200 4109 
Q 2975 4331 2503 4331 
L 1581 4331 
L 1581 2503 
z
" transform="scale(0.015625)"/>
      <path id="DejaVuSerif-70" d="M 1313 1825 
L 1313 1497 
Q 1313 897 1542 583 
Q 1772 269 2209 269 
Q 2650 269 2876 622 
Q 3103 975 3103 1663 
Q 3103 2353 2876 2703 
Q 2650 3053 2209 3053 
Q 1772 3053 1542 2737 
Q 1313 2422 1313 1825 
z
M 738 2988 
L 184 2988 
L 184 3322 
L 1313 3322 
L 1313 2803 
Q 1481 3116 1742 3264 
Q 2003 3413 2388 3413 
Q 3000 3413 3387 2928 
Q 3775 2444 3775 1663 
Q 3775 881 3387 395 
Q 3000 -91 2388 -91 
Q 2003 -91 1742 57 
Q 1481 206 1313 519 
L 1313 -997 
L 1856 -997 
L 1856 -1331 
L 184 -1331 
L 184 -997 
L 738 -997 
L 738 2988 
z
" transform="scale(0.015625)"/>
      <path id="DejaVuSerif-74" d="M 691 2988 
L 184 2988 
L 184 3322 
L 691 3322 
L 691 4353 
L 1269 4353 
L 1269 3322 
L 2350 3322 
L 2350 2988 
L 1269 2988 
L 1269 878 
Q 1269 456 1350 337 
Q 1431 219 1650 219 
Q 1875 219 1978 351 
Q 2081 484 2088 781 
L 2522 781 
Q 2497 328 2275 118 
Q 2053 -91 1600 -91 
Q 1103 -91 897 129 
Q 691 350 691 878 
L 691 2988 
z
" transform="scale(0.015625)"/>
      <path id="DejaVuSerif-6f" d="M 1925 219 
Q 2388 219 2623 584 
Q 2859 950 2859 1663 
Q 2859 2375 2623 2739 
Q 2388 3103 1925 3103 
Q 1463 3103 1227 2739 
Q 991 2375 991 1663 
Q 991 950 1228 584 
Q 1466 219 1925 219 
z
M 1925 -91 
Q 1200 -91 759 389 
Q 319 869 319 1663 
Q 319 2456 758 2934 
Q 1197 3413 1925 3413 
Q 2653 3413 3092 2934 
Q 3531 2456 3531 1663 
Q 3531 869 3092 389 
Q 2653 -91 1925 -91 
z
" transform="scale(0.015625)"/>
      <path id="Cmr10-5b" d="M 756 -1600 
L 756 4800 
L 1631 4800 
L 1631 4544 
L 1013 4544 
L 1013 -1344 
L 1631 -1344 
L 1631 -1600 
L 756 -1600 
z
" transform="scale(0.015625)"/>
      <path id="Cmr10-33" d="M 609 494 
Q 759 275 1012 169 
Q 1266 63 1556 63 
Q 1928 63 2084 380 
Q 2241 697 2241 1100 
Q 2241 1281 2208 1462 
Q 2175 1644 2097 1800 
Q 2019 1956 1883 2050 
Q 1747 2144 1550 2144 
L 1125 2144 
Q 1069 2144 1069 2203 
L 1069 2259 
Q 1069 2309 1125 2309 
L 1478 2338 
Q 1703 2338 1851 2506 
Q 2000 2675 2069 2917 
Q 2138 3159 2138 3378 
Q 2138 3684 1994 3881 
Q 1850 4078 1556 4078 
Q 1313 4078 1091 3986 
Q 869 3894 738 3706 
Q 750 3709 759 3711 
Q 769 3713 781 3713 
Q 925 3713 1022 3613 
Q 1119 3513 1119 3372 
Q 1119 3234 1022 3134 
Q 925 3034 781 3034 
Q 641 3034 541 3134 
Q 441 3234 441 3372 
Q 441 3647 606 3850 
Q 772 4053 1033 4158 
Q 1294 4263 1556 4263 
Q 1750 4263 1965 4205 
Q 2181 4147 2356 4039 
Q 2531 3931 2642 3762 
Q 2753 3594 2753 3378 
Q 2753 3109 2633 2881 
Q 2513 2653 2303 2487 
Q 2094 2322 1844 2241 
Q 2122 2188 2372 2031 
Q 2622 1875 2773 1631 
Q 2925 1388 2925 1106 
Q 2925 753 2731 467 
Q 2538 181 2222 20 
Q 1906 -141 1556 -141 
Q 1256 -141 954 -26 
Q 653 88 461 316 
Q 269 544 269 863 
Q 269 1022 375 1128 
Q 481 1234 641 1234 
Q 744 1234 830 1186 
Q 916 1138 964 1050 
Q 1013 963 1013 863 
Q 1013 706 903 600 
Q 794 494 641 494 
L 609 494 
z
" transform="scale(0.015625)"/>
      <path id="Cmmi10-3b" d="M 634 -1153 
Q 634 -1125 659 -1100 
Q 891 -878 1019 -587 
Q 1147 -297 1147 25 
L 1147 103 
Q 1044 0 891 0 
Q 744 0 641 103 
Q 538 206 538 353 
Q 538 503 641 603 
Q 744 703 891 703 
Q 1119 703 1216 492 
Q 1313 281 1313 25 
Q 1313 -331 1170 -651 
Q 1028 -972 769 -1228 
Q 744 -1241 728 -1241 
Q 697 -1241 665 -1212 
Q 634 -1184 634 -1153 
z
" transform="scale(0.015625)"/>
      <path id="Cmr10-5d" d="M 141 -1600 
L 141 -1344 
L 763 -1344 
L 763 4544 
L 141 4544 
L 141 4800 
L 1019 4800 
L 1019 -1600 
L 141 -1600 
z
" transform="scale(0.015625)"/>
     </defs>
     <use xlink:href="#DejaVuSerif-28" transform="translate(0 0.015625)"/>
     <use xlink:href="#DejaVuSerif-61" transform="translate(39.013672 0.015625)"/>
     <use xlink:href="#DejaVuSerif-29" transform="translate(98.632812 0.015625)"/>
     <use xlink:href="#DejaVuSerif-20" transform="translate(137.646484 0.015625)"/>
     <use xlink:href="#DejaVuSerif-52" transform="translate(169.433594 0.015625)"/>
     <use xlink:href="#DejaVuSerif-65" transform="translate(244.726562 0.015625)"/>
     <use xlink:href="#DejaVuSerif-70" transform="translate(303.90625 0.015625)"/>
     <use xlink:href="#DejaVuSerif-65" transform="translate(367.919922 0.015625)"/>
     <use xlink:href="#DejaVuSerif-74" transform="translate(427.099609 0.015625)"/>
     <use xlink:href="#DejaVuSerif-69" transform="translate(467.285156 0.015625)"/>
     <use xlink:href="#DejaVuSerif-74" transform="translate(499.267578 0.015625)"/>
     <use xlink:href="#DejaVuSerif-69" transform="translate(539.453125 0.015625)"/>
     <use xlink:href="#DejaVuSerif-6f" transform="translate(571.435547 0.015625)"/>
     <use xlink:href="#DejaVuSerif-6e" transform="translate(631.640625 0.015625)"/>
     <use xlink:href="#DejaVuSerif-20" transform="translate(696.044922 0.015625)"/>
     <use xlink:href="#Cmr10-5b" transform="translate(727.832031 0.015625)"/>
     <use xlink:href="#Cmr10-5b" transform="translate(755.517578 0.015625)"/>
     <use xlink:href="#Cmr10-33" transform="translate(783.203125 0.015625)"/>
     <use xlink:href="#Cmmi10-3b" transform="translate(833.203125 0.015625)"/>
     <use xlink:href="#Cmr10-31" transform="translate(878.447266 0.015625)"/>
     <use xlink:href="#Cmmi10-3b" transform="translate(928.447266 0.015625)"/>
     <use xlink:href="#Cmr10-33" transform="translate(973.691406 0.015625)"/>
     <use xlink:href="#Cmr10-5d" transform="translate(1023.691406 0.015625)"/>
     <use xlink:href="#Cmr10-5d" transform="translate(1051.376953 0.015625)"/>
    </g>
   </g>
   <g id="line2d_21">
    <path d="M 57.809063 232.107562 
L 117.32632 221.266036 
L 129.725748 219.23465 
L 137.873944 218.110479 
L 144.250793 217.438249 
L 149.919103 217.061291 
L 154.878875 216.94901 
L 159.484377 217.057899 
L 164.089879 217.391032 
L 168.695381 217.954271 
L 173.300883 218.739146 
L 178.260654 219.806561 
L 183.928965 221.255115 
L 191.722891 223.504152 
L 206.956475 227.956014 
L 212.979054 229.451943 
L 218.293095 230.541954 
L 223.252867 231.322161 
L 227.858369 231.815936 
L 232.109601 232.060594 
L 236.360834 232.095753 
L 240.612067 231.920478 
L 245.217569 231.49867 
L 249.823071 230.848645 
L 254.782842 229.916897 
L 260.096883 228.689976 
L 266.473732 226.977693 
L 276.039005 224.143063 
L 286.312818 221.158776 
L 292.335397 219.64138 
L 297.295169 218.604713 
L 301.900671 217.852814 
L 306.506173 217.324788 
L 311.111675 217.026882 
L 315.717177 216.951132 
L 320.676948 217.094936 
L 325.990989 217.469381 
L 332.367838 218.154006 
L 340.161765 219.23465 
L 350.435577 220.900851 
L 367.440507 223.916531 
L 412.07845 232.107562 
L 412.07845 232.107562 
" clip-path="url(#p959ba9f654)" style="fill: none; stroke-dasharray: 3.7,1.6; stroke-dashoffset: 0; stroke: #666666; stroke-opacity: 0.7"/>
   </g>
   <g id="line2d_22">
    <path d="M 57.809063 232.107562 
L 117.32632 221.266036 
L 129.725748 219.23465 
L 137.873944 218.110479 
L 144.250793 217.438249 
L 149.919103 217.061291 
L 154.878875 216.94901 
L 159.484377 217.057899 
L 164.089879 217.391032 
L 168.695381 217.954271 
L 173.300883 218.739146 
L 178.260654 219.806561 
L 183.928965 221.255115 
L 191.722891 223.504152 
L 206.956475 227.956014 
L 212.979054 229.451943 
L 218.293095 230.541954 
L 223.252867 231.322161 
L 227.858369 231.815936 
L 232.109601 232.060594 
L 236.360834 232.095753 
L 240.612067 231.920478 
L 245.217569 231.49867 
L 249.823071 230.848645 
L 254.782842 229.916897 
L 260.096883 228.689976 
L 266.473732 226.977693 
L 276.039005 224.143063 
L 286.312818 221.158776 
L 292.335397 219.64138 
L 297.295169 218.604713 
L 301.900671 217.852814 
L 306.506173 217.324788 
L 311.111675 217.026882 
L 315.717177 216.951132 
L 320.676948 217.094936 
L 325.990989 217.469381 
L 332.367838 218.154006 
L 340.161765 219.23465 
L 350.435577 220.900851 
L 367.440507 223.916531 
L 412.07845 232.107562 
L 412.07845 232.107562 
" clip-path="url(#p959ba9f654)" style="fill: none; stroke-dasharray: 3.7,1.6; stroke-dashoffset: 0; stroke: #666666; stroke-opacity: 0.7"/>
   </g>
   <g id="line2d_23">
    <path d="M 57.809063 166.917438 
L 117.32632 177.758964 
L 129.725748 179.79035 
L 137.873944 180.914521 
L 144.250793 181.586751 
L 149.919103 181.963709 
L 154.878875 182.07599 
L 159.484377 181.967101 
L 164.089879 181.633968 
L 168.695381 181.070729 
L 173.300883 180.285854 
L 178.260654 179.218439 
L 183.928965 177.769885 
L 191.722891 175.520848 
L 206.956475 171.068986 
L 212.979054 169.573057 
L 218.293095 168.483046 
L 223.252867 167.702839 
L 227.858369 167.209064 
L 232.109601 166.964406 
L 236.360834 166.929247 
L 240.612067 167.104522 
L 245.217569 167.52633 
L 249.823071 168.176355 
L 254.782842 169.108103 
L 260.096883 170.335024 
L 266.473732 172.047307 
L 276.039005 174.881937 
L 286.312818 177.866224 
L 292.335397 179.38362 
L 297.295169 180.420287 
L 301.900671 181.172186 
L 306.506173 181.700212 
L 311.111675 181.998118 
L 315.717177 182.073868 
L 320.676948 181.930064 
L 325.990989 181.555619 
L 332.367838 180.870994 
L 340.161765 179.79035 
L 350.435577 178.124149 
L 367.440507 175.108469 
L 412.07845 166.917438 
L 412.07845 166.917438 
" clip-path="url(#p959ba9f654)" style="fill: none; stroke-dasharray: 3.7,1.6; stroke-dashoffset: 0; stroke: #666666; stroke-opacity: 0.7"/>
   </g>
   <g id="line2d_24">
    <path d="M 57.809063 166.917438 
L 117.32632 177.758964 
L 129.725748 179.79035 
L 137.873944 180.914521 
L 144.250793 181.586751 
L 149.919103 181.963709 
L 154.878875 182.07599 
L 159.484377 181.967101 
L 164.089879 181.633968 
L 168.695381 181.070729 
L 173.300883 180.285854 
L 178.260654 179.218439 
L 183.928965 177.769885 
L 191.722891 175.520848 
L 206.956475 171.068986 
L 212.979054 169.573057 
L 218.293095 168.483046 
L 223.252867 167.702839 
L 227.858369 167.209064 
L 232.109601 166.964406 
L 236.360834 166.929247 
L 240.612067 167.104522 
L 245.217569 167.52633 
L 249.823071 168.176355 
L 254.782842 169.108103 
L 260.096883 170.335024 
L 266.473732 172.047307 
L 276.039005 174.881937 
L 286.312818 177.866224 
L 292.335397 179.38362 
L 297.295169 180.420287 
L 301.900671 181.172186 
L 306.506173 181.700212 
L 311.111675 181.998118 
L 315.717177 182.073868 
L 320.676948 181.930064 
L 325.990989 181.555619 
L 332.367838 180.870994 
L 340.161765 179.79035 
L 350.435577 178.124149 
L 367.440507 175.108469 
L 412.07845 166.917438 
L 412.07845 166.917438 
" clip-path="url(#p959ba9f654)" style="fill: none; stroke-dasharray: 3.7,1.6; stroke-dashoffset: 0; stroke: #666666; stroke-opacity: 0.7"/>
   </g>
   <g id="line2d_25">
    <path d="M 57.809063 101.727625 
L 117.32632 90.886099 
L 129.725748 88.854713 
L 137.873944 87.730541 
L 144.250793 87.058311 
L 149.919103 86.681354 
L 154.878875 86.569073 
L 159.484377 86.677961 
L 164.089879 87.011095 
L 168.695381 87.574334 
L 173.300883 88.359208 
L 178.260654 89.426623 
L 183.928965 90.875177 
L 191.722891 93.124214 
L 206.956475 97.576076 
L 212.979054 99.072005 
L 218.293095 100.162017 
L 223.252867 100.942223 
L 227.858369 101.435998 
L 232.109601 101.680656 
L 236.360834 101.715815 
L 240.612067 101.54054 
L 245.217569 101.118732 
L 249.823071 100.468707 
L 254.782842 99.536959 
L 260.096883 98.310038 
L 266.473732 96.597755 
L 276.039005 93.763126 
L 286.312818 90.778838 
L 292.335397 89.261443 
L 297.295169 88.224776 
L 301.900671 87.472876 
L 306.506173 86.944851 
L 311.111675 86.646944 
L 315.717177 86.571194 
L 320.676948 86.714998 
L 325.990989 87.089444 
L 332.367838 87.774068 
L 340.161765 88.854713 
L 350.435577 90.520914 
L 367.440507 93.536593 
L 412.07845 101.727625 
L 412.07845 101.727625 
" clip-path="url(#p959ba9f654)" style="fill: none; stroke-dasharray: 3.7,1.6; stroke-dashoffset: 0; stroke: #666666; stroke-opacity: 0.7"/>
   </g>
   <g id="line2d_26">
    <path d="M 57.809063 36.5375 
L 117.32632 47.379026 
L 129.725748 49.410412 
L 137.873944 50.534583 
L 144.250793 51.206813 
L 149.919103 51.583771 
L 154.878875 51.696052 
L 159.484377 51.587163 
L 164.089879 51.25403 
L 168.695381 50.690791 
L 173.300883 49.905917 
L 178.260654 48.838501 
L 183.928965 47.389948 
L 191.722891 45.140911 
L 206.956475 40.689049 
L 212.979054 39.19312 
L 218.293095 38.103108 
L 223.252867 37.322902 
L 227.858369 36.829127 
L 232.109601 36.584468 
L 236.360834 36.549309 
L 240.612067 36.724585 
L 245.217569 37.146392 
L 249.823071 37.796418 
L 254.782842 38.728166 
L 260.096883 39.955087 
L 266.473732 41.667369 
L 276.039005 44.501999 
L 286.312818 47.486286 
L 292.335397 49.003682 
L 297.295169 50.040349 
L 301.900671 50.792248 
L 306.506173 51.320274 
L 311.111675 51.618181 
L 315.717177 51.693931 
L 320.676948 51.550127 
L 325.990989 51.175681 
L 332.367838 50.491057 
L 340.161765 49.410412 
L 350.435577 47.744211 
L 367.440507 44.728532 
L 412.07845 36.5375 
L 412.07845 36.5375 
" clip-path="url(#p959ba9f654)" style="fill: none; stroke-dasharray: 3.7,1.6; stroke-dashoffset: 0; stroke: #666666; stroke-opacity: 0.7"/>
   </g>
   <g id="line2d_27">
    <path d="M 57.809063 362.4875 
L 117.32632 351.645974 
L 129.725748 349.614588 
L 137.873944 348.490417 
L 144.250793 347.818187 
L 149.919103 347.441229 
L 154.878875 347.328948 
L 159.484377 347.437837 
L 164.089879 347.77097 
L 168.695381 348.334209 
L 173.300883 349.119083 
L 178.260654 350.186499 
L 183.928965 351.635052 
L 191.722891 353.884089 
L 206.956475 358.335951 
L 212.979054 359.83188 
L 218.293095 360.921892 
L 223.252867 361.702098 
L 227.858369 362.195873 
L 232.109601 362.440532 
L 234.943756 362.487422 
M 235.652295 297.300387 
L 239.903528 297.440763 
L 244.50903 297.826104 
L 249.114532 298.44217 
L 254.074303 299.341379 
L 259.388344 300.539416 
L 265.410924 302.127611 
L 273.913389 304.620874 
L 286.312818 308.246162 
L 292.335397 309.763557 
L 297.295169 310.800224 
L 301.900671 311.552124 
L 306.506173 312.080149 
L 311.111675 312.378056 
L 315.717177 312.453806 
L 320.676948 312.310002 
L 325.990989 311.935556 
L 332.367838 311.250932 
L 340.161765 310.170287 
L 350.435577 308.504086 
L 367.440507 305.488407 
L 412.07845 297.297375 
L 412.07845 297.297375 
" clip-path="url(#p959ba9f654)" style="fill: none; stroke: #e41a1c; stroke-width: 2.5; stroke-linecap: square"/>
   </g>
   <g id="line2d_28">
    <path d="M 57.809063 297.297375 
L 117.32632 308.138901 
L 129.725748 310.170287 
L 137.873944 311.294459 
L 144.250793 311.966689 
L 149.919103 312.343646 
L 154.878875 312.455927 
L 159.484377 312.347039 
L 164.089879 312.013905 
L 168.695381 311.450666 
L 173.300883 310.665792 
L 178.260654 309.598377 
L 183.928965 308.149823 
L 191.722891 305.900786 
L 206.956475 301.448924 
L 212.979054 299.952995 
L 218.293095 298.862983 
L 223.252867 298.082777 
L 227.858369 297.589002 
L 232.109601 297.344344 
L 234.943756 297.297453 
M 235.652295 362.484489 
L 239.903528 362.344112 
L 244.50903 361.958771 
L 249.114532 361.342705 
L 254.074303 360.443496 
L 259.388344 359.245459 
L 265.410924 357.657264 
L 273.913389 355.164001 
L 286.312818 351.538714 
L 292.335397 350.021318 
L 297.295169 348.984651 
L 301.900671 348.232752 
L 306.506173 347.704726 
L 311.111675 347.406819 
L 315.717177 347.331069 
L 320.676948 347.474873 
L 325.990989 347.849319 
L 332.367838 348.533943 
L 340.161765 349.614588 
L 350.435577 351.280789 
L 367.440507 354.296468 
L 412.07845 362.4875 
L 412.07845 362.4875 
" clip-path="url(#p959ba9f654)" style="fill: none; stroke: #377eb8; stroke-width: 2.5; stroke-linecap: square"/>
   </g>
  </g>
  <g id="axes_2">
   <g id="patch_8">
    <path d="M 556.409063 378.785 
L 990.389063 378.785 
L 990.389063 20.24 
L 556.409063 20.24 
z
" style="fill: #ffffff"/>
   </g>
   <g id="matplotlib.axis_3">
    <g id="xtick_6">
     <g id="line2d_29">
      <path d="M 556.409063 378.785 
L 556.409063 20.24 
" clip-path="url(#pc2ac9ab707)" style="fill: none; stroke-dasharray: 1.85,0.8; stroke-dashoffset: 0; stroke: #b0b0b0; stroke-opacity: 0.3; stroke-width: 0.5"/>
     </g>
     <g id="line2d_30">
      <g>
       <use xlink:href="#m4f2194bc30" x="556.409063" y="378.785" style="stroke: #000000; stroke-width: 0.8"/>
      </g>
     </g>
     <g id="text_23">
      <!-- 0 -->
      <g transform="translate(552.591563 391.403125) scale(0.12 -0.12)">
       <use xlink:href="#DejaVuSerif-30"/>
      </g>
     </g>
    </g>
    <g id="xtick_7">
     <g id="line2d_31">
      <path d="M 644.976409 378.785 
L 644.976409 20.24 
" clip-path="url(#pc2ac9ab707)" style="fill: none; stroke-dasharray: 1.85,0.8; stroke-dashoffset: 0; stroke: #b0b0b0; stroke-opacity: 0.3; stroke-width: 0.5"/>
     </g>
     <g id="line2d_32">
      <g>
       <use xlink:href="#m4f2194bc30" x="644.976409" y="378.785" style="stroke: #000000; stroke-width: 0.8"/>
      </g>
     </g>
     <g id="text_24">
      <!-- 1 -->
      <g transform="translate(641.158909 391.403125) scale(0.12 -0.12)">
       <use xlink:href="#DejaVuSerif-31"/>
      </g>
     </g>
    </g>
    <g id="xtick_8">
     <g id="line2d_33">
      <path d="M 733.543756 378.785 
L 733.543756 20.24 
" clip-path="url(#pc2ac9ab707)" style="fill: none; stroke-dasharray: 1.85,0.8; stroke-dashoffset: 0; stroke: #b0b0b0; stroke-opacity: 0.3; stroke-width: 0.5"/>
     </g>
     <g id="line2d_34">
      <g>
       <use xlink:href="#m4f2194bc30" x="733.543756" y="378.785" style="stroke: #000000; stroke-width: 0.8"/>
      </g>
     </g>
     <g id="text_25">
      <!-- 2 -->
      <g transform="translate(729.726256 391.403125) scale(0.12 -0.12)">
       <use xlink:href="#DejaVuSerif-32"/>
      </g>
     </g>
    </g>
    <g id="xtick_9">
     <g id="line2d_35">
      <path d="M 822.111103 378.785 
L 822.111103 20.24 
" clip-path="url(#pc2ac9ab707)" style="fill: none; stroke-dasharray: 1.85,0.8; stroke-dashoffset: 0; stroke: #b0b0b0; stroke-opacity: 0.3; stroke-width: 0.5"/>
     </g>
     <g id="line2d_36">
      <g>
       <use xlink:href="#m4f2194bc30" x="822.111103" y="378.785" style="stroke: #000000; stroke-width: 0.8"/>
      </g>
     </g>
     <g id="text_26">
      <!-- 3 -->
      <g transform="translate(818.293603 391.403125) scale(0.12 -0.12)">
       <use xlink:href="#DejaVuSerif-33"/>
      </g>
     </g>
    </g>
    <g id="xtick_10">
     <g id="line2d_37">
      <path d="M 910.67845 378.785 
L 910.67845 20.24 
" clip-path="url(#pc2ac9ab707)" style="fill: none; stroke-dasharray: 1.85,0.8; stroke-dashoffset: 0; stroke: #b0b0b0; stroke-opacity: 0.3; stroke-width: 0.5"/>
     </g>
     <g id="line2d_38">
      <g>
       <use xlink:href="#m4f2194bc30" x="910.67845" y="378.785" style="stroke: #000000; stroke-width: 0.8"/>
      </g>
     </g>
     <g id="text_27">
      <!-- 4 -->
      <g transform="translate(906.86095 391.403125) scale(0.12 -0.12)">
       <use xlink:href="#DejaVuSerif-34"/>
      </g>
     </g>
    </g>
    <g id="text_28">
     <!-- Time [$\mu$s] -->
     <g transform="translate(740.149063 408.53875) scale(0.14 -0.14)">
      <use xlink:href="#DejaVuSerif-54" transform="translate(0 0.015625)"/>
      <use xlink:href="#DejaVuSerif-69" transform="translate(66.699219 0.015625)"/>
      <use xlink:href="#DejaVuSerif-6d" transform="translate(98.681641 0.015625)"/>
      <use xlink:href="#DejaVuSerif-65" transform="translate(193.505859 0.015625)"/>
      <use xlink:href="#DejaVuSerif-20" transform="translate(252.685547 0.015625)"/>
      <use xlink:href="#DejaVuSerif-5b" transform="translate(284.472656 0.015625)"/>
      <use xlink:href="#Cmmi10-b9" transform="translate(323.486328 0.015625)"/>
      <use xlink:href="#DejaVuSerif-73" transform="translate(383.691406 0.015625)"/>
      <use xlink:href="#DejaVuSerif-5d" transform="translate(435.009766 0.015625)"/>
     </g>
    </g>
   </g>
   <g id="matplotlib.axis_4">
    <g id="ytick_6">
     <g id="line2d_39">
      <path d="M 556.409063 346.406155 
L 990.389063 346.406155 
" clip-path="url(#pc2ac9ab707)" style="fill: none; stroke-dasharray: 1.85,0.8; stroke-dashoffset: 0; stroke: #b0b0b0; stroke-opacity: 0.3; stroke-width: 0.5"/>
     </g>
     <g id="line2d_40">
      <g>
       <use xlink:href="#m2bb9919423" x="556.409063" y="346.406155" style="stroke: #000000; stroke-width: 0.8"/>
      </g>
     </g>
     <g id="text_29">
      <!-- −150 -->
      <g transform="translate(519.948437 350.965217) scale(0.12 -0.12)">
       <use xlink:href="#DejaVuSerif-2212"/>
       <use xlink:href="#DejaVuSerif-31" transform="translate(83.789062 0)"/>
       <use xlink:href="#DejaVuSerif-35" transform="translate(147.412109 0)"/>
       <use xlink:href="#DejaVuSerif-30" transform="translate(211.035156 0)"/>
      </g>
     </g>
    </g>
    <g id="ytick_7">
     <g id="line2d_41">
      <path d="M 556.409063 297.441603 
L 990.389063 297.441603 
" clip-path="url(#pc2ac9ab707)" style="fill: none; stroke-dasharray: 1.85,0.8; stroke-dashoffset: 0; stroke: #b0b0b0; stroke-opacity: 0.3; stroke-width: 0.5"/>
     </g>
     <g id="line2d_42">
      <g>
       <use xlink:href="#m2bb9919423" x="556.409063" y="297.441603" style="stroke: #000000; stroke-width: 0.8"/>
      </g>
     </g>
     <g id="text_30">
      <!-- −100 -->
      <g transform="translate(519.948437 302.000666) scale(0.12 -0.12)">
       <use xlink:href="#DejaVuSerif-2212"/>
       <use xlink:href="#DejaVuSerif-31" transform="translate(83.789062 0)"/>
       <use xlink:href="#DejaVuSerif-30" transform="translate(147.412109 0)"/>
       <use xlink:href="#DejaVuSerif-30" transform="translate(211.035156 0)"/>
      </g>
     </g>
    </g>
    <g id="ytick_8">
     <g id="line2d_43">
      <path d="M 556.409063 248.477052 
L 990.389063 248.477052 
" clip-path="url(#pc2ac9ab707)" style="fill: none; stroke-dasharray: 1.85,0.8; stroke-dashoffset: 0; stroke: #b0b0b0; stroke-opacity: 0.3; stroke-width: 0.5"/>
     </g>
     <g id="line2d_44">
      <g>
       <use xlink:href="#m2bb9919423" x="556.409063" y="248.477052" style="stroke: #000000; stroke-width: 0.8"/>
      </g>
     </g>
     <g id="text_31">
      <!-- −50 -->
      <g transform="translate(527.583438 253.036114) scale(0.12 -0.12)">
       <use xlink:href="#DejaVuSerif-2212"/>
       <use xlink:href="#DejaVuSerif-35" transform="translate(83.789062 0)"/>
       <use xlink:href="#DejaVuSerif-30" transform="translate(147.412109 0)"/>
      </g>
     </g>
    </g>
    <g id="ytick_9">
     <g id="line2d_45">
      <path d="M 556.409063 199.5125 
L 990.389063 199.5125 
" clip-path="url(#pc2ac9ab707)" style="fill: none; stroke-dasharray: 1.85,0.8; stroke-dashoffset: 0; stroke: #b0b0b0; stroke-opacity: 0.3; stroke-width: 0.5"/>
     </g>
     <g id="line2d_46">
      <g>
       <use xlink:href="#m2bb9919423" x="556.409063" y="199.5125" style="stroke: #000000; stroke-width: 0.8"/>
      </g>
     </g>
     <g id="text_32">
      <!-- 0 -->
      <g transform="translate(545.274063 204.071562) scale(0.12 -0.12)">
       <use xlink:href="#DejaVuSerif-30"/>
      </g>
     </g>
    </g>
    <g id="ytick_10">
     <g id="line2d_47">
      <path d="M 556.409063 150.547948 
L 990.389063 150.547948 
" clip-path="url(#pc2ac9ab707)" style="fill: none; stroke-dasharray: 1.85,0.8; stroke-dashoffset: 0; stroke: #b0b0b0; stroke-opacity: 0.3; stroke-width: 0.5"/>
     </g>
     <g id="line2d_48">
      <g>
       <use xlink:href="#m2bb9919423" x="556.409063" y="150.547948" style="stroke: #000000; stroke-width: 0.8"/>
      </g>
     </g>
     <g id="text_33">
      <!-- 50 -->
      <g transform="translate(537.639063 155.107011) scale(0.12 -0.12)">
       <use xlink:href="#DejaVuSerif-35"/>
       <use xlink:href="#DejaVuSerif-30" transform="translate(63.623047 0)"/>
      </g>
     </g>
    </g>
    <g id="ytick_11">
     <g id="line2d_49">
      <path d="M 556.409063 101.583397 
L 990.389063 101.583397 
" clip-path="url(#pc2ac9ab707)" style="fill: none; stroke-dasharray: 1.85,0.8; stroke-dashoffset: 0; stroke: #b0b0b0; stroke-opacity: 0.3; stroke-width: 0.5"/>
     </g>
     <g id="line2d_50">
      <g>
       <use xlink:href="#m2bb9919423" x="556.409063" y="101.583397" style="stroke: #000000; stroke-width: 0.8"/>
      </g>
     </g>
     <g id="text_34">
      <!-- 100 -->
      <g transform="translate(530.004063 106.142459) scale(0.12 -0.12)">
       <use xlink:href="#DejaVuSerif-31"/>
       <use xlink:href="#DejaVuSerif-30" transform="translate(63.623047 0)"/>
       <use xlink:href="#DejaVuSerif-30" transform="translate(127.246094 0)"/>
      </g>
     </g>
    </g>
    <g id="ytick_12">
     <g id="line2d_51">
      <path d="M 556.409063 52.618845 
L 990.389063 52.618845 
" clip-path="url(#pc2ac9ab707)" style="fill: none; stroke-dasharray: 1.85,0.8; stroke-dashoffset: 0; stroke: #b0b0b0; stroke-opacity: 0.3; stroke-width: 0.5"/>
     </g>
     <g id="line2d_52">
      <g>
       <use xlink:href="#m2bb9919423" x="556.409063" y="52.618845" style="stroke: #000000; stroke-width: 0.8"/>
      </g>
     </g>
     <g id="text_35">
      <!-- 150 -->
      <g transform="translate(530.004063 57.177908) scale(0.12 -0.12)">
       <use xlink:href="#DejaVuSerif-31"/>
       <use xlink:href="#DejaVuSerif-35" transform="translate(63.623047 0)"/>
       <use xlink:href="#DejaVuSerif-30" transform="translate(127.246094 0)"/>
      </g>
     </g>
    </g>
    <g id="text_36">
     <!-- Energy [MHz] -->
     <g transform="translate(512.837812 249.7025) rotate(-90) scale(0.14 -0.14)">
      <use xlink:href="#DejaVuSerif-45"/>
      <use xlink:href="#DejaVuSerif-6e" transform="translate(72.998047 0)"/>
      <use xlink:href="#DejaVuSerif-65" transform="translate(137.402344 0)"/>
      <use xlink:href="#DejaVuSerif-72" transform="translate(196.582031 0)"/>
      <use xlink:href="#DejaVuSerif-67" transform="translate(244.384766 0)"/>
      <use xlink:href="#DejaVuSerif-79" transform="translate(308.398438 0)"/>
      <use xlink:href="#DejaVuSerif-20" transform="translate(364.892578 0)"/>
      <use xlink:href="#DejaVuSerif-5b" transform="translate(396.679688 0)"/>
      <use xlink:href="#DejaVuSerif-4d" transform="translate(435.693359 0)"/>
      <use xlink:href="#DejaVuSerif-48" transform="translate(538.085938 0)"/>
      <use xlink:href="#DejaVuSerif-7a" transform="translate(625.292969 0)"/>
      <use xlink:href="#DejaVuSerif-5d" transform="translate(677.978516 0)"/>
     </g>
    </g>
   </g>
   <g id="patch_9">
    <path d="M 556.409063 378.785 
L 556.409063 20.24 
" style="fill: none; stroke: #000000; stroke-width: 0.8; stroke-linejoin: miter; stroke-linecap: square"/>
   </g>
   <g id="patch_10">
    <path d="M 990.389063 378.785 
L 990.389063 20.24 
" style="fill: none; stroke: #000000; stroke-width: 0.8; stroke-linejoin: miter; stroke-linecap: square"/>
   </g>
   <g id="patch_11">
    <path d="M 556.409063 378.785 
L 990.389062 378.785 
" style="fill: none; stroke: #000000; stroke-width: 0.8; stroke-linejoin: miter; stroke-linecap: square"/>
   </g>
   <g id="patch_12">
    <path d="M 556.409063 20.24 
L 990.389062 20.24 
" style="fill: none; stroke: #000000; stroke-width: 0.8; stroke-linejoin: miter; stroke-linecap: square"/>
   </g>
   <g id="text_37">
    <!-- $|0_L\rangle$ -->
    <g style="fill: #e41a1c" transform="translate(921.306532 317.537831) scale(0.11 -0.11)">
     <use xlink:href="#Cmsy10-6a" transform="translate(0 0.658854)"/>
     <use xlink:href="#Cmr10-30" transform="translate(27.685547 0.658854)"/>
     <use xlink:href="#Cmmi10-4c" transform="translate(82.149687 -16.347396) scale(0.7)"/>
     <use xlink:href="#Cmex10-ae" transform="translate(136.139336 94)"/>
    </g>
   </g>
   <g id="text_38">
    <!-- $|1_L\rangle$ -->
    <g style="fill: #377eb8" transform="translate(921.306532 366.5025) scale(0.11 -0.11)">
     <use xlink:href="#Cmsy10-6a" transform="translate(0 0.658854)"/>
     <use xlink:href="#Cmr10-31" transform="translate(27.685547 0.658854)"/>
     <use xlink:href="#Cmmi10-4c" transform="translate(82.149687 -16.347396) scale(0.7)"/>
     <use xlink:href="#Cmex10-ae" transform="translate(136.139336 94)"/>
    </g>
   </g>
   <g id="text_39">
    <!-- Error -->
    <g style="fill: #666666; opacity: 0.8" transform="translate(921.306532 176.675141) scale(0.09 -0.09)">
     <use xlink:href="#DejaVuSerif-45"/>
     <use xlink:href="#DejaVuSerif-72" transform="translate(72.998047 0)"/>
     <use xlink:href="#DejaVuSerif-72" transform="translate(120.800781 0)"/>
     <use xlink:href="#DejaVuSerif-6f" transform="translate(168.603516 0)"/>
     <use xlink:href="#DejaVuSerif-72" transform="translate(228.808594 0)"/>
    </g>
    <!-- states -->
    <g style="fill: #666666; opacity: 0.8" transform="translate(921.306532 186.753172) scale(0.09 -0.09)">
     <use xlink:href="#DejaVuSerif-73"/>
     <use xlink:href="#DejaVuSerif-74" transform="translate(51.318359 0)"/>
     <use xlink:href="#DejaVuSerif-61" transform="translate(91.503906 0)"/>
     <use xlink:href="#DejaVuSerif-74" transform="translate(151.123047 0)"/>
     <use xlink:href="#DejaVuSerif-65" transform="translate(191.308594 0)"/>
     <use xlink:href="#DejaVuSerif-73" transform="translate(250.488281 0)"/>
    </g>
   </g>
   <g id="text_40">
    <g id="patch_13">
     <path d="M 569.428463 45.73635 
L 635.758463 45.73635 
Q 639.058463 45.73635 639.058463 42.43635 
L 639.058463 30.99635 
Q 639.058463 27.69635 635.758463 27.69635 
L 569.428463 27.69635 
Q 566.128463 27.69635 566.128463 30.99635 
L 566.128463 42.43635 
Q 566.128463 45.73635 569.428463 45.73635 
z
" style="fill: #ffffff; opacity: 0.9; stroke: #808080; stroke-linejoin: miter"/>
    </g>
    <!-- $E_p = 50$ MHz -->
    <g transform="translate(569.428463 39.02635) scale(0.11 -0.11)">
     <use xlink:href="#Cmmi10-45" transform="translate(0 0.09375)"/>
     <use xlink:href="#Cmmi10-70" transform="translate(73.779297 -16.9125) scale(0.7)"/>
     <use xlink:href="#Cmr10-3d" transform="translate(132.920312 0.09375)"/>
     <use xlink:href="#Cmr10-35" transform="translate(228.164453 0.09375)"/>
     <use xlink:href="#Cmr10-30" transform="translate(278.164453 0.09375)"/>
     <use xlink:href="#DejaVuSerif-20" transform="translate(328.164453 0.09375)"/>
     <use xlink:href="#DejaVuSerif-4d" transform="translate(359.951563 0.09375)"/>
     <use xlink:href="#DejaVuSerif-48" transform="translate(462.344141 0.09375)"/>
     <use xlink:href="#DejaVuSerif-7a" transform="translate(549.551172 0.09375)"/>
    </g>
   </g>
   <g id="text_41">
    <!-- (b) Bacon-Shor $[[4,1,1,2]]$ -->
    <g transform="translate(686.529063 14.24) scale(0.14 -0.14)">
     <defs>
      <path id="DejaVuSerif-62" d="M 738 331 
L 738 4531 
L 184 4531 
L 184 4863 
L 1313 4863 
L 1313 2803 
Q 1481 3116 1742 3264 
Q 2003 3413 2388 3413 
Q 3000 3413 3387 2928 
Q 3775 2444 3775 1663 
Q 3775 881 3387 395 
Q 3000 -91 2388 -91 
Q 2003 -91 1742 57 
Q 1481 206 1313 519 
L 1313 0 
L 184 0 
L 184 331 
L 738 331 
z
M 1313 1497 
Q 1313 897 1542 583 
Q 1772 269 2209 269 
Q 2650 269 2876 622 
Q 3103 975 3103 1663 
Q 3103 2353 2876 2703 
Q 2650 3053 2209 3053 
Q 1772 3053 1542 2737 
Q 1313 2422 1313 1825 
L 1313 1497 
z
" transform="scale(0.015625)"/>
      <path id="DejaVuSerif-42" d="M 1581 331 
L 2516 331 
Q 3078 331 3337 575 
Q 3597 819 3597 1350 
Q 3597 1878 3339 2120 
Q 3081 2363 2516 2363 
L 1581 2363 
L 1581 331 
z
M 1581 2694 
L 2375 2694 
Q 2888 2694 3123 2891 
Q 3359 3088 3359 3513 
Q 3359 3941 3123 4136 
Q 2888 4331 2375 4331 
L 1581 4331 
L 1581 2694 
z
M 353 0 
L 353 331 
L 947 331 
L 947 4331 
L 353 4331 
L 353 4666 
L 2656 4666 
Q 3363 4666 3720 4377 
Q 4078 4088 4078 3513 
Q 4078 3097 3829 2850 
Q 3581 2603 3103 2547 
Q 3697 2472 4005 2167 
Q 4313 1863 4313 1350 
Q 4313 656 3875 328 
Q 3438 0 2509 0 
L 353 0 
z
" transform="scale(0.015625)"/>
      <path id="DejaVuSerif-63" d="M 3291 997 
Q 3169 466 2822 187 
Q 2475 -91 1925 -91 
Q 1200 -91 759 389 
Q 319 869 319 1663 
Q 319 2459 759 2936 
Q 1200 3413 1925 3413 
Q 2241 3413 2553 3339 
Q 2866 3266 3181 3116 
L 3181 2266 
L 2847 2266 
Q 2781 2703 2561 2903 
Q 2341 3103 1931 3103 
Q 1466 3103 1228 2742 
Q 991 2381 991 1663 
Q 991 944 1227 581 
Q 1463 219 1931 219 
Q 2303 219 2525 412 
Q 2747 606 2828 997 
L 3291 997 
z
" transform="scale(0.015625)"/>
      <path id="DejaVuSerif-2d" d="M 281 1959 
L 1881 1959 
L 1881 1472 
L 281 1472 
L 281 1959 
z
" transform="scale(0.015625)"/>
      <path id="DejaVuSerif-53" d="M 594 225 
L 594 1288 
L 953 1284 
Q 969 753 1261 498 
Q 1553 244 2150 244 
Q 2706 244 2998 464 
Q 3291 684 3291 1106 
Q 3291 1444 3114 1625 
Q 2938 1806 2369 1978 
L 1753 2163 
Q 1084 2366 811 2669 
Q 538 2972 538 3500 
Q 538 4094 959 4422 
Q 1381 4750 2144 4750 
Q 2469 4750 2856 4679 
Q 3244 4609 3681 4475 
L 3681 3481 
L 3328 3481 
Q 3275 3975 2998 4195 
Q 2722 4416 2156 4416 
Q 1663 4416 1405 4214 
Q 1147 4013 1147 3628 
Q 1147 3294 1340 3103 
Q 1534 2913 2163 2725 
L 2741 2553 
Q 3375 2363 3645 2067 
Q 3916 1772 3916 1275 
Q 3916 597 3481 253 
Q 3047 -91 2188 -91 
Q 1803 -91 1404 -12 
Q 1006 66 594 225 
z
" transform="scale(0.015625)"/>
      <path id="DejaVuSerif-68" d="M 263 0 
L 263 331 
L 781 331 
L 781 4531 
L 231 4531 
L 231 4863 
L 1356 4863 
L 1356 2731 
Q 1516 3069 1770 3241 
Q 2025 3413 2363 3413 
Q 2913 3413 3172 3097 
Q 3431 2781 3431 2113 
L 3431 331 
L 3944 331 
L 3944 0 
L 2356 0 
L 2356 331 
L 2853 331 
L 2853 1931 
Q 2853 2541 2704 2764 
Q 2556 2988 2175 2988 
Q 1775 2988 1565 2697 
Q 1356 2406 1356 1850 
L 1356 331 
L 1856 331 
L 1856 0 
L 263 0 
z
" transform="scale(0.015625)"/>
      <path id="Cmr10-34" d="M 178 1056 
L 178 1281 
L 2156 4231 
Q 2178 4263 2222 4263 
L 2316 4263 
Q 2388 4263 2388 4191 
L 2388 1281 
L 3016 1281 
L 3016 1056 
L 2388 1056 
L 2388 428 
Q 2388 297 2575 261 
Q 2763 225 3009 225 
L 3009 0 
L 1247 0 
L 1247 225 
Q 1494 225 1681 261 
Q 1869 297 1869 428 
L 1869 1056 
L 178 1056 
z
M 391 1281 
L 1906 1281 
L 1906 3547 
L 391 1281 
z
" transform="scale(0.015625)"/>
      <path id="Cmr10-32" d="M 319 0 
L 319 172 
Q 319 188 331 206 
L 1325 1306 
Q 1550 1550 1690 1715 
Q 1831 1881 1968 2097 
Q 2106 2313 2186 2536 
Q 2266 2759 2266 3009 
Q 2266 3272 2169 3511 
Q 2072 3750 1880 3894 
Q 1688 4038 1416 4038 
Q 1138 4038 916 3870 
Q 694 3703 603 3438 
Q 628 3444 672 3444 
Q 816 3444 917 3347 
Q 1019 3250 1019 3097 
Q 1019 2950 917 2848 
Q 816 2747 672 2747 
Q 522 2747 420 2851 
Q 319 2956 319 3097 
Q 319 3338 409 3548 
Q 500 3759 670 3923 
Q 841 4088 1055 4175 
Q 1269 4263 1509 4263 
Q 1875 4263 2190 4108 
Q 2506 3953 2690 3670 
Q 2875 3388 2875 3009 
Q 2875 2731 2753 2481 
Q 2631 2231 2440 2026 
Q 2250 1822 1953 1562 
Q 1656 1303 1563 1216 
L 838 519 
L 1453 519 
Q 1906 519 2211 526 
Q 2516 534 2534 550 
Q 2609 631 2688 1141 
L 2875 1141 
L 2694 0 
L 319 0 
z
" transform="scale(0.015625)"/>
     </defs>
     <use xlink:href="#DejaVuSerif-28" transform="translate(0 0.015625)"/>
     <use xlink:href="#DejaVuSerif-62" transform="translate(39.013672 0.015625)"/>
     <use xlink:href="#DejaVuSerif-29" transform="translate(103.027344 0.015625)"/>
     <use xlink:href="#DejaVuSerif-20" transform="translate(142.041016 0.015625)"/>
     <use xlink:href="#DejaVuSerif-42" transform="translate(173.828125 0.015625)"/>
     <use xlink:href="#DejaVuSerif-61" transform="translate(247.314453 0.015625)"/>
     <use xlink:href="#DejaVuSerif-63" transform="translate(306.933594 0.015625)"/>
     <use xlink:href="#DejaVuSerif-6f" transform="translate(362.939453 0.015625)"/>
     <use xlink:href="#DejaVuSerif-6e" transform="translate(423.144531 0.015625)"/>
     <use xlink:href="#DejaVuSerif-2d" transform="translate(487.548828 0.015625)"/>
     <use xlink:href="#DejaVuSerif-53" transform="translate(521.337891 0.015625)"/>
     <use xlink:href="#DejaVuSerif-68" transform="translate(589.84375 0.015625)"/>
     <use xlink:href="#DejaVuSerif-6f" transform="translate(654.248047 0.015625)"/>
     <use xlink:href="#DejaVuSerif-72" transform="translate(714.453125 0.015625)"/>
     <use xlink:href="#DejaVuSerif-20" transform="translate(762.255859 0.015625)"/>
     <use xlink:href="#Cmr10-5b" transform="translate(794.042969 0.015625)"/>
     <use xlink:href="#Cmr10-5b" transform="translate(821.728516 0.015625)"/>
     <use xlink:href="#Cmr10-34" transform="translate(849.414062 0.015625)"/>
     <use xlink:href="#Cmmi10-3b" transform="translate(899.414062 0.015625)"/>
     <use xlink:href="#Cmr10-31" transform="translate(944.658203 0.015625)"/>
     <use xlink:href="#Cmmi10-3b" transform="translate(994.658203 0.015625)"/>
     <use xlink:href="#Cmr10-31" transform="translate(1039.902344 0.015625)"/>
     <use xlink:href="#Cmmi10-3b" transform="translate(1089.902344 0.015625)"/>
     <use xlink:href="#Cmr10-32" transform="translate(1135.146484 0.015625)"/>
     <use xlink:href="#Cmr10-5d" transform="translate(1185.146484 0.015625)"/>
     <use xlink:href="#Cmr10-5d" transform="translate(1212.832031 0.015625)"/>
    </g>
   </g>
   <g id="line2d_53">
    <path d="M 556.409063 321.923937 
L 618.760475 313.415971 
L 631.514173 311.903807 
L 640.016638 311.109139 
L 646.747756 310.691491 
L 652.770336 310.539857 
L 658.084377 310.620051 
L 663.398418 310.924137 
L 668.712458 311.457566 
L 674.380769 312.263763 
L 680.757618 313.416067 
L 688.551544 315.065698 
L 708.03636 319.290102 
L 714.413209 320.388675 
L 720.08152 321.146025 
L 725.39556 321.63485 
L 730.355332 321.879316 
L 735.315103 321.910113 
L 740.274875 321.726127 
L 745.588916 321.298377 
L 750.902956 320.649613 
L 756.925536 319.681718 
L 763.656654 318.370117 
L 773.576197 316.18251 
L 785.975626 313.48629 
L 792.706744 312.263763 
L 798.375054 311.457566 
L 803.689095 310.924137 
L 809.003136 310.620051 
L 814.317177 310.539857 
L 819.985487 310.676203 
L 826.362336 311.054892 
L 834.156262 311.755623 
L 844.075805 312.884032 
L 859.663658 314.907491 
L 900.050369 320.455202 
L 910.67845 321.923937 
L 910.67845 321.923937 
" clip-path="url(#pc2ac9ab707)" style="fill: none; stroke-dasharray: 3.7,1.6; stroke-dashoffset: 0; stroke: #666666; stroke-opacity: 0.7"/>
   </g>
   <g id="line2d_54">
    <path d="M 556.409063 321.923937 
L 618.760475 313.415971 
L 631.514173 311.903807 
L 640.016638 311.109139 
L 646.747756 310.691491 
L 652.770336 310.539857 
L 658.084377 310.620051 
L 663.398418 310.924137 
L 668.712458 311.457566 
L 674.380769 312.263763 
L 680.757618 313.416067 
L 688.551544 315.065698 
L 708.03636 319.290102 
L 714.413209 320.388675 
L 720.08152 321.146025 
L 725.39556 321.63485 
L 730.355332 321.879316 
L 735.315103 321.910113 
L 740.274875 321.726127 
L 745.588916 321.298377 
L 750.902956 320.649613 
L 756.925536 319.681718 
L 763.656654 318.370117 
L 773.576197 316.18251 
L 785.975626 313.48629 
L 792.706744 312.263763 
L 798.375054 311.457566 
L 803.689095 310.924137 
L 809.003136 310.620051 
L 814.317177 310.539857 
L 819.985487 310.676203 
L 826.362336 311.054892 
L 834.156262 311.755623 
L 844.075805 312.884032 
L 859.663658 314.907491 
L 900.050369 320.455202 
L 910.67845 321.923937 
L 910.67845 321.923937 
" clip-path="url(#pc2ac9ab707)" style="fill: none; stroke-dasharray: 3.7,1.6; stroke-dashoffset: 0; stroke: #666666; stroke-opacity: 0.7"/>
   </g>
   <g id="line2d_55">
    <path d="M 556.409063 272.959269 
L 618.760475 281.467235 
L 631.514173 282.979399 
L 640.016638 283.774067 
L 646.747756 284.191715 
L 652.770336 284.343349 
L 658.084377 284.263155 
L 663.398418 283.959069 
L 668.712458 283.42564 
L 674.380769 282.619443 
L 680.757618 281.467139 
L 688.551544 279.817508 
L 708.03636 275.593104 
L 714.413209 274.494531 
L 720.08152 273.737181 
L 725.39556 273.248357 
L 730.355332 273.00389 
L 735.315103 272.973093 
L 740.274875 273.157079 
L 745.588916 273.584829 
L 750.902956 274.233593 
L 756.925536 275.201488 
L 763.656654 276.513089 
L 773.576197 278.700696 
L 785.975626 281.396916 
L 792.706744 282.619443 
L 798.375054 283.42564 
L 803.689095 283.959069 
L 809.003136 284.263155 
L 814.317177 284.343349 
L 819.985487 284.207003 
L 826.362336 283.828314 
L 834.156262 283.127583 
L 844.075805 281.999174 
L 859.663658 279.975715 
L 900.050369 274.428004 
L 910.67845 272.959269 
L 910.67845 272.959269 
" clip-path="url(#pc2ac9ab707)" style="fill: none; stroke-dasharray: 3.7,1.6; stroke-dashoffset: 0; stroke: #666666; stroke-opacity: 0.7"/>
   </g>
   <g id="line2d_56">
    <path d="M 556.409063 272.959269 
L 618.760475 281.467235 
L 631.514173 282.979399 
L 640.016638 283.774067 
L 646.747756 284.191715 
L 652.770336 284.343349 
L 658.084377 284.263155 
L 663.398418 283.959069 
L 668.712458 283.42564 
L 674.380769 282.619443 
L 680.757618 281.467139 
L 688.551544 279.817508 
L 708.03636 275.593104 
L 714.413209 274.494531 
L 720.08152 273.737181 
L 725.39556 273.248357 
L 730.355332 273.00389 
L 735.315103 272.973093 
L 740.274875 273.157079 
L 745.588916 273.584829 
L 750.902956 274.233593 
L 756.925536 275.201488 
L 763.656654 276.513089 
L 773.576197 278.700696 
L 785.975626 281.396916 
L 792.706744 282.619443 
L 798.375054 283.42564 
L 803.689095 283.959069 
L 809.003136 284.263155 
L 814.317177 284.343349 
L 819.985487 284.207003 
L 826.362336 283.828314 
L 834.156262 283.127583 
L 844.075805 281.999174 
L 859.663658 279.975715 
L 900.050369 274.428004 
L 910.67845 272.959269 
L 910.67845 272.959269 
" clip-path="url(#pc2ac9ab707)" style="fill: none; stroke-dasharray: 3.7,1.6; stroke-dashoffset: 0; stroke: #666666; stroke-opacity: 0.7"/>
   </g>
   <g id="line2d_57">
    <path d="M 556.409063 223.994834 
L 618.760475 215.486868 
L 631.514173 213.974704 
L 640.016638 213.180036 
L 646.747756 212.762388 
L 652.770336 212.610754 
L 658.084377 212.690948 
L 663.398418 212.995034 
L 668.712458 213.528463 
L 674.380769 214.33466 
L 680.757618 215.486964 
L 688.551544 217.136595 
L 708.03636 221.360999 
L 714.413209 222.459572 
L 720.08152 223.216922 
L 725.39556 223.705746 
L 730.355332 223.950213 
L 735.315103 223.98101 
L 740.274875 223.797024 
L 745.588916 223.369274 
L 750.902956 222.72051 
L 756.925536 221.752615 
L 763.656654 220.441014 
L 773.576197 218.253407 
L 785.975626 215.557187 
L 792.706744 214.33466 
L 798.375054 213.528463 
L 803.689095 212.995034 
L 809.003136 212.690948 
L 814.317177 212.610754 
L 819.985487 212.7471 
L 826.362336 213.125789 
L 834.156262 213.82652 
L 844.075805 214.954929 
L 859.663658 216.978388 
L 900.050369 222.526099 
L 910.67845 223.994834 
L 910.67845 223.994834 
" clip-path="url(#pc2ac9ab707)" style="fill: none; stroke-dasharray: 3.7,1.6; stroke-dashoffset: 0; stroke: #666666; stroke-opacity: 0.7"/>
   </g>
   <g id="line2d_58">
    <path d="M 556.409063 223.994834 
L 618.760475 215.486868 
L 631.514173 213.974704 
L 640.016638 213.180036 
L 646.747756 212.762388 
L 652.770336 212.610754 
L 658.084377 212.690948 
L 663.398418 212.995034 
L 668.712458 213.528463 
L 674.380769 214.33466 
L 680.757618 215.486964 
L 688.551544 217.136595 
L 708.03636 221.360999 
L 714.413209 222.459572 
L 720.08152 223.216922 
L 725.39556 223.705746 
L 730.355332 223.950213 
L 735.315103 223.98101 
L 740.274875 223.797024 
L 745.588916 223.369274 
L 750.902956 222.72051 
L 756.925536 221.752615 
L 763.656654 220.441014 
L 773.576197 218.253407 
L 785.975626 215.557187 
L 792.706744 214.33466 
L 798.375054 213.528463 
L 803.689095 212.995034 
L 809.003136 212.690948 
L 814.317177 212.610754 
L 819.985487 212.7471 
L 826.362336 213.125789 
L 834.156262 213.82652 
L 844.075805 214.954929 
L 859.663658 216.978388 
L 900.050369 222.526099 
L 910.67845 223.994834 
L 910.67845 223.994834 
" clip-path="url(#pc2ac9ab707)" style="fill: none; stroke-dasharray: 3.7,1.6; stroke-dashoffset: 0; stroke: #666666; stroke-opacity: 0.7"/>
   </g>
   <g id="line2d_59">
    <path d="M 556.409063 175.030166 
L 618.760475 183.538132 
L 631.514173 185.050296 
L 640.016638 185.844964 
L 646.747756 186.262612 
L 652.770336 186.414246 
L 658.084377 186.334052 
L 663.398418 186.029966 
L 668.712458 185.496537 
L 674.380769 184.69034 
L 680.757618 183.538036 
L 688.551544 181.888405 
L 708.03636 177.664001 
L 714.413209 176.565428 
L 720.08152 175.808078 
L 725.39556 175.319254 
L 730.355332 175.074787 
L 735.315103 175.04399 
L 740.274875 175.227976 
L 745.588916 175.655726 
L 750.902956 176.30449 
L 756.925536 177.272385 
L 763.656654 178.583986 
L 773.576197 180.771593 
L 785.975626 183.467813 
L 792.706744 184.69034 
L 798.375054 185.496537 
L 803.689095 186.029966 
L 809.003136 186.334052 
L 814.317177 186.414246 
L 819.985487 186.2779 
L 826.362336 185.899211 
L 834.156262 185.19848 
L 844.075805 184.070071 
L 859.663658 182.046612 
L 900.050369 176.498901 
L 910.67845 175.030166 
L 910.67845 175.030166 
" clip-path="url(#pc2ac9ab707)" style="fill: none; stroke-dasharray: 3.7,1.6; stroke-dashoffset: 0; stroke: #666666; stroke-opacity: 0.7"/>
   </g>
   <g id="line2d_60">
    <path d="M 556.409063 175.030166 
L 618.760475 183.538132 
L 631.514173 185.050296 
L 640.016638 185.844964 
L 646.747756 186.262612 
L 652.770336 186.414246 
L 658.084377 186.334052 
L 663.398418 186.029966 
L 668.712458 185.496537 
L 674.380769 184.69034 
L 680.757618 183.538036 
L 688.551544 181.888405 
L 708.03636 177.664001 
L 714.413209 176.565428 
L 720.08152 175.808078 
L 725.39556 175.319254 
L 730.355332 175.074787 
L 735.315103 175.04399 
L 740.274875 175.227976 
L 745.588916 175.655726 
L 750.902956 176.30449 
L 756.925536 177.272385 
L 763.656654 178.583986 
L 773.576197 180.771593 
L 785.975626 183.467813 
L 792.706744 184.69034 
L 798.375054 185.496537 
L 803.689095 186.029966 
L 809.003136 186.334052 
L 814.317177 186.414246 
L 819.985487 186.2779 
L 826.362336 185.899211 
L 834.156262 185.19848 
L 844.075805 184.070071 
L 859.663658 182.046612 
L 900.050369 176.498901 
L 910.67845 175.030166 
L 910.67845 175.030166 
" clip-path="url(#pc2ac9ab707)" style="fill: none; stroke-dasharray: 3.7,1.6; stroke-dashoffset: 0; stroke: #666666; stroke-opacity: 0.7"/>
   </g>
   <g id="line2d_61">
    <path d="M 556.409063 126.065731 
L 618.760475 117.557765 
L 631.514173 116.045601 
L 640.016638 115.250933 
L 646.747756 114.833285 
L 652.770336 114.681651 
L 658.084377 114.761845 
L 663.398418 115.065931 
L 668.712458 115.59936 
L 674.380769 116.405557 
L 680.757618 117.557861 
L 688.551544 119.207492 
L 708.03636 123.431896 
L 714.413209 124.530469 
L 720.08152 125.287819 
L 725.39556 125.776643 
L 730.355332 126.02111 
L 735.315103 126.051907 
L 740.274875 125.867921 
L 745.588916 125.440171 
L 750.902956 124.791407 
L 756.925536 123.823512 
L 763.656654 122.511911 
L 773.576197 120.324304 
L 785.975626 117.628084 
L 792.706744 116.405557 
L 798.375054 115.59936 
L 803.689095 115.065931 
L 809.003136 114.761845 
L 814.317177 114.681651 
L 819.985487 114.817997 
L 826.362336 115.196686 
L 834.156262 115.897417 
L 844.075805 117.025826 
L 859.663658 119.049285 
L 900.050369 124.596996 
L 910.67845 126.065731 
L 910.67845 126.065731 
" clip-path="url(#pc2ac9ab707)" style="fill: none; stroke-dasharray: 3.7,1.6; stroke-dashoffset: 0; stroke: #666666; stroke-opacity: 0.7"/>
   </g>
   <g id="line2d_62">
    <path d="M 556.409063 126.065731 
L 618.760475 117.557765 
L 631.514173 116.045601 
L 640.016638 115.250933 
L 646.747756 114.833285 
L 652.770336 114.681651 
L 658.084377 114.761845 
L 663.398418 115.065931 
L 668.712458 115.59936 
L 674.380769 116.405557 
L 680.757618 117.557861 
L 688.551544 119.207492 
L 708.03636 123.431896 
L 714.413209 124.530469 
L 720.08152 125.287819 
L 725.39556 125.776643 
L 730.355332 126.02111 
L 735.315103 126.051907 
L 740.274875 125.867921 
L 745.588916 125.440171 
L 750.902956 124.791407 
L 756.925536 123.823512 
L 763.656654 122.511911 
L 773.576197 120.324304 
L 785.975626 117.628084 
L 792.706744 116.405557 
L 798.375054 115.59936 
L 803.689095 115.065931 
L 809.003136 114.761845 
L 814.317177 114.681651 
L 819.985487 114.817997 
L 826.362336 115.196686 
L 834.156262 115.897417 
L 844.075805 117.025826 
L 859.663658 119.049285 
L 900.050369 124.596996 
L 910.67845 126.065731 
L 910.67845 126.065731 
" clip-path="url(#pc2ac9ab707)" style="fill: none; stroke-dasharray: 3.7,1.6; stroke-dashoffset: 0; stroke: #666666; stroke-opacity: 0.7"/>
   </g>
   <g id="line2d_63">
    <path d="M 556.409063 85.502169 
L 586.87623 81.308743 
L 620.177552 85.788621 
L 632.222711 87.195948 
L 640.725177 87.970108 
L 647.456295 88.363342 
L 653.478875 88.486736 
L 658.792916 88.377647 
L 664.106956 88.042889 
L 669.420997 87.479492 
L 675.089307 86.644897 
L 681.466156 85.467929 
L 689.614352 83.722139 
L 700.596703 81.343812 
L 708.744899 83.001444 
L 715.121748 84.0738 
L 720.790058 84.802376 
L 726.104099 85.260833 
L 731.063871 85.475139 
L 736.023642 85.475139 
L 740.983414 85.260833 
L 746.297454 84.802376 
L 751.965765 84.0738 
L 757.988344 83.067054 
L 765.073732 81.649095 
L 766.845079 81.336572 
L 790.226858 86.340414 
L 796.249438 87.292255 
L 801.563479 87.91468 
L 806.87752 88.310903 
L 812.19156 88.478841 
L 817.859871 88.424525 
L 823.88245 88.142035 
L 830.967838 87.581657 
L 839.824573 86.648102 
L 852.578271 85.059358 
L 877.377128 81.699107 
L 880.565552 81.343312 
L 910.67845 85.502169 
L 910.67845 85.502169 
" clip-path="url(#pc2ac9ab707)" style="fill: none; stroke-dasharray: 3.7,1.6; stroke-dashoffset: 0; stroke: #666666; stroke-opacity: 0.7"/>
   </g>
   <g id="line2d_64">
    <path d="M 556.409063 77.101063 
L 618.760475 85.609029 
L 631.514173 87.121193 
L 640.016638 87.915861 
L 646.747756 88.333509 
L 652.770336 88.485143 
L 658.084377 88.404949 
L 663.398418 88.100863 
L 668.712458 87.567434 
L 674.380769 86.761237 
L 680.757618 85.608933 
L 688.551544 83.959302 
L 708.03636 79.734898 
L 714.413209 78.636325 
L 720.08152 77.878975 
L 725.39556 77.39015 
L 730.355332 77.145684 
L 735.315103 77.114887 
L 740.274875 77.298873 
L 745.588916 77.726623 
L 750.902956 78.375387 
L 756.925536 79.343282 
L 763.656654 80.654883 
L 773.576197 82.84249 
L 785.975626 85.53871 
L 792.706744 86.761237 
L 798.375054 87.567434 
L 803.689095 88.100863 
L 809.003136 88.404949 
L 814.317177 88.485143 
L 819.985487 88.348797 
L 826.362336 87.970108 
L 834.156262 87.269377 
L 844.075805 86.140968 
L 859.663658 84.117509 
L 900.050369 78.569798 
L 910.67845 77.101063 
L 910.67845 77.101063 
" clip-path="url(#pc2ac9ab707)" style="fill: none; stroke-dasharray: 3.7,1.6; stroke-dashoffset: 0; stroke: #666666; stroke-opacity: 0.7"/>
   </g>
   <g id="line2d_65">
    <path d="M 556.409063 77.101063 
L 586.87623 81.294488 
L 620.177552 76.81461 
L 632.222711 75.407283 
L 640.725177 74.633124 
L 647.456295 74.23989 
L 653.478875 74.116495 
L 658.792916 74.225584 
L 664.106956 74.560343 
L 669.420997 75.12374 
L 675.089307 75.958334 
L 681.466156 77.135302 
L 689.614352 78.881092 
L 700.596703 81.259419 
L 708.744899 79.601787 
L 715.121748 78.529432 
L 720.790058 77.800856 
L 726.104099 77.342398 
L 731.063871 77.128093 
L 736.023642 77.128093 
L 740.983414 77.342398 
L 746.297454 77.800856 
L 751.965765 78.529432 
L 757.988344 79.536178 
L 765.073732 80.954136 
L 766.845079 81.266659 
L 790.226858 76.262817 
L 796.249438 75.310976 
L 801.563479 74.688551 
L 806.87752 74.292328 
L 812.19156 74.124391 
L 817.859871 74.178706 
L 823.88245 74.461197 
L 830.967838 75.021574 
L 839.824573 75.95513 
L 852.578271 77.543873 
L 877.377128 80.904124 
L 880.565552 81.259919 
L 910.67845 77.101063 
L 910.67845 77.101063 
" clip-path="url(#pc2ac9ab707)" style="fill: none; stroke-dasharray: 3.7,1.6; stroke-dashoffset: 0; stroke: #666666; stroke-opacity: 0.7"/>
   </g>
   <g id="line2d_66">
    <path d="M 556.409063 36.5375 
L 618.760475 45.045467 
L 631.514173 46.55763 
L 640.016638 47.352299 
L 646.747756 47.769946 
L 652.770336 47.92158 
L 658.084377 47.841387 
L 663.398418 47.5373 
L 668.712458 47.003871 
L 674.380769 46.197675 
L 680.757618 45.04537 
L 688.551544 43.395739 
L 708.03636 39.171335 
L 714.413209 38.072763 
L 720.08152 37.315413 
L 725.39556 36.826588 
L 730.355332 36.582122 
L 735.315103 36.551325 
L 740.274875 36.735311 
L 745.588916 37.163061 
L 750.902956 37.811824 
L 756.925536 38.77972 
L 763.656654 40.09132 
L 773.576197 42.278927 
L 785.975626 44.975147 
L 792.706744 46.197675 
L 798.375054 47.003871 
L 803.689095 47.5373 
L 809.003136 47.841387 
L 814.317177 47.92158 
L 819.985487 47.785235 
L 826.362336 47.406545 
L 834.156262 46.705815 
L 844.075805 45.577405 
L 859.663658 43.553946 
L 900.050369 38.006236 
L 910.67845 36.5375 
L 910.67845 36.5375 
" clip-path="url(#pc2ac9ab707)" style="fill: none; stroke-dasharray: 3.7,1.6; stroke-dashoffset: 0; stroke: #666666; stroke-opacity: 0.7"/>
   </g>
   <g id="line2d_67">
    <path d="M 556.409063 362.4875 
L 618.760475 353.979533 
L 631.514173 352.46737 
L 640.016638 351.672701 
L 646.747756 351.255054 
L 652.770336 351.10342 
L 658.084377 351.183613 
L 663.398418 351.4877 
L 668.712458 352.021129 
L 674.380769 352.827325 
L 680.757618 353.97963 
L 688.551544 355.629261 
L 708.03636 359.853665 
L 714.413209 360.952237 
L 720.08152 361.709587 
L 725.39556 362.198412 
L 730.355332 362.442878 
L 733.189487 362.486891 
M 733.898026 313.523441 
L 738.857797 313.646402 
L 744.171838 314.011808 
L 749.485879 314.603914 
L 755.154189 315.457387 
L 761.531038 316.641083 
L 766.490809 317.681188 
M 767.199348 317.835796 
L 789.872589 322.69905 
L 795.895169 323.664897 
L 801.209209 324.301857 
L 806.52325 324.713439 
L 811.837291 324.896282 
L 817.505601 324.85615 
L 823.528181 324.585946 
L 830.613569 324.036119 
L 839.470303 323.110739 
L 851.869732 321.573727 
L 875.605781 318.364604 
L 880.211283 317.730512 
M 880.919822 317.632858 
L 910.67845 313.522831 
L 910.67845 313.522831 
" clip-path="url(#pc2ac9ab707)" style="fill: none; stroke: #e41a1c; stroke-width: 2.5; stroke-linecap: square"/>
   </g>
   <g id="line2d_68">
    <path d="M 556.409063 313.522831 
L 586.52196 317.681688 
M 587.230499 317.77933 
L 620.177552 322.21039 
L 632.222711 323.617717 
L 640.725177 324.391876 
L 647.456295 324.78511 
L 653.478875 324.908505 
L 658.792916 324.799416 
L 664.106956 324.464657 
L 669.420997 323.90126 
L 675.089307 323.066666 
L 681.466156 321.889698 
L 689.614352 320.143908 
L 700.242434 317.758341 
M 700.950973 317.604353 
L 709.099169 315.957946 
L 715.476018 314.899003 
L 721.144328 314.185019 
L 726.458369 313.741874 
L 731.41814 313.54271 
L 733.189487 313.523441 
M 733.898026 362.486891 
L 738.857797 362.36393 
L 744.171838 361.998524 
L 749.485879 361.406417 
L 755.154189 360.552945 
L 761.531038 359.369249 
L 770.033503 357.545812 
L 787.038434 353.840915 
L 793.415283 352.714247 
L 799.083593 351.937049 
L 804.397634 351.433832 
L 809.711675 351.160316 
L 815.025716 351.10862 
L 820.694026 351.271077 
L 827.070875 351.672701 
L 834.864801 352.392615 
L 845.138614 353.578564 
L 861.435005 355.709921 
L 907.844295 362.095813 
L 910.67845 362.4875 
L 910.67845 362.4875 
" clip-path="url(#pc2ac9ab707)" style="fill: none; stroke: #377eb8; stroke-width: 2.5; stroke-linecap: square"/>
   </g>
  </g>
 </g>
 <defs>
  <clipPath id="p959ba9f654">
   <rect x="57.809063" y="20.24" width="433.98" height="358.545"/>
  </clipPath>
  <clipPath id="pc2ac9ab707">
   <rect x="556.409063" y="20.24" width="433.98" height="358.545"/>
  </clipPath>
 </defs>
</svg>
