<?xml version="1.0" encoding="utf-8" standalone="no"?>
<!DOCTYPE svg PUBLIC "-//W3C//DTD SVG 1.1//EN"
  "http://www.w3.org/Graphics/SVG/1.1/DTD/svg11.dtd">
<svg xmlns:xlink="http://www.w3.org/1999/xlink" width="900.253265pt" height="547.583125pt" viewBox="0 0 900.253265 547.583125" xmlns="http://www.w3.org/2000/svg" version="1.1">
 <metadata>
  <rdf:RDF xmlns:dc="http://purl.org/dc/elements/1.1/" xmlns:cc="http://creativecommons.org/ns#" xmlns:rdf="http://www.w3.org/1999/02/22-rdf-syntax-ns#">
   <cc:Work>
    <dc:type rdf:resource="http://purl.org/dc/dcmitype/StillImage"/>
    <dc:date>2025-12-22T19:07:55.905433</dc:date>
    <dc:format>image/svg+xml</dc:format>
    <dc:creator>
     <cc:Agent>
      <dc:title>Matplotlib v3.10.5, https://matplotlib.org/</dc:title>
     </cc:Agent>
    </dc:creator>
   </cc:Work>
  </rdf:RDF>
 </metadata>
 <defs>
  <style type="text/css">*{stroke-linejoin: round; stroke-linecap: butt}</style>
 </defs>
 <g id="figure_1">
  <g id="patch_1">
   <path d="M 0 547.583125 
L 900.253265 547.583125 
L 900.253265 0 
L 0 0 
z
" style="fill: #ffffff"/>
  </g>
  <g id="axes_1">
   <g id="patch_2">
    <path d="M 111.975625 481.92 
L 487.269067 481.92 
L 487.269067 33.9 
L 111.975625 33.9 
z
" style="fill: #ffffff"/>
   </g>
   <g id="matplotlib.axis_1">
    <g id="xtick_1">
     <g id="line2d_1">
      <path d="M 111.975625 481.92 
L 111.975625 33.9 
" clip-path="url(#p450bae8790)" style="fill: none; stroke-dasharray: 5.55,2.4; stroke-dashoffset: 0; stroke: #b0b0b0; stroke-opacity: 0.3; stroke-width: 1.5"/>
     </g>
     <g id="line2d_2">
      <defs>
       <path id="m92163afc68" d="M 0 0 
L 0 -4 
" style="stroke: #000000; stroke-width: 0.8"/>
      </defs>
      <g>
       <use xlink:href="#m92163afc68" x="111.975625" y="481.92" style="stroke: #000000; stroke-width: 0.8"/>
      </g>
     </g>
     <g id="text_1">
      <!-- 0 -->
      <g transform="translate(103.704375 505.175937) scale(0.26 -0.26)">
       <defs>
        <path id="DejaVuSerif-30" d="M 2034 219 
Q 2513 219 2750 744 
Q 2988 1269 2988 2328 
Q 2988 3391 2750 3916 
Q 2513 4441 2034 4441 
Q 1556 4441 1318 3916 
Q 1081 3391 1081 2328 
Q 1081 1269 1318 744 
Q 1556 219 2034 219 
z
M 2034 -91 
Q 1275 -91 848 546 
Q 422 1184 422 2328 
Q 422 3475 848 4112 
Q 1275 4750 2034 4750 
Q 2797 4750 3222 4112 
Q 3647 3475 3647 2328 
Q 3647 1184 3222 546 
Q 2797 -91 2034 -91 
z
" transform="scale(0.015625)"/>
       </defs>
       <use xlink:href="#DejaVuSerif-30"/>
      </g>
     </g>
    </g>
    <g id="xtick_2">
     <g id="line2d_3">
      <path d="M 265.156622 481.92 
L 265.156622 33.9 
" clip-path="url(#p450bae8790)" style="fill: none; stroke-dasharray: 5.55,2.4; stroke-dashoffset: 0; stroke: #b0b0b0; stroke-opacity: 0.3; stroke-width: 1.5"/>
     </g>
     <g id="line2d_4">
      <g>
       <use xlink:href="#m92163afc68" x="265.156622" y="481.92" style="stroke: #000000; stroke-width: 0.8"/>
      </g>
     </g>
     <g id="text_2">
      <!-- 2 -->
      <g transform="translate(256.885372 505.175937) scale(0.26 -0.26)">
       <defs>
        <path id="DejaVuSerif-32" d="M 819 3553 
L 469 3553 
L 469 4384 
Q 803 4563 1142 4656 
Q 1481 4750 1806 4750 
Q 2534 4750 2956 4397 
Q 3378 4044 3378 3438 
Q 3378 2753 2422 1800 
Q 2347 1728 2309 1691 
L 1131 513 
L 3078 513 
L 3078 1088 
L 3444 1088 
L 3444 0 
L 434 0 
L 434 341 
L 1850 1753 
Q 2319 2222 2519 2614 
Q 2719 3006 2719 3438 
Q 2719 3909 2473 4175 
Q 2228 4441 1797 4441 
Q 1350 4441 1106 4219 
Q 863 3997 819 3553 
z
" transform="scale(0.015625)"/>
       </defs>
       <use xlink:href="#DejaVuSerif-32"/>
      </g>
     </g>
    </g>
    <g id="xtick_3">
     <g id="line2d_5">
      <path d="M 418.337619 481.92 
L 418.337619 33.9 
" clip-path="url(#p450bae8790)" style="fill: none; stroke-dasharray: 5.55,2.4; stroke-dashoffset: 0; stroke: #b0b0b0; stroke-opacity: 0.3; stroke-width: 1.5"/>
     </g>
     <g id="line2d_6">
      <g>
       <use xlink:href="#m92163afc68" x="418.337619" y="481.92" style="stroke: #000000; stroke-width: 0.8"/>
      </g>
     </g>
     <g id="text_3">
      <!-- 4 -->
      <g transform="translate(410.066369 505.175937) scale(0.26 -0.26)">
       <defs>
        <path id="DejaVuSerif-34" d="M 2234 1581 
L 2234 4063 
L 641 1581 
L 2234 1581 
z
M 3609 0 
L 1484 0 
L 1484 331 
L 2234 331 
L 2234 1247 
L 197 1247 
L 197 1588 
L 2241 4750 
L 2859 4750 
L 2859 1581 
L 3750 1581 
L 3750 1247 
L 2859 1247 
L 2859 331 
L 3609 331 
L 3609 0 
z
" transform="scale(0.015625)"/>
       </defs>
       <use xlink:href="#DejaVuSerif-34"/>
      </g>
     </g>
    </g>
    <g id="text_4">
     <!-- Time [$\mu$s] -->
     <g transform="translate(228.372346 537.383125) scale(0.3 -0.3)">
      <defs>
       <path id="DejaVuSerif-54" d="M 1222 0 
L 1222 331 
L 1819 331 
L 1819 4294 
L 447 4294 
L 447 3566 
L 63 3566 
L 63 4666 
L 4206 4666 
L 4206 3566 
L 3822 3566 
L 3822 4294 
L 2450 4294 
L 2450 331 
L 3047 331 
L 3047 0 
L 1222 0 
z
" transform="scale(0.015625)"/>
       <path id="DejaVuSerif-69" d="M 622 4353 
Q 622 4497 726 4603 
Q 831 4709 978 4709 
Q 1122 4709 1226 4603 
Q 1331 4497 1331 4353 
Q 1331 4206 1228 4103 
Q 1125 4000 978 4000 
Q 831 4000 726 4103 
Q 622 4206 622 4353 
z
M 1356 331 
L 1900 331 
L 1900 0 
L 231 0 
L 231 331 
L 781 331 
L 781 2988 
L 231 2988 
L 231 3322 
L 1356 3322 
L 1356 331 
z
" transform="scale(0.015625)"/>
       <path id="DejaVuSerif-6d" d="M 3316 2675 
Q 3481 3041 3739 3227 
Q 3997 3413 4341 3413 
Q 4863 3413 5119 3089 
Q 5375 2766 5375 2113 
L 5375 331 
L 5894 331 
L 5894 0 
L 4300 0 
L 4300 331 
L 4800 331 
L 4800 2047 
Q 4800 2556 4650 2772 
Q 4500 2988 4153 2988 
Q 3769 2988 3567 2697 
Q 3366 2406 3366 1850 
L 3366 331 
L 3866 331 
L 3866 0 
L 2291 0 
L 2291 331 
L 2791 331 
L 2791 2069 
Q 2791 2566 2641 2777 
Q 2491 2988 2144 2988 
Q 1759 2988 1557 2697 
Q 1356 2406 1356 1850 
L 1356 331 
L 1856 331 
L 1856 0 
L 263 0 
L 263 331 
L 781 331 
L 781 2994 
L 231 2994 
L 231 3322 
L 1356 3322 
L 1356 2731 
Q 1516 3063 1762 3238 
Q 2009 3413 2322 3413 
Q 2709 3413 2968 3220 
Q 3228 3028 3316 2675 
z
" transform="scale(0.015625)"/>
       <path id="DejaVuSerif-65" d="M 3469 1600 
L 991 1600 
L 991 1575 
Q 991 903 1244 561 
Q 1497 219 1991 219 
Q 2369 219 2611 417 
Q 2853 616 2950 1006 
L 3413 1006 
Q 3275 459 2904 184 
Q 2534 -91 1931 -91 
Q 1203 -91 761 389 
Q 319 869 319 1663 
Q 319 2450 753 2931 
Q 1188 3413 1894 3413 
Q 2647 3413 3050 2948 
Q 3453 2484 3469 1600 
z
M 2791 1931 
Q 2772 2513 2545 2808 
Q 2319 3103 1894 3103 
Q 1497 3103 1269 2806 
Q 1041 2509 991 1931 
L 2791 1931 
z
" transform="scale(0.015625)"/>
       <path id="DejaVuSerif-20" transform="scale(0.015625)"/>
       <path id="DejaVuSerif-5b" d="M 550 4863 
L 2003 4863 
L 2003 4531 
L 1147 4531 
L 1147 -513 
L 2003 -513 
L 2003 -844 
L 550 -844 
L 550 4863 
z
" transform="scale(0.015625)"/>
       <path id="Cmmi10-b9" d="M 178 -1203 
Q 178 -1166 184 -1153 
L 1125 2625 
Q 1153 2716 1226 2772 
Q 1300 2828 1394 2828 
Q 1475 2828 1531 2779 
Q 1588 2731 1588 2650 
Q 1588 2631 1586 2620 
Q 1584 2609 1581 2597 
L 1203 1100 
Q 1141 834 1141 641 
Q 1141 403 1253 250 
Q 1366 97 1594 97 
Q 2059 97 2413 678 
Q 2416 684 2417 687 
Q 2419 691 2419 697 
L 2881 2553 
Q 2903 2638 2981 2698 
Q 3059 2759 3150 2759 
Q 3225 2759 3283 2709 
Q 3341 2659 3341 2578 
Q 3341 2541 3334 2528 
L 2875 684 
Q 2828 503 2828 372 
Q 2828 97 3016 97 
Q 3216 97 3317 344 
Q 3419 591 3494 941 
Q 3506 978 3547 978 
L 3622 978 
Q 3647 978 3664 958 
Q 3681 938 3681 916 
Q 3569 469 3436 198 
Q 3303 -72 3003 -72 
Q 2791 -72 2627 50 
Q 2463 172 2413 378 
Q 2253 178 2039 53 
Q 1825 -72 1588 -72 
Q 1188 -72 959 116 
L 634 -1178 
Q 616 -1269 541 -1325 
Q 466 -1381 372 -1381 
Q 294 -1381 236 -1332 
Q 178 -1284 178 -1203 
z
" transform="scale(0.015625)"/>
       <path id="DejaVuSerif-73" d="M 359 184 
L 359 959 
L 691 959 
Q 703 588 923 403 
Q 1144 219 1575 219 
Q 1963 219 2166 364 
Q 2369 509 2369 788 
Q 2369 1006 2220 1140 
Q 2072 1275 1594 1428 
L 1178 1569 
Q 750 1706 558 1912 
Q 366 2119 366 2438 
Q 366 2894 700 3153 
Q 1034 3413 1625 3413 
Q 1888 3413 2178 3344 
Q 2469 3275 2778 3144 
L 2778 2419 
L 2447 2419 
Q 2434 2741 2221 2922 
Q 2009 3103 1644 3103 
Q 1281 3103 1095 2975 
Q 909 2847 909 2591 
Q 909 2381 1050 2254 
Q 1191 2128 1613 1997 
L 2069 1856 
Q 2541 1709 2748 1489 
Q 2956 1269 2956 922 
Q 2956 450 2595 179 
Q 2234 -91 1600 -91 
Q 1278 -91 972 -22 
Q 666 47 359 184 
z
" transform="scale(0.015625)"/>
       <path id="DejaVuSerif-5d" d="M 1947 4863 
L 1947 -844 
L 494 -844 
L 494 -513 
L 1350 -513 
L 1350 4531 
L 494 4531 
L 494 4863 
L 1947 4863 
z
" transform="scale(0.015625)"/>
      </defs>
      <use xlink:href="#DejaVuSerif-54" transform="translate(0 0.015625)"/>
      <use xlink:href="#DejaVuSerif-69" transform="translate(66.699219 0.015625)"/>
      <use xlink:href="#DejaVuSerif-6d" transform="translate(98.681641 0.015625)"/>
      <use xlink:href="#DejaVuSerif-65" transform="translate(193.505859 0.015625)"/>
      <use xlink:href="#DejaVuSerif-20" transform="translate(252.685547 0.015625)"/>
      <use xlink:href="#DejaVuSerif-5b" transform="translate(284.472656 0.015625)"/>
      <use xlink:href="#Cmmi10-b9" transform="translate(323.486328 0.015625)"/>
      <use xlink:href="#DejaVuSerif-73" transform="translate(383.691406 0.015625)"/>
      <use xlink:href="#DejaVuSerif-5d" transform="translate(435.009766 0.015625)"/>
     </g>
    </g>
   </g>
   <g id="matplotlib.axis_2">
    <g id="ytick_1">
     <g id="line2d_7">
      <path d="M 111.975625 465.680533 
L 487.269067 465.680533 
" clip-path="url(#p450bae8790)" style="fill: none; stroke-dasharray: 5.55,2.4; stroke-dashoffset: 0; stroke: #b0b0b0; stroke-opacity: 0.3; stroke-width: 1.5"/>
     </g>
     <g id="line2d_8">
      <defs>
       <path id="m5169ddc064" d="M 0 0 
L 4 0 
" style="stroke: #000000; stroke-width: 0.8"/>
      </defs>
      <g>
       <use xlink:href="#m5169ddc064" x="111.975625" y="465.680533" style="stroke: #000000; stroke-width: 0.8"/>
      </g>
     </g>
     <g id="text_5">
      <!-- −300 -->
      <g transform="translate(37.060938 475.558502) scale(0.26 -0.26)">
       <defs>
        <path id="DejaVuSerif-2212" d="M 678 2259 
L 4684 2259 
L 4684 1753 
L 678 1753 
L 678 2259 
z
" transform="scale(0.015625)"/>
        <path id="DejaVuSerif-33" d="M 622 4469 
Q 988 4606 1323 4678 
Q 1659 4750 1953 4750 
Q 2638 4750 3022 4454 
Q 3406 4159 3406 3634 
Q 3406 3213 3140 2930 
Q 2875 2647 2388 2547 
Q 2963 2466 3280 2130 
Q 3597 1794 3597 1259 
Q 3597 606 3158 257 
Q 2719 -91 1894 -91 
Q 1528 -91 1179 -12 
Q 831 66 488 225 
L 488 1131 
L 838 1131 
Q 869 681 1141 450 
Q 1413 219 1906 219 
Q 2384 219 2661 495 
Q 2938 772 2938 1253 
Q 2938 1803 2653 2086 
Q 2369 2369 1819 2369 
L 1522 2369 
L 1522 2688 
L 1678 2688 
Q 2225 2688 2498 2914 
Q 2772 3141 2772 3597 
Q 2772 4006 2547 4223 
Q 2322 4441 1900 4441 
Q 1478 4441 1245 4241 
Q 1013 4041 972 3647 
L 622 3647 
L 622 4469 
z
" transform="scale(0.015625)"/>
       </defs>
       <use xlink:href="#DejaVuSerif-2212"/>
       <use xlink:href="#DejaVuSerif-33" transform="translate(83.789062 0)"/>
       <use xlink:href="#DejaVuSerif-30" transform="translate(147.412109 0)"/>
       <use xlink:href="#DejaVuSerif-30" transform="translate(211.035156 0)"/>
      </g>
     </g>
    </g>
    <g id="ytick_2">
     <g id="line2d_9">
      <path d="M 111.975625 361.795266 
L 487.269067 361.795266 
" clip-path="url(#p450bae8790)" style="fill: none; stroke-dasharray: 5.55,2.4; stroke-dashoffset: 0; stroke: #b0b0b0; stroke-opacity: 0.3; stroke-width: 1.5"/>
     </g>
     <g id="line2d_10">
      <g>
       <use xlink:href="#m5169ddc064" x="111.975625" y="361.795266" style="stroke: #000000; stroke-width: 0.8"/>
      </g>
     </g>
     <g id="text_6">
      <!-- −150 -->
      <g transform="translate(37.060938 371.673235) scale(0.26 -0.26)">
       <defs>
        <path id="DejaVuSerif-31" d="M 909 0 
L 909 331 
L 1722 331 
L 1722 4213 
L 781 3603 
L 781 4013 
L 1919 4750 
L 2350 4750 
L 2350 331 
L 3163 331 
L 3163 0 
L 909 0 
z
" transform="scale(0.015625)"/>
        <path id="DejaVuSerif-35" d="M 3219 4666 
L 3219 4153 
L 1081 4153 
L 1081 2816 
Q 1244 2928 1461 2984 
Q 1678 3041 1947 3041 
Q 2703 3041 3140 2622 
Q 3578 2203 3578 1478 
Q 3578 738 3136 323 
Q 2694 -91 1894 -91 
Q 1572 -91 1234 -12 
Q 897 66 544 225 
L 544 1131 
L 897 1131 
Q 925 688 1179 453 
Q 1434 219 1894 219 
Q 2388 219 2653 544 
Q 2919 869 2919 1478 
Q 2919 2084 2655 2407 
Q 2391 2731 1894 2731 
Q 1613 2731 1398 2631 
Q 1184 2531 1019 2322 
L 750 2322 
L 750 4666 
L 3219 4666 
z
" transform="scale(0.015625)"/>
       </defs>
       <use xlink:href="#DejaVuSerif-2212"/>
       <use xlink:href="#DejaVuSerif-31" transform="translate(83.789062 0)"/>
       <use xlink:href="#DejaVuSerif-35" transform="translate(147.412109 0)"/>
       <use xlink:href="#DejaVuSerif-30" transform="translate(211.035156 0)"/>
      </g>
     </g>
    </g>
    <g id="ytick_3">
     <g id="line2d_11">
      <path d="M 111.975625 257.91 
L 487.269067 257.91 
" clip-path="url(#p450bae8790)" style="fill: none; stroke-dasharray: 5.55,2.4; stroke-dashoffset: 0; stroke: #b0b0b0; stroke-opacity: 0.3; stroke-width: 1.5"/>
     </g>
     <g id="line2d_12">
      <g>
       <use xlink:href="#m5169ddc064" x="111.975625" y="257.91" style="stroke: #000000; stroke-width: 0.8"/>
      </g>
     </g>
     <g id="text_7">
      <!-- 0 -->
      <g transform="translate(91.933125 267.787969) scale(0.26 -0.26)">
       <use xlink:href="#DejaVuSerif-30"/>
      </g>
     </g>
    </g>
    <g id="ytick_4">
     <g id="line2d_13">
      <path d="M 111.975625 154.024734 
L 487.269067 154.024734 
" clip-path="url(#p450bae8790)" style="fill: none; stroke-dasharray: 5.55,2.4; stroke-dashoffset: 0; stroke: #b0b0b0; stroke-opacity: 0.3; stroke-width: 1.5"/>
     </g>
     <g id="line2d_14">
      <g>
       <use xlink:href="#m5169ddc064" x="111.975625" y="154.024734" style="stroke: #000000; stroke-width: 0.8"/>
      </g>
     </g>
     <g id="text_8">
      <!-- 150 -->
      <g transform="translate(58.848125 163.902702) scale(0.26 -0.26)">
       <use xlink:href="#DejaVuSerif-31"/>
       <use xlink:href="#DejaVuSerif-35" transform="translate(63.623047 0)"/>
       <use xlink:href="#DejaVuSerif-30" transform="translate(127.246094 0)"/>
      </g>
     </g>
    </g>
    <g id="ytick_5">
     <g id="line2d_15">
      <path d="M 111.975625 50.139467 
L 487.269067 50.139467 
" clip-path="url(#p450bae8790)" style="fill: none; stroke-dasharray: 5.55,2.4; stroke-dashoffset: 0; stroke: #b0b0b0; stroke-opacity: 0.3; stroke-width: 1.5"/>
     </g>
     <g id="line2d_16">
      <g>
       <use xlink:href="#m5169ddc064" x="111.975625" y="50.139467" style="stroke: #000000; stroke-width: 0.8"/>
      </g>
     </g>
     <g id="text_9">
      <!-- 300 -->
      <g transform="translate(58.848125 60.017436) scale(0.26 -0.26)">
       <use xlink:href="#DejaVuSerif-33"/>
       <use xlink:href="#DejaVuSerif-30" transform="translate(63.623047 0)"/>
       <use xlink:href="#DejaVuSerif-30" transform="translate(127.246094 0)"/>
      </g>
     </g>
    </g>
    <g id="text_10">
     <!-- Energy [MHz] -->
     <g transform="translate(26.395313 365.46) rotate(-90) scale(0.3 -0.3)">
      <defs>
       <path id="DejaVuSerif-45" d="M 353 0 
L 353 331 
L 947 331 
L 947 4331 
L 353 4331 
L 353 4666 
L 4109 4666 
L 4109 3628 
L 3725 3628 
L 3725 4281 
L 1581 4281 
L 1581 2719 
L 3109 2719 
L 3109 3303 
L 3494 3303 
L 3494 1753 
L 3109 1753 
L 3109 2338 
L 1581 2338 
L 1581 384 
L 3775 384 
L 3775 1038 
L 4159 1038 
L 4159 0 
L 353 0 
z
" transform="scale(0.015625)"/>
       <path id="DejaVuSerif-6e" d="M 263 0 
L 263 331 
L 781 331 
L 781 2988 
L 231 2988 
L 231 3322 
L 1356 3322 
L 1356 2731 
Q 1516 3069 1770 3241 
Q 2025 3413 2363 3413 
Q 2913 3413 3172 3097 
Q 3431 2781 3431 2113 
L 3431 331 
L 3944 331 
L 3944 0 
L 2356 0 
L 2356 331 
L 2853 331 
L 2853 1931 
Q 2853 2541 2703 2767 
Q 2553 2994 2175 2994 
Q 1775 2994 1565 2701 
Q 1356 2409 1356 1850 
L 1356 331 
L 1856 331 
L 1856 0 
L 263 0 
z
" transform="scale(0.015625)"/>
       <path id="DejaVuSerif-72" d="M 3059 3328 
L 3059 2497 
L 2728 2497 
Q 2713 2744 2591 2866 
Q 2469 2988 2234 2988 
Q 1809 2988 1582 2694 
Q 1356 2400 1356 1850 
L 1356 331 
L 2022 331 
L 2022 0 
L 263 0 
L 263 331 
L 781 331 
L 781 2994 
L 231 2994 
L 231 3322 
L 1356 3322 
L 1356 2731 
Q 1525 3078 1790 3245 
Q 2056 3413 2438 3413 
Q 2578 3413 2733 3391 
Q 2888 3369 3059 3328 
z
" transform="scale(0.015625)"/>
       <path id="DejaVuSerif-67" d="M 3359 2988 
L 3359 72 
Q 3359 -644 2965 -1033 
Q 2572 -1422 1844 -1422 
Q 1516 -1422 1216 -1362 
Q 916 -1303 641 -1184 
L 641 -488 
L 941 -488 
Q 997 -813 1206 -963 
Q 1416 -1113 1806 -1113 
Q 2313 -1113 2548 -827 
Q 2784 -541 2784 72 
L 2784 519 
Q 2616 206 2355 57 
Q 2094 -91 1709 -91 
Q 1097 -91 708 395 
Q 319 881 319 1663 
Q 319 2444 706 2928 
Q 1094 3413 1709 3413 
Q 2094 3413 2355 3264 
Q 2616 3116 2784 2803 
L 2784 3322 
L 3909 3322 
L 3909 2988 
L 3359 2988 
z
M 2784 1825 
Q 2784 2422 2554 2737 
Q 2325 3053 1888 3053 
Q 1444 3053 1217 2703 
Q 991 2353 991 1663 
Q 991 975 1217 622 
Q 1444 269 1888 269 
Q 2325 269 2554 583 
Q 2784 897 2784 1497 
L 2784 1825 
z
" transform="scale(0.015625)"/>
       <path id="DejaVuSerif-79" d="M 1381 -609 
L 1600 -56 
L 359 2988 
L -19 2988 
L -19 3322 
L 1509 3322 
L 1509 2988 
L 978 2988 
L 1913 703 
L 2847 2988 
L 2350 2988 
L 2350 3322 
L 3597 3322 
L 3597 2988 
L 3225 2988 
L 1703 -750 
Q 1547 -1138 1356 -1280 
Q 1166 -1422 819 -1422 
Q 672 -1422 517 -1397 
Q 363 -1372 206 -1325 
L 206 -691 
L 500 -691 
Q 519 -903 608 -995 
Q 697 -1088 884 -1088 
Q 1056 -1088 1161 -992 
Q 1266 -897 1381 -609 
z
" transform="scale(0.015625)"/>
       <path id="DejaVuSerif-4d" d="M 353 0 
L 353 331 
L 947 331 
L 947 4331 
L 319 4331 
L 319 4666 
L 1678 4666 
L 3316 1344 
L 4953 4666 
L 6228 4666 
L 6228 4331 
L 5606 4331 
L 5606 331 
L 6203 331 
L 6203 0 
L 4378 0 
L 4378 331 
L 4972 331 
L 4972 3938 
L 3372 684 
L 2931 684 
L 1331 3938 
L 1331 331 
L 1925 331 
L 1925 0 
L 353 0 
z
" transform="scale(0.015625)"/>
       <path id="DejaVuSerif-48" d="M 353 0 
L 353 331 
L 947 331 
L 947 4331 
L 353 4331 
L 353 4666 
L 2175 4666 
L 2175 4331 
L 1581 4331 
L 1581 2719 
L 4000 2719 
L 4000 4331 
L 3406 4331 
L 3406 4666 
L 5228 4666 
L 5228 4331 
L 4634 4331 
L 4634 331 
L 5228 331 
L 5228 0 
L 3406 0 
L 3406 331 
L 4000 331 
L 4000 2338 
L 1581 2338 
L 1581 331 
L 2175 331 
L 2175 0 
L 353 0 
z
" transform="scale(0.015625)"/>
       <path id="DejaVuSerif-7a" d="M 256 0 
L 256 269 
L 2338 2988 
L 691 2988 
L 691 2413 
L 359 2413 
L 359 3322 
L 3078 3322 
L 3078 3053 
L 997 331 
L 2803 331 
L 2803 934 
L 3138 934 
L 3138 0 
L 256 0 
z
" transform="scale(0.015625)"/>
      </defs>
      <use xlink:href="#DejaVuSerif-45"/>
      <use xlink:href="#DejaVuSerif-6e" transform="translate(72.998047 0)"/>
      <use xlink:href="#DejaVuSerif-65" transform="translate(137.402344 0)"/>
      <use xlink:href="#DejaVuSerif-72" transform="translate(196.582031 0)"/>
      <use xlink:href="#DejaVuSerif-67" transform="translate(244.384766 0)"/>
      <use xlink:href="#DejaVuSerif-79" transform="translate(308.398438 0)"/>
      <use xlink:href="#DejaVuSerif-20" transform="translate(364.892578 0)"/>
      <use xlink:href="#DejaVuSerif-5b" transform="translate(396.679688 0)"/>
      <use xlink:href="#DejaVuSerif-4d" transform="translate(435.693359 0)"/>
      <use xlink:href="#DejaVuSerif-48" transform="translate(538.085938 0)"/>
      <use xlink:href="#DejaVuSerif-7a" transform="translate(625.292969 0)"/>
      <use xlink:href="#DejaVuSerif-5d" transform="translate(677.978516 0)"/>
     </g>
    </g>
   </g>
   <g id="patch_3">
    <path d="M 111.975625 481.92 
L 111.975625 33.9 
" style="fill: none; stroke: #000000; stroke-width: 0.8; stroke-linejoin: miter; stroke-linecap: square"/>
   </g>
   <g id="patch_4">
    <path d="M 487.269067 481.92 
L 487.269067 33.9 
" style="fill: none; stroke: #000000; stroke-width: 0.8; stroke-linejoin: miter; stroke-linecap: square"/>
   </g>
   <g id="patch_5">
    <path d="M 111.975625 481.92 
L 487.269067 481.92 
" style="fill: none; stroke: #000000; stroke-width: 0.8; stroke-linejoin: miter; stroke-linecap: square"/>
   </g>
   <g id="patch_6">
    <path d="M 111.975625 33.9 
L 487.269067 33.9 
" style="fill: none; stroke: #000000; stroke-width: 0.8; stroke-linejoin: miter; stroke-linecap: square"/>
   </g>
   <g id="text_11">
    <!-- $|0_L\rangle$ -->
    <g style="fill: #e41a1c" transform="translate(424.464859 353.971014) scale(0.26 -0.26)">
     <defs>
      <path id="Cmsy10-6a" d="M 763 -1484 
L 763 4684 
Q 763 4734 800 4767 
Q 838 4800 891 4800 
Q 938 4800 978 4767 
Q 1019 4734 1019 4684 
L 1019 -1484 
Q 1019 -1534 978 -1567 
Q 938 -1600 891 -1600 
Q 838 -1600 800 -1567 
Q 763 -1534 763 -1484 
z
" transform="scale(0.015625)"/>
      <path id="Cmr10-30" d="M 1600 -141 
Q 816 -141 533 504 
Q 250 1150 250 2041 
Q 250 2597 351 3087 
Q 453 3578 754 3920 
Q 1056 4263 1600 4263 
Q 2022 4263 2290 4056 
Q 2559 3850 2700 3523 
Q 2841 3197 2892 2823 
Q 2944 2450 2944 2041 
Q 2944 1491 2842 1011 
Q 2741 531 2444 195 
Q 2147 -141 1600 -141 
z
M 1600 25 
Q 1956 25 2131 390 
Q 2306 756 2347 1200 
Q 2388 1644 2388 2144 
Q 2388 2625 2347 3031 
Q 2306 3438 2132 3767 
Q 1959 4097 1600 4097 
Q 1238 4097 1063 3765 
Q 888 3434 847 3029 
Q 806 2625 806 2144 
Q 806 1788 823 1472 
Q 841 1156 916 820 
Q 991 484 1158 254 
Q 1325 25 1600 25 
z
" transform="scale(0.015625)"/>
      <path id="Cmmi10-4c" d="M 300 0 
Q 238 0 238 84 
Q 241 100 250 139 
Q 259 178 276 201 
Q 294 225 319 225 
Q 709 225 863 269 
Q 947 297 984 441 
L 1863 3956 
Q 1875 4019 1875 4044 
Q 1875 4113 1797 4122 
Q 1678 4147 1338 4147 
Q 1275 4147 1275 4231 
Q 1297 4313 1309 4342 
Q 1322 4372 1381 4372 
L 3272 4372 
Q 3328 4372 3328 4288 
Q 3319 4222 3306 4184 
Q 3294 4147 3244 4147 
Q 2772 4147 2613 4116 
Q 2456 4088 2419 3928 
L 1544 416 
Q 1516 338 1516 275 
Q 1516 225 1734 225 
L 2328 225 
Q 2831 225 3143 425 
Q 3456 625 3606 876 
Q 3756 1128 3857 1398 
Q 3959 1669 4006 1678 
L 4063 1678 
Q 4128 1678 4128 1594 
L 3559 44 
Q 3550 0 3500 0 
L 300 0 
z
" transform="scale(0.015625)"/>
      <path id="Cmex10-ae" d="M 500 -7297 
Q 500 -7263 513 -7250 
L 2119 -3584 
L 513 84 
Q 500 97 500 128 
Q 500 175 537 215 
Q 575 256 628 256 
Q 703 256 750 178 
L 2381 -3541 
Q 2388 -3553 2388 -3584 
Q 2388 -3616 2381 -3634 
L 750 -7347 
Q 700 -7425 628 -7425 
Q 575 -7425 537 -7384 
Q 500 -7344 500 -7297 
z
" transform="scale(0.015625)"/>
     </defs>
     <use xlink:href="#Cmsy10-6a" transform="translate(0 0.658854)"/>
     <use xlink:href="#Cmr10-30" transform="translate(27.685547 0.658854)"/>
     <use xlink:href="#Cmmi10-4c" transform="translate(82.149687 -16.347396) scale(0.7)"/>
     <use xlink:href="#Cmex10-ae" transform="translate(136.139336 94)"/>
    </g>
   </g>
   <g id="text_12">
    <!-- $|1_L\rangle$ -->
    <g style="fill: #377eb8" transform="translate(424.464859 388.599519) scale(0.26 -0.26)">
     <defs>
      <path id="Cmr10-31" d="M 594 0 
L 594 225 
Q 1394 225 1394 428 
L 1394 3788 
Q 1063 3628 556 3628 
L 556 3853 
Q 1341 3853 1741 4263 
L 1831 4263 
Q 1853 4263 1873 4245 
Q 1894 4228 1894 4206 
L 1894 428 
Q 1894 225 2694 225 
L 2694 0 
L 594 0 
z
" transform="scale(0.015625)"/>
     </defs>
     <use xlink:href="#Cmsy10-6a" transform="translate(0 0.658854)"/>
     <use xlink:href="#Cmr10-31" transform="translate(27.685547 0.658854)"/>
     <use xlink:href="#Cmmi10-4c" transform="translate(82.149687 -16.347396) scale(0.7)"/>
     <use xlink:href="#Cmex10-ae" transform="translate(136.139336 94)"/>
    </g>
   </g>
   <g id="text_13">
    <!-- $|011\rangle$ -->
    <g style="fill: #666666; opacity: 0.85" transform="translate(424.464859 283.984253) scale(0.24 -0.24)">
     <use xlink:href="#Cmsy10-6a" transform="translate(0 0.658854)"/>
     <use xlink:href="#Cmr10-30" transform="translate(27.685547 0.658854)"/>
     <use xlink:href="#Cmr10-31" transform="translate(77.685547 0.658854)"/>
     <use xlink:href="#Cmr10-31" transform="translate(127.685547 0.658854)"/>
     <use xlink:href="#Cmex10-ae" transform="translate(177.685547 94)"/>
    </g>
   </g>
   <g id="text_14">
    <!-- $|110\rangle$ -->
    <g style="fill: #666666; opacity: 0.85" transform="translate(424.464859 268.747747) scale(0.24 -0.24)">
     <use xlink:href="#Cmsy10-6a" transform="translate(0 0.658854)"/>
     <use xlink:href="#Cmr10-31" transform="translate(27.685547 0.658854)"/>
     <use xlink:href="#Cmr10-31" transform="translate(77.685547 0.658854)"/>
     <use xlink:href="#Cmr10-30" transform="translate(127.685547 0.658854)"/>
     <use xlink:href="#Cmex10-ae" transform="translate(177.685547 94)"/>
    </g>
   </g>
   <g id="text_15">
    <!-- $|100\rangle$ -->
    <g style="fill: #666666; opacity: 0.85" transform="translate(424.464859 245.20042) scale(0.24 -0.24)">
     <use xlink:href="#Cmsy10-6a" transform="translate(0 0.658854)"/>
     <use xlink:href="#Cmr10-31" transform="translate(27.685547 0.658854)"/>
     <use xlink:href="#Cmr10-30" transform="translate(77.685547 0.658854)"/>
     <use xlink:href="#Cmr10-30" transform="translate(127.685547 0.658854)"/>
     <use xlink:href="#Cmex10-ae" transform="translate(177.685547 94)"/>
    </g>
   </g>
   <g id="text_16">
    <!-- $|001\rangle$ -->
    <g style="fill: #666666; opacity: 0.85" transform="translate(424.464859 229.963914) scale(0.24 -0.24)">
     <use xlink:href="#Cmsy10-6a" transform="translate(0 0.658854)"/>
     <use xlink:href="#Cmr10-30" transform="translate(27.685547 0.658854)"/>
     <use xlink:href="#Cmr10-30" transform="translate(77.685547 0.658854)"/>
     <use xlink:href="#Cmr10-31" transform="translate(127.685547 0.658854)"/>
     <use xlink:href="#Cmex10-ae" transform="translate(177.685547 94)"/>
    </g>
   </g>
   <g id="text_17">
    <!-- $|101\rangle$ -->
    <g style="fill: #666666; opacity: 0.85" transform="translate(424.464859 180.098986) scale(0.24 -0.24)">
     <use xlink:href="#Cmsy10-6a" transform="translate(0 0.658854)"/>
     <use xlink:href="#Cmr10-31" transform="translate(27.685547 0.658854)"/>
     <use xlink:href="#Cmr10-30" transform="translate(77.685547 0.658854)"/>
     <use xlink:href="#Cmr10-31" transform="translate(127.685547 0.658854)"/>
     <use xlink:href="#Cmex10-ae" transform="translate(177.685547 94)"/>
    </g>
   </g>
   <g id="text_18">
    <!-- $|010\rangle$ -->
    <g style="fill: #666666; opacity: 0.85" transform="translate(424.464859 145.470481) scale(0.24 -0.24)">
     <use xlink:href="#Cmsy10-6a" transform="translate(0 0.658854)"/>
     <use xlink:href="#Cmr10-30" transform="translate(27.685547 0.658854)"/>
     <use xlink:href="#Cmr10-31" transform="translate(77.685547 0.658854)"/>
     <use xlink:href="#Cmr10-30" transform="translate(127.685547 0.658854)"/>
     <use xlink:href="#Cmex10-ae" transform="translate(177.685547 94)"/>
    </g>
   </g>
   <g id="text_19">
    <!-- (a) Repetition $[[3,1,3]]$ -->
    <g transform="translate(137.622346 26.4) scale(0.3 -0.3)">
     <defs>
      <path id="DejaVuSerif-28" d="M 2041 -997 
Q 1281 -656 893 83 
Q 506 822 506 1931 
Q 506 3044 893 3783 
Q 1281 4522 2041 4863 
L 2041 4556 
Q 1559 4225 1350 3623 
Q 1141 3022 1141 1931 
Q 1141 844 1350 242 
Q 1559 -359 2041 -691 
L 2041 -997 
z
" transform="scale(0.015625)"/>
      <path id="DejaVuSerif-61" d="M 2547 1044 
L 2547 1747 
L 1806 1747 
Q 1378 1747 1168 1562 
Q 959 1378 959 997 
Q 959 650 1171 447 
Q 1384 244 1747 244 
Q 2106 244 2326 466 
Q 2547 688 2547 1044 
z
M 3122 2075 
L 3122 331 
L 3634 331 
L 3634 0 
L 2547 0 
L 2547 359 
Q 2356 128 2106 18 
Q 1856 -91 1522 -91 
Q 969 -91 644 203 
Q 319 497 319 997 
Q 319 1513 691 1797 
Q 1063 2081 1741 2081 
L 2547 2081 
L 2547 2309 
Q 2547 2688 2317 2895 
Q 2088 3103 1672 3103 
Q 1328 3103 1125 2947 
Q 922 2791 872 2484 
L 575 2484 
L 575 3156 
Q 875 3284 1158 3348 
Q 1441 3413 1709 3413 
Q 2400 3413 2761 3070 
Q 3122 2728 3122 2075 
z
" transform="scale(0.015625)"/>
      <path id="DejaVuSerif-29" d="M 453 -997 
L 453 -691 
Q 934 -359 1145 242 
Q 1356 844 1356 1931 
Q 1356 3022 1145 3623 
Q 934 4225 453 4556 
L 453 4863 
Q 1216 4522 1603 3783 
Q 1991 3044 1991 1931 
Q 1991 822 1603 83 
Q 1216 -656 453 -997 
z
" transform="scale(0.015625)"/>
      <path id="DejaVuSerif-52" d="M 3066 2316 
Q 3284 2256 3442 2114 
Q 3600 1972 3725 1716 
L 4403 331 
L 4972 331 
L 4972 0 
L 3872 0 
L 3144 1484 
Q 2934 1916 2759 2042 
Q 2584 2169 2278 2169 
L 1581 2169 
L 1581 331 
L 2241 331 
L 2241 0 
L 353 0 
L 353 331 
L 947 331 
L 947 4331 
L 353 4331 
L 353 4666 
L 2719 4666 
Q 3400 4666 3770 4341 
Q 4141 4016 4141 3419 
Q 4141 2938 3870 2661 
Q 3600 2384 3066 2316 
z
M 1581 2503 
L 2503 2503 
Q 2975 2503 3200 2726 
Q 3425 2950 3425 3419 
Q 3425 3888 3200 4109 
Q 2975 4331 2503 4331 
L 1581 4331 
L 1581 2503 
z
" transform="scale(0.015625)"/>
      <path id="DejaVuSerif-70" d="M 1313 1825 
L 1313 1497 
Q 1313 897 1542 583 
Q 1772 269 2209 269 
Q 2650 269 2876 622 
Q 3103 975 3103 1663 
Q 3103 2353 2876 2703 
Q 2650 3053 2209 3053 
Q 1772 3053 1542 2737 
Q 1313 2422 1313 1825 
z
M 738 2988 
L 184 2988 
L 184 3322 
L 1313 3322 
L 1313 2803 
Q 1481 3116 1742 3264 
Q 2003 3413 2388 3413 
Q 3000 3413 3387 2928 
Q 3775 2444 3775 1663 
Q 3775 881 3387 395 
Q 3000 -91 2388 -91 
Q 2003 -91 1742 57 
Q 1481 206 1313 519 
L 1313 -997 
L 1856 -997 
L 1856 -1331 
L 184 -1331 
L 184 -997 
L 738 -997 
L 738 2988 
z
" transform="scale(0.015625)"/>
      <path id="DejaVuSerif-74" d="M 691 2988 
L 184 2988 
L 184 3322 
L 691 3322 
L 691 4353 
L 1269 4353 
L 1269 3322 
L 2350 3322 
L 2350 2988 
L 1269 2988 
L 1269 878 
Q 1269 456 1350 337 
Q 1431 219 1650 219 
Q 1875 219 1978 351 
Q 2081 484 2088 781 
L 2522 781 
Q 2497 328 2275 118 
Q 2053 -91 1600 -91 
Q 1103 -91 897 129 
Q 691 350 691 878 
L 691 2988 
z
" transform="scale(0.015625)"/>
      <path id="DejaVuSerif-6f" d="M 1925 219 
Q 2388 219 2623 584 
Q 2859 950 2859 1663 
Q 2859 2375 2623 2739 
Q 2388 3103 1925 3103 
Q 1463 3103 1227 2739 
Q 991 2375 991 1663 
Q 991 950 1228 584 
Q 1466 219 1925 219 
z
M 1925 -91 
Q 1200 -91 759 389 
Q 319 869 319 1663 
Q 319 2456 758 2934 
Q 1197 3413 1925 3413 
Q 2653 3413 3092 2934 
Q 3531 2456 3531 1663 
Q 3531 869 3092 389 
Q 2653 -91 1925 -91 
z
" transform="scale(0.015625)"/>
      <path id="Cmr10-5b" d="M 756 -1600 
L 756 4800 
L 1631 4800 
L 1631 4544 
L 1013 4544 
L 1013 -1344 
L 1631 -1344 
L 1631 -1600 
L 756 -1600 
z
" transform="scale(0.015625)"/>
      <path id="Cmr10-33" d="M 609 494 
Q 759 275 1012 169 
Q 1266 63 1556 63 
Q 1928 63 2084 380 
Q 2241 697 2241 1100 
Q 2241 1281 2208 1462 
Q 2175 1644 2097 1800 
Q 2019 1956 1883 2050 
Q 1747 2144 1550 2144 
L 1125 2144 
Q 1069 2144 1069 2203 
L 1069 2259 
Q 1069 2309 1125 2309 
L 1478 2338 
Q 1703 2338 1851 2506 
Q 2000 2675 2069 2917 
Q 2138 3159 2138 3378 
Q 2138 3684 1994 3881 
Q 1850 4078 1556 4078 
Q 1313 4078 1091 3986 
Q 869 3894 738 3706 
Q 750 3709 759 3711 
Q 769 3713 781 3713 
Q 925 3713 1022 3613 
Q 1119 3513 1119 3372 
Q 1119 3234 1022 3134 
Q 925 3034 781 3034 
Q 641 3034 541 3134 
Q 441 3234 441 3372 
Q 441 3647 606 3850 
Q 772 4053 1033 4158 
Q 1294 4263 1556 4263 
Q 1750 4263 1965 4205 
Q 2181 4147 2356 4039 
Q 2531 3931 2642 3762 
Q 2753 3594 2753 3378 
Q 2753 3109 2633 2881 
Q 2513 2653 2303 2487 
Q 2094 2322 1844 2241 
Q 2122 2188 2372 2031 
Q 2622 1875 2773 1631 
Q 2925 1388 2925 1106 
Q 2925 753 2731 467 
Q 2538 181 2222 20 
Q 1906 -141 1556 -141 
Q 1256 -141 954 -26 
Q 653 88 461 316 
Q 269 544 269 863 
Q 269 1022 375 1128 
Q 481 1234 641 1234 
Q 744 1234 830 1186 
Q 916 1138 964 1050 
Q 1013 963 1013 863 
Q 1013 706 903 600 
Q 794 494 641 494 
L 609 494 
z
" transform="scale(0.015625)"/>
      <path id="Cmmi10-3b" d="M 634 -1153 
Q 634 -1125 659 -1100 
Q 891 -878 1019 -587 
Q 1147 -297 1147 25 
L 1147 103 
Q 1044 0 891 0 
Q 744 0 641 103 
Q 538 206 538 353 
Q 538 503 641 603 
Q 744 703 891 703 
Q 1119 703 1216 492 
Q 1313 281 1313 25 
Q 1313 -331 1170 -651 
Q 1028 -972 769 -1228 
Q 744 -1241 728 -1241 
Q 697 -1241 665 -1212 
Q 634 -1184 634 -1153 
z
" transform="scale(0.015625)"/>
      <path id="Cmr10-5d" d="M 141 -1600 
L 141 -1344 
L 763 -1344 
L 763 4544 
L 141 4544 
L 141 4800 
L 1019 4800 
L 1019 -1600 
L 141 -1600 
z
" transform="scale(0.015625)"/>
     </defs>
     <use xlink:href="#DejaVuSerif-28" transform="translate(0 0.015625)"/>
     <use xlink:href="#DejaVuSerif-61" transform="translate(39.013672 0.015625)"/>
     <use xlink:href="#DejaVuSerif-29" transform="translate(98.632812 0.015625)"/>
     <use xlink:href="#DejaVuSerif-20" transform="translate(137.646484 0.015625)"/>
     <use xlink:href="#DejaVuSerif-52" transform="translate(169.433594 0.015625)"/>
     <use xlink:href="#DejaVuSerif-65" transform="translate(244.726562 0.015625)"/>
     <use xlink:href="#DejaVuSerif-70" transform="translate(303.90625 0.015625)"/>
     <use xlink:href="#DejaVuSerif-65" transform="translate(367.919922 0.015625)"/>
     <use xlink:href="#DejaVuSerif-74" transform="translate(427.099609 0.015625)"/>
     <use xlink:href="#DejaVuSerif-69" transform="translate(467.285156 0.015625)"/>
     <use xlink:href="#DejaVuSerif-74" transform="translate(499.267578 0.015625)"/>
     <use xlink:href="#DejaVuSerif-69" transform="translate(539.453125 0.015625)"/>
     <use xlink:href="#DejaVuSerif-6f" transform="translate(571.435547 0.015625)"/>
     <use xlink:href="#DejaVuSerif-6e" transform="translate(631.640625 0.015625)"/>
     <use xlink:href="#DejaVuSerif-20" transform="translate(696.044922 0.015625)"/>
     <use xlink:href="#Cmr10-5b" transform="translate(727.832031 0.015625)"/>
     <use xlink:href="#Cmr10-5b" transform="translate(755.517578 0.015625)"/>
     <use xlink:href="#Cmr10-33" transform="translate(783.203125 0.015625)"/>
     <use xlink:href="#Cmmi10-3b" transform="translate(833.203125 0.015625)"/>
     <use xlink:href="#Cmr10-31" transform="translate(878.447266 0.015625)"/>
     <use xlink:href="#Cmmi10-3b" transform="translate(928.447266 0.015625)"/>
     <use xlink:href="#Cmr10-33" transform="translate(973.691406 0.015625)"/>
     <use xlink:href="#Cmr10-5d" transform="translate(1023.691406 0.015625)"/>
     <use xlink:href="#Cmr10-5d" transform="translate(1051.376953 0.015625)"/>
    </g>
   </g>
   <g id="line2d_17">
    <path d="M 111.975625 275.224253 
L 168.958956 268.892737 
L 180.29435 267.859365 
L 187.953399 267.370301 
L 194.387001 267.179728 
L 199.901517 267.229984 
L 205.416033 267.507625 
L 210.930549 268.016897 
L 216.751427 268.779855 
L 223.797753 269.934534 
L 247.081264 273.939527 
L 252.902142 274.616146 
L 258.416658 275.037063 
L 263.624812 275.214476 
L 268.832966 275.168238 
L 274.04112 274.900813 
L 279.555636 274.392613 
L 285.682876 273.593523 
L 293.035563 272.391846 
L 316.319075 268.392441 
L 322.139953 267.734129 
L 327.654469 267.339474 
L 333.168985 267.177727 
L 338.989862 267.240448 
L 345.423464 267.53751 
L 353.388876 268.137875 
L 364.72427 269.239273 
L 386.16961 271.593467 
L 418.337619 275.224253 
L 418.337619 275.224253 
" clip-path="url(#p450bae8790)" style="fill: none; stroke-dasharray: 11.1,4.8; stroke-dashoffset: 0; stroke: #666666; stroke-opacity: 0.7; stroke-width: 3"/>
   </g>
   <g id="line2d_18">
    <path d="M 111.975625 275.224253 
L 168.958956 268.892737 
L 180.29435 267.859365 
L 187.953399 267.370301 
L 194.387001 267.179728 
L 199.901517 267.229984 
L 205.416033 267.507625 
L 210.930549 268.016897 
L 216.751427 268.779855 
L 223.797753 269.934534 
L 247.081264 273.939527 
L 252.902142 274.616146 
L 258.416658 275.037063 
L 263.624812 275.214476 
L 268.832966 275.168238 
L 274.04112 274.900813 
L 279.555636 274.392613 
L 285.682876 273.593523 
L 293.035563 272.391846 
L 316.319075 268.392441 
L 322.139953 267.734129 
L 327.654469 267.339474 
L 333.168985 267.177727 
L 338.989862 267.240448 
L 345.423464 267.53751 
L 353.388876 268.137875 
L 364.72427 269.239273 
L 386.16961 271.593467 
L 418.337619 275.224253 
L 418.337619 275.224253 
" clip-path="url(#p450bae8790)" style="fill: none; stroke-dasharray: 11.1,4.8; stroke-dashoffset: 0; stroke: #666666; stroke-opacity: 0.7; stroke-width: 3"/>
   </g>
   <g id="line2d_19">
    <path d="M 111.975625 240.595747 
L 168.958956 246.927263 
L 180.29435 247.960635 
L 187.953399 248.449699 
L 194.387001 248.640272 
L 199.901517 248.590016 
L 205.416033 248.312375 
L 210.930549 247.803103 
L 216.751427 247.040145 
L 223.797753 245.885466 
L 247.081264 241.880473 
L 252.902142 241.203854 
L 258.416658 240.782937 
L 263.624812 240.605524 
L 268.832966 240.651762 
L 274.04112 240.919187 
L 279.555636 241.427387 
L 285.682876 242.226477 
L 293.035563 243.428154 
L 316.319075 247.427559 
L 322.139953 248.085871 
L 327.654469 248.480526 
L 333.168985 248.642273 
L 338.989862 248.579552 
L 345.423464 248.28249 
L 353.388876 247.682125 
L 364.72427 246.580727 
L 386.16961 244.226533 
L 418.337619 240.595747 
L 418.337619 240.595747 
" clip-path="url(#p450bae8790)" style="fill: none; stroke-dasharray: 11.1,4.8; stroke-dashoffset: 0; stroke: #666666; stroke-opacity: 0.7; stroke-width: 3"/>
   </g>
   <g id="line2d_20">
    <path d="M 111.975625 240.595747 
L 168.958956 246.927263 
L 180.29435 247.960635 
L 187.953399 248.449699 
L 194.387001 248.640272 
L 199.901517 248.590016 
L 205.416033 248.312375 
L 210.930549 247.803103 
L 216.751427 247.040145 
L 223.797753 245.885466 
L 247.081264 241.880473 
L 252.902142 241.203854 
L 258.416658 240.782937 
L 263.624812 240.605524 
L 268.832966 240.651762 
L 274.04112 240.919187 
L 279.555636 241.427387 
L 285.682876 242.226477 
L 293.035563 243.428154 
L 316.319075 247.427559 
L 322.139953 248.085871 
L 327.654469 248.480526 
L 333.168985 248.642273 
L 338.989862 248.579552 
L 345.423464 248.28249 
L 353.388876 247.682125 
L 364.72427 246.580727 
L 386.16961 244.226533 
L 418.337619 240.595747 
L 418.337619 240.595747 
" clip-path="url(#p450bae8790)" style="fill: none; stroke-dasharray: 11.1,4.8; stroke-dashoffset: 0; stroke: #666666; stroke-opacity: 0.7; stroke-width: 3"/>
   </g>
   <g id="line2d_21">
    <path d="M 111.975625 171.338986 
L 168.958956 165.007471 
L 180.29435 163.974098 
L 187.953399 163.485035 
L 194.387001 163.294461 
L 199.901517 163.344718 
L 205.416033 163.622358 
L 210.930549 164.131631 
L 216.751427 164.894588 
L 223.797753 166.049268 
L 247.081264 170.054261 
L 252.902142 170.730879 
L 258.416658 171.151797 
L 263.624812 171.329209 
L 268.832966 171.282971 
L 274.04112 171.015547 
L 279.555636 170.507347 
L 285.682876 169.708256 
L 293.035563 168.506579 
L 316.319075 164.507174 
L 322.139953 163.848863 
L 327.654469 163.454207 
L 333.168985 163.292461 
L 338.989862 163.355181 
L 345.423464 163.652244 
L 353.388876 164.252608 
L 364.72427 165.354007 
L 386.16961 167.708201 
L 418.337619 171.338986 
L 418.337619 171.338986 
" clip-path="url(#p450bae8790)" style="fill: none; stroke-dasharray: 11.1,4.8; stroke-dashoffset: 0; stroke: #666666; stroke-opacity: 0.7; stroke-width: 3"/>
   </g>
   <g id="line2d_22">
    <path d="M 111.975625 136.710481 
L 168.958956 143.041996 
L 180.29435 144.075369 
L 187.953399 144.564432 
L 194.387001 144.755006 
L 199.901517 144.704749 
L 205.416033 144.427109 
L 210.930549 143.917836 
L 216.751427 143.154879 
L 223.797753 142.000199 
L 247.081264 137.995206 
L 252.902142 137.318588 
L 258.416658 136.89767 
L 263.624812 136.720258 
L 268.832966 136.766496 
L 274.04112 137.03392 
L 279.555636 137.54212 
L 285.682876 138.341211 
L 293.035563 139.542888 
L 316.319075 143.542293 
L 322.139953 144.200604 
L 327.654469 144.59526 
L 333.168985 144.757006 
L 338.989862 144.694286 
L 345.423464 144.397223 
L 353.388876 143.796859 
L 364.72427 142.695461 
L 386.16961 140.341266 
L 418.337619 136.710481 
L 418.337619 136.710481 
" clip-path="url(#p450bae8790)" style="fill: none; stroke-dasharray: 11.1,4.8; stroke-dashoffset: 0; stroke: #666666; stroke-opacity: 0.7; stroke-width: 3"/>
   </g>
   <g id="line2d_23">
    <path d="M 111.975625 379.109519 
L 168.958956 372.778004 
L 180.29435 371.744631 
L 187.953399 371.255568 
L 194.387001 371.064994 
L 199.901517 371.115251 
L 205.416033 371.392891 
L 210.930549 371.902164 
L 216.751427 372.665121 
L 223.797753 373.819801 
L 247.081264 377.824794 
L 252.902142 378.501412 
L 258.416658 378.92233 
L 263.624812 379.099742 
L 265.156622 379.109478 
M 265.769346 344.482614 
L 270.9775 344.620908 
L 276.185654 344.975917 
L 282.006532 345.605441 
L 288.440133 346.537077 
L 296.711907 347.975846 
L 312.642731 350.787014 
L 319.076333 351.653626 
L 324.590849 352.175333 
L 330.105365 352.465983 
L 335.619881 352.528319 
L 341.74712 352.363063 
L 348.793446 351.938974 
L 357.984306 351.145125 
L 372.076958 349.678254 
L 410.065845 345.415864 
L 418.337619 344.481014 
L 418.337619 344.481014 
" clip-path="url(#p450bae8790)" style="fill: none; stroke: #e41a1c; stroke-width: 6; stroke-linecap: square"/>
   </g>
   <g id="line2d_24">
    <path d="M 111.975625 344.481014 
L 168.958956 350.812529 
L 180.29435 351.845902 
L 187.953399 352.334965 
L 194.387001 352.525539 
L 199.901517 352.475282 
L 205.416033 352.197642 
L 210.930549 351.688369 
L 216.751427 350.925412 
L 223.797753 349.770732 
L 247.081264 345.765739 
L 252.902142 345.089121 
L 258.416658 344.668203 
L 263.624812 344.490791 
L 265.156622 344.481055 
M 265.769346 379.107919 
L 270.9775 378.969625 
L 276.185654 378.614616 
L 282.006532 377.985092 
L 288.440133 377.053456 
L 296.711907 375.614687 
L 312.642731 372.803519 
L 319.076333 371.936907 
L 324.590849 371.4152 
L 330.105365 371.124549 
L 335.619881 371.062214 
L 341.74712 371.22747 
L 348.793446 371.651559 
L 357.984306 372.445408 
L 372.076958 373.912279 
L 410.065845 378.174669 
L 418.337619 379.109519 
L 418.337619 379.109519 
" clip-path="url(#p450bae8790)" style="fill: none; stroke: #377eb8; stroke-width: 6; stroke-linecap: square"/>
   </g>
  </g>
  <g id="axes_2">
   <g id="patch_7">
    <path d="M 506.03374 481.92 
L 881.327182 481.92 
L 881.327182 33.9 
L 506.03374 33.9 
z
" style="fill: #ffffff"/>
   </g>
   <g id="matplotlib.axis_3">
    <g id="xtick_4">
     <g id="line2d_25">
      <path d="M 506.03374 481.92 
L 506.03374 33.9 
" clip-path="url(#pb0952d3b6b)" style="fill: none; stroke-dasharray: 5.55,2.4; stroke-dashoffset: 0; stroke: #b0b0b0; stroke-opacity: 0.3; stroke-width: 1.5"/>
     </g>
     <g id="line2d_26">
      <g>
       <use xlink:href="#m92163afc68" x="506.03374" y="481.92" style="stroke: #000000; stroke-width: 0.8"/>
      </g>
     </g>
     <g id="text_20">
      <!-- 0 -->
      <g transform="translate(497.76249 505.175937) scale(0.26 -0.26)">
       <use xlink:href="#DejaVuSerif-30"/>
      </g>
     </g>
    </g>
    <g id="xtick_5">
     <g id="line2d_27">
      <path d="M 635.445271 481.92 
L 635.445271 33.9 
" clip-path="url(#pb0952d3b6b)" style="fill: none; stroke-dasharray: 5.55,2.4; stroke-dashoffset: 0; stroke: #b0b0b0; stroke-opacity: 0.3; stroke-width: 1.5"/>
     </g>
     <g id="line2d_28">
      <g>
       <use xlink:href="#m92163afc68" x="635.445271" y="481.92" style="stroke: #000000; stroke-width: 0.8"/>
      </g>
     </g>
     <g id="text_21">
      <!-- 2 -->
      <g transform="translate(627.174021 505.175937) scale(0.26 -0.26)">
       <use xlink:href="#DejaVuSerif-32"/>
      </g>
     </g>
    </g>
    <g id="xtick_6">
     <g id="line2d_29">
      <path d="M 764.856803 481.92 
L 764.856803 33.9 
" clip-path="url(#pb0952d3b6b)" style="fill: none; stroke-dasharray: 5.55,2.4; stroke-dashoffset: 0; stroke: #b0b0b0; stroke-opacity: 0.3; stroke-width: 1.5"/>
     </g>
     <g id="line2d_30">
      <g>
       <use xlink:href="#m92163afc68" x="764.856803" y="481.92" style="stroke: #000000; stroke-width: 0.8"/>
      </g>
     </g>
     <g id="text_22">
      <!-- 4 -->
      <g transform="translate(756.585553 505.175937) scale(0.26 -0.26)">
       <use xlink:href="#DejaVuSerif-34"/>
      </g>
     </g>
    </g>
    <g id="text_23">
     <!-- Time [$\mu$s] -->
     <g transform="translate(622.430461 537.383125) scale(0.3 -0.3)">
      <use xlink:href="#DejaVuSerif-54" transform="translate(0 0.015625)"/>
      <use xlink:href="#DejaVuSerif-69" transform="translate(66.699219 0.015625)"/>
      <use xlink:href="#DejaVuSerif-6d" transform="translate(98.681641 0.015625)"/>
      <use xlink:href="#DejaVuSerif-65" transform="translate(193.505859 0.015625)"/>
      <use xlink:href="#DejaVuSerif-20" transform="translate(252.685547 0.015625)"/>
      <use xlink:href="#DejaVuSerif-5b" transform="translate(284.472656 0.015625)"/>
      <use xlink:href="#Cmmi10-b9" transform="translate(323.486328 0.015625)"/>
      <use xlink:href="#DejaVuSerif-73" transform="translate(383.691406 0.015625)"/>
      <use xlink:href="#DejaVuSerif-5d" transform="translate(435.009766 0.015625)"/>
     </g>
    </g>
   </g>
   <g id="matplotlib.axis_4">
    <g id="ytick_6">
     <g id="line2d_31">
      <path d="M 506.03374 465.680533 
L 881.327182 465.680533 
" clip-path="url(#pb0952d3b6b)" style="fill: none; stroke-dasharray: 5.55,2.4; stroke-dashoffset: 0; stroke: #b0b0b0; stroke-opacity: 0.3; stroke-width: 1.5"/>
     </g>
     <g id="line2d_32">
      <g>
       <use xlink:href="#m5169ddc064" x="506.03374" y="465.680533" style="stroke: #000000; stroke-width: 0.8"/>
      </g>
     </g>
    </g>
    <g id="ytick_7">
     <g id="line2d_33">
      <path d="M 506.03374 361.795266 
L 881.327182 361.795266 
" clip-path="url(#pb0952d3b6b)" style="fill: none; stroke-dasharray: 5.55,2.4; stroke-dashoffset: 0; stroke: #b0b0b0; stroke-opacity: 0.3; stroke-width: 1.5"/>
     </g>
     <g id="line2d_34">
      <g>
       <use xlink:href="#m5169ddc064" x="506.03374" y="361.795266" style="stroke: #000000; stroke-width: 0.8"/>
      </g>
     </g>
    </g>
    <g id="ytick_8">
     <g id="line2d_35">
      <path d="M 506.03374 257.91 
L 881.327182 257.91 
" clip-path="url(#pb0952d3b6b)" style="fill: none; stroke-dasharray: 5.55,2.4; stroke-dashoffset: 0; stroke: #b0b0b0; stroke-opacity: 0.3; stroke-width: 1.5"/>
     </g>
     <g id="line2d_36">
      <g>
       <use xlink:href="#m5169ddc064" x="506.03374" y="257.91" style="stroke: #000000; stroke-width: 0.8"/>
      </g>
     </g>
    </g>
    <g id="ytick_9">
     <g id="line2d_37">
      <path d="M 506.03374 154.024734 
L 881.327182 154.024734 
" clip-path="url(#pb0952d3b6b)" style="fill: none; stroke-dasharray: 5.55,2.4; stroke-dashoffset: 0; stroke: #b0b0b0; stroke-opacity: 0.3; stroke-width: 1.5"/>
     </g>
     <g id="line2d_38">
      <g>
       <use xlink:href="#m5169ddc064" x="506.03374" y="154.024734" style="stroke: #000000; stroke-width: 0.8"/>
      </g>
     </g>
    </g>
    <g id="ytick_10">
     <g id="line2d_39">
      <path d="M 506.03374 50.139467 
L 881.327182 50.139467 
" clip-path="url(#pb0952d3b6b)" style="fill: none; stroke-dasharray: 5.55,2.4; stroke-dashoffset: 0; stroke: #b0b0b0; stroke-opacity: 0.3; stroke-width: 1.5"/>
     </g>
     <g id="line2d_40">
      <g>
       <use xlink:href="#m5169ddc064" x="506.03374" y="50.139467" style="stroke: #000000; stroke-width: 0.8"/>
      </g>
     </g>
    </g>
   </g>
   <g id="patch_8">
    <path d="M 506.03374 481.92 
L 506.03374 33.9 
" style="fill: none; stroke: #000000; stroke-width: 0.8; stroke-linejoin: miter; stroke-linecap: square"/>
   </g>
   <g id="patch_9">
    <path d="M 881.327182 481.92 
L 881.327182 33.9 
" style="fill: none; stroke: #000000; stroke-width: 0.8; stroke-linejoin: miter; stroke-linecap: square"/>
   </g>
   <g id="patch_10">
    <path d="M 506.03374 481.92 
L 881.327182 481.92 
" style="fill: none; stroke: #000000; stroke-width: 0.8; stroke-linejoin: miter; stroke-linecap: square"/>
   </g>
   <g id="patch_11">
    <path d="M 506.03374 33.9 
L 881.327182 33.9 
" style="fill: none; stroke: #000000; stroke-width: 0.8; stroke-linejoin: miter; stroke-linecap: square"/>
   </g>
   <g id="text_24">
    <!-- $|0_L\rangle \otimes |0_G\rangle$ -->
    <g style="fill: #e41a1c" transform="translate(770.033265 397.0017) scale(0.26 -0.26)">
     <defs>
      <path id="Cmsy10-ad" d="M 2491 -531 
Q 2053 -531 1668 -365 
Q 1284 -200 986 95 
Q 688 391 523 780 
Q 359 1169 359 1600 
Q 359 2038 521 2422 
Q 684 2806 984 3106 
Q 1284 3406 1668 3568 
Q 2053 3731 2491 3731 
Q 2925 3731 3312 3565 
Q 3700 3400 3994 3104 
Q 4288 2809 4452 2421 
Q 4616 2034 4616 1600 
Q 4616 1172 4450 780 
Q 4284 388 3992 95 
Q 3700 -197 3312 -364 
Q 2925 -531 2491 -531 
z
M 1178 159 
Q 1738 -347 2491 -347 
Q 2844 -347 3187 -214 
Q 3531 -81 3794 159 
L 2491 1466 
L 1178 159 
z
M 1050 288 
L 2356 1600 
L 1050 2913 
Q 803 2644 673 2305 
Q 544 1966 544 1600 
Q 544 1353 601 1122 
Q 659 891 775 675 
Q 891 459 1050 288 
z
M 3922 288 
Q 4081 459 4197 675 
Q 4313 891 4370 1122 
Q 4428 1353 4428 1600 
Q 4428 1847 4370 2078 
Q 4313 2309 4197 2525 
Q 4081 2741 3922 2913 
L 2619 1600 
L 3922 288 
z
M 2491 1734 
L 3794 3041 
Q 3522 3288 3189 3417 
Q 2856 3547 2491 3547 
Q 2122 3547 1789 3419 
Q 1456 3291 1178 3041 
L 2491 1734 
z
" transform="scale(0.015625)"/>
      <path id="Cmmi10-47" d="M 934 1403 
Q 934 1006 1092 707 
Q 1250 409 1547 246 
Q 1844 84 2234 84 
Q 2616 84 2959 264 
Q 3303 444 3391 781 
L 3531 1331 
Q 3534 1350 3537 1370 
Q 3541 1391 3541 1403 
Q 3541 1469 3500 1478 
Q 3341 1522 2859 1522 
Q 2797 1522 2797 1606 
Q 2816 1684 2831 1715 
Q 2847 1747 2906 1747 
L 4556 1747 
Q 4622 1747 4622 1663 
Q 4619 1647 4609 1609 
Q 4600 1572 4584 1547 
Q 4569 1522 4538 1522 
Q 4325 1522 4226 1487 
Q 4128 1453 4091 1306 
L 3950 756 
L 3769 44 
Q 3759 0 3713 0 
Q 3659 0 3559 144 
Q 3459 288 3419 384 
Q 3197 122 2825 -9 
Q 2453 -141 2059 -141 
Q 1563 -141 1164 84 
Q 766 309 545 709 
Q 325 1109 325 1613 
Q 325 2150 564 2673 
Q 803 3197 1212 3611 
Q 1622 4025 2142 4269 
Q 2663 4513 3194 4513 
Q 3406 4513 3601 4447 
Q 3797 4381 3964 4251 
Q 4131 4122 4238 3950 
L 4744 4500 
Q 4744 4513 4775 4513 
L 4813 4513 
Q 4838 4513 4855 4492 
Q 4872 4472 4872 4447 
L 4434 2719 
Q 4434 2675 4384 2675 
L 4269 2675 
Q 4219 2675 4219 2747 
Q 4244 2888 4244 3078 
Q 4244 3394 4137 3672 
Q 4031 3950 3806 4119 
Q 3581 4288 3256 4288 
Q 2741 4288 2303 4027 
Q 1866 3766 1562 3337 
Q 1259 2909 1096 2396 
Q 934 1884 934 1403 
z
" transform="scale(0.015625)"/>
     </defs>
     <use xlink:href="#Cmsy10-6a" transform="translate(0 0.658854)"/>
     <use xlink:href="#Cmr10-30" transform="translate(27.685547 0.658854)"/>
     <use xlink:href="#Cmmi10-4c" transform="translate(82.149687 -16.347396) scale(0.7)"/>
     <use xlink:href="#Cmex10-ae" transform="translate(136.139336 94)"/>
     <use xlink:href="#Cmsy10-ad" transform="translate(200.914727 0.658854)"/>
     <use xlink:href="#Cmsy10-6a" transform="translate(296.158867 0.658854)"/>
     <use xlink:href="#Cmr10-30" transform="translate(323.844414 0.658854)"/>
     <use xlink:href="#Cmmi10-47" transform="translate(378.308555 -16.347396) scale(0.7)"/>
     <use xlink:href="#Cmex10-ae" transform="translate(439.715195 94)"/>
    </g>
   </g>
   <g id="text_25">
    <!-- $|1_L\rangle \otimes |0_G\rangle$ -->
    <g style="fill: #377eb8" transform="translate(770.033265 431.630205) scale(0.26 -0.26)">
     <use xlink:href="#Cmsy10-6a" transform="translate(0 0.658854)"/>
     <use xlink:href="#Cmr10-31" transform="translate(27.685547 0.658854)"/>
     <use xlink:href="#Cmmi10-4c" transform="translate(82.149687 -16.347396) scale(0.7)"/>
     <use xlink:href="#Cmex10-ae" transform="translate(136.139336 94)"/>
     <use xlink:href="#Cmsy10-ad" transform="translate(200.914727 0.658854)"/>
     <use xlink:href="#Cmsy10-6a" transform="translate(296.158867 0.658854)"/>
     <use xlink:href="#Cmr10-30" transform="translate(323.844414 0.658854)"/>
     <use xlink:href="#Cmmi10-47" transform="translate(378.308555 -16.347396) scale(0.7)"/>
     <use xlink:href="#Cmex10-ae" transform="translate(439.715195 94)"/>
    </g>
   </g>
   <g id="text_26">
    <!-- Error -->
    <g style="fill: #666666; opacity: 0.85" transform="translate(770.033265 229.579782) scale(0.24 -0.24)">
     <use xlink:href="#DejaVuSerif-45"/>
     <use xlink:href="#DejaVuSerif-72" transform="translate(72.998047 0)"/>
     <use xlink:href="#DejaVuSerif-72" transform="translate(120.800781 0)"/>
     <use xlink:href="#DejaVuSerif-6f" transform="translate(168.603516 0)"/>
     <use xlink:href="#DejaVuSerif-72" transform="translate(228.808594 0)"/>
    </g>
    <!-- states -->
    <g style="fill: #666666; opacity: 0.85" transform="translate(770.033265 256.454532) scale(0.24 -0.24)">
     <use xlink:href="#DejaVuSerif-73"/>
     <use xlink:href="#DejaVuSerif-74" transform="translate(51.318359 0)"/>
     <use xlink:href="#DejaVuSerif-61" transform="translate(91.503906 0)"/>
     <use xlink:href="#DejaVuSerif-74" transform="translate(151.123047 0)"/>
     <use xlink:href="#DejaVuSerif-65" transform="translate(191.308594 0)"/>
     <use xlink:href="#DejaVuSerif-73" transform="translate(250.488281 0)"/>
    </g>
   </g>
   <g id="text_27">
    <!-- (b) Bacon-Shor $[[4,1,1,2]]$ -->
    <g transform="translate(507.530461 26.4) scale(0.3 -0.3)">
     <defs>
      <path id="DejaVuSerif-62" d="M 738 331 
L 738 4531 
L 184 4531 
L 184 4863 
L 1313 4863 
L 1313 2803 
Q 1481 3116 1742 3264 
Q 2003 3413 2388 3413 
Q 3000 3413 3387 2928 
Q 3775 2444 3775 1663 
Q 3775 881 3387 395 
Q 3000 -91 2388 -91 
Q 2003 -91 1742 57 
Q 1481 206 1313 519 
L 1313 0 
L 184 0 
L 184 331 
L 738 331 
z
M 1313 1497 
Q 1313 897 1542 583 
Q 1772 269 2209 269 
Q 2650 269 2876 622 
Q 3103 975 3103 1663 
Q 3103 2353 2876 2703 
Q 2650 3053 2209 3053 
Q 1772 3053 1542 2737 
Q 1313 2422 1313 1825 
L 1313 1497 
z
" transform="scale(0.015625)"/>
      <path id="DejaVuSerif-42" d="M 1581 331 
L 2516 331 
Q 3078 331 3337 575 
Q 3597 819 3597 1350 
Q 3597 1878 3339 2120 
Q 3081 2363 2516 2363 
L 1581 2363 
L 1581 331 
z
M 1581 2694 
L 2375 2694 
Q 2888 2694 3123 2891 
Q 3359 3088 3359 3513 
Q 3359 3941 3123 4136 
Q 2888 4331 2375 4331 
L 1581 4331 
L 1581 2694 
z
M 353 0 
L 353 331 
L 947 331 
L 947 4331 
L 353 4331 
L 353 4666 
L 2656 4666 
Q 3363 4666 3720 4377 
Q 4078 4088 4078 3513 
Q 4078 3097 3829 2850 
Q 3581 2603 3103 2547 
Q 3697 2472 4005 2167 
Q 4313 1863 4313 1350 
Q 4313 656 3875 328 
Q 3438 0 2509 0 
L 353 0 
z
" transform="scale(0.015625)"/>
      <path id="DejaVuSerif-63" d="M 3291 997 
Q 3169 466 2822 187 
Q 2475 -91 1925 -91 
Q 1200 -91 759 389 
Q 319 869 319 1663 
Q 319 2459 759 2936 
Q 1200 3413 1925 3413 
Q 2241 3413 2553 3339 
Q 2866 3266 3181 3116 
L 3181 2266 
L 2847 2266 
Q 2781 2703 2561 2903 
Q 2341 3103 1931 3103 
Q 1466 3103 1228 2742 
Q 991 2381 991 1663 
Q 991 944 1227 581 
Q 1463 219 1931 219 
Q 2303 219 2525 412 
Q 2747 606 2828 997 
L 3291 997 
z
" transform="scale(0.015625)"/>
      <path id="DejaVuSerif-2d" d="M 281 1959 
L 1881 1959 
L 1881 1472 
L 281 1472 
L 281 1959 
z
" transform="scale(0.015625)"/>
      <path id="DejaVuSerif-53" d="M 594 225 
L 594 1288 
L 953 1284 
Q 969 753 1261 498 
Q 1553 244 2150 244 
Q 2706 244 2998 464 
Q 3291 684 3291 1106 
Q 3291 1444 3114 1625 
Q 2938 1806 2369 1978 
L 1753 2163 
Q 1084 2366 811 2669 
Q 538 2972 538 3500 
Q 538 4094 959 4422 
Q 1381 4750 2144 4750 
Q 2469 4750 2856 4679 
Q 3244 4609 3681 4475 
L 3681 3481 
L 3328 3481 
Q 3275 3975 2998 4195 
Q 2722 4416 2156 4416 
Q 1663 4416 1405 4214 
Q 1147 4013 1147 3628 
Q 1147 3294 1340 3103 
Q 1534 2913 2163 2725 
L 2741 2553 
Q 3375 2363 3645 2067 
Q 3916 1772 3916 1275 
Q 3916 597 3481 253 
Q 3047 -91 2188 -91 
Q 1803 -91 1404 -12 
Q 1006 66 594 225 
z
" transform="scale(0.015625)"/>
      <path id="DejaVuSerif-68" d="M 263 0 
L 263 331 
L 781 331 
L 781 4531 
L 231 4531 
L 231 4863 
L 1356 4863 
L 1356 2731 
Q 1516 3069 1770 3241 
Q 2025 3413 2363 3413 
Q 2913 3413 3172 3097 
Q 3431 2781 3431 2113 
L 3431 331 
L 3944 331 
L 3944 0 
L 2356 0 
L 2356 331 
L 2853 331 
L 2853 1931 
Q 2853 2541 2704 2764 
Q 2556 2988 2175 2988 
Q 1775 2988 1565 2697 
Q 1356 2406 1356 1850 
L 1356 331 
L 1856 331 
L 1856 0 
L 263 0 
z
" transform="scale(0.015625)"/>
      <path id="Cmr10-34" d="M 178 1056 
L 178 1281 
L 2156 4231 
Q 2178 4263 2222 4263 
L 2316 4263 
Q 2388 4263 2388 4191 
L 2388 1281 
L 3016 1281 
L 3016 1056 
L 2388 1056 
L 2388 428 
Q 2388 297 2575 261 
Q 2763 225 3009 225 
L 3009 0 
L 1247 0 
L 1247 225 
Q 1494 225 1681 261 
Q 1869 297 1869 428 
L 1869 1056 
L 178 1056 
z
M 391 1281 
L 1906 1281 
L 1906 3547 
L 391 1281 
z
" transform="scale(0.015625)"/>
      <path id="Cmr10-32" d="M 319 0 
L 319 172 
Q 319 188 331 206 
L 1325 1306 
Q 1550 1550 1690 1715 
Q 1831 1881 1968 2097 
Q 2106 2313 2186 2536 
Q 2266 2759 2266 3009 
Q 2266 3272 2169 3511 
Q 2072 3750 1880 3894 
Q 1688 4038 1416 4038 
Q 1138 4038 916 3870 
Q 694 3703 603 3438 
Q 628 3444 672 3444 
Q 816 3444 917 3347 
Q 1019 3250 1019 3097 
Q 1019 2950 917 2848 
Q 816 2747 672 2747 
Q 522 2747 420 2851 
Q 319 2956 319 3097 
Q 319 3338 409 3548 
Q 500 3759 670 3923 
Q 841 4088 1055 4175 
Q 1269 4263 1509 4263 
Q 1875 4263 2190 4108 
Q 2506 3953 2690 3670 
Q 2875 3388 2875 3009 
Q 2875 2731 2753 2481 
Q 2631 2231 2440 2026 
Q 2250 1822 1953 1562 
Q 1656 1303 1563 1216 
L 838 519 
L 1453 519 
Q 1906 519 2211 526 
Q 2516 534 2534 550 
Q 2609 631 2688 1141 
L 2875 1141 
L 2694 0 
L 319 0 
z
" transform="scale(0.015625)"/>
     </defs>
     <use xlink:href="#DejaVuSerif-28" transform="translate(0 0.015625)"/>
     <use xlink:href="#DejaVuSerif-62" transform="translate(39.013672 0.015625)"/>
     <use xlink:href="#DejaVuSerif-29" transform="translate(103.027344 0.015625)"/>
     <use xlink:href="#DejaVuSerif-20" transform="translate(142.041016 0.015625)"/>
     <use xlink:href="#DejaVuSerif-42" transform="translate(173.828125 0.015625)"/>
     <use xlink:href="#DejaVuSerif-61" transform="translate(247.314453 0.015625)"/>
     <use xlink:href="#DejaVuSerif-63" transform="translate(306.933594 0.015625)"/>
     <use xlink:href="#DejaVuSerif-6f" transform="translate(362.939453 0.015625)"/>
     <use xlink:href="#DejaVuSerif-6e" transform="translate(423.144531 0.015625)"/>
     <use xlink:href="#DejaVuSerif-2d" transform="translate(487.548828 0.015625)"/>
     <use xlink:href="#DejaVuSerif-53" transform="translate(521.337891 0.015625)"/>
     <use xlink:href="#DejaVuSerif-68" transform="translate(589.84375 0.015625)"/>
     <use xlink:href="#DejaVuSerif-6f" transform="translate(654.248047 0.015625)"/>
     <use xlink:href="#DejaVuSerif-72" transform="translate(714.453125 0.015625)"/>
     <use xlink:href="#DejaVuSerif-20" transform="translate(762.255859 0.015625)"/>
     <use xlink:href="#Cmr10-5b" transform="translate(794.042969 0.015625)"/>
     <use xlink:href="#Cmr10-5b" transform="translate(821.728516 0.015625)"/>
     <use xlink:href="#Cmr10-34" transform="translate(849.414062 0.015625)"/>
     <use xlink:href="#Cmmi10-3b" transform="translate(899.414062 0.015625)"/>
     <use xlink:href="#Cmr10-31" transform="translate(944.658203 0.015625)"/>
     <use xlink:href="#Cmmi10-3b" transform="translate(994.658203 0.015625)"/>
     <use xlink:href="#Cmr10-31" transform="translate(1039.902344 0.015625)"/>
     <use xlink:href="#Cmmi10-3b" transform="translate(1089.902344 0.015625)"/>
     <use xlink:href="#Cmr10-32" transform="translate(1135.146484 0.015625)"/>
     <use xlink:href="#Cmr10-5d" transform="translate(1185.146484 0.015625)"/>
     <use xlink:href="#Cmr10-5d" transform="translate(1212.832031 0.015625)"/>
    </g>
   </g>
   <g id="line2d_41">
    <path d="M 506.03374 379.109519 
L 554.174829 372.778004 
L 563.751283 371.744631 
L 570.221859 371.255568 
L 575.657144 371.064994 
L 580.315959 371.115251 
L 584.974774 371.392891 
L 589.633589 371.902164 
L 594.551227 372.665121 
L 600.504158 373.819801 
L 620.174711 377.824794 
L 625.351172 378.530726 
L 630.009987 378.938843 
L 634.409979 379.103246 
L 638.809971 379.043812 
L 643.209963 378.763708 
L 647.868779 378.243398 
L 653.04524 377.433313 
L 659.256993 376.223009 
L 678.151077 372.359984 
L 683.068715 371.677478 
L 687.72753 371.25702 
L 692.386346 371.069791 
L 697.303984 371.108948 
L 702.739268 371.385974 
L 709.468668 371.970273 
L 718.786298 373.028877 
L 735.86862 375.238073 
L 764.856803 379.109519 
L 764.856803 379.109519 
" clip-path="url(#pb0952d3b6b)" style="fill: none; stroke-dasharray: 11.1,4.8; stroke-dashoffset: 0; stroke: #666666; stroke-opacity: 0.7; stroke-width: 3"/>
   </g>
   <g id="line2d_42">
    <path d="M 506.03374 379.109519 
L 554.174829 372.778004 
L 563.751283 371.744631 
L 570.221859 371.255568 
L 575.657144 371.064994 
L 580.315959 371.115251 
L 584.974774 371.392891 
L 589.633589 371.902164 
L 594.551227 372.665121 
L 600.504158 373.819801 
L 620.174711 377.824794 
L 625.351172 378.530726 
L 630.009987 378.938843 
L 634.409979 379.103246 
L 638.809971 379.043812 
L 643.209963 378.763708 
L 647.868779 378.243398 
L 653.04524 377.433313 
L 659.256993 376.223009 
L 678.151077 372.359984 
L 683.068715 371.677478 
L 687.72753 371.25702 
L 692.386346 371.069791 
L 697.303984 371.108948 
L 702.739268 371.385974 
L 709.468668 371.970273 
L 718.786298 373.028877 
L 735.86862 375.238073 
L 764.856803 379.109519 
L 764.856803 379.109519 
" clip-path="url(#pb0952d3b6b)" style="fill: none; stroke-dasharray: 11.1,4.8; stroke-dashoffset: 0; stroke: #666666; stroke-opacity: 0.7; stroke-width: 3"/>
   </g>
   <g id="line2d_43">
    <path d="M 506.03374 344.481014 
L 554.174829 350.812529 
L 563.751283 351.845902 
L 570.221859 352.334965 
L 575.657144 352.525539 
L 580.315959 352.475282 
L 584.974774 352.197642 
L 589.633589 351.688369 
L 594.551227 350.925412 
L 600.504158 349.770732 
L 620.174711 345.765739 
L 625.351172 345.059807 
L 630.009987 344.65169 
L 634.409979 344.487287 
L 638.809971 344.546721 
L 643.209963 344.826825 
L 647.868779 345.347135 
L 653.04524 346.15722 
L 659.256993 347.367524 
L 678.151077 351.230549 
L 683.068715 351.913054 
L 687.72753 352.333513 
L 692.386346 352.520742 
L 697.303984 352.481585 
L 702.739268 352.204559 
L 709.468668 351.620259 
L 718.786298 350.561656 
L 735.86862 348.35246 
L 764.856803 344.481014 
L 764.856803 344.481014 
" clip-path="url(#pb0952d3b6b)" style="fill: none; stroke-dasharray: 11.1,4.8; stroke-dashoffset: 0; stroke: #666666; stroke-opacity: 0.7; stroke-width: 3"/>
   </g>
   <g id="line2d_44">
    <path d="M 506.03374 344.481014 
L 554.174829 350.812529 
L 563.751283 351.845902 
L 570.221859 352.334965 
L 575.657144 352.525539 
L 580.315959 352.475282 
L 584.974774 352.197642 
L 589.633589 351.688369 
L 594.551227 350.925412 
L 600.504158 349.770732 
L 620.174711 345.765739 
L 625.351172 345.059807 
L 630.009987 344.65169 
L 634.409979 344.487287 
L 638.809971 344.546721 
L 643.209963 344.826825 
L 647.868779 345.347135 
L 653.04524 346.15722 
L 659.256993 347.367524 
L 678.151077 351.230549 
L 683.068715 351.913054 
L 687.72753 352.333513 
L 692.386346 352.520742 
L 697.303984 352.481585 
L 702.739268 352.204559 
L 709.468668 351.620259 
L 718.786298 350.561656 
L 735.86862 348.35246 
L 764.856803 344.481014 
L 764.856803 344.481014 
" clip-path="url(#pb0952d3b6b)" style="fill: none; stroke-dasharray: 11.1,4.8; stroke-dashoffset: 0; stroke: #666666; stroke-opacity: 0.7; stroke-width: 3"/>
   </g>
   <g id="line2d_45">
    <path d="M 506.03374 275.224253 
L 554.174829 268.892737 
L 563.751283 267.859365 
L 570.221859 267.370301 
L 575.657144 267.179728 
L 580.315959 267.229984 
L 584.974774 267.507625 
L 589.633589 268.016897 
L 594.551227 268.779855 
L 600.504158 269.934534 
L 620.174711 273.939527 
L 625.351172 274.64546 
L 630.009987 275.053577 
L 634.409979 275.21798 
L 638.809971 275.158545 
L 643.209963 274.878442 
L 647.868779 274.358132 
L 653.04524 273.548047 
L 659.256993 272.337742 
L 678.151077 268.474718 
L 683.068715 267.792212 
L 687.72753 267.371754 
L 692.386346 267.184525 
L 697.303984 267.223681 
L 702.739268 267.500708 
L 709.468668 268.085007 
L 718.786298 269.14361 
L 735.86862 271.352806 
L 764.856803 275.224253 
L 764.856803 275.224253 
" clip-path="url(#pb0952d3b6b)" style="fill: none; stroke-dasharray: 11.1,4.8; stroke-dashoffset: 0; stroke: #666666; stroke-opacity: 0.7; stroke-width: 3"/>
   </g>
   <g id="line2d_46">
    <path d="M 506.03374 275.224253 
L 554.174829 268.892737 
L 563.751283 267.859365 
L 570.221859 267.370301 
L 575.657144 267.179728 
L 580.315959 267.229984 
L 584.974774 267.507625 
L 589.633589 268.016897 
L 594.551227 268.779855 
L 600.504158 269.934534 
L 620.174711 273.939527 
L 625.351172 274.64546 
L 630.009987 275.053577 
L 634.409979 275.21798 
L 638.809971 275.158545 
L 643.209963 274.878442 
L 647.868779 274.358132 
L 653.04524 273.548047 
L 659.256993 272.337742 
L 678.151077 268.474718 
L 683.068715 267.792212 
L 687.72753 267.371754 
L 692.386346 267.184525 
L 697.303984 267.223681 
L 702.739268 267.500708 
L 709.468668 268.085007 
L 718.786298 269.14361 
L 735.86862 271.352806 
L 764.856803 275.224253 
L 764.856803 275.224253 
" clip-path="url(#pb0952d3b6b)" style="fill: none; stroke-dasharray: 11.1,4.8; stroke-dashoffset: 0; stroke: #666666; stroke-opacity: 0.7; stroke-width: 3"/>
   </g>
   <g id="line2d_47">
    <path d="M 506.03374 240.595747 
L 554.174829 246.927263 
L 563.751283 247.960635 
L 570.221859 248.449699 
L 575.657144 248.640272 
L 580.315959 248.590016 
L 584.974774 248.312375 
L 589.633589 247.803103 
L 594.551227 247.040145 
L 600.504158 245.885466 
L 620.174711 241.880473 
L 625.351172 241.17454 
L 630.009987 240.766423 
L 634.409979 240.60202 
L 638.809971 240.661455 
L 643.209963 240.941558 
L 647.868779 241.461868 
L 653.04524 242.271953 
L 659.256993 243.482258 
L 678.151077 247.345282 
L 683.068715 248.027788 
L 687.72753 248.448246 
L 692.386346 248.635475 
L 697.303984 248.596319 
L 702.739268 248.319292 
L 709.468668 247.734993 
L 718.786298 246.67639 
L 735.86862 244.467194 
L 764.856803 240.595747 
L 764.856803 240.595747 
" clip-path="url(#pb0952d3b6b)" style="fill: none; stroke-dasharray: 11.1,4.8; stroke-dashoffset: 0; stroke: #666666; stroke-opacity: 0.7; stroke-width: 3"/>
   </g>
   <g id="line2d_48">
    <path d="M 506.03374 240.595747 
L 554.174829 246.927263 
L 563.751283 247.960635 
L 570.221859 248.449699 
L 575.657144 248.640272 
L 580.315959 248.590016 
L 584.974774 248.312375 
L 589.633589 247.803103 
L 594.551227 247.040145 
L 600.504158 245.885466 
L 620.174711 241.880473 
L 625.351172 241.17454 
L 630.009987 240.766423 
L 634.409979 240.60202 
L 638.809971 240.661455 
L 643.209963 240.941558 
L 647.868779 241.461868 
L 653.04524 242.271953 
L 659.256993 243.482258 
L 678.151077 247.345282 
L 683.068715 248.027788 
L 687.72753 248.448246 
L 692.386346 248.635475 
L 697.303984 248.596319 
L 702.739268 248.319292 
L 709.468668 247.734993 
L 718.786298 246.67639 
L 735.86862 244.467194 
L 764.856803 240.595747 
L 764.856803 240.595747 
" clip-path="url(#pb0952d3b6b)" style="fill: none; stroke-dasharray: 11.1,4.8; stroke-dashoffset: 0; stroke: #666666; stroke-opacity: 0.7; stroke-width: 3"/>
   </g>
   <g id="line2d_49">
    <path d="M 506.03374 171.338986 
L 554.174829 165.007471 
L 563.751283 163.974098 
L 570.221859 163.485035 
L 575.657144 163.294461 
L 580.315959 163.344718 
L 584.974774 163.622358 
L 589.633589 164.131631 
L 594.551227 164.894588 
L 600.504158 166.049268 
L 620.174711 170.054261 
L 625.351172 170.760193 
L 630.009987 171.16831 
L 634.409979 171.332713 
L 638.809971 171.273279 
L 643.209963 170.993175 
L 647.868779 170.472865 
L 653.04524 169.66278 
L 659.256993 168.452476 
L 678.151077 164.589451 
L 683.068715 163.906946 
L 687.72753 163.486487 
L 692.386346 163.299258 
L 697.303984 163.338415 
L 702.739268 163.615441 
L 709.468668 164.199741 
L 718.786298 165.258344 
L 735.86862 167.46754 
L 764.856803 171.338986 
L 764.856803 171.338986 
" clip-path="url(#pb0952d3b6b)" style="fill: none; stroke-dasharray: 11.1,4.8; stroke-dashoffset: 0; stroke: #666666; stroke-opacity: 0.7; stroke-width: 3"/>
   </g>
   <g id="line2d_50">
    <path d="M 506.03374 171.338986 
L 554.174829 165.007471 
L 563.751283 163.974098 
L 570.221859 163.485035 
L 575.657144 163.294461 
L 580.315959 163.344718 
L 584.974774 163.622358 
L 589.633589 164.131631 
L 594.551227 164.894588 
L 600.504158 166.049268 
L 620.174711 170.054261 
L 625.351172 170.760193 
L 630.009987 171.16831 
L 634.409979 171.332713 
L 638.809971 171.273279 
L 643.209963 170.993175 
L 647.868779 170.472865 
L 653.04524 169.66278 
L 659.256993 168.452476 
L 678.151077 164.589451 
L 683.068715 163.906946 
L 687.72753 163.486487 
L 692.386346 163.299258 
L 697.303984 163.338415 
L 702.739268 163.615441 
L 709.468668 164.199741 
L 718.786298 165.258344 
L 735.86862 167.46754 
L 764.856803 171.338986 
L 764.856803 171.338986 
" clip-path="url(#pb0952d3b6b)" style="fill: none; stroke-dasharray: 11.1,4.8; stroke-dashoffset: 0; stroke: #666666; stroke-opacity: 0.7; stroke-width: 3"/>
   </g>
   <g id="line2d_51">
    <path d="M 506.03374 136.710481 
L 554.174829 143.041996 
L 563.751283 144.075369 
L 570.221859 144.564432 
L 575.657144 144.755006 
L 580.315959 144.704749 
L 584.974774 144.427109 
L 589.633589 143.917836 
L 594.551227 143.154879 
L 600.504158 142.000199 
L 620.174711 137.995206 
L 625.351172 137.289274 
L 630.009987 136.881157 
L 634.409979 136.716754 
L 638.809971 136.776188 
L 643.209963 137.056292 
L 647.868779 137.576602 
L 653.04524 138.386687 
L 659.256993 139.596991 
L 678.151077 143.460016 
L 683.068715 144.142522 
L 687.72753 144.56298 
L 692.386346 144.750209 
L 697.303984 144.711052 
L 702.739268 144.434026 
L 709.468668 143.849727 
L 718.786298 142.791123 
L 735.86862 140.581927 
L 764.856803 136.710481 
L 764.856803 136.710481 
" clip-path="url(#pb0952d3b6b)" style="fill: none; stroke-dasharray: 11.1,4.8; stroke-dashoffset: 0; stroke: #666666; stroke-opacity: 0.7; stroke-width: 3"/>
   </g>
   <g id="line2d_52">
    <path d="M 506.03374 136.710481 
L 554.174829 143.041996 
L 563.751283 144.075369 
L 570.221859 144.564432 
L 575.657144 144.755006 
L 580.315959 144.704749 
L 584.974774 144.427109 
L 589.633589 143.917836 
L 594.551227 143.154879 
L 600.504158 142.000199 
L 620.174711 137.995206 
L 625.351172 137.289274 
L 630.009987 136.881157 
L 634.409979 136.716754 
L 638.809971 136.776188 
L 643.209963 137.056292 
L 647.868779 137.576602 
L 653.04524 138.386687 
L 659.256993 139.596991 
L 678.151077 143.460016 
L 683.068715 144.142522 
L 687.72753 144.56298 
L 692.386346 144.750209 
L 697.303984 144.711052 
L 702.739268 144.434026 
L 709.468668 143.849727 
L 718.786298 142.791123 
L 735.86862 140.581927 
L 764.856803 136.710481 
L 764.856803 136.710481 
" clip-path="url(#pb0952d3b6b)" style="fill: none; stroke-dasharray: 11.1,4.8; stroke-dashoffset: 0; stroke: #666666; stroke-opacity: 0.7; stroke-width: 3"/>
   </g>
   <g id="line2d_53">
    <path d="M 506.03374 128.3083 
L 554.174829 121.976785 
L 563.751283 120.943412 
L 570.221859 120.454349 
L 575.657144 120.263775 
L 580.315959 120.314031 
L 584.974774 120.591672 
L 589.633589 121.100944 
L 594.551227 121.863902 
L 600.504158 123.018582 
L 620.174711 127.023574 
L 625.351172 127.729507 
L 630.009987 128.137624 
L 634.409979 128.302027 
L 638.809971 128.242593 
L 643.209963 127.962489 
L 647.868779 127.442179 
L 653.04524 126.632094 
L 659.256993 125.42179 
L 678.151077 121.558765 
L 683.068715 120.876259 
L 687.72753 120.455801 
L 692.386346 120.268572 
L 697.303984 120.307729 
L 702.739268 120.584755 
L 709.468668 121.169054 
L 718.786298 122.227658 
L 735.86862 124.436853 
L 764.856803 128.3083 
L 764.856803 128.3083 
" clip-path="url(#pb0952d3b6b)" style="fill: none; stroke-dasharray: 11.1,4.8; stroke-dashoffset: 0; stroke: #666666; stroke-opacity: 0.7; stroke-width: 3"/>
   </g>
   <g id="line2d_54">
    <path d="M 506.03374 93.679795 
L 554.174829 100.01131 
L 563.751283 101.044683 
L 570.221859 101.533746 
L 575.657144 101.72432 
L 580.315959 101.674063 
L 584.974774 101.396422 
L 589.633589 100.88715 
L 594.551227 100.124192 
L 600.504158 98.969513 
L 620.174711 94.96452 
L 625.351172 94.258588 
L 630.009987 93.85047 
L 634.409979 93.686068 
L 638.809971 93.745502 
L 643.209963 94.025606 
L 647.868779 94.545915 
L 653.04524 95.356 
L 659.256993 96.566305 
L 678.151077 100.429329 
L 683.068715 101.111835 
L 687.72753 101.532293 
L 692.386346 101.719523 
L 697.303984 101.680366 
L 702.739268 101.40334 
L 709.468668 100.81904 
L 718.786298 99.760437 
L 735.86862 97.551241 
L 764.856803 93.679795 
L 764.856803 93.679795 
" clip-path="url(#pb0952d3b6b)" style="fill: none; stroke-dasharray: 11.1,4.8; stroke-dashoffset: 0; stroke: #666666; stroke-opacity: 0.7; stroke-width: 3"/>
   </g>
   <g id="line2d_55">
    <path d="M 506.03374 422.140205 
L 554.174829 415.80869 
L 563.751283 414.775317 
L 570.221859 414.286254 
L 575.657144 414.09568 
L 580.315959 414.145937 
L 584.974774 414.423578 
L 589.633589 414.93285 
L 594.551227 415.695808 
L 600.504158 416.850487 
L 620.174711 420.85548 
L 625.351172 421.561412 
L 630.009987 421.96953 
L 634.409979 422.133932 
L 635.186448 422.139774 
M 635.704095 387.512131 
L 640.104087 387.637333 
L 644.504079 387.980008 
L 649.162894 388.559369 
L 654.598178 389.470249 
L 661.327578 390.838616 
L 676.080493 393.910448 
L 681.256954 394.719056 
L 685.915769 395.228328 
L 690.574584 395.505969 
L 695.233399 395.556225 
L 700.409861 395.379937 
L 706.362791 394.946846 
L 714.127483 394.146268 
L 726.292167 392.64195 
L 760.197988 388.134951 
L 764.856803 387.5117 
L 764.856803 387.5117 
" clip-path="url(#pb0952d3b6b)" style="fill: none; stroke: #e41a1c; stroke-width: 6; stroke-linecap: square"/>
   </g>
   <g id="line2d_56">
    <path d="M 506.03374 387.5117 
L 554.174829 393.843215 
L 563.751283 394.876588 
L 570.221859 395.365651 
L 575.657144 395.556225 
L 580.315959 395.505969 
L 584.974774 395.228328 
L 589.633589 394.719056 
L 594.551227 393.956098 
L 600.504158 392.801418 
L 620.174711 388.796426 
L 625.351172 388.090493 
L 630.009987 387.682376 
L 634.409979 387.517973 
L 635.186448 387.512131 
M 635.704095 422.139774 
L 640.104087 422.014573 
L 644.504079 421.671897 
L 649.162894 421.092536 
L 654.598178 420.181657 
L 661.327578 418.813289 
L 676.080493 415.741457 
L 681.256954 414.93285 
L 685.915769 414.423578 
L 690.574584 414.145937 
L 695.233399 414.09568 
L 700.409861 414.271969 
L 706.362791 414.70506 
L 714.127483 415.505637 
L 726.292167 417.009956 
L 760.197988 421.516954 
L 764.856803 422.140205 
L 764.856803 422.140205 
" clip-path="url(#pb0952d3b6b)" style="fill: none; stroke: #377eb8; stroke-width: 6; stroke-linecap: square"/>
   </g>
  </g>
 </g>
 <defs>
  <clipPath id="p450bae8790">
   <rect x="111.975625" y="33.9" width="375.293442" height="448.02"/>
  </clipPath>
  <clipPath id="pb0952d3b6b">
   <rect x="506.03374" y="33.9" width="375.293442" height="448.02"/>
  </clipPath>
 </defs>
</svg>
