<?xml version="1.0" encoding="utf-8" standalone="no"?>
<!DOCTYPE svg PUBLIC "-//W3C//DTD SVG 1.1//EN"
  "http://www.w3.org/Graphics/SVG/1.1/DTD/svg11.dtd">
<svg xmlns:xlink="http://www.w3.org/1999/xlink" width="907.113903pt" height="559.2pt" viewBox="0 0 907.113903 559.2" xmlns="http://www.w3.org/2000/svg" version="1.1">
 <metadata>
  <rdf:RDF xmlns:dc="http://purl.org/dc/elements/1.1/" xmlns:cc="http://creativecommons.org/ns#" xmlns:rdf="http://www.w3.org/1999/02/22-rdf-syntax-ns#">
   <cc:Work>
    <dc:type rdf:resource="http://purl.org/dc/dcmitype/StillImage"/>
    <dc:date>2025-12-23T09:30:15.369511</dc:date>
    <dc:format>image/svg+xml</dc:format>
    <dc:creator>
     <cc:Agent>
      <dc:title>Matplotlib v3.10.5, https://matplotlib.org/</dc:title>
     </cc:Agent>
    </dc:creator>
   </cc:Work>
  </rdf:RDF>
 </metadata>
 <defs>
  <style type="text/css">*{stroke-linejoin: round; stroke-linecap: butt}</style>
 </defs>
 <g id="figure_1">
  <g id="patch_1">
   <path d="M 0 559.2 
L 907.113903 559.2 
L 907.113903 0 
L 0 0 
z
" style="fill: #ffffff"/>
  </g>
  <g id="axes_1">
   <g id="patch_2">
    <path d="M 89.603125 492.72 
L 486.632773 492.72 
L 486.632773 27.84 
L 89.603125 27.84 
z
" style="fill: #ffffff"/>
   </g>
   <g id="matplotlib.axis_1">
    <g id="xtick_1">
     <g id="line2d_1">
      <path d="M 89.603125 492.72 
L 89.603125 27.84 
" clip-path="url(#p1235019fa8)" style="fill: none; stroke-dasharray: 5.55,2.4; stroke-dashoffset: 0; stroke: #b0b0b0; stroke-opacity: 0.3; stroke-width: 1.5"/>
     </g>
     <g id="line2d_2">
      <defs>
       <path id="mf0415b13b1" d="M 0 0 
L 0 -4 
" style="stroke: #000000; stroke-width: 0.8"/>
      </defs>
      <g>
       <use xlink:href="#mf0415b13b1" x="89.603125" y="492.72" style="stroke: #000000; stroke-width: 0.8"/>
      </g>
     </g>
     <g id="text_1">
      <!-- 0 -->
      <g transform="translate(83.240625 511.416875) scale(0.2 -0.2)">
       <defs>
        <path id="DejaVuSerif-30" d="M 2034 219 
Q 2513 219 2750 744 
Q 2988 1269 2988 2328 
Q 2988 3391 2750 3916 
Q 2513 4441 2034 4441 
Q 1556 4441 1318 3916 
Q 1081 3391 1081 2328 
Q 1081 1269 1318 744 
Q 1556 219 2034 219 
z
M 2034 -91 
Q 1275 -91 848 546 
Q 422 1184 422 2328 
Q 422 3475 848 4112 
Q 1275 4750 2034 4750 
Q 2797 4750 3222 4112 
Q 3647 3475 3647 2328 
Q 3647 1184 3222 546 
Q 2797 -91 2034 -91 
z
" transform="scale(0.015625)"/>
       </defs>
       <use xlink:href="#DejaVuSerif-30"/>
      </g>
     </g>
    </g>
    <g id="xtick_2">
     <g id="line2d_3">
      <path d="M 255.032145 492.72 
L 255.032145 27.84 
" clip-path="url(#p1235019fa8)" style="fill: none; stroke-dasharray: 5.55,2.4; stroke-dashoffset: 0; stroke: #b0b0b0; stroke-opacity: 0.3; stroke-width: 1.5"/>
     </g>
     <g id="line2d_4">
      <g>
       <use xlink:href="#mf0415b13b1" x="255.032145" y="492.72" style="stroke: #000000; stroke-width: 0.8"/>
      </g>
     </g>
     <g id="text_2">
      <!-- 2 -->
      <g transform="translate(248.669645 511.416875) scale(0.2 -0.2)">
       <defs>
        <path id="DejaVuSerif-32" d="M 819 3553 
L 469 3553 
L 469 4384 
Q 803 4563 1142 4656 
Q 1481 4750 1806 4750 
Q 2534 4750 2956 4397 
Q 3378 4044 3378 3438 
Q 3378 2753 2422 1800 
Q 2347 1728 2309 1691 
L 1131 513 
L 3078 513 
L 3078 1088 
L 3444 1088 
L 3444 0 
L 434 0 
L 434 341 
L 1850 1753 
Q 2319 2222 2519 2614 
Q 2719 3006 2719 3438 
Q 2719 3909 2473 4175 
Q 2228 4441 1797 4441 
Q 1350 4441 1106 4219 
Q 863 3997 819 3553 
z
" transform="scale(0.015625)"/>
       </defs>
       <use xlink:href="#DejaVuSerif-32"/>
      </g>
     </g>
    </g>
    <g id="xtick_3">
     <g id="line2d_5">
      <path d="M 420.461165 492.72 
L 420.461165 27.84 
" clip-path="url(#p1235019fa8)" style="fill: none; stroke-dasharray: 5.55,2.4; stroke-dashoffset: 0; stroke: #b0b0b0; stroke-opacity: 0.3; stroke-width: 1.5"/>
     </g>
     <g id="line2d_6">
      <g>
       <use xlink:href="#mf0415b13b1" x="420.461165" y="492.72" style="stroke: #000000; stroke-width: 0.8"/>
      </g>
     </g>
     <g id="text_3">
      <!-- 4 -->
      <g transform="translate(414.098665 511.416875) scale(0.2 -0.2)">
       <defs>
        <path id="DejaVuSerif-34" d="M 2234 1581 
L 2234 4063 
L 641 1581 
L 2234 1581 
z
M 3609 0 
L 1484 0 
L 1484 331 
L 2234 331 
L 2234 1247 
L 197 1247 
L 197 1588 
L 2241 4750 
L 2859 4750 
L 2859 1581 
L 3750 1581 
L 3750 1247 
L 2859 1247 
L 2859 331 
L 3609 331 
L 3609 0 
z
" transform="scale(0.015625)"/>
       </defs>
       <use xlink:href="#DejaVuSerif-34"/>
      </g>
     </g>
    </g>
   </g>
   <g id="matplotlib.axis_2">
    <g id="ytick_1">
     <g id="line2d_7">
      <path d="M 89.603125 483.055719 
L 486.632773 483.055719 
" clip-path="url(#p1235019fa8)" style="fill: none; stroke-dasharray: 5.55,2.4; stroke-dashoffset: 0; stroke: #b0b0b0; stroke-opacity: 0.3; stroke-width: 1.5"/>
     </g>
     <g id="line2d_8">
      <defs>
       <path id="m53f2ca5a40" d="M 0 0 
L 4 0 
" style="stroke: #000000; stroke-width: 0.8"/>
      </defs>
      <g>
       <use xlink:href="#m53f2ca5a40" x="89.603125" y="483.055719" style="stroke: #000000; stroke-width: 0.8"/>
      </g>
     </g>
     <g id="text_4">
      <!-- −300 -->
      <g transform="translate(31.16875 490.654156) scale(0.2 -0.2)">
       <defs>
        <path id="DejaVuSerif-2212" d="M 678 2259 
L 4684 2259 
L 4684 1753 
L 678 1753 
L 678 2259 
z
" transform="scale(0.015625)"/>
        <path id="DejaVuSerif-33" d="M 622 4469 
Q 988 4606 1323 4678 
Q 1659 4750 1953 4750 
Q 2638 4750 3022 4454 
Q 3406 4159 3406 3634 
Q 3406 3213 3140 2930 
Q 2875 2647 2388 2547 
Q 2963 2466 3280 2130 
Q 3597 1794 3597 1259 
Q 3597 606 3158 257 
Q 2719 -91 1894 -91 
Q 1528 -91 1179 -12 
Q 831 66 488 225 
L 488 1131 
L 838 1131 
Q 869 681 1141 450 
Q 1413 219 1906 219 
Q 2384 219 2661 495 
Q 2938 772 2938 1253 
Q 2938 1803 2653 2086 
Q 2369 2369 1819 2369 
L 1522 2369 
L 1522 2688 
L 1678 2688 
Q 2225 2688 2498 2914 
Q 2772 3141 2772 3597 
Q 2772 4006 2547 4223 
Q 2322 4441 1900 4441 
Q 1478 4441 1245 4241 
Q 1013 4041 972 3647 
L 622 3647 
L 622 4469 
z
" transform="scale(0.015625)"/>
       </defs>
       <use xlink:href="#DejaVuSerif-2212"/>
       <use xlink:href="#DejaVuSerif-33" transform="translate(83.789062 0)"/>
       <use xlink:href="#DejaVuSerif-30" transform="translate(147.412109 0)"/>
       <use xlink:href="#DejaVuSerif-30" transform="translate(211.035156 0)"/>
      </g>
     </g>
    </g>
    <g id="ytick_2">
     <g id="line2d_9">
      <path d="M 89.603125 371.667859 
L 486.632773 371.667859 
" clip-path="url(#p1235019fa8)" style="fill: none; stroke-dasharray: 5.55,2.4; stroke-dashoffset: 0; stroke: #b0b0b0; stroke-opacity: 0.3; stroke-width: 1.5"/>
     </g>
     <g id="line2d_10">
      <g>
       <use xlink:href="#m53f2ca5a40" x="89.603125" y="371.667859" style="stroke: #000000; stroke-width: 0.8"/>
      </g>
     </g>
     <g id="text_5">
      <!-- −150 -->
      <g transform="translate(31.16875 379.266297) scale(0.2 -0.2)">
       <defs>
        <path id="DejaVuSerif-31" d="M 909 0 
L 909 331 
L 1722 331 
L 1722 4213 
L 781 3603 
L 781 4013 
L 1919 4750 
L 2350 4750 
L 2350 331 
L 3163 331 
L 3163 0 
L 909 0 
z
" transform="scale(0.015625)"/>
        <path id="DejaVuSerif-35" d="M 3219 4666 
L 3219 4153 
L 1081 4153 
L 1081 2816 
Q 1244 2928 1461 2984 
Q 1678 3041 1947 3041 
Q 2703 3041 3140 2622 
Q 3578 2203 3578 1478 
Q 3578 738 3136 323 
Q 2694 -91 1894 -91 
Q 1572 -91 1234 -12 
Q 897 66 544 225 
L 544 1131 
L 897 1131 
Q 925 688 1179 453 
Q 1434 219 1894 219 
Q 2388 219 2653 544 
Q 2919 869 2919 1478 
Q 2919 2084 2655 2407 
Q 2391 2731 1894 2731 
Q 1613 2731 1398 2631 
Q 1184 2531 1019 2322 
L 750 2322 
L 750 4666 
L 3219 4666 
z
" transform="scale(0.015625)"/>
       </defs>
       <use xlink:href="#DejaVuSerif-2212"/>
       <use xlink:href="#DejaVuSerif-31" transform="translate(83.789062 0)"/>
       <use xlink:href="#DejaVuSerif-35" transform="translate(147.412109 0)"/>
       <use xlink:href="#DejaVuSerif-30" transform="translate(211.035156 0)"/>
      </g>
     </g>
    </g>
    <g id="ytick_3">
     <g id="line2d_11">
      <path d="M 89.603125 260.28 
L 486.632773 260.28 
" clip-path="url(#p1235019fa8)" style="fill: none; stroke-dasharray: 5.55,2.4; stroke-dashoffset: 0; stroke: #b0b0b0; stroke-opacity: 0.3; stroke-width: 1.5"/>
     </g>
     <g id="line2d_12">
      <g>
       <use xlink:href="#m53f2ca5a40" x="89.603125" y="260.28" style="stroke: #000000; stroke-width: 0.8"/>
      </g>
     </g>
     <g id="text_6">
      <!-- 0 -->
      <g transform="translate(73.378125 267.878437) scale(0.2 -0.2)">
       <use xlink:href="#DejaVuSerif-30"/>
      </g>
     </g>
    </g>
    <g id="ytick_4">
     <g id="line2d_13">
      <path d="M 89.603125 148.892141 
L 486.632773 148.892141 
" clip-path="url(#p1235019fa8)" style="fill: none; stroke-dasharray: 5.55,2.4; stroke-dashoffset: 0; stroke: #b0b0b0; stroke-opacity: 0.3; stroke-width: 1.5"/>
     </g>
     <g id="line2d_14">
      <g>
       <use xlink:href="#m53f2ca5a40" x="89.603125" y="148.892141" style="stroke: #000000; stroke-width: 0.8"/>
      </g>
     </g>
     <g id="text_7">
      <!-- 150 -->
      <g transform="translate(47.928125 156.490578) scale(0.2 -0.2)">
       <use xlink:href="#DejaVuSerif-31"/>
       <use xlink:href="#DejaVuSerif-35" transform="translate(63.623047 0)"/>
       <use xlink:href="#DejaVuSerif-30" transform="translate(127.246094 0)"/>
      </g>
     </g>
    </g>
    <g id="ytick_5">
     <g id="line2d_15">
      <path d="M 89.603125 37.504281 
L 486.632773 37.504281 
" clip-path="url(#p1235019fa8)" style="fill: none; stroke-dasharray: 5.55,2.4; stroke-dashoffset: 0; stroke: #b0b0b0; stroke-opacity: 0.3; stroke-width: 1.5"/>
     </g>
     <g id="line2d_16">
      <g>
       <use xlink:href="#m53f2ca5a40" x="89.603125" y="37.504281" style="stroke: #000000; stroke-width: 0.8"/>
      </g>
     </g>
     <g id="text_8">
      <!-- 300 -->
      <g transform="translate(47.928125 45.102719) scale(0.2 -0.2)">
       <use xlink:href="#DejaVuSerif-33"/>
       <use xlink:href="#DejaVuSerif-30" transform="translate(63.623047 0)"/>
       <use xlink:href="#DejaVuSerif-30" transform="translate(127.246094 0)"/>
      </g>
     </g>
    </g>
    <g id="text_9">
     <!-- Energy [MHz] -->
     <g transform="translate(21.83625 346.32) rotate(-90) scale(0.24 -0.24)">
      <defs>
       <path id="DejaVuSerif-45" d="M 353 0 
L 353 331 
L 947 331 
L 947 4331 
L 353 4331 
L 353 4666 
L 4109 4666 
L 4109 3628 
L 3725 3628 
L 3725 4281 
L 1581 4281 
L 1581 2719 
L 3109 2719 
L 3109 3303 
L 3494 3303 
L 3494 1753 
L 3109 1753 
L 3109 2338 
L 1581 2338 
L 1581 384 
L 3775 384 
L 3775 1038 
L 4159 1038 
L 4159 0 
L 353 0 
z
" transform="scale(0.015625)"/>
       <path id="DejaVuSerif-6e" d="M 263 0 
L 263 331 
L 781 331 
L 781 2988 
L 231 2988 
L 231 3322 
L 1356 3322 
L 1356 2731 
Q 1516 3069 1770 3241 
Q 2025 3413 2363 3413 
Q 2913 3413 3172 3097 
Q 3431 2781 3431 2113 
L 3431 331 
L 3944 331 
L 3944 0 
L 2356 0 
L 2356 331 
L 2853 331 
L 2853 1931 
Q 2853 2541 2703 2767 
Q 2553 2994 2175 2994 
Q 1775 2994 1565 2701 
Q 1356 2409 1356 1850 
L 1356 331 
L 1856 331 
L 1856 0 
L 263 0 
z
" transform="scale(0.015625)"/>
       <path id="DejaVuSerif-65" d="M 3469 1600 
L 991 1600 
L 991 1575 
Q 991 903 1244 561 
Q 1497 219 1991 219 
Q 2369 219 2611 417 
Q 2853 616 2950 1006 
L 3413 1006 
Q 3275 459 2904 184 
Q 2534 -91 1931 -91 
Q 1203 -91 761 389 
Q 319 869 319 1663 
Q 319 2450 753 2931 
Q 1188 3413 1894 3413 
Q 2647 3413 3050 2948 
Q 3453 2484 3469 1600 
z
M 2791 1931 
Q 2772 2513 2545 2808 
Q 2319 3103 1894 3103 
Q 1497 3103 1269 2806 
Q 1041 2509 991 1931 
L 2791 1931 
z
" transform="scale(0.015625)"/>
       <path id="DejaVuSerif-72" d="M 3059 3328 
L 3059 2497 
L 2728 2497 
Q 2713 2744 2591 2866 
Q 2469 2988 2234 2988 
Q 1809 2988 1582 2694 
Q 1356 2400 1356 1850 
L 1356 331 
L 2022 331 
L 2022 0 
L 263 0 
L 263 331 
L 781 331 
L 781 2994 
L 231 2994 
L 231 3322 
L 1356 3322 
L 1356 2731 
Q 1525 3078 1790 3245 
Q 2056 3413 2438 3413 
Q 2578 3413 2733 3391 
Q 2888 3369 3059 3328 
z
" transform="scale(0.015625)"/>
       <path id="DejaVuSerif-67" d="M 3359 2988 
L 3359 72 
Q 3359 -644 2965 -1033 
Q 2572 -1422 1844 -1422 
Q 1516 -1422 1216 -1362 
Q 916 -1303 641 -1184 
L 641 -488 
L 941 -488 
Q 997 -813 1206 -963 
Q 1416 -1113 1806 -1113 
Q 2313 -1113 2548 -827 
Q 2784 -541 2784 72 
L 2784 519 
Q 2616 206 2355 57 
Q 2094 -91 1709 -91 
Q 1097 -91 708 395 
Q 319 881 319 1663 
Q 319 2444 706 2928 
Q 1094 3413 1709 3413 
Q 2094 3413 2355 3264 
Q 2616 3116 2784 2803 
L 2784 3322 
L 3909 3322 
L 3909 2988 
L 3359 2988 
z
M 2784 1825 
Q 2784 2422 2554 2737 
Q 2325 3053 1888 3053 
Q 1444 3053 1217 2703 
Q 991 2353 991 1663 
Q 991 975 1217 622 
Q 1444 269 1888 269 
Q 2325 269 2554 583 
Q 2784 897 2784 1497 
L 2784 1825 
z
" transform="scale(0.015625)"/>
       <path id="DejaVuSerif-79" d="M 1381 -609 
L 1600 -56 
L 359 2988 
L -19 2988 
L -19 3322 
L 1509 3322 
L 1509 2988 
L 978 2988 
L 1913 703 
L 2847 2988 
L 2350 2988 
L 2350 3322 
L 3597 3322 
L 3597 2988 
L 3225 2988 
L 1703 -750 
Q 1547 -1138 1356 -1280 
Q 1166 -1422 819 -1422 
Q 672 -1422 517 -1397 
Q 363 -1372 206 -1325 
L 206 -691 
L 500 -691 
Q 519 -903 608 -995 
Q 697 -1088 884 -1088 
Q 1056 -1088 1161 -992 
Q 1266 -897 1381 -609 
z
" transform="scale(0.015625)"/>
       <path id="DejaVuSerif-20" transform="scale(0.015625)"/>
       <path id="DejaVuSerif-5b" d="M 550 4863 
L 2003 4863 
L 2003 4531 
L 1147 4531 
L 1147 -513 
L 2003 -513 
L 2003 -844 
L 550 -844 
L 550 4863 
z
" transform="scale(0.015625)"/>
       <path id="DejaVuSerif-4d" d="M 353 0 
L 353 331 
L 947 331 
L 947 4331 
L 319 4331 
L 319 4666 
L 1678 4666 
L 3316 1344 
L 4953 4666 
L 6228 4666 
L 6228 4331 
L 5606 4331 
L 5606 331 
L 6203 331 
L 6203 0 
L 4378 0 
L 4378 331 
L 4972 331 
L 4972 3938 
L 3372 684 
L 2931 684 
L 1331 3938 
L 1331 331 
L 1925 331 
L 1925 0 
L 353 0 
z
" transform="scale(0.015625)"/>
       <path id="DejaVuSerif-48" d="M 353 0 
L 353 331 
L 947 331 
L 947 4331 
L 353 4331 
L 353 4666 
L 2175 4666 
L 2175 4331 
L 1581 4331 
L 1581 2719 
L 4000 2719 
L 4000 4331 
L 3406 4331 
L 3406 4666 
L 5228 4666 
L 5228 4331 
L 4634 4331 
L 4634 331 
L 5228 331 
L 5228 0 
L 3406 0 
L 3406 331 
L 4000 331 
L 4000 2338 
L 1581 2338 
L 1581 331 
L 2175 331 
L 2175 0 
L 353 0 
z
" transform="scale(0.015625)"/>
       <path id="DejaVuSerif-7a" d="M 256 0 
L 256 269 
L 2338 2988 
L 691 2988 
L 691 2413 
L 359 2413 
L 359 3322 
L 3078 3322 
L 3078 3053 
L 997 331 
L 2803 331 
L 2803 934 
L 3138 934 
L 3138 0 
L 256 0 
z
" transform="scale(0.015625)"/>
       <path id="DejaVuSerif-5d" d="M 1947 4863 
L 1947 -844 
L 494 -844 
L 494 -513 
L 1350 -513 
L 1350 4531 
L 494 4531 
L 494 4863 
L 1947 4863 
z
" transform="scale(0.015625)"/>
      </defs>
      <use xlink:href="#DejaVuSerif-45"/>
      <use xlink:href="#DejaVuSerif-6e" transform="translate(72.998047 0)"/>
      <use xlink:href="#DejaVuSerif-65" transform="translate(137.402344 0)"/>
      <use xlink:href="#DejaVuSerif-72" transform="translate(196.582031 0)"/>
      <use xlink:href="#DejaVuSerif-67" transform="translate(244.384766 0)"/>
      <use xlink:href="#DejaVuSerif-79" transform="translate(308.398438 0)"/>
      <use xlink:href="#DejaVuSerif-20" transform="translate(364.892578 0)"/>
      <use xlink:href="#DejaVuSerif-5b" transform="translate(396.679688 0)"/>
      <use xlink:href="#DejaVuSerif-4d" transform="translate(435.693359 0)"/>
      <use xlink:href="#DejaVuSerif-48" transform="translate(538.085938 0)"/>
      <use xlink:href="#DejaVuSerif-7a" transform="translate(625.292969 0)"/>
      <use xlink:href="#DejaVuSerif-5d" transform="translate(677.978516 0)"/>
     </g>
    </g>
   </g>
   <g id="patch_3">
    <path d="M 89.603125 492.72 
L 89.603125 27.84 
" style="fill: none; stroke: #000000; stroke-width: 0.8; stroke-linejoin: miter; stroke-linecap: square"/>
   </g>
   <g id="patch_4">
    <path d="M 486.632773 492.72 
L 486.632773 27.84 
" style="fill: none; stroke: #000000; stroke-width: 0.8; stroke-linejoin: miter; stroke-linecap: square"/>
   </g>
   <g id="patch_5">
    <path d="M 89.603125 492.72 
L 486.632773 492.72 
" style="fill: none; stroke: #000000; stroke-width: 0.8; stroke-linejoin: miter; stroke-linecap: square"/>
   </g>
   <g id="patch_6">
    <path d="M 89.603125 27.84 
L 486.632773 27.84 
" style="fill: none; stroke: #000000; stroke-width: 0.8; stroke-linejoin: miter; stroke-linecap: square"/>
   </g>
   <g id="text_10">
    <!-- $|0_L\rangle$ -->
    <g style="fill: #e41a1c" transform="translate(425.424035 360.403172) scale(0.2 -0.2)">
     <defs>
      <path id="Cmsy10-6a" d="M 763 -1484 
L 763 4684 
Q 763 4734 800 4767 
Q 838 4800 891 4800 
Q 938 4800 978 4767 
Q 1019 4734 1019 4684 
L 1019 -1484 
Q 1019 -1534 978 -1567 
Q 938 -1600 891 -1600 
Q 838 -1600 800 -1567 
Q 763 -1534 763 -1484 
z
" transform="scale(0.015625)"/>
      <path id="Cmr10-30" d="M 1600 -141 
Q 816 -141 533 504 
Q 250 1150 250 2041 
Q 250 2597 351 3087 
Q 453 3578 754 3920 
Q 1056 4263 1600 4263 
Q 2022 4263 2290 4056 
Q 2559 3850 2700 3523 
Q 2841 3197 2892 2823 
Q 2944 2450 2944 2041 
Q 2944 1491 2842 1011 
Q 2741 531 2444 195 
Q 2147 -141 1600 -141 
z
M 1600 25 
Q 1956 25 2131 390 
Q 2306 756 2347 1200 
Q 2388 1644 2388 2144 
Q 2388 2625 2347 3031 
Q 2306 3438 2132 3767 
Q 1959 4097 1600 4097 
Q 1238 4097 1063 3765 
Q 888 3434 847 3029 
Q 806 2625 806 2144 
Q 806 1788 823 1472 
Q 841 1156 916 820 
Q 991 484 1158 254 
Q 1325 25 1600 25 
z
" transform="scale(0.015625)"/>
      <path id="Cmmi10-4c" d="M 300 0 
Q 238 0 238 84 
Q 241 100 250 139 
Q 259 178 276 201 
Q 294 225 319 225 
Q 709 225 863 269 
Q 947 297 984 441 
L 1863 3956 
Q 1875 4019 1875 4044 
Q 1875 4113 1797 4122 
Q 1678 4147 1338 4147 
Q 1275 4147 1275 4231 
Q 1297 4313 1309 4342 
Q 1322 4372 1381 4372 
L 3272 4372 
Q 3328 4372 3328 4288 
Q 3319 4222 3306 4184 
Q 3294 4147 3244 4147 
Q 2772 4147 2613 4116 
Q 2456 4088 2419 3928 
L 1544 416 
Q 1516 338 1516 275 
Q 1516 225 1734 225 
L 2328 225 
Q 2831 225 3143 425 
Q 3456 625 3606 876 
Q 3756 1128 3857 1398 
Q 3959 1669 4006 1678 
L 4063 1678 
Q 4128 1678 4128 1594 
L 3559 44 
Q 3550 0 3500 0 
L 300 0 
z
" transform="scale(0.015625)"/>
      <path id="Cmex10-ae" d="M 500 -7297 
Q 500 -7263 513 -7250 
L 2119 -3584 
L 513 84 
Q 500 97 500 128 
Q 500 175 537 215 
Q 575 256 628 256 
Q 703 256 750 178 
L 2381 -3541 
Q 2388 -3553 2388 -3584 
Q 2388 -3616 2381 -3634 
L 750 -7347 
Q 700 -7425 628 -7425 
Q 575 -7425 537 -7384 
Q 500 -7344 500 -7297 
z
" transform="scale(0.015625)"/>
     </defs>
     <use xlink:href="#Cmsy10-6a" transform="translate(0 0.658854)"/>
     <use xlink:href="#Cmr10-30" transform="translate(27.685547 0.658854)"/>
     <use xlink:href="#Cmmi10-4c" transform="translate(82.149687 -16.347396) scale(0.7)"/>
     <use xlink:href="#Cmex10-ae" transform="translate(136.139336 94)"/>
    </g>
   </g>
   <g id="text_11">
    <!-- $|1_L\rangle$ -->
    <g style="fill: #377eb8" transform="translate(425.424035 397.532547) scale(0.2 -0.2)">
     <defs>
      <path id="Cmr10-31" d="M 594 0 
L 594 225 
Q 1394 225 1394 428 
L 1394 3788 
Q 1063 3628 556 3628 
L 556 3853 
Q 1341 3853 1741 4263 
L 1831 4263 
Q 1853 4263 1873 4245 
Q 1894 4228 1894 4206 
L 1894 428 
Q 1894 225 2694 225 
L 2694 0 
L 594 0 
z
" transform="scale(0.015625)"/>
     </defs>
     <use xlink:href="#Cmsy10-6a" transform="translate(0 0.658854)"/>
     <use xlink:href="#Cmr10-31" transform="translate(27.685547 0.658854)"/>
     <use xlink:href="#Cmmi10-4c" transform="translate(82.149687 -16.347396) scale(0.7)"/>
     <use xlink:href="#Cmex10-ae" transform="translate(136.139336 94)"/>
    </g>
   </g>
   <g id="text_12">
    <!-- $|011\rangle$ -->
    <g style="fill: #666666; opacity: 0.85" transform="translate(425.424035 285.414688) scale(0.18 -0.18)">
     <use xlink:href="#Cmsy10-6a" transform="translate(0 0.658854)"/>
     <use xlink:href="#Cmr10-30" transform="translate(27.685547 0.658854)"/>
     <use xlink:href="#Cmr10-31" transform="translate(77.685547 0.658854)"/>
     <use xlink:href="#Cmr10-31" transform="translate(127.685547 0.658854)"/>
     <use xlink:href="#Cmex10-ae" transform="translate(177.685547 94)"/>
    </g>
   </g>
   <g id="text_13">
    <!-- $|110\rangle$ -->
    <g style="fill: #666666; opacity: 0.85" transform="translate(425.424035 272.048145) scale(0.18 -0.18)">
     <use xlink:href="#Cmsy10-6a" transform="translate(0 0.658854)"/>
     <use xlink:href="#Cmr10-31" transform="translate(27.685547 0.658854)"/>
     <use xlink:href="#Cmr10-31" transform="translate(77.685547 0.658854)"/>
     <use xlink:href="#Cmr10-30" transform="translate(127.685547 0.658854)"/>
     <use xlink:href="#Cmex10-ae" transform="translate(177.685547 94)"/>
    </g>
   </g>
   <g id="text_14">
    <!-- $|100\rangle$ -->
    <g style="fill: #666666; opacity: 0.85" transform="translate(425.424035 248.285312) scale(0.18 -0.18)">
     <use xlink:href="#Cmsy10-6a" transform="translate(0 0.658854)"/>
     <use xlink:href="#Cmr10-31" transform="translate(27.685547 0.658854)"/>
     <use xlink:href="#Cmr10-30" transform="translate(77.685547 0.658854)"/>
     <use xlink:href="#Cmr10-30" transform="translate(127.685547 0.658854)"/>
     <use xlink:href="#Cmex10-ae" transform="translate(177.685547 94)"/>
    </g>
   </g>
   <g id="text_15">
    <!-- $|001\rangle$ -->
    <g style="fill: #666666; opacity: 0.85" transform="translate(425.424035 234.918769) scale(0.18 -0.18)">
     <use xlink:href="#Cmsy10-6a" transform="translate(0 0.658854)"/>
     <use xlink:href="#Cmr10-30" transform="translate(27.685547 0.658854)"/>
     <use xlink:href="#Cmr10-30" transform="translate(77.685547 0.658854)"/>
     <use xlink:href="#Cmr10-31" transform="translate(127.685547 0.658854)"/>
     <use xlink:href="#Cmex10-ae" transform="translate(177.685547 94)"/>
    </g>
   </g>
   <g id="text_16">
    <!-- $|101\rangle$ -->
    <g style="fill: #666666; opacity: 0.85" transform="translate(425.424035 174.026828) scale(0.18 -0.18)">
     <use xlink:href="#Cmsy10-6a" transform="translate(0 0.658854)"/>
     <use xlink:href="#Cmr10-31" transform="translate(27.685547 0.658854)"/>
     <use xlink:href="#Cmr10-30" transform="translate(77.685547 0.658854)"/>
     <use xlink:href="#Cmr10-31" transform="translate(127.685547 0.658854)"/>
     <use xlink:href="#Cmex10-ae" transform="translate(177.685547 94)"/>
    </g>
   </g>
   <g id="text_17">
    <!-- $|010\rangle$ -->
    <g style="fill: #666666; opacity: 0.85" transform="translate(425.424035 136.897453) scale(0.18 -0.18)">
     <use xlink:href="#Cmsy10-6a" transform="translate(0 0.658854)"/>
     <use xlink:href="#Cmr10-30" transform="translate(27.685547 0.658854)"/>
     <use xlink:href="#Cmr10-31" transform="translate(77.685547 0.658854)"/>
     <use xlink:href="#Cmr10-30" transform="translate(127.685547 0.658854)"/>
     <use xlink:href="#Cmex10-ae" transform="translate(177.685547 94)"/>
    </g>
   </g>
   <g id="text_18">
    <!-- (a) Repetition $[[3,1,3]]$ -->
    <g transform="translate(158.517949 21.84) scale(0.24 -0.24)">
     <defs>
      <path id="DejaVuSerif-28" d="M 2041 -997 
Q 1281 -656 893 83 
Q 506 822 506 1931 
Q 506 3044 893 3783 
Q 1281 4522 2041 4863 
L 2041 4556 
Q 1559 4225 1350 3623 
Q 1141 3022 1141 1931 
Q 1141 844 1350 242 
Q 1559 -359 2041 -691 
L 2041 -997 
z
" transform="scale(0.015625)"/>
      <path id="DejaVuSerif-61" d="M 2547 1044 
L 2547 1747 
L 1806 1747 
Q 1378 1747 1168 1562 
Q 959 1378 959 997 
Q 959 650 1171 447 
Q 1384 244 1747 244 
Q 2106 244 2326 466 
Q 2547 688 2547 1044 
z
M 3122 2075 
L 3122 331 
L 3634 331 
L 3634 0 
L 2547 0 
L 2547 359 
Q 2356 128 2106 18 
Q 1856 -91 1522 -91 
Q 969 -91 644 203 
Q 319 497 319 997 
Q 319 1513 691 1797 
Q 1063 2081 1741 2081 
L 2547 2081 
L 2547 2309 
Q 2547 2688 2317 2895 
Q 2088 3103 1672 3103 
Q 1328 3103 1125 2947 
Q 922 2791 872 2484 
L 575 2484 
L 575 3156 
Q 875 3284 1158 3348 
Q 1441 3413 1709 3413 
Q 2400 3413 2761 3070 
Q 3122 2728 3122 2075 
z
" transform="scale(0.015625)"/>
      <path id="DejaVuSerif-29" d="M 453 -997 
L 453 -691 
Q 934 -359 1145 242 
Q 1356 844 1356 1931 
Q 1356 3022 1145 3623 
Q 934 4225 453 4556 
L 453 4863 
Q 1216 4522 1603 3783 
Q 1991 3044 1991 1931 
Q 1991 822 1603 83 
Q 1216 -656 453 -997 
z
" transform="scale(0.015625)"/>
      <path id="DejaVuSerif-52" d="M 3066 2316 
Q 3284 2256 3442 2114 
Q 3600 1972 3725 1716 
L 4403 331 
L 4972 331 
L 4972 0 
L 3872 0 
L 3144 1484 
Q 2934 1916 2759 2042 
Q 2584 2169 2278 2169 
L 1581 2169 
L 1581 331 
L 2241 331 
L 2241 0 
L 353 0 
L 353 331 
L 947 331 
L 947 4331 
L 353 4331 
L 353 4666 
L 2719 4666 
Q 3400 4666 3770 4341 
Q 4141 4016 4141 3419 
Q 4141 2938 3870 2661 
Q 3600 2384 3066 2316 
z
M 1581 2503 
L 2503 2503 
Q 2975 2503 3200 2726 
Q 3425 2950 3425 3419 
Q 3425 3888 3200 4109 
Q 2975 4331 2503 4331 
L 1581 4331 
L 1581 2503 
z
" transform="scale(0.015625)"/>
      <path id="DejaVuSerif-70" d="M 1313 1825 
L 1313 1497 
Q 1313 897 1542 583 
Q 1772 269 2209 269 
Q 2650 269 2876 622 
Q 3103 975 3103 1663 
Q 3103 2353 2876 2703 
Q 2650 3053 2209 3053 
Q 1772 3053 1542 2737 
Q 1313 2422 1313 1825 
z
M 738 2988 
L 184 2988 
L 184 3322 
L 1313 3322 
L 1313 2803 
Q 1481 3116 1742 3264 
Q 2003 3413 2388 3413 
Q 3000 3413 3387 2928 
Q 3775 2444 3775 1663 
Q 3775 881 3387 395 
Q 3000 -91 2388 -91 
Q 2003 -91 1742 57 
Q 1481 206 1313 519 
L 1313 -997 
L 1856 -997 
L 1856 -1331 
L 184 -1331 
L 184 -997 
L 738 -997 
L 738 2988 
z
" transform="scale(0.015625)"/>
      <path id="DejaVuSerif-74" d="M 691 2988 
L 184 2988 
L 184 3322 
L 691 3322 
L 691 4353 
L 1269 4353 
L 1269 3322 
L 2350 3322 
L 2350 2988 
L 1269 2988 
L 1269 878 
Q 1269 456 1350 337 
Q 1431 219 1650 219 
Q 1875 219 1978 351 
Q 2081 484 2088 781 
L 2522 781 
Q 2497 328 2275 118 
Q 2053 -91 1600 -91 
Q 1103 -91 897 129 
Q 691 350 691 878 
L 691 2988 
z
" transform="scale(0.015625)"/>
      <path id="DejaVuSerif-69" d="M 622 4353 
Q 622 4497 726 4603 
Q 831 4709 978 4709 
Q 1122 4709 1226 4603 
Q 1331 4497 1331 4353 
Q 1331 4206 1228 4103 
Q 1125 4000 978 4000 
Q 831 4000 726 4103 
Q 622 4206 622 4353 
z
M 1356 331 
L 1900 331 
L 1900 0 
L 231 0 
L 231 331 
L 781 331 
L 781 2988 
L 231 2988 
L 231 3322 
L 1356 3322 
L 1356 331 
z
" transform="scale(0.015625)"/>
      <path id="DejaVuSerif-6f" d="M 1925 219 
Q 2388 219 2623 584 
Q 2859 950 2859 1663 
Q 2859 2375 2623 2739 
Q 2388 3103 1925 3103 
Q 1463 3103 1227 2739 
Q 991 2375 991 1663 
Q 991 950 1228 584 
Q 1466 219 1925 219 
z
M 1925 -91 
Q 1200 -91 759 389 
Q 319 869 319 1663 
Q 319 2456 758 2934 
Q 1197 3413 1925 3413 
Q 2653 3413 3092 2934 
Q 3531 2456 3531 1663 
Q 3531 869 3092 389 
Q 2653 -91 1925 -91 
z
" transform="scale(0.015625)"/>
      <path id="Cmr10-5b" d="M 756 -1600 
L 756 4800 
L 1631 4800 
L 1631 4544 
L 1013 4544 
L 1013 -1344 
L 1631 -1344 
L 1631 -1600 
L 756 -1600 
z
" transform="scale(0.015625)"/>
      <path id="Cmr10-33" d="M 609 494 
Q 759 275 1012 169 
Q 1266 63 1556 63 
Q 1928 63 2084 380 
Q 2241 697 2241 1100 
Q 2241 1281 2208 1462 
Q 2175 1644 2097 1800 
Q 2019 1956 1883 2050 
Q 1747 2144 1550 2144 
L 1125 2144 
Q 1069 2144 1069 2203 
L 1069 2259 
Q 1069 2309 1125 2309 
L 1478 2338 
Q 1703 2338 1851 2506 
Q 2000 2675 2069 2917 
Q 2138 3159 2138 3378 
Q 2138 3684 1994 3881 
Q 1850 4078 1556 4078 
Q 1313 4078 1091 3986 
Q 869 3894 738 3706 
Q 750 3709 759 3711 
Q 769 3713 781 3713 
Q 925 3713 1022 3613 
Q 1119 3513 1119 3372 
Q 1119 3234 1022 3134 
Q 925 3034 781 3034 
Q 641 3034 541 3134 
Q 441 3234 441 3372 
Q 441 3647 606 3850 
Q 772 4053 1033 4158 
Q 1294 4263 1556 4263 
Q 1750 4263 1965 4205 
Q 2181 4147 2356 4039 
Q 2531 3931 2642 3762 
Q 2753 3594 2753 3378 
Q 2753 3109 2633 2881 
Q 2513 2653 2303 2487 
Q 2094 2322 1844 2241 
Q 2122 2188 2372 2031 
Q 2622 1875 2773 1631 
Q 2925 1388 2925 1106 
Q 2925 753 2731 467 
Q 2538 181 2222 20 
Q 1906 -141 1556 -141 
Q 1256 -141 954 -26 
Q 653 88 461 316 
Q 269 544 269 863 
Q 269 1022 375 1128 
Q 481 1234 641 1234 
Q 744 1234 830 1186 
Q 916 1138 964 1050 
Q 1013 963 1013 863 
Q 1013 706 903 600 
Q 794 494 641 494 
L 609 494 
z
" transform="scale(0.015625)"/>
      <path id="Cmmi10-3b" d="M 634 -1153 
Q 634 -1125 659 -1100 
Q 891 -878 1019 -587 
Q 1147 -297 1147 25 
L 1147 103 
Q 1044 0 891 0 
Q 744 0 641 103 
Q 538 206 538 353 
Q 538 503 641 603 
Q 744 703 891 703 
Q 1119 703 1216 492 
Q 1313 281 1313 25 
Q 1313 -331 1170 -651 
Q 1028 -972 769 -1228 
Q 744 -1241 728 -1241 
Q 697 -1241 665 -1212 
Q 634 -1184 634 -1153 
z
" transform="scale(0.015625)"/>
      <path id="Cmr10-5d" d="M 141 -1600 
L 141 -1344 
L 763 -1344 
L 763 4544 
L 141 4544 
L 141 4800 
L 1019 4800 
L 1019 -1600 
L 141 -1600 
z
" transform="scale(0.015625)"/>
     </defs>
     <use xlink:href="#DejaVuSerif-28" transform="translate(0 0.015625)"/>
     <use xlink:href="#DejaVuSerif-61" transform="translate(39.013672 0.015625)"/>
     <use xlink:href="#DejaVuSerif-29" transform="translate(98.632812 0.015625)"/>
     <use xlink:href="#DejaVuSerif-20" transform="translate(137.646484 0.015625)"/>
     <use xlink:href="#DejaVuSerif-52" transform="translate(169.433594 0.015625)"/>
     <use xlink:href="#DejaVuSerif-65" transform="translate(244.726562 0.015625)"/>
     <use xlink:href="#DejaVuSerif-70" transform="translate(303.90625 0.015625)"/>
     <use xlink:href="#DejaVuSerif-65" transform="translate(367.919922 0.015625)"/>
     <use xlink:href="#DejaVuSerif-74" transform="translate(427.099609 0.015625)"/>
     <use xlink:href="#DejaVuSerif-69" transform="translate(467.285156 0.015625)"/>
     <use xlink:href="#DejaVuSerif-74" transform="translate(499.267578 0.015625)"/>
     <use xlink:href="#DejaVuSerif-69" transform="translate(539.453125 0.015625)"/>
     <use xlink:href="#DejaVuSerif-6f" transform="translate(571.435547 0.015625)"/>
     <use xlink:href="#DejaVuSerif-6e" transform="translate(631.640625 0.015625)"/>
     <use xlink:href="#DejaVuSerif-20" transform="translate(696.044922 0.015625)"/>
     <use xlink:href="#Cmr10-5b" transform="translate(727.832031 0.015625)"/>
     <use xlink:href="#Cmr10-5b" transform="translate(755.517578 0.015625)"/>
     <use xlink:href="#Cmr10-33" transform="translate(783.203125 0.015625)"/>
     <use xlink:href="#Cmmi10-3b" transform="translate(833.203125 0.015625)"/>
     <use xlink:href="#Cmr10-31" transform="translate(878.447266 0.015625)"/>
     <use xlink:href="#Cmmi10-3b" transform="translate(928.447266 0.015625)"/>
     <use xlink:href="#Cmr10-33" transform="translate(973.691406 0.015625)"/>
     <use xlink:href="#Cmr10-5d" transform="translate(1023.691406 0.015625)"/>
     <use xlink:href="#Cmr10-5d" transform="translate(1051.376953 0.015625)"/>
    </g>
   </g>
   <g id="line2d_17">
    <path d="M 89.603125 278.844688 
L 150.481004 272.122486 
L 162.722752 270.999681 
L 170.994203 270.455648 
L 177.611364 270.232082 
L 183.566808 270.247704 
L 189.191395 270.482846 
L 194.815982 270.941132 
L 200.771426 271.652716 
L 207.719445 272.718866 
L 217.976044 274.551888 
L 230.217792 276.692631 
L 237.165811 277.680515 
L 243.121255 278.314042 
L 248.745842 278.69469 
L 254.039571 278.840884 
L 259.333299 278.774235 
L 264.957886 278.473902 
L 270.582473 277.952987 
L 276.868775 277.144437 
L 284.47851 275.922944 
L 310.947154 271.433736 
L 316.902598 270.783607 
L 322.527185 270.39047 
L 328.151772 270.220324 
L 334.107216 270.266315 
L 340.724377 270.544266 
L 348.66497 271.106717 
L 359.583285 272.122486 
L 378.111336 274.106252 
L 420.461165 278.844688 
L 420.461165 278.844688 
" clip-path="url(#p1235019fa8)" style="fill: none; stroke-dasharray: 9.25,4; stroke-dashoffset: 0; stroke: #666666; stroke-opacity: 0.7; stroke-width: 2.5"/>
   </g>
   <g id="line2d_18">
    <path d="M 89.603125 278.844688 
L 150.481004 272.122486 
L 162.722752 270.999681 
L 170.994203 270.455648 
L 177.611364 270.232082 
L 183.566808 270.247704 
L 189.191395 270.482846 
L 194.815982 270.941132 
L 200.771426 271.652716 
L 207.719445 272.718866 
L 217.976044 274.551888 
L 230.217792 276.692631 
L 237.165811 277.680515 
L 243.121255 278.314042 
L 248.745842 278.69469 
L 254.039571 278.840884 
L 259.333299 278.774235 
L 264.957886 278.473902 
L 270.582473 277.952987 
L 276.868775 277.144437 
L 284.47851 275.922944 
L 310.947154 271.433736 
L 316.902598 270.783607 
L 322.527185 270.39047 
L 328.151772 270.220324 
L 334.107216 270.266315 
L 340.724377 270.544266 
L 348.66497 271.106717 
L 359.583285 272.122486 
L 378.111336 274.106252 
L 420.461165 278.844688 
L 420.461165 278.844688 
" clip-path="url(#p1235019fa8)" style="fill: none; stroke-dasharray: 9.25,4; stroke-dashoffset: 0; stroke: #666666; stroke-opacity: 0.7; stroke-width: 2.5"/>
   </g>
   <g id="line2d_19">
    <path d="M 89.603125 241.715312 
L 150.481004 248.437514 
L 162.722752 249.560319 
L 170.994203 250.104352 
L 177.611364 250.327918 
L 183.566808 250.312296 
L 189.191395 250.077154 
L 194.815982 249.618868 
L 200.771426 248.907284 
L 207.719445 247.841134 
L 217.976044 246.008112 
L 230.217792 243.867369 
L 237.165811 242.879485 
L 243.121255 242.245958 
L 248.745842 241.86531 
L 254.039571 241.719116 
L 259.333299 241.785765 
L 264.957886 242.086098 
L 270.582473 242.607013 
L 276.868775 243.415563 
L 284.47851 244.637056 
L 310.947154 249.126264 
L 316.902598 249.776393 
L 322.527185 250.16953 
L 328.151772 250.339676 
L 334.107216 250.293685 
L 340.724377 250.015734 
L 348.66497 249.453283 
L 359.583285 248.437514 
L 378.111336 246.453748 
L 420.461165 241.715312 
L 420.461165 241.715312 
" clip-path="url(#p1235019fa8)" style="fill: none; stroke-dasharray: 9.25,4; stroke-dashoffset: 0; stroke: #666666; stroke-opacity: 0.7; stroke-width: 2.5"/>
   </g>
   <g id="line2d_20">
    <path d="M 89.603125 241.715312 
L 150.481004 248.437514 
L 162.722752 249.560319 
L 170.994203 250.104352 
L 177.611364 250.327918 
L 183.566808 250.312296 
L 189.191395 250.077154 
L 194.815982 249.618868 
L 200.771426 248.907284 
L 207.719445 247.841134 
L 217.976044 246.008112 
L 230.217792 243.867369 
L 237.165811 242.879485 
L 243.121255 242.245958 
L 248.745842 241.86531 
L 254.039571 241.719116 
L 259.333299 241.785765 
L 264.957886 242.086098 
L 270.582473 242.607013 
L 276.868775 243.415563 
L 284.47851 244.637056 
L 310.947154 249.126264 
L 316.902598 249.776393 
L 322.527185 250.16953 
L 328.151772 250.339676 
L 334.107216 250.293685 
L 340.724377 250.015734 
L 348.66497 249.453283 
L 359.583285 248.437514 
L 378.111336 246.453748 
L 420.461165 241.715312 
L 420.461165 241.715312 
" clip-path="url(#p1235019fa8)" style="fill: none; stroke-dasharray: 9.25,4; stroke-dashoffset: 0; stroke: #666666; stroke-opacity: 0.7; stroke-width: 2.5"/>
   </g>
   <g id="line2d_21">
    <path d="M 89.603125 167.456828 
L 150.481004 160.734627 
L 162.722752 159.611822 
L 170.994203 159.067789 
L 177.611364 158.844223 
L 183.566808 158.859845 
L 189.191395 159.094986 
L 194.815982 159.553272 
L 200.771426 160.264857 
L 207.719445 161.331006 
L 217.976044 163.164028 
L 230.217792 165.304771 
L 237.165811 166.292655 
L 243.121255 166.926183 
L 248.745842 167.306831 
L 254.039571 167.453025 
L 259.333299 167.386376 
L 264.957886 167.086043 
L 270.582473 166.565128 
L 276.868775 165.756578 
L 284.47851 164.535084 
L 310.947154 160.045877 
L 316.902598 159.395748 
L 322.527185 159.002611 
L 328.151772 158.832465 
L 334.107216 158.878456 
L 340.724377 159.156406 
L 348.66497 159.718858 
L 359.583285 160.734627 
L 378.111336 162.718393 
L 420.461165 167.456828 
L 420.461165 167.456828 
" clip-path="url(#p1235019fa8)" style="fill: none; stroke-dasharray: 9.25,4; stroke-dashoffset: 0; stroke: #666666; stroke-opacity: 0.7; stroke-width: 2.5"/>
   </g>
   <g id="line2d_22">
    <path d="M 89.603125 130.327453 
L 150.481004 137.049654 
L 162.722752 138.172459 
L 170.994203 138.716492 
L 177.611364 138.940059 
L 183.566808 138.924436 
L 189.191395 138.689295 
L 194.815982 138.231009 
L 200.771426 137.519424 
L 207.719445 136.453275 
L 217.976044 134.620253 
L 230.217792 132.47951 
L 237.165811 131.491626 
L 243.121255 130.858098 
L 248.745842 130.477451 
L 254.039571 130.331256 
L 259.333299 130.397906 
L 264.957886 130.698238 
L 270.582473 131.219153 
L 276.868775 132.027704 
L 284.47851 133.249197 
L 310.947154 137.738405 
L 316.902598 138.388534 
L 322.527185 138.781671 
L 328.151772 138.951817 
L 334.107216 138.905825 
L 340.724377 138.627875 
L 348.66497 138.065423 
L 359.583285 137.049654 
L 378.111336 135.065888 
L 420.461165 130.327453 
L 420.461165 130.327453 
" clip-path="url(#p1235019fa8)" style="fill: none; stroke-dasharray: 9.25,4; stroke-dashoffset: 0; stroke: #666666; stroke-opacity: 0.7; stroke-width: 2.5"/>
   </g>
   <g id="line2d_23">
    <path d="M 89.603125 390.232547 
L 150.481004 383.510346 
L 162.722752 382.387541 
L 170.994203 381.843508 
L 177.611364 381.619941 
L 183.566808 381.635564 
L 189.191395 381.870705 
L 194.815982 382.328991 
L 200.771426 383.040576 
L 207.719445 384.106725 
L 217.976044 385.939747 
L 230.217792 388.08049 
L 237.165811 389.068374 
L 243.121255 389.701902 
L 248.745842 390.082549 
L 254.039571 390.228744 
L 255.032145 390.232503 
M 255.693861 353.104887 
L 260.98759 353.237877 
L 266.612176 353.605301 
L 272.567621 354.226503 
L 279.184782 355.151547 
L 287.456233 356.551111 
L 307.307715 360.012984 
L 313.594018 360.831042 
L 319.218605 361.353174 
L 324.843191 361.654083 
L 330.467778 361.735596 
L 336.754081 361.595765 
L 344.032958 361.194163 
L 352.966125 360.465434 
L 366.200446 359.137861 
L 394.32338 356.034565 
L 420.461165 353.103172 
L 420.461165 353.103172 
" clip-path="url(#p1235019fa8)" style="fill: none; stroke: #e41a1c; stroke-width: 5; stroke-linecap: square"/>
   </g>
   <g id="line2d_24">
    <path d="M 89.603125 353.103172 
L 150.481004 359.825373 
L 162.722752 360.948178 
L 170.994203 361.492211 
L 177.611364 361.715777 
L 183.566808 361.700155 
L 189.191395 361.465014 
L 194.815982 361.006728 
L 200.771426 360.295143 
L 207.719445 359.228994 
L 217.976044 357.395972 
L 230.217792 355.255229 
L 237.165811 354.267345 
L 243.121255 353.633817 
L 248.745842 353.253169 
L 254.039571 353.106975 
L 255.032145 353.103216 
M 255.693861 390.230832 
L 260.98759 390.097842 
L 266.612176 389.730418 
L 272.567621 389.109215 
L 279.184782 388.184172 
L 287.456233 386.784608 
L 307.307715 383.322735 
L 313.594018 382.504677 
L 319.218605 381.982544 
L 324.843191 381.681636 
L 330.467778 381.600123 
L 336.754081 381.739954 
L 344.032958 382.141556 
L 352.966125 382.870285 
L 366.200446 384.197858 
L 394.32338 387.301153 
L 420.461165 390.232547 
L 420.461165 390.232547 
" clip-path="url(#p1235019fa8)" style="fill: none; stroke: #377eb8; stroke-width: 5; stroke-linecap: square"/>
   </g>
  </g>
  <g id="axes_2">
   <g id="patch_7">
    <path d="M 506.484255 492.72 
L 903.513903 492.72 
L 903.513903 27.84 
L 506.484255 27.84 
z
" style="fill: #ffffff"/>
   </g>
   <g id="matplotlib.axis_3">
    <g id="xtick_4">
     <g id="line2d_25">
      <path d="M 506.484255 492.72 
L 506.484255 27.84 
" clip-path="url(#pe662a7fb8f)" style="fill: none; stroke-dasharray: 5.55,2.4; stroke-dashoffset: 0; stroke: #b0b0b0; stroke-opacity: 0.3; stroke-width: 1.5"/>
     </g>
     <g id="line2d_26">
      <g>
       <use xlink:href="#mf0415b13b1" x="506.484255" y="492.72" style="stroke: #000000; stroke-width: 0.8"/>
      </g>
     </g>
     <g id="text_19">
      <!-- 0 -->
      <g transform="translate(500.121755 511.416875) scale(0.2 -0.2)">
       <use xlink:href="#DejaVuSerif-30"/>
      </g>
     </g>
    </g>
    <g id="xtick_5">
     <g id="line2d_27">
      <path d="M 648.280558 492.72 
L 648.280558 27.84 
" clip-path="url(#pe662a7fb8f)" style="fill: none; stroke-dasharray: 5.55,2.4; stroke-dashoffset: 0; stroke: #b0b0b0; stroke-opacity: 0.3; stroke-width: 1.5"/>
     </g>
     <g id="line2d_28">
      <g>
       <use xlink:href="#mf0415b13b1" x="648.280558" y="492.72" style="stroke: #000000; stroke-width: 0.8"/>
      </g>
     </g>
     <g id="text_20">
      <!-- 2 -->
      <g transform="translate(641.918058 511.416875) scale(0.2 -0.2)">
       <use xlink:href="#DejaVuSerif-32"/>
      </g>
     </g>
    </g>
    <g id="xtick_6">
     <g id="line2d_29">
      <path d="M 790.07686 492.72 
L 790.07686 27.84 
" clip-path="url(#pe662a7fb8f)" style="fill: none; stroke-dasharray: 5.55,2.4; stroke-dashoffset: 0; stroke: #b0b0b0; stroke-opacity: 0.3; stroke-width: 1.5"/>
     </g>
     <g id="line2d_30">
      <g>
       <use xlink:href="#mf0415b13b1" x="790.07686" y="492.72" style="stroke: #000000; stroke-width: 0.8"/>
      </g>
     </g>
     <g id="text_21">
      <!-- 4 -->
      <g transform="translate(783.71436 511.416875) scale(0.2 -0.2)">
       <use xlink:href="#DejaVuSerif-34"/>
      </g>
     </g>
    </g>
   </g>
   <g id="matplotlib.axis_4">
    <g id="ytick_6">
     <g id="line2d_31">
      <path d="M 506.484255 483.055719 
L 903.513903 483.055719 
" clip-path="url(#pe662a7fb8f)" style="fill: none; stroke-dasharray: 5.55,2.4; stroke-dashoffset: 0; stroke: #b0b0b0; stroke-opacity: 0.3; stroke-width: 1.5"/>
     </g>
     <g id="line2d_32">
      <g>
       <use xlink:href="#m53f2ca5a40" x="506.484255" y="483.055719" style="stroke: #000000; stroke-width: 0.8"/>
      </g>
     </g>
    </g>
    <g id="ytick_7">
     <g id="line2d_33">
      <path d="M 506.484255 371.667859 
L 903.513903 371.667859 
" clip-path="url(#pe662a7fb8f)" style="fill: none; stroke-dasharray: 5.55,2.4; stroke-dashoffset: 0; stroke: #b0b0b0; stroke-opacity: 0.3; stroke-width: 1.5"/>
     </g>
     <g id="line2d_34">
      <g>
       <use xlink:href="#m53f2ca5a40" x="506.484255" y="371.667859" style="stroke: #000000; stroke-width: 0.8"/>
      </g>
     </g>
    </g>
    <g id="ytick_8">
     <g id="line2d_35">
      <path d="M 506.484255 260.28 
L 903.513903 260.28 
" clip-path="url(#pe662a7fb8f)" style="fill: none; stroke-dasharray: 5.55,2.4; stroke-dashoffset: 0; stroke: #b0b0b0; stroke-opacity: 0.3; stroke-width: 1.5"/>
     </g>
     <g id="line2d_36">
      <g>
       <use xlink:href="#m53f2ca5a40" x="506.484255" y="260.28" style="stroke: #000000; stroke-width: 0.8"/>
      </g>
     </g>
    </g>
    <g id="ytick_9">
     <g id="line2d_37">
      <path d="M 506.484255 148.892141 
L 903.513903 148.892141 
" clip-path="url(#pe662a7fb8f)" style="fill: none; stroke-dasharray: 5.55,2.4; stroke-dashoffset: 0; stroke: #b0b0b0; stroke-opacity: 0.3; stroke-width: 1.5"/>
     </g>
     <g id="line2d_38">
      <g>
       <use xlink:href="#m53f2ca5a40" x="506.484255" y="148.892141" style="stroke: #000000; stroke-width: 0.8"/>
      </g>
     </g>
    </g>
    <g id="ytick_10">
     <g id="line2d_39">
      <path d="M 506.484255 37.504281 
L 903.513903 37.504281 
" clip-path="url(#pe662a7fb8f)" style="fill: none; stroke-dasharray: 5.55,2.4; stroke-dashoffset: 0; stroke: #b0b0b0; stroke-opacity: 0.3; stroke-width: 1.5"/>
     </g>
     <g id="line2d_40">
      <g>
       <use xlink:href="#m53f2ca5a40" x="506.484255" y="37.504281" style="stroke: #000000; stroke-width: 0.8"/>
      </g>
     </g>
    </g>
   </g>
   <g id="patch_8">
    <path d="M 506.484255 492.72 
L 506.484255 27.84 
" style="fill: none; stroke: #000000; stroke-width: 0.8; stroke-linejoin: miter; stroke-linecap: square"/>
   </g>
   <g id="patch_9">
    <path d="M 903.513903 492.72 
L 903.513903 27.84 
" style="fill: none; stroke: #000000; stroke-width: 0.8; stroke-linejoin: miter; stroke-linecap: square"/>
   </g>
   <g id="patch_10">
    <path d="M 506.484255 492.72 
L 903.513903 492.72 
" style="fill: none; stroke: #000000; stroke-width: 0.8; stroke-linejoin: miter; stroke-linecap: square"/>
   </g>
   <g id="patch_11">
    <path d="M 506.484255 27.84 
L 903.513903 27.84 
" style="fill: none; stroke: #000000; stroke-width: 0.8; stroke-linejoin: miter; stroke-linecap: square"/>
   </g>
   <g id="text_22">
    <!-- $|0_L\rangle \otimes |0_G\rangle$ -->
    <g style="fill: #e41a1c" transform="translate(794.330749 406.541534) scale(0.2 -0.2)">
     <defs>
      <path id="Cmsy10-ad" d="M 2491 -531 
Q 2053 -531 1668 -365 
Q 1284 -200 986 95 
Q 688 391 523 780 
Q 359 1169 359 1600 
Q 359 2038 521 2422 
Q 684 2806 984 3106 
Q 1284 3406 1668 3568 
Q 2053 3731 2491 3731 
Q 2925 3731 3312 3565 
Q 3700 3400 3994 3104 
Q 4288 2809 4452 2421 
Q 4616 2034 4616 1600 
Q 4616 1172 4450 780 
Q 4284 388 3992 95 
Q 3700 -197 3312 -364 
Q 2925 -531 2491 -531 
z
M 1178 159 
Q 1738 -347 2491 -347 
Q 2844 -347 3187 -214 
Q 3531 -81 3794 159 
L 2491 1466 
L 1178 159 
z
M 1050 288 
L 2356 1600 
L 1050 2913 
Q 803 2644 673 2305 
Q 544 1966 544 1600 
Q 544 1353 601 1122 
Q 659 891 775 675 
Q 891 459 1050 288 
z
M 3922 288 
Q 4081 459 4197 675 
Q 4313 891 4370 1122 
Q 4428 1353 4428 1600 
Q 4428 1847 4370 2078 
Q 4313 2309 4197 2525 
Q 4081 2741 3922 2913 
L 2619 1600 
L 3922 288 
z
M 2491 1734 
L 3794 3041 
Q 3522 3288 3189 3417 
Q 2856 3547 2491 3547 
Q 2122 3547 1789 3419 
Q 1456 3291 1178 3041 
L 2491 1734 
z
" transform="scale(0.015625)"/>
      <path id="Cmmi10-47" d="M 934 1403 
Q 934 1006 1092 707 
Q 1250 409 1547 246 
Q 1844 84 2234 84 
Q 2616 84 2959 264 
Q 3303 444 3391 781 
L 3531 1331 
Q 3534 1350 3537 1370 
Q 3541 1391 3541 1403 
Q 3541 1469 3500 1478 
Q 3341 1522 2859 1522 
Q 2797 1522 2797 1606 
Q 2816 1684 2831 1715 
Q 2847 1747 2906 1747 
L 4556 1747 
Q 4622 1747 4622 1663 
Q 4619 1647 4609 1609 
Q 4600 1572 4584 1547 
Q 4569 1522 4538 1522 
Q 4325 1522 4226 1487 
Q 4128 1453 4091 1306 
L 3950 756 
L 3769 44 
Q 3759 0 3713 0 
Q 3659 0 3559 144 
Q 3459 288 3419 384 
Q 3197 122 2825 -9 
Q 2453 -141 2059 -141 
Q 1563 -141 1164 84 
Q 766 309 545 709 
Q 325 1109 325 1613 
Q 325 2150 564 2673 
Q 803 3197 1212 3611 
Q 1622 4025 2142 4269 
Q 2663 4513 3194 4513 
Q 3406 4513 3601 4447 
Q 3797 4381 3964 4251 
Q 4131 4122 4238 3950 
L 4744 4500 
Q 4744 4513 4775 4513 
L 4813 4513 
Q 4838 4513 4855 4492 
Q 4872 4472 4872 4447 
L 4434 2719 
Q 4434 2675 4384 2675 
L 4269 2675 
Q 4219 2675 4219 2747 
Q 4244 2888 4244 3078 
Q 4244 3394 4137 3672 
Q 4031 3950 3806 4119 
Q 3581 4288 3256 4288 
Q 2741 4288 2303 4027 
Q 1866 3766 1562 3337 
Q 1259 2909 1096 2396 
Q 934 1884 934 1403 
z
" transform="scale(0.015625)"/>
     </defs>
     <use xlink:href="#Cmsy10-6a" transform="translate(0 0.658854)"/>
     <use xlink:href="#Cmr10-30" transform="translate(27.685547 0.658854)"/>
     <use xlink:href="#Cmmi10-4c" transform="translate(82.149687 -16.347396) scale(0.7)"/>
     <use xlink:href="#Cmex10-ae" transform="translate(136.139336 94)"/>
     <use xlink:href="#Cmsy10-ad" transform="translate(200.914727 0.658854)"/>
     <use xlink:href="#Cmsy10-6a" transform="translate(296.158867 0.658854)"/>
     <use xlink:href="#Cmr10-30" transform="translate(323.844414 0.658854)"/>
     <use xlink:href="#Cmmi10-47" transform="translate(378.308555 -16.347396) scale(0.7)"/>
     <use xlink:href="#Cmex10-ae" transform="translate(439.715195 94)"/>
    </g>
   </g>
   <g id="text_23">
    <!-- $|1_L\rangle \otimes |0_G\rangle$ -->
    <g style="fill: #377eb8" transform="translate(794.330749 443.670909) scale(0.2 -0.2)">
     <use xlink:href="#Cmsy10-6a" transform="translate(0 0.658854)"/>
     <use xlink:href="#Cmr10-31" transform="translate(27.685547 0.658854)"/>
     <use xlink:href="#Cmmi10-4c" transform="translate(82.149687 -16.347396) scale(0.7)"/>
     <use xlink:href="#Cmex10-ae" transform="translate(136.139336 94)"/>
     <use xlink:href="#Cmsy10-ad" transform="translate(200.914727 0.658854)"/>
     <use xlink:href="#Cmsy10-6a" transform="translate(296.158867 0.658854)"/>
     <use xlink:href="#Cmr10-30" transform="translate(323.844414 0.658854)"/>
     <use xlink:href="#Cmmi10-47" transform="translate(378.308555 -16.347396) scale(0.7)"/>
     <use xlink:href="#Cmex10-ae" transform="translate(439.715195 94)"/>
    </g>
   </g>
   <g id="text_24">
    <!-- Error -->
    <g style="fill: #666666; opacity: 0.85" transform="translate(794.330749 232.099663) scale(0.18 -0.18)">
     <use xlink:href="#DejaVuSerif-45"/>
     <use xlink:href="#DejaVuSerif-72" transform="translate(72.998047 0)"/>
     <use xlink:href="#DejaVuSerif-72" transform="translate(120.800781 0)"/>
     <use xlink:href="#DejaVuSerif-6f" transform="translate(168.603516 0)"/>
     <use xlink:href="#DejaVuSerif-72" transform="translate(228.808594 0)"/>
    </g>
    <!-- states -->
    <g style="fill: #666666; opacity: 0.85" transform="translate(794.330749 252.255725) scale(0.18 -0.18)">
     <defs>
      <path id="DejaVuSerif-73" d="M 359 184 
L 359 959 
L 691 959 
Q 703 588 923 403 
Q 1144 219 1575 219 
Q 1963 219 2166 364 
Q 2369 509 2369 788 
Q 2369 1006 2220 1140 
Q 2072 1275 1594 1428 
L 1178 1569 
Q 750 1706 558 1912 
Q 366 2119 366 2438 
Q 366 2894 700 3153 
Q 1034 3413 1625 3413 
Q 1888 3413 2178 3344 
Q 2469 3275 2778 3144 
L 2778 2419 
L 2447 2419 
Q 2434 2741 2221 2922 
Q 2009 3103 1644 3103 
Q 1281 3103 1095 2975 
Q 909 2847 909 2591 
Q 909 2381 1050 2254 
Q 1191 2128 1613 1997 
L 2069 1856 
Q 2541 1709 2748 1489 
Q 2956 1269 2956 922 
Q 2956 450 2595 179 
Q 2234 -91 1600 -91 
Q 1278 -91 972 -22 
Q 666 47 359 184 
z
" transform="scale(0.015625)"/>
     </defs>
     <use xlink:href="#DejaVuSerif-73"/>
     <use xlink:href="#DejaVuSerif-74" transform="translate(51.318359 0)"/>
     <use xlink:href="#DejaVuSerif-61" transform="translate(91.503906 0)"/>
     <use xlink:href="#DejaVuSerif-74" transform="translate(151.123047 0)"/>
     <use xlink:href="#DejaVuSerif-65" transform="translate(191.308594 0)"/>
     <use xlink:href="#DejaVuSerif-73" transform="translate(250.488281 0)"/>
    </g>
   </g>
   <g id="text_25">
    <!-- (b) Bacon-Shor $[[4,1,1,2]]$ -->
    <g transform="translate(556.079079 21.84) scale(0.24 -0.24)">
     <defs>
      <path id="DejaVuSerif-62" d="M 738 331 
L 738 4531 
L 184 4531 
L 184 4863 
L 1313 4863 
L 1313 2803 
Q 1481 3116 1742 3264 
Q 2003 3413 2388 3413 
Q 3000 3413 3387 2928 
Q 3775 2444 3775 1663 
Q 3775 881 3387 395 
Q 3000 -91 2388 -91 
Q 2003 -91 1742 57 
Q 1481 206 1313 519 
L 1313 0 
L 184 0 
L 184 331 
L 738 331 
z
M 1313 1497 
Q 1313 897 1542 583 
Q 1772 269 2209 269 
Q 2650 269 2876 622 
Q 3103 975 3103 1663 
Q 3103 2353 2876 2703 
Q 2650 3053 2209 3053 
Q 1772 3053 1542 2737 
Q 1313 2422 1313 1825 
L 1313 1497 
z
" transform="scale(0.015625)"/>
      <path id="DejaVuSerif-42" d="M 1581 331 
L 2516 331 
Q 3078 331 3337 575 
Q 3597 819 3597 1350 
Q 3597 1878 3339 2120 
Q 3081 2363 2516 2363 
L 1581 2363 
L 1581 331 
z
M 1581 2694 
L 2375 2694 
Q 2888 2694 3123 2891 
Q 3359 3088 3359 3513 
Q 3359 3941 3123 4136 
Q 2888 4331 2375 4331 
L 1581 4331 
L 1581 2694 
z
M 353 0 
L 353 331 
L 947 331 
L 947 4331 
L 353 4331 
L 353 4666 
L 2656 4666 
Q 3363 4666 3720 4377 
Q 4078 4088 4078 3513 
Q 4078 3097 3829 2850 
Q 3581 2603 3103 2547 
Q 3697 2472 4005 2167 
Q 4313 1863 4313 1350 
Q 4313 656 3875 328 
Q 3438 0 2509 0 
L 353 0 
z
" transform="scale(0.015625)"/>
      <path id="DejaVuSerif-63" d="M 3291 997 
Q 3169 466 2822 187 
Q 2475 -91 1925 -91 
Q 1200 -91 759 389 
Q 319 869 319 1663 
Q 319 2459 759 2936 
Q 1200 3413 1925 3413 
Q 2241 3413 2553 3339 
Q 2866 3266 3181 3116 
L 3181 2266 
L 2847 2266 
Q 2781 2703 2561 2903 
Q 2341 3103 1931 3103 
Q 1466 3103 1228 2742 
Q 991 2381 991 1663 
Q 991 944 1227 581 
Q 1463 219 1931 219 
Q 2303 219 2525 412 
Q 2747 606 2828 997 
L 3291 997 
z
" transform="scale(0.015625)"/>
      <path id="DejaVuSerif-2d" d="M 281 1959 
L 1881 1959 
L 1881 1472 
L 281 1472 
L 281 1959 
z
" transform="scale(0.015625)"/>
      <path id="DejaVuSerif-53" d="M 594 225 
L 594 1288 
L 953 1284 
Q 969 753 1261 498 
Q 1553 244 2150 244 
Q 2706 244 2998 464 
Q 3291 684 3291 1106 
Q 3291 1444 3114 1625 
Q 2938 1806 2369 1978 
L 1753 2163 
Q 1084 2366 811 2669 
Q 538 2972 538 3500 
Q 538 4094 959 4422 
Q 1381 4750 2144 4750 
Q 2469 4750 2856 4679 
Q 3244 4609 3681 4475 
L 3681 3481 
L 3328 3481 
Q 3275 3975 2998 4195 
Q 2722 4416 2156 4416 
Q 1663 4416 1405 4214 
Q 1147 4013 1147 3628 
Q 1147 3294 1340 3103 
Q 1534 2913 2163 2725 
L 2741 2553 
Q 3375 2363 3645 2067 
Q 3916 1772 3916 1275 
Q 3916 597 3481 253 
Q 3047 -91 2188 -91 
Q 1803 -91 1404 -12 
Q 1006 66 594 225 
z
" transform="scale(0.015625)"/>
      <path id="DejaVuSerif-68" d="M 263 0 
L 263 331 
L 781 331 
L 781 4531 
L 231 4531 
L 231 4863 
L 1356 4863 
L 1356 2731 
Q 1516 3069 1770 3241 
Q 2025 3413 2363 3413 
Q 2913 3413 3172 3097 
Q 3431 2781 3431 2113 
L 3431 331 
L 3944 331 
L 3944 0 
L 2356 0 
L 2356 331 
L 2853 331 
L 2853 1931 
Q 2853 2541 2704 2764 
Q 2556 2988 2175 2988 
Q 1775 2988 1565 2697 
Q 1356 2406 1356 1850 
L 1356 331 
L 1856 331 
L 1856 0 
L 263 0 
z
" transform="scale(0.015625)"/>
      <path id="Cmr10-34" d="M 178 1056 
L 178 1281 
L 2156 4231 
Q 2178 4263 2222 4263 
L 2316 4263 
Q 2388 4263 2388 4191 
L 2388 1281 
L 3016 1281 
L 3016 1056 
L 2388 1056 
L 2388 428 
Q 2388 297 2575 261 
Q 2763 225 3009 225 
L 3009 0 
L 1247 0 
L 1247 225 
Q 1494 225 1681 261 
Q 1869 297 1869 428 
L 1869 1056 
L 178 1056 
z
M 391 1281 
L 1906 1281 
L 1906 3547 
L 391 1281 
z
" transform="scale(0.015625)"/>
      <path id="Cmr10-32" d="M 319 0 
L 319 172 
Q 319 188 331 206 
L 1325 1306 
Q 1550 1550 1690 1715 
Q 1831 1881 1968 2097 
Q 2106 2313 2186 2536 
Q 2266 2759 2266 3009 
Q 2266 3272 2169 3511 
Q 2072 3750 1880 3894 
Q 1688 4038 1416 4038 
Q 1138 4038 916 3870 
Q 694 3703 603 3438 
Q 628 3444 672 3444 
Q 816 3444 917 3347 
Q 1019 3250 1019 3097 
Q 1019 2950 917 2848 
Q 816 2747 672 2747 
Q 522 2747 420 2851 
Q 319 2956 319 3097 
Q 319 3338 409 3548 
Q 500 3759 670 3923 
Q 841 4088 1055 4175 
Q 1269 4263 1509 4263 
Q 1875 4263 2190 4108 
Q 2506 3953 2690 3670 
Q 2875 3388 2875 3009 
Q 2875 2731 2753 2481 
Q 2631 2231 2440 2026 
Q 2250 1822 1953 1562 
Q 1656 1303 1563 1216 
L 838 519 
L 1453 519 
Q 1906 519 2211 526 
Q 2516 534 2534 550 
Q 2609 631 2688 1141 
L 2875 1141 
L 2694 0 
L 319 0 
z
" transform="scale(0.015625)"/>
     </defs>
     <use xlink:href="#DejaVuSerif-28" transform="translate(0 0.015625)"/>
     <use xlink:href="#DejaVuSerif-62" transform="translate(39.013672 0.015625)"/>
     <use xlink:href="#DejaVuSerif-29" transform="translate(103.027344 0.015625)"/>
     <use xlink:href="#DejaVuSerif-20" transform="translate(142.041016 0.015625)"/>
     <use xlink:href="#DejaVuSerif-42" transform="translate(173.828125 0.015625)"/>
     <use xlink:href="#DejaVuSerif-61" transform="translate(247.314453 0.015625)"/>
     <use xlink:href="#DejaVuSerif-63" transform="translate(306.933594 0.015625)"/>
     <use xlink:href="#DejaVuSerif-6f" transform="translate(362.939453 0.015625)"/>
     <use xlink:href="#DejaVuSerif-6e" transform="translate(423.144531 0.015625)"/>
     <use xlink:href="#DejaVuSerif-2d" transform="translate(487.548828 0.015625)"/>
     <use xlink:href="#DejaVuSerif-53" transform="translate(521.337891 0.015625)"/>
     <use xlink:href="#DejaVuSerif-68" transform="translate(589.84375 0.015625)"/>
     <use xlink:href="#DejaVuSerif-6f" transform="translate(654.248047 0.015625)"/>
     <use xlink:href="#DejaVuSerif-72" transform="translate(714.453125 0.015625)"/>
     <use xlink:href="#DejaVuSerif-20" transform="translate(762.255859 0.015625)"/>
     <use xlink:href="#Cmr10-5b" transform="translate(794.042969 0.015625)"/>
     <use xlink:href="#Cmr10-5b" transform="translate(821.728516 0.015625)"/>
     <use xlink:href="#Cmr10-34" transform="translate(849.414062 0.015625)"/>
     <use xlink:href="#Cmmi10-3b" transform="translate(899.414062 0.015625)"/>
     <use xlink:href="#Cmr10-31" transform="translate(944.658203 0.015625)"/>
     <use xlink:href="#Cmmi10-3b" transform="translate(994.658203 0.015625)"/>
     <use xlink:href="#Cmr10-31" transform="translate(1039.902344 0.015625)"/>
     <use xlink:href="#Cmmi10-3b" transform="translate(1089.902344 0.015625)"/>
     <use xlink:href="#Cmr10-32" transform="translate(1135.146484 0.015625)"/>
     <use xlink:href="#Cmr10-5d" transform="translate(1185.146484 0.015625)"/>
     <use xlink:href="#Cmr10-5d" transform="translate(1212.832031 0.015625)"/>
    </g>
   </g>
   <g id="line2d_41">
    <path d="M 506.484255 390.232547 
L 558.665294 383.510346 
L 569.158221 382.387541 
L 576.248036 381.843508 
L 581.919888 381.619941 
L 587.024555 381.635564 
L 591.845629 381.870705 
L 596.666704 382.328991 
L 601.77137 383.040576 
L 607.726815 384.106725 
L 616.518186 385.939747 
L 627.011112 388.08049 
L 632.966557 389.068374 
L 638.071224 389.701902 
L 642.892298 390.082549 
L 647.42978 390.228744 
L 651.967262 390.162094 
L 656.788336 389.861762 
L 661.60941 389.340847 
L 666.99767 388.532296 
L 673.5203 387.310803 
L 696.207708 382.821595 
L 701.312375 382.171466 
L 706.133449 381.778329 
L 710.954524 381.608183 
L 716.05919 381.654175 
L 721.731043 381.932125 
L 728.537265 382.494577 
L 737.895821 383.510346 
L 753.777007 385.494112 
L 790.07686 390.232547 
L 790.07686 390.232547 
" clip-path="url(#pe662a7fb8f)" style="fill: none; stroke-dasharray: 9.25,4; stroke-dashoffset: 0; stroke: #666666; stroke-opacity: 0.7; stroke-width: 2.5"/>
   </g>
   <g id="line2d_42">
    <path d="M 506.484255 390.232547 
L 558.665294 383.510346 
L 569.158221 382.387541 
L 576.248036 381.843508 
L 581.919888 381.619941 
L 587.024555 381.635564 
L 591.845629 381.870705 
L 596.666704 382.328991 
L 601.77137 383.040576 
L 607.726815 384.106725 
L 616.518186 385.939747 
L 627.011112 388.08049 
L 632.966557 389.068374 
L 638.071224 389.701902 
L 642.892298 390.082549 
L 647.42978 390.228744 
L 651.967262 390.162094 
L 656.788336 389.861762 
L 661.60941 389.340847 
L 666.99767 388.532296 
L 673.5203 387.310803 
L 696.207708 382.821595 
L 701.312375 382.171466 
L 706.133449 381.778329 
L 710.954524 381.608183 
L 716.05919 381.654175 
L 721.731043 381.932125 
L 728.537265 382.494577 
L 737.895821 383.510346 
L 753.777007 385.494112 
L 790.07686 390.232547 
L 790.07686 390.232547 
" clip-path="url(#pe662a7fb8f)" style="fill: none; stroke-dasharray: 9.25,4; stroke-dashoffset: 0; stroke: #666666; stroke-opacity: 0.7; stroke-width: 2.5"/>
   </g>
   <g id="line2d_43">
    <path d="M 506.484255 353.103172 
L 558.665294 359.825373 
L 569.158221 360.948178 
L 576.248036 361.492211 
L 581.919888 361.715777 
L 587.024555 361.700155 
L 591.845629 361.465014 
L 596.666704 361.006728 
L 601.77137 360.295143 
L 607.726815 359.228994 
L 616.518186 357.395972 
L 627.011112 355.255229 
L 632.966557 354.267345 
L 638.071224 353.633817 
L 642.892298 353.253169 
L 647.42978 353.106975 
L 651.967262 353.173624 
L 656.788336 353.473957 
L 661.60941 353.994872 
L 666.99767 354.803422 
L 673.5203 356.024916 
L 696.207708 360.514123 
L 701.312375 361.164252 
L 706.133449 361.557389 
L 710.954524 361.727535 
L 716.05919 361.681544 
L 721.731043 361.403594 
L 728.537265 360.841142 
L 737.895821 359.825373 
L 753.777007 357.841607 
L 790.07686 353.103172 
L 790.07686 353.103172 
" clip-path="url(#pe662a7fb8f)" style="fill: none; stroke-dasharray: 9.25,4; stroke-dashoffset: 0; stroke: #666666; stroke-opacity: 0.7; stroke-width: 2.5"/>
   </g>
   <g id="line2d_44">
    <path d="M 506.484255 353.103172 
L 558.665294 359.825373 
L 569.158221 360.948178 
L 576.248036 361.492211 
L 581.919888 361.715777 
L 587.024555 361.700155 
L 591.845629 361.465014 
L 596.666704 361.006728 
L 601.77137 360.295143 
L 607.726815 359.228994 
L 616.518186 357.395972 
L 627.011112 355.255229 
L 632.966557 354.267345 
L 638.071224 353.633817 
L 642.892298 353.253169 
L 647.42978 353.106975 
L 651.967262 353.173624 
L 656.788336 353.473957 
L 661.60941 353.994872 
L 666.99767 354.803422 
L 673.5203 356.024916 
L 696.207708 360.514123 
L 701.312375 361.164252 
L 706.133449 361.557389 
L 710.954524 361.727535 
L 716.05919 361.681544 
L 721.731043 361.403594 
L 728.537265 360.841142 
L 737.895821 359.825373 
L 753.777007 357.841607 
L 790.07686 353.103172 
L 790.07686 353.103172 
" clip-path="url(#pe662a7fb8f)" style="fill: none; stroke-dasharray: 9.25,4; stroke-dashoffset: 0; stroke: #666666; stroke-opacity: 0.7; stroke-width: 2.5"/>
   </g>
   <g id="line2d_45">
    <path d="M 506.484255 278.844688 
L 558.665294 272.122486 
L 569.158221 270.999681 
L 576.248036 270.455648 
L 581.919888 270.232082 
L 587.024555 270.247704 
L 591.845629 270.482846 
L 596.666704 270.941132 
L 601.77137 271.652716 
L 607.726815 272.718866 
L 616.518186 274.551888 
L 627.011112 276.692631 
L 632.966557 277.680515 
L 638.071224 278.314042 
L 642.892298 278.69469 
L 647.42978 278.840884 
L 651.967262 278.774235 
L 656.788336 278.473902 
L 661.60941 277.952987 
L 666.99767 277.144437 
L 673.5203 275.922944 
L 696.207708 271.433736 
L 701.312375 270.783607 
L 706.133449 270.39047 
L 710.954524 270.220324 
L 716.05919 270.266315 
L 721.731043 270.544266 
L 728.537265 271.106717 
L 737.895821 272.122486 
L 753.777007 274.106252 
L 790.07686 278.844688 
L 790.07686 278.844688 
" clip-path="url(#pe662a7fb8f)" style="fill: none; stroke-dasharray: 9.25,4; stroke-dashoffset: 0; stroke: #666666; stroke-opacity: 0.7; stroke-width: 2.5"/>
   </g>
   <g id="line2d_46">
    <path d="M 506.484255 278.844688 
L 558.665294 272.122486 
L 569.158221 270.999681 
L 576.248036 270.455648 
L 581.919888 270.232082 
L 587.024555 270.247704 
L 591.845629 270.482846 
L 596.666704 270.941132 
L 601.77137 271.652716 
L 607.726815 272.718866 
L 616.518186 274.551888 
L 627.011112 276.692631 
L 632.966557 277.680515 
L 638.071224 278.314042 
L 642.892298 278.69469 
L 647.42978 278.840884 
L 651.967262 278.774235 
L 656.788336 278.473902 
L 661.60941 277.952987 
L 666.99767 277.144437 
L 673.5203 275.922944 
L 696.207708 271.433736 
L 701.312375 270.783607 
L 706.133449 270.39047 
L 710.954524 270.220324 
L 716.05919 270.266315 
L 721.731043 270.544266 
L 728.537265 271.106717 
L 737.895821 272.122486 
L 753.777007 274.106252 
L 790.07686 278.844688 
L 790.07686 278.844688 
" clip-path="url(#pe662a7fb8f)" style="fill: none; stroke-dasharray: 9.25,4; stroke-dashoffset: 0; stroke: #666666; stroke-opacity: 0.7; stroke-width: 2.5"/>
   </g>
   <g id="line2d_47">
    <path d="M 506.484255 241.715312 
L 558.665294 248.437514 
L 569.158221 249.560319 
L 576.248036 250.104352 
L 581.919888 250.327918 
L 587.024555 250.312296 
L 591.845629 250.077154 
L 596.666704 249.618868 
L 601.77137 248.907284 
L 607.726815 247.841134 
L 616.518186 246.008112 
L 627.011112 243.867369 
L 632.966557 242.879485 
L 638.071224 242.245958 
L 642.892298 241.86531 
L 647.42978 241.719116 
L 651.967262 241.785765 
L 656.788336 242.086098 
L 661.60941 242.607013 
L 666.99767 243.415563 
L 673.5203 244.637056 
L 696.207708 249.126264 
L 701.312375 249.776393 
L 706.133449 250.16953 
L 710.954524 250.339676 
L 716.05919 250.293685 
L 721.731043 250.015734 
L 728.537265 249.453283 
L 737.895821 248.437514 
L 753.777007 246.453748 
L 790.07686 241.715312 
L 790.07686 241.715312 
" clip-path="url(#pe662a7fb8f)" style="fill: none; stroke-dasharray: 9.25,4; stroke-dashoffset: 0; stroke: #666666; stroke-opacity: 0.7; stroke-width: 2.5"/>
   </g>
   <g id="line2d_48">
    <path d="M 506.484255 241.715312 
L 558.665294 248.437514 
L 569.158221 249.560319 
L 576.248036 250.104352 
L 581.919888 250.327918 
L 587.024555 250.312296 
L 591.845629 250.077154 
L 596.666704 249.618868 
L 601.77137 248.907284 
L 607.726815 247.841134 
L 616.518186 246.008112 
L 627.011112 243.867369 
L 632.966557 242.879485 
L 638.071224 242.245958 
L 642.892298 241.86531 
L 647.42978 241.719116 
L 651.967262 241.785765 
L 656.788336 242.086098 
L 661.60941 242.607013 
L 666.99767 243.415563 
L 673.5203 244.637056 
L 696.207708 249.126264 
L 701.312375 249.776393 
L 706.133449 250.16953 
L 710.954524 250.339676 
L 716.05919 250.293685 
L 721.731043 250.015734 
L 728.537265 249.453283 
L 737.895821 248.437514 
L 753.777007 246.453748 
L 790.07686 241.715312 
L 790.07686 241.715312 
" clip-path="url(#pe662a7fb8f)" style="fill: none; stroke-dasharray: 9.25,4; stroke-dashoffset: 0; stroke: #666666; stroke-opacity: 0.7; stroke-width: 2.5"/>
   </g>
   <g id="line2d_49">
    <path d="M 506.484255 167.456828 
L 558.665294 160.734627 
L 569.158221 159.611822 
L 576.248036 159.067789 
L 581.919888 158.844223 
L 587.024555 158.859845 
L 591.845629 159.094986 
L 596.666704 159.553272 
L 601.77137 160.264857 
L 607.726815 161.331006 
L 616.518186 163.164028 
L 627.011112 165.304771 
L 632.966557 166.292655 
L 638.071224 166.926183 
L 642.892298 167.306831 
L 647.42978 167.453025 
L 651.967262 167.386376 
L 656.788336 167.086043 
L 661.60941 166.565128 
L 666.99767 165.756578 
L 673.5203 164.535084 
L 696.207708 160.045877 
L 701.312375 159.395748 
L 706.133449 159.002611 
L 710.954524 158.832465 
L 716.05919 158.878456 
L 721.731043 159.156406 
L 728.537265 159.718858 
L 737.895821 160.734627 
L 753.777007 162.718393 
L 790.07686 167.456828 
L 790.07686 167.456828 
" clip-path="url(#pe662a7fb8f)" style="fill: none; stroke-dasharray: 9.25,4; stroke-dashoffset: 0; stroke: #666666; stroke-opacity: 0.7; stroke-width: 2.5"/>
   </g>
   <g id="line2d_50">
    <path d="M 506.484255 167.456828 
L 558.665294 160.734627 
L 569.158221 159.611822 
L 576.248036 159.067789 
L 581.919888 158.844223 
L 587.024555 158.859845 
L 591.845629 159.094986 
L 596.666704 159.553272 
L 601.77137 160.264857 
L 607.726815 161.331006 
L 616.518186 163.164028 
L 627.011112 165.304771 
L 632.966557 166.292655 
L 638.071224 166.926183 
L 642.892298 167.306831 
L 647.42978 167.453025 
L 651.967262 167.386376 
L 656.788336 167.086043 
L 661.60941 166.565128 
L 666.99767 165.756578 
L 673.5203 164.535084 
L 696.207708 160.045877 
L 701.312375 159.395748 
L 706.133449 159.002611 
L 710.954524 158.832465 
L 716.05919 158.878456 
L 721.731043 159.156406 
L 728.537265 159.718858 
L 737.895821 160.734627 
L 753.777007 162.718393 
L 790.07686 167.456828 
L 790.07686 167.456828 
" clip-path="url(#pe662a7fb8f)" style="fill: none; stroke-dasharray: 9.25,4; stroke-dashoffset: 0; stroke: #666666; stroke-opacity: 0.7; stroke-width: 2.5"/>
   </g>
   <g id="line2d_51">
    <path d="M 506.484255 130.327453 
L 558.665294 137.049654 
L 569.158221 138.172459 
L 576.248036 138.716492 
L 581.919888 138.940059 
L 587.024555 138.924436 
L 591.845629 138.689295 
L 596.666704 138.231009 
L 601.77137 137.519424 
L 607.726815 136.453275 
L 616.518186 134.620253 
L 627.011112 132.47951 
L 632.966557 131.491626 
L 638.071224 130.858098 
L 642.892298 130.477451 
L 647.42978 130.331256 
L 651.967262 130.397906 
L 656.788336 130.698238 
L 661.60941 131.219153 
L 666.99767 132.027704 
L 673.5203 133.249197 
L 696.207708 137.738405 
L 701.312375 138.388534 
L 706.133449 138.781671 
L 710.954524 138.951817 
L 716.05919 138.905825 
L 721.731043 138.627875 
L 728.537265 138.065423 
L 737.895821 137.049654 
L 753.777007 135.065888 
L 790.07686 130.327453 
L 790.07686 130.327453 
" clip-path="url(#pe662a7fb8f)" style="fill: none; stroke-dasharray: 9.25,4; stroke-dashoffset: 0; stroke: #666666; stroke-opacity: 0.7; stroke-width: 2.5"/>
   </g>
   <g id="line2d_52">
    <path d="M 506.484255 130.327453 
L 558.665294 137.049654 
L 569.158221 138.172459 
L 576.248036 138.716492 
L 581.919888 138.940059 
L 587.024555 138.924436 
L 591.845629 138.689295 
L 596.666704 138.231009 
L 601.77137 137.519424 
L 607.726815 136.453275 
L 616.518186 134.620253 
L 627.011112 132.47951 
L 632.966557 131.491626 
L 638.071224 130.858098 
L 642.892298 130.477451 
L 647.42978 130.331256 
L 651.967262 130.397906 
L 656.788336 130.698238 
L 661.60941 131.219153 
L 666.99767 132.027704 
L 673.5203 133.249197 
L 696.207708 137.738405 
L 701.312375 138.388534 
L 706.133449 138.781671 
L 710.954524 138.951817 
L 716.05919 138.905825 
L 721.731043 138.627875 
L 728.537265 138.065423 
L 737.895821 137.049654 
L 753.777007 135.065888 
L 790.07686 130.327453 
L 790.07686 130.327453 
" clip-path="url(#pe662a7fb8f)" style="fill: none; stroke-dasharray: 9.25,4; stroke-dashoffset: 0; stroke: #666666; stroke-opacity: 0.7; stroke-width: 2.5"/>
   </g>
   <g id="line2d_53">
    <path d="M 506.484255 121.318466 
L 558.665294 114.596265 
L 569.158221 113.47346 
L 576.248036 112.929427 
L 581.919888 112.705861 
L 587.024555 112.721483 
L 591.845629 112.956624 
L 596.666704 113.41491 
L 601.77137 114.126495 
L 607.726815 115.192644 
L 616.518186 117.025666 
L 627.011112 119.166409 
L 632.966557 120.154293 
L 638.071224 120.787821 
L 642.892298 121.168469 
L 647.42978 121.314663 
L 651.967262 121.248014 
L 656.788336 120.947681 
L 661.60941 120.426766 
L 666.99767 119.618216 
L 673.5203 118.396722 
L 696.207708 113.907515 
L 701.312375 113.257386 
L 706.133449 112.864249 
L 710.954524 112.694103 
L 716.05919 112.740094 
L 721.731043 113.018044 
L 728.537265 113.580496 
L 737.895821 114.596265 
L 753.777007 116.580031 
L 790.07686 121.318466 
L 790.07686 121.318466 
" clip-path="url(#pe662a7fb8f)" style="fill: none; stroke-dasharray: 9.25,4; stroke-dashoffset: 0; stroke: #666666; stroke-opacity: 0.7; stroke-width: 2.5"/>
   </g>
   <g id="line2d_54">
    <path d="M 506.484255 84.189091 
L 558.665294 90.911292 
L 569.158221 92.034097 
L 576.248036 92.57813 
L 581.919888 92.801697 
L 587.024555 92.786074 
L 591.845629 92.550933 
L 596.666704 92.092647 
L 601.77137 91.381062 
L 607.726815 90.314913 
L 616.518186 88.481891 
L 627.011112 86.341148 
L 632.966557 85.353264 
L 638.071224 84.719736 
L 642.892298 84.339089 
L 647.42978 84.192894 
L 651.967262 84.259544 
L 656.788336 84.559876 
L 661.60941 85.080791 
L 666.99767 85.889342 
L 673.5203 87.110835 
L 696.207708 91.600043 
L 701.312375 92.250172 
L 706.133449 92.643309 
L 710.954524 92.813455 
L 716.05919 92.767463 
L 721.731043 92.489513 
L 728.537265 91.927061 
L 737.895821 90.911292 
L 753.777007 88.927526 
L 790.07686 84.189091 
L 790.07686 84.189091 
" clip-path="url(#pe662a7fb8f)" style="fill: none; stroke-dasharray: 9.25,4; stroke-dashoffset: 0; stroke: #666666; stroke-opacity: 0.7; stroke-width: 2.5"/>
   </g>
   <g id="line2d_55">
    <path d="M 506.484255 436.370909 
L 558.665294 429.648708 
L 569.158221 428.525903 
L 576.248036 427.98187 
L 581.919888 427.758303 
L 587.024555 427.773926 
L 591.845629 428.009067 
L 596.666704 428.467353 
L 601.77137 429.178938 
L 607.726815 430.245087 
L 616.518186 432.078109 
L 627.011112 434.218852 
L 632.966557 435.206736 
L 638.071224 435.840264 
L 642.892298 436.220911 
L 647.42978 436.367106 
L 647.996965 436.370447 
M 648.56415 399.241996 
L 653.101632 399.361757 
L 657.922706 399.71589 
L 663.027373 400.324651 
L 668.699225 401.238742 
L 675.78904 402.630119 
L 693.371782 406.19976 
L 698.760041 407.00596 
L 703.581116 407.515456 
L 708.40219 407.803178 
L 713.223264 407.872325 
L 718.611524 407.720889 
L 724.850561 407.30945 
L 732.791154 406.542748 
L 744.418451 405.170414 
L 770.225378 401.839374 
L 790.07686 399.241534 
L 790.07686 399.241534 
" clip-path="url(#pe662a7fb8f)" style="fill: none; stroke: #e41a1c; stroke-width: 5; stroke-linecap: square"/>
   </g>
   <g id="line2d_56">
    <path d="M 506.484255 399.241534 
L 558.665294 405.963735 
L 569.158221 407.08654 
L 576.248036 407.630573 
L 581.919888 407.854139 
L 587.024555 407.838517 
L 591.845629 407.603376 
L 596.666704 407.14509 
L 601.77137 406.433505 
L 607.726815 405.367356 
L 616.518186 403.534334 
L 627.011112 401.393591 
L 632.966557 400.405707 
L 638.071224 399.772179 
L 642.892298 399.391531 
L 647.42978 399.245337 
L 647.996965 399.241996 
M 648.56415 436.370447 
L 653.101632 436.250685 
L 657.922706 435.896553 
L 663.027373 435.287792 
L 668.699225 434.3737 
L 675.78904 432.982324 
L 693.371782 429.412682 
L 698.760041 428.606483 
L 703.581116 428.096987 
L 708.40219 427.809265 
L 713.223264 427.740118 
L 718.611524 427.891554 
L 724.850561 428.302993 
L 732.791154 429.069695 
L 744.418451 430.442029 
L 770.225378 433.773069 
L 790.07686 436.370909 
L 790.07686 436.370909 
" clip-path="url(#pe662a7fb8f)" style="fill: none; stroke: #377eb8; stroke-width: 5; stroke-linecap: square"/>
   </g>
  </g>
  <g id="text_26">
   <!-- Time [$\mu$s] -->
   <g transform="translate(399.323125 550.32) scale(0.24 -0.24)">
    <defs>
     <path id="DejaVuSerif-54" d="M 1222 0 
L 1222 331 
L 1819 331 
L 1819 4294 
L 447 4294 
L 447 3566 
L 63 3566 
L 63 4666 
L 4206 4666 
L 4206 3566 
L 3822 3566 
L 3822 4294 
L 2450 4294 
L 2450 331 
L 3047 331 
L 3047 0 
L 1222 0 
z
" transform="scale(0.015625)"/>
     <path id="DejaVuSerif-6d" d="M 3316 2675 
Q 3481 3041 3739 3227 
Q 3997 3413 4341 3413 
Q 4863 3413 5119 3089 
Q 5375 2766 5375 2113 
L 5375 331 
L 5894 331 
L 5894 0 
L 4300 0 
L 4300 331 
L 4800 331 
L 4800 2047 
Q 4800 2556 4650 2772 
Q 4500 2988 4153 2988 
Q 3769 2988 3567 2697 
Q 3366 2406 3366 1850 
L 3366 331 
L 3866 331 
L 3866 0 
L 2291 0 
L 2291 331 
L 2791 331 
L 2791 2069 
Q 2791 2566 2641 2777 
Q 2491 2988 2144 2988 
Q 1759 2988 1557 2697 
Q 1356 2406 1356 1850 
L 1356 331 
L 1856 331 
L 1856 0 
L 263 0 
L 263 331 
L 781 331 
L 781 2994 
L 231 2994 
L 231 3322 
L 1356 3322 
L 1356 2731 
Q 1516 3063 1762 3238 
Q 2009 3413 2322 3413 
Q 2709 3413 2968 3220 
Q 3228 3028 3316 2675 
z
" transform="scale(0.015625)"/>
     <path id="Cmmi10-b9" d="M 178 -1203 
Q 178 -1166 184 -1153 
L 1125 2625 
Q 1153 2716 1226 2772 
Q 1300 2828 1394 2828 
Q 1475 2828 1531 2779 
Q 1588 2731 1588 2650 
Q 1588 2631 1586 2620 
Q 1584 2609 1581 2597 
L 1203 1100 
Q 1141 834 1141 641 
Q 1141 403 1253 250 
Q 1366 97 1594 97 
Q 2059 97 2413 678 
Q 2416 684 2417 687 
Q 2419 691 2419 697 
L 2881 2553 
Q 2903 2638 2981 2698 
Q 3059 2759 3150 2759 
Q 3225 2759 3283 2709 
Q 3341 2659 3341 2578 
Q 3341 2541 3334 2528 
L 2875 684 
Q 2828 503 2828 372 
Q 2828 97 3016 97 
Q 3216 97 3317 344 
Q 3419 591 3494 941 
Q 3506 978 3547 978 
L 3622 978 
Q 3647 978 3664 958 
Q 3681 938 3681 916 
Q 3569 469 3436 198 
Q 3303 -72 3003 -72 
Q 2791 -72 2627 50 
Q 2463 172 2413 378 
Q 2253 178 2039 53 
Q 1825 -72 1588 -72 
Q 1188 -72 959 116 
L 634 -1178 
Q 616 -1269 541 -1325 
Q 466 -1381 372 -1381 
Q 294 -1381 236 -1332 
Q 178 -1284 178 -1203 
z
" transform="scale(0.015625)"/>
    </defs>
    <use xlink:href="#DejaVuSerif-54" transform="translate(0 0.015625)"/>
    <use xlink:href="#DejaVuSerif-69" transform="translate(66.699219 0.015625)"/>
    <use xlink:href="#DejaVuSerif-6d" transform="translate(98.681641 0.015625)"/>
    <use xlink:href="#DejaVuSerif-65" transform="translate(193.505859 0.015625)"/>
    <use xlink:href="#DejaVuSerif-20" transform="translate(252.685547 0.015625)"/>
    <use xlink:href="#DejaVuSerif-5b" transform="translate(284.472656 0.015625)"/>
    <use xlink:href="#Cmmi10-b9" transform="translate(323.486328 0.015625)"/>
    <use xlink:href="#DejaVuSerif-73" transform="translate(383.691406 0.015625)"/>
    <use xlink:href="#DejaVuSerif-5d" transform="translate(435.009766 0.015625)"/>
   </g>
  </g>
 </g>
 <defs>
  <clipPath id="p1235019fa8">
   <rect x="89.603125" y="27.84" width="397.029648" height="464.88"/>
  </clipPath>
  <clipPath id="pe662a7fb8f">
   <rect x="506.484255" y="27.84" width="397.029648" height="464.88"/>
  </clipPath>
 </defs>
</svg>
