<?xml version="1.0" encoding="utf-8" standalone="no"?>
<!DOCTYPE svg PUBLIC "-//W3C//DTD SVG 1.1//EN"
  "http://www.w3.org/Graphics/SVG/1.1/DTD/svg11.dtd">
<svg xmlns:xlink="http://www.w3.org/1999/xlink" width="839.044375pt" height="349.06pt" viewBox="0 0 839.044375 349.06" xmlns="http://www.w3.org/2000/svg" version="1.1">
 <metadata>
  <rdf:RDF xmlns:dc="http://purl.org/dc/elements/1.1/" xmlns:cc="http://creativecommons.org/ns#" xmlns:rdf="http://www.w3.org/1999/02/22-rdf-syntax-ns#">
   <cc:Work>
    <dc:type rdf:resource="http://purl.org/dc/dcmitype/StillImage"/>
    <dc:date>2025-12-25T09:07:33.555593</dc:date>
    <dc:format>image/svg+xml</dc:format>
    <dc:creator>
     <cc:Agent>
      <dc:title>Matplotlib v3.10.5, https://matplotlib.org/</dc:title>
     </cc:Agent>
    </dc:creator>
   </cc:Work>
  </rdf:RDF>
 </metadata>
 <defs>
  <style type="text/css">*{stroke-linejoin: round; stroke-linecap: butt}</style>
 </defs>
 <g id="figure_1">
  <g id="patch_1">
   <path d="M 0 349.06 
L 839.044375 349.06 
L 839.044375 0 
L 0 0 
z
" style="fill: #ffffff"/>
  </g>
  <g id="axes_1">
   <g id="patch_2">
    <path d="M 53.044375 293.7 
L 435.617268 293.7 
L 435.617268 23.28 
L 53.044375 23.28 
z
" style="fill: #ffffff"/>
   </g>
   <g id="matplotlib.axis_1">
    <g id="xtick_1">
     <g id="line2d_1">
      <path d="M 55.942654 293.7 
L 55.942654 23.28 
" clip-path="url(#p1ebd18b618)" style="fill: none; stroke: #b0b0b0; stroke-opacity: 0.3; stroke-width: 0.5; stroke-linecap: square"/>
     </g>
     <g id="line2d_2">
      <defs>
       <path id="m9eb2d9c585" d="M 0 0 
L 0 -4 
" style="stroke: #000000; stroke-width: 0.8"/>
      </defs>
      <g>
       <use xlink:href="#m9eb2d9c585" x="55.942654" y="293.7" style="stroke: #000000; stroke-width: 0.8"/>
      </g>
     </g>
     <g id="text_1">
      <!-- 0 -->
      <g transform="translate(51.488904 307.837812) scale(0.14 -0.14)">
       <defs>
        <path id="DejaVuSerif-30" d="M 2034 219 
Q 2513 219 2750 744 
Q 2988 1269 2988 2328 
Q 2988 3391 2750 3916 
Q 2513 4441 2034 4441 
Q 1556 4441 1318 3916 
Q 1081 3391 1081 2328 
Q 1081 1269 1318 744 
Q 1556 219 2034 219 
z
M 2034 -91 
Q 1275 -91 848 546 
Q 422 1184 422 2328 
Q 422 3475 848 4112 
Q 1275 4750 2034 4750 
Q 2797 4750 3222 4112 
Q 3647 3475 3647 2328 
Q 3647 1184 3222 546 
Q 2797 -91 2034 -91 
z
" transform="scale(0.015625)"/>
       </defs>
       <use xlink:href="#DejaVuSerif-30"/>
      </g>
     </g>
    </g>
    <g id="xtick_2">
     <g id="line2d_3">
      <path d="M 128.399642 293.7 
L 128.399642 23.28 
" clip-path="url(#p1ebd18b618)" style="fill: none; stroke: #b0b0b0; stroke-opacity: 0.3; stroke-width: 0.5; stroke-linecap: square"/>
     </g>
     <g id="line2d_4">
      <g>
       <use xlink:href="#m9eb2d9c585" x="128.399642" y="293.7" style="stroke: #000000; stroke-width: 0.8"/>
      </g>
     </g>
     <g id="text_2">
      <!-- 50 -->
      <g transform="translate(119.492142 307.837812) scale(0.14 -0.14)">
       <defs>
        <path id="DejaVuSerif-35" d="M 3219 4666 
L 3219 4153 
L 1081 4153 
L 1081 2816 
Q 1244 2928 1461 2984 
Q 1678 3041 1947 3041 
Q 2703 3041 3140 2622 
Q 3578 2203 3578 1478 
Q 3578 738 3136 323 
Q 2694 -91 1894 -91 
Q 1572 -91 1234 -12 
Q 897 66 544 225 
L 544 1131 
L 897 1131 
Q 925 688 1179 453 
Q 1434 219 1894 219 
Q 2388 219 2653 544 
Q 2919 869 2919 1478 
Q 2919 2084 2655 2407 
Q 2391 2731 1894 2731 
Q 1613 2731 1398 2631 
Q 1184 2531 1019 2322 
L 750 2322 
L 750 4666 
L 3219 4666 
z
" transform="scale(0.015625)"/>
       </defs>
       <use xlink:href="#DejaVuSerif-35"/>
       <use xlink:href="#DejaVuSerif-30" transform="translate(63.623047 0)"/>
      </g>
     </g>
    </g>
    <g id="xtick_3">
     <g id="line2d_5">
      <path d="M 200.856629 293.7 
L 200.856629 23.28 
" clip-path="url(#p1ebd18b618)" style="fill: none; stroke: #b0b0b0; stroke-opacity: 0.3; stroke-width: 0.5; stroke-linecap: square"/>
     </g>
     <g id="line2d_6">
      <g>
       <use xlink:href="#m9eb2d9c585" x="200.856629" y="293.7" style="stroke: #000000; stroke-width: 0.8"/>
      </g>
     </g>
     <g id="text_3">
      <!-- 100 -->
      <g transform="translate(187.495379 307.837812) scale(0.14 -0.14)">
       <defs>
        <path id="DejaVuSerif-31" d="M 909 0 
L 909 331 
L 1722 331 
L 1722 4213 
L 781 3603 
L 781 4013 
L 1919 4750 
L 2350 4750 
L 2350 331 
L 3163 331 
L 3163 0 
L 909 0 
z
" transform="scale(0.015625)"/>
       </defs>
       <use xlink:href="#DejaVuSerif-31"/>
       <use xlink:href="#DejaVuSerif-30" transform="translate(63.623047 0)"/>
       <use xlink:href="#DejaVuSerif-30" transform="translate(127.246094 0)"/>
      </g>
     </g>
    </g>
    <g id="xtick_4">
     <g id="line2d_7">
      <path d="M 273.313616 293.7 
L 273.313616 23.28 
" clip-path="url(#p1ebd18b618)" style="fill: none; stroke: #b0b0b0; stroke-opacity: 0.3; stroke-width: 0.5; stroke-linecap: square"/>
     </g>
     <g id="line2d_8">
      <g>
       <use xlink:href="#m9eb2d9c585" x="273.313616" y="293.7" style="stroke: #000000; stroke-width: 0.8"/>
      </g>
     </g>
     <g id="text_4">
      <!-- 150 -->
      <g transform="translate(259.952366 307.837812) scale(0.14 -0.14)">
       <use xlink:href="#DejaVuSerif-31"/>
       <use xlink:href="#DejaVuSerif-35" transform="translate(63.623047 0)"/>
       <use xlink:href="#DejaVuSerif-30" transform="translate(127.246094 0)"/>
      </g>
     </g>
    </g>
    <g id="xtick_5">
     <g id="line2d_9">
      <path d="M 345.770603 293.7 
L 345.770603 23.28 
" clip-path="url(#p1ebd18b618)" style="fill: none; stroke: #b0b0b0; stroke-opacity: 0.3; stroke-width: 0.5; stroke-linecap: square"/>
     </g>
     <g id="line2d_10">
      <g>
       <use xlink:href="#m9eb2d9c585" x="345.770603" y="293.7" style="stroke: #000000; stroke-width: 0.8"/>
      </g>
     </g>
     <g id="text_5">
      <!-- 200 -->
      <g transform="translate(332.409353 307.837812) scale(0.14 -0.14)">
       <defs>
        <path id="DejaVuSerif-32" d="M 819 3553 
L 469 3553 
L 469 4384 
Q 803 4563 1142 4656 
Q 1481 4750 1806 4750 
Q 2534 4750 2956 4397 
Q 3378 4044 3378 3438 
Q 3378 2753 2422 1800 
Q 2347 1728 2309 1691 
L 1131 513 
L 3078 513 
L 3078 1088 
L 3444 1088 
L 3444 0 
L 434 0 
L 434 341 
L 1850 1753 
Q 2319 2222 2519 2614 
Q 2719 3006 2719 3438 
Q 2719 3909 2473 4175 
Q 2228 4441 1797 4441 
Q 1350 4441 1106 4219 
Q 863 3997 819 3553 
z
" transform="scale(0.015625)"/>
       </defs>
       <use xlink:href="#DejaVuSerif-32"/>
       <use xlink:href="#DejaVuSerif-30" transform="translate(63.623047 0)"/>
       <use xlink:href="#DejaVuSerif-30" transform="translate(127.246094 0)"/>
      </g>
     </g>
    </g>
    <g id="xtick_6">
     <g id="line2d_11">
      <path d="M 418.227591 293.7 
L 418.227591 23.28 
" clip-path="url(#p1ebd18b618)" style="fill: none; stroke: #b0b0b0; stroke-opacity: 0.3; stroke-width: 0.5; stroke-linecap: square"/>
     </g>
     <g id="line2d_12">
      <g>
       <use xlink:href="#m9eb2d9c585" x="418.227591" y="293.7" style="stroke: #000000; stroke-width: 0.8"/>
      </g>
     </g>
     <g id="text_6">
      <!-- 250 -->
      <g transform="translate(404.866341 307.837812) scale(0.14 -0.14)">
       <use xlink:href="#DejaVuSerif-32"/>
       <use xlink:href="#DejaVuSerif-35" transform="translate(63.623047 0)"/>
       <use xlink:href="#DejaVuSerif-30" transform="translate(127.246094 0)"/>
      </g>
     </g>
    </g>
   </g>
   <g id="matplotlib.axis_2">
    <g id="ytick_1">
     <g id="line2d_13">
      <path d="M 53.044375 293.7 
L 435.617268 293.7 
" clip-path="url(#p1ebd18b618)" style="fill: none; stroke: #b0b0b0; stroke-opacity: 0.3; stroke-width: 0.5; stroke-linecap: square"/>
     </g>
     <g id="line2d_14">
      <defs>
       <path id="ma327b0db9e" d="M 0 0 
L 4 0 
" style="stroke: #000000; stroke-width: 0.8"/>
      </defs>
      <g>
       <use xlink:href="#ma327b0db9e" x="53.044375" y="293.7" style="stroke: #000000; stroke-width: 0.8"/>
      </g>
     </g>
     <g id="text_7">
      <!-- 0.0 -->
      <g transform="translate(27.28 299.018906) scale(0.14 -0.14)">
       <defs>
        <path id="DejaVuSerif-2e" d="M 603 325 
Q 603 500 722 622 
Q 841 744 1019 744 
Q 1191 744 1312 622 
Q 1434 500 1434 325 
Q 1434 153 1312 31 
Q 1191 -91 1019 -91 
Q 841 -91 722 29 
Q 603 150 603 325 
z
" transform="scale(0.015625)"/>
       </defs>
       <use xlink:href="#DejaVuSerif-30"/>
       <use xlink:href="#DejaVuSerif-2e" transform="translate(63.623047 0)"/>
       <use xlink:href="#DejaVuSerif-30" transform="translate(95.410156 0)"/>
      </g>
     </g>
    </g>
    <g id="ytick_2">
     <g id="line2d_15">
      <path d="M 53.044375 242.191429 
L 435.617268 242.191429 
" clip-path="url(#p1ebd18b618)" style="fill: none; stroke: #b0b0b0; stroke-opacity: 0.3; stroke-width: 0.5; stroke-linecap: square"/>
     </g>
     <g id="line2d_16">
      <g>
       <use xlink:href="#ma327b0db9e" x="53.044375" y="242.191429" style="stroke: #000000; stroke-width: 0.8"/>
      </g>
     </g>
     <g id="text_8">
      <!-- 0.2 -->
      <g transform="translate(27.28 247.510335) scale(0.14 -0.14)">
       <use xlink:href="#DejaVuSerif-30"/>
       <use xlink:href="#DejaVuSerif-2e" transform="translate(63.623047 0)"/>
       <use xlink:href="#DejaVuSerif-32" transform="translate(95.410156 0)"/>
      </g>
     </g>
    </g>
    <g id="ytick_3">
     <g id="line2d_17">
      <path d="M 53.044375 190.682857 
L 435.617268 190.682857 
" clip-path="url(#p1ebd18b618)" style="fill: none; stroke: #b0b0b0; stroke-opacity: 0.3; stroke-width: 0.5; stroke-linecap: square"/>
     </g>
     <g id="line2d_18">
      <g>
       <use xlink:href="#ma327b0db9e" x="53.044375" y="190.682857" style="stroke: #000000; stroke-width: 0.8"/>
      </g>
     </g>
     <g id="text_9">
      <!-- 0.4 -->
      <g transform="translate(27.28 196.001763) scale(0.14 -0.14)">
       <defs>
        <path id="DejaVuSerif-34" d="M 2234 1581 
L 2234 4063 
L 641 1581 
L 2234 1581 
z
M 3609 0 
L 1484 0 
L 1484 331 
L 2234 331 
L 2234 1247 
L 197 1247 
L 197 1588 
L 2241 4750 
L 2859 4750 
L 2859 1581 
L 3750 1581 
L 3750 1247 
L 2859 1247 
L 2859 331 
L 3609 331 
L 3609 0 
z
" transform="scale(0.015625)"/>
       </defs>
       <use xlink:href="#DejaVuSerif-30"/>
       <use xlink:href="#DejaVuSerif-2e" transform="translate(63.623047 0)"/>
       <use xlink:href="#DejaVuSerif-34" transform="translate(95.410156 0)"/>
      </g>
     </g>
    </g>
    <g id="ytick_4">
     <g id="line2d_19">
      <path d="M 53.044375 139.174286 
L 435.617268 139.174286 
" clip-path="url(#p1ebd18b618)" style="fill: none; stroke: #b0b0b0; stroke-opacity: 0.3; stroke-width: 0.5; stroke-linecap: square"/>
     </g>
     <g id="line2d_20">
      <g>
       <use xlink:href="#ma327b0db9e" x="53.044375" y="139.174286" style="stroke: #000000; stroke-width: 0.8"/>
      </g>
     </g>
     <g id="text_10">
      <!-- 0.6 -->
      <g transform="translate(27.28 144.493192) scale(0.14 -0.14)">
       <defs>
        <path id="DejaVuSerif-36" d="M 2094 219 
Q 2534 219 2771 542 
Q 3009 866 3009 1472 
Q 3009 2078 2771 2401 
Q 2534 2725 2094 2725 
Q 1647 2725 1412 2412 
Q 1178 2100 1178 1509 
Q 1178 888 1415 553 
Q 1653 219 2094 219 
z
M 1075 2569 
Q 1288 2803 1556 2918 
Q 1825 3034 2163 3034 
Q 2859 3034 3264 2615 
Q 3669 2197 3669 1472 
Q 3669 763 3233 336 
Q 2797 -91 2069 -91 
Q 1278 -91 853 498 
Q 428 1088 428 2181 
Q 428 3406 931 4078 
Q 1434 4750 2350 4750 
Q 2597 4750 2869 4703 
Q 3141 4656 3425 4563 
L 3425 3794 
L 3072 3794 
Q 3034 4109 2831 4275 
Q 2628 4441 2284 4441 
Q 1678 4441 1381 3981 
Q 1084 3522 1075 2569 
z
" transform="scale(0.015625)"/>
       </defs>
       <use xlink:href="#DejaVuSerif-30"/>
       <use xlink:href="#DejaVuSerif-2e" transform="translate(63.623047 0)"/>
       <use xlink:href="#DejaVuSerif-36" transform="translate(95.410156 0)"/>
      </g>
     </g>
    </g>
    <g id="ytick_5">
     <g id="line2d_21">
      <path d="M 53.044375 87.665714 
L 435.617268 87.665714 
" clip-path="url(#p1ebd18b618)" style="fill: none; stroke: #b0b0b0; stroke-opacity: 0.3; stroke-width: 0.5; stroke-linecap: square"/>
     </g>
     <g id="line2d_22">
      <g>
       <use xlink:href="#ma327b0db9e" x="53.044375" y="87.665714" style="stroke: #000000; stroke-width: 0.8"/>
      </g>
     </g>
     <g id="text_11">
      <!-- 0.8 -->
      <g transform="translate(27.28 92.984621) scale(0.14 -0.14)">
       <defs>
        <path id="DejaVuSerif-38" d="M 2981 1275 
Q 2981 1775 2732 2051 
Q 2484 2328 2034 2328 
Q 1584 2328 1336 2051 
Q 1088 1775 1088 1275 
Q 1088 772 1336 495 
Q 1584 219 2034 219 
Q 2484 219 2732 495 
Q 2981 772 2981 1275 
z
M 2853 3541 
Q 2853 3966 2637 4203 
Q 2422 4441 2034 4441 
Q 1650 4441 1433 4203 
Q 1216 3966 1216 3541 
Q 1216 3113 1433 2875 
Q 1650 2638 2034 2638 
Q 2422 2638 2637 2875 
Q 2853 3113 2853 3541 
z
M 2516 2484 
Q 3047 2413 3344 2092 
Q 3641 1772 3641 1275 
Q 3641 619 3225 264 
Q 2809 -91 2034 -91 
Q 1263 -91 845 264 
Q 428 619 428 1275 
Q 428 1772 725 2092 
Q 1022 2413 1556 2484 
Q 1084 2569 832 2842 
Q 581 3116 581 3541 
Q 581 4103 968 4426 
Q 1356 4750 2034 4750 
Q 2713 4750 3100 4426 
Q 3488 4103 3488 3541 
Q 3488 3116 3236 2842 
Q 2984 2569 2516 2484 
z
" transform="scale(0.015625)"/>
       </defs>
       <use xlink:href="#DejaVuSerif-30"/>
       <use xlink:href="#DejaVuSerif-2e" transform="translate(63.623047 0)"/>
       <use xlink:href="#DejaVuSerif-38" transform="translate(95.410156 0)"/>
      </g>
     </g>
    </g>
    <g id="ytick_6">
     <g id="line2d_23">
      <path d="M 53.044375 36.157143 
L 435.617268 36.157143 
" clip-path="url(#p1ebd18b618)" style="fill: none; stroke: #b0b0b0; stroke-opacity: 0.3; stroke-width: 0.5; stroke-linecap: square"/>
     </g>
     <g id="line2d_24">
      <g>
       <use xlink:href="#ma327b0db9e" x="53.044375" y="36.157143" style="stroke: #000000; stroke-width: 0.8"/>
      </g>
     </g>
     <g id="text_12">
      <!-- 1.0 -->
      <g transform="translate(27.28 41.476049) scale(0.14 -0.14)">
       <use xlink:href="#DejaVuSerif-31"/>
       <use xlink:href="#DejaVuSerif-2e" transform="translate(63.623047 0)"/>
       <use xlink:href="#DejaVuSerif-30" transform="translate(95.410156 0)"/>
      </g>
     </g>
    </g>
    <g id="text_13">
     <!-- Final Fidelity to $|1_L\rangle$ -->
     <g transform="translate(19.28 240.25) rotate(-90) scale(0.16 -0.16)">
      <defs>
       <path id="DejaVuSerif-46" d="M 353 0 
L 353 331 
L 947 331 
L 947 4331 
L 353 4331 
L 353 4666 
L 4172 4666 
L 4172 3628 
L 3788 3628 
L 3788 4281 
L 1581 4281 
L 1581 2719 
L 3175 2719 
L 3175 3303 
L 3559 3303 
L 3559 1753 
L 3175 1753 
L 3175 2338 
L 1581 2338 
L 1581 331 
L 2328 331 
L 2328 0 
L 353 0 
z
" transform="scale(0.015625)"/>
       <path id="DejaVuSerif-69" d="M 622 4353 
Q 622 4497 726 4603 
Q 831 4709 978 4709 
Q 1122 4709 1226 4603 
Q 1331 4497 1331 4353 
Q 1331 4206 1228 4103 
Q 1125 4000 978 4000 
Q 831 4000 726 4103 
Q 622 4206 622 4353 
z
M 1356 331 
L 1900 331 
L 1900 0 
L 231 0 
L 231 331 
L 781 331 
L 781 2988 
L 231 2988 
L 231 3322 
L 1356 3322 
L 1356 331 
z
" transform="scale(0.015625)"/>
       <path id="DejaVuSerif-6e" d="M 263 0 
L 263 331 
L 781 331 
L 781 2988 
L 231 2988 
L 231 3322 
L 1356 3322 
L 1356 2731 
Q 1516 3069 1770 3241 
Q 2025 3413 2363 3413 
Q 2913 3413 3172 3097 
Q 3431 2781 3431 2113 
L 3431 331 
L 3944 331 
L 3944 0 
L 2356 0 
L 2356 331 
L 2853 331 
L 2853 1931 
Q 2853 2541 2703 2767 
Q 2553 2994 2175 2994 
Q 1775 2994 1565 2701 
Q 1356 2409 1356 1850 
L 1356 331 
L 1856 331 
L 1856 0 
L 263 0 
z
" transform="scale(0.015625)"/>
       <path id="DejaVuSerif-61" d="M 2547 1044 
L 2547 1747 
L 1806 1747 
Q 1378 1747 1168 1562 
Q 959 1378 959 997 
Q 959 650 1171 447 
Q 1384 244 1747 244 
Q 2106 244 2326 466 
Q 2547 688 2547 1044 
z
M 3122 2075 
L 3122 331 
L 3634 331 
L 3634 0 
L 2547 0 
L 2547 359 
Q 2356 128 2106 18 
Q 1856 -91 1522 -91 
Q 969 -91 644 203 
Q 319 497 319 997 
Q 319 1513 691 1797 
Q 1063 2081 1741 2081 
L 2547 2081 
L 2547 2309 
Q 2547 2688 2317 2895 
Q 2088 3103 1672 3103 
Q 1328 3103 1125 2947 
Q 922 2791 872 2484 
L 575 2484 
L 575 3156 
Q 875 3284 1158 3348 
Q 1441 3413 1709 3413 
Q 2400 3413 2761 3070 
Q 3122 2728 3122 2075 
z
" transform="scale(0.015625)"/>
       <path id="DejaVuSerif-6c" d="M 1313 331 
L 1856 331 
L 1856 0 
L 184 0 
L 184 331 
L 738 331 
L 738 4531 
L 184 4531 
L 184 4863 
L 1313 4863 
L 1313 331 
z
" transform="scale(0.015625)"/>
       <path id="DejaVuSerif-20" transform="scale(0.015625)"/>
       <path id="DejaVuSerif-64" d="M 3359 331 
L 3909 331 
L 3909 0 
L 2784 0 
L 2784 519 
Q 2616 206 2355 57 
Q 2094 -91 1709 -91 
Q 1097 -91 708 395 
Q 319 881 319 1663 
Q 319 2444 706 2928 
Q 1094 3413 1709 3413 
Q 2094 3413 2355 3264 
Q 2616 3116 2784 2803 
L 2784 4531 
L 2241 4531 
L 2241 4863 
L 3359 4863 
L 3359 331 
z
M 2784 1497 
L 2784 1825 
Q 2784 2422 2554 2737 
Q 2325 3053 1888 3053 
Q 1444 3053 1217 2703 
Q 991 2353 991 1663 
Q 991 975 1217 622 
Q 1444 269 1888 269 
Q 2325 269 2554 583 
Q 2784 897 2784 1497 
z
" transform="scale(0.015625)"/>
       <path id="DejaVuSerif-65" d="M 3469 1600 
L 991 1600 
L 991 1575 
Q 991 903 1244 561 
Q 1497 219 1991 219 
Q 2369 219 2611 417 
Q 2853 616 2950 1006 
L 3413 1006 
Q 3275 459 2904 184 
Q 2534 -91 1931 -91 
Q 1203 -91 761 389 
Q 319 869 319 1663 
Q 319 2450 753 2931 
Q 1188 3413 1894 3413 
Q 2647 3413 3050 2948 
Q 3453 2484 3469 1600 
z
M 2791 1931 
Q 2772 2513 2545 2808 
Q 2319 3103 1894 3103 
Q 1497 3103 1269 2806 
Q 1041 2509 991 1931 
L 2791 1931 
z
" transform="scale(0.015625)"/>
       <path id="DejaVuSerif-74" d="M 691 2988 
L 184 2988 
L 184 3322 
L 691 3322 
L 691 4353 
L 1269 4353 
L 1269 3322 
L 2350 3322 
L 2350 2988 
L 1269 2988 
L 1269 878 
Q 1269 456 1350 337 
Q 1431 219 1650 219 
Q 1875 219 1978 351 
Q 2081 484 2088 781 
L 2522 781 
Q 2497 328 2275 118 
Q 2053 -91 1600 -91 
Q 1103 -91 897 129 
Q 691 350 691 878 
L 691 2988 
z
" transform="scale(0.015625)"/>
       <path id="DejaVuSerif-79" d="M 1381 -609 
L 1600 -56 
L 359 2988 
L -19 2988 
L -19 3322 
L 1509 3322 
L 1509 2988 
L 978 2988 
L 1913 703 
L 2847 2988 
L 2350 2988 
L 2350 3322 
L 3597 3322 
L 3597 2988 
L 3225 2988 
L 1703 -750 
Q 1547 -1138 1356 -1280 
Q 1166 -1422 819 -1422 
Q 672 -1422 517 -1397 
Q 363 -1372 206 -1325 
L 206 -691 
L 500 -691 
Q 519 -903 608 -995 
Q 697 -1088 884 -1088 
Q 1056 -1088 1161 -992 
Q 1266 -897 1381 -609 
z
" transform="scale(0.015625)"/>
       <path id="DejaVuSerif-6f" d="M 1925 219 
Q 2388 219 2623 584 
Q 2859 950 2859 1663 
Q 2859 2375 2623 2739 
Q 2388 3103 1925 3103 
Q 1463 3103 1227 2739 
Q 991 2375 991 1663 
Q 991 950 1228 584 
Q 1466 219 1925 219 
z
M 1925 -91 
Q 1200 -91 759 389 
Q 319 869 319 1663 
Q 319 2456 758 2934 
Q 1197 3413 1925 3413 
Q 2653 3413 3092 2934 
Q 3531 2456 3531 1663 
Q 3531 869 3092 389 
Q 2653 -91 1925 -91 
z
" transform="scale(0.015625)"/>
       <path id="Cmsy10-6a" d="M 763 -1484 
L 763 4684 
Q 763 4734 800 4767 
Q 838 4800 891 4800 
Q 938 4800 978 4767 
Q 1019 4734 1019 4684 
L 1019 -1484 
Q 1019 -1534 978 -1567 
Q 938 -1600 891 -1600 
Q 838 -1600 800 -1567 
Q 763 -1534 763 -1484 
z
" transform="scale(0.015625)"/>
       <path id="Cmr10-31" d="M 594 0 
L 594 225 
Q 1394 225 1394 428 
L 1394 3788 
Q 1063 3628 556 3628 
L 556 3853 
Q 1341 3853 1741 4263 
L 1831 4263 
Q 1853 4263 1873 4245 
Q 1894 4228 1894 4206 
L 1894 428 
Q 1894 225 2694 225 
L 2694 0 
L 594 0 
z
" transform="scale(0.015625)"/>
       <path id="Cmmi10-4c" d="M 300 0 
Q 238 0 238 84 
Q 241 100 250 139 
Q 259 178 276 201 
Q 294 225 319 225 
Q 709 225 863 269 
Q 947 297 984 441 
L 1863 3956 
Q 1875 4019 1875 4044 
Q 1875 4113 1797 4122 
Q 1678 4147 1338 4147 
Q 1275 4147 1275 4231 
Q 1297 4313 1309 4342 
Q 1322 4372 1381 4372 
L 3272 4372 
Q 3328 4372 3328 4288 
Q 3319 4222 3306 4184 
Q 3294 4147 3244 4147 
Q 2772 4147 2613 4116 
Q 2456 4088 2419 3928 
L 1544 416 
Q 1516 338 1516 275 
Q 1516 225 1734 225 
L 2328 225 
Q 2831 225 3143 425 
Q 3456 625 3606 876 
Q 3756 1128 3857 1398 
Q 3959 1669 4006 1678 
L 4063 1678 
Q 4128 1678 4128 1594 
L 3559 44 
Q 3550 0 3500 0 
L 300 0 
z
" transform="scale(0.015625)"/>
       <path id="Cmex10-ae" d="M 500 -7297 
Q 500 -7263 513 -7250 
L 2119 -3584 
L 513 84 
Q 500 97 500 128 
Q 500 175 537 215 
Q 575 256 628 256 
Q 703 256 750 178 
L 2381 -3541 
Q 2388 -3553 2388 -3584 
Q 2388 -3616 2381 -3634 
L 750 -7347 
Q 700 -7425 628 -7425 
Q 575 -7425 537 -7384 
Q 500 -7344 500 -7297 
z
" transform="scale(0.015625)"/>
      </defs>
      <use xlink:href="#DejaVuSerif-46" transform="translate(0 0.658854)"/>
      <use xlink:href="#DejaVuSerif-69" transform="translate(69.384766 0.658854)"/>
      <use xlink:href="#DejaVuSerif-6e" transform="translate(101.367188 0.658854)"/>
      <use xlink:href="#DejaVuSerif-61" transform="translate(165.771484 0.658854)"/>
      <use xlink:href="#DejaVuSerif-6c" transform="translate(225.390625 0.658854)"/>
      <use xlink:href="#DejaVuSerif-20" transform="translate(257.373047 0.658854)"/>
      <use xlink:href="#DejaVuSerif-46" transform="translate(289.160156 0.658854)"/>
      <use xlink:href="#DejaVuSerif-69" transform="translate(358.544922 0.658854)"/>
      <use xlink:href="#DejaVuSerif-64" transform="translate(390.527344 0.658854)"/>
      <use xlink:href="#DejaVuSerif-65" transform="translate(454.541016 0.658854)"/>
      <use xlink:href="#DejaVuSerif-6c" transform="translate(513.720703 0.658854)"/>
      <use xlink:href="#DejaVuSerif-69" transform="translate(545.703125 0.658854)"/>
      <use xlink:href="#DejaVuSerif-74" transform="translate(577.685547 0.658854)"/>
      <use xlink:href="#DejaVuSerif-79" transform="translate(617.871094 0.658854)"/>
      <use xlink:href="#DejaVuSerif-20" transform="translate(674.365234 0.658854)"/>
      <use xlink:href="#DejaVuSerif-74" transform="translate(706.152344 0.658854)"/>
      <use xlink:href="#DejaVuSerif-6f" transform="translate(746.337891 0.658854)"/>
      <use xlink:href="#DejaVuSerif-20" transform="translate(806.542969 0.658854)"/>
      <use xlink:href="#Cmsy10-6a" transform="translate(838.330078 0.658854)"/>
      <use xlink:href="#Cmr10-31" transform="translate(866.015625 0.658854)"/>
      <use xlink:href="#Cmmi10-4c" transform="translate(920.479766 -16.347396) scale(0.7)"/>
      <use xlink:href="#Cmex10-ae" transform="translate(974.469414 94)"/>
     </g>
    </g>
   </g>
   <g id="line2d_25">
    <path d="M 70.434052 72.009819 
L 109.077778 50.831625 
L 147.721505 43.872461 
L 186.365231 40.768071 
L 225.008958 39.098108 
L 263.652685 38.108337 
L 302.296411 37.485903 
L 340.940138 37.078638 
L 379.583864 36.804604 
L 418.227591 36.616441 
" clip-path="url(#p1ebd18b618)" style="fill: none; stroke: #414487; stroke-width: 2; stroke-linecap: square"/>
    <defs>
     <path id="mfa7b470917" d="M 0 3 
C 0.795609 3 1.55874 2.683901 2.12132 2.12132 
C 2.683901 1.55874 3 0.795609 3 0 
C 3 -0.795609 2.683901 -1.55874 2.12132 -2.12132 
C 1.55874 -2.683901 0.795609 -3 0 -3 
C -0.795609 -3 -1.55874 -2.683901 -2.12132 -2.12132 
C -2.683901 -1.55874 -3 -0.795609 -3 0 
C -3 0.795609 -2.683901 1.55874 -2.12132 2.12132 
C -1.55874 2.683901 -0.795609 3 0 3 
z
" style="stroke: #414487"/>
    </defs>
    <g clip-path="url(#p1ebd18b618)">
     <use xlink:href="#mfa7b470917" x="70.434052" y="72.009819" style="fill: #414487; stroke: #414487"/>
     <use xlink:href="#mfa7b470917" x="109.077778" y="50.831625" style="fill: #414487; stroke: #414487"/>
     <use xlink:href="#mfa7b470917" x="147.721505" y="43.872461" style="fill: #414487; stroke: #414487"/>
     <use xlink:href="#mfa7b470917" x="186.365231" y="40.768071" style="fill: #414487; stroke: #414487"/>
     <use xlink:href="#mfa7b470917" x="225.008958" y="39.098108" style="fill: #414487; stroke: #414487"/>
     <use xlink:href="#mfa7b470917" x="263.652685" y="38.108337" style="fill: #414487; stroke: #414487"/>
     <use xlink:href="#mfa7b470917" x="302.296411" y="37.485903" style="fill: #414487; stroke: #414487"/>
     <use xlink:href="#mfa7b470917" x="340.940138" y="37.078638" style="fill: #414487; stroke: #414487"/>
     <use xlink:href="#mfa7b470917" x="379.583864" y="36.804604" style="fill: #414487; stroke: #414487"/>
     <use xlink:href="#mfa7b470917" x="418.227591" y="36.616441" style="fill: #414487; stroke: #414487"/>
    </g>
   </g>
   <g id="line2d_26">
    <path d="M 70.434052 81.259792 
L 109.077778 55.691841 
L 147.721505 46.958964 
L 186.365231 42.936899 
L 225.008958 40.698111 
L 263.652685 39.321696 
L 302.296411 38.422054 
L 340.940138 37.809235 
L 379.583864 37.379256 
L 418.227591 37.07084 
" clip-path="url(#p1ebd18b618)" style="fill: none; stroke: #306a8e; stroke-width: 2; stroke-linecap: square"/>
    <defs>
     <path id="m171baa1f3e" d="M 0 3 
C 0.795609 3 1.55874 2.683901 2.12132 2.12132 
C 2.683901 1.55874 3 0.795609 3 0 
C 3 -0.795609 2.683901 -1.55874 2.12132 -2.12132 
C 1.55874 -2.683901 0.795609 -3 0 -3 
C -0.795609 -3 -1.55874 -2.683901 -2.12132 -2.12132 
C -2.683901 -1.55874 -3 -0.795609 -3 0 
C -3 0.795609 -2.683901 1.55874 -2.12132 2.12132 
C -1.55874 2.683901 -0.795609 3 0 3 
z
" style="stroke: #306a8e"/>
    </defs>
    <g clip-path="url(#p1ebd18b618)">
     <use xlink:href="#m171baa1f3e" x="70.434052" y="81.259792" style="fill: #306a8e; stroke: #306a8e"/>
     <use xlink:href="#m171baa1f3e" x="109.077778" y="55.691841" style="fill: #306a8e; stroke: #306a8e"/>
     <use xlink:href="#m171baa1f3e" x="147.721505" y="46.958964" style="fill: #306a8e; stroke: #306a8e"/>
     <use xlink:href="#m171baa1f3e" x="186.365231" y="42.936899" style="fill: #306a8e; stroke: #306a8e"/>
     <use xlink:href="#m171baa1f3e" x="225.008958" y="40.698111" style="fill: #306a8e; stroke: #306a8e"/>
     <use xlink:href="#m171baa1f3e" x="263.652685" y="39.321696" style="fill: #306a8e; stroke: #306a8e"/>
     <use xlink:href="#m171baa1f3e" x="302.296411" y="38.422054" style="fill: #306a8e; stroke: #306a8e"/>
     <use xlink:href="#m171baa1f3e" x="340.940138" y="37.809235" style="fill: #306a8e; stroke: #306a8e"/>
     <use xlink:href="#m171baa1f3e" x="379.583864" y="37.379256" style="fill: #306a8e; stroke: #306a8e"/>
     <use xlink:href="#m171baa1f3e" x="418.227591" y="37.07084" style="fill: #306a8e; stroke: #306a8e"/>
    </g>
   </g>
   <g id="line2d_27">
    <path d="M 70.434052 102.408489 
L 109.077778 67.510487 
L 147.721505 54.760631 
L 186.365231 48.630456 
L 225.008958 45.072175 
L 263.652685 42.785744 
L 302.296411 41.219795 
L 340.940138 40.099522 
L 379.583864 39.272417 
L 418.227591 38.647065 
" clip-path="url(#p1ebd18b618)" style="fill: none; stroke: #228b8d; stroke-width: 2; stroke-linecap: square"/>
    <defs>
     <path id="mb79299f067" d="M 0 3 
C 0.795609 3 1.55874 2.683901 2.12132 2.12132 
C 2.683901 1.55874 3 0.795609 3 0 
C 3 -0.795609 2.683901 -1.55874 2.12132 -2.12132 
C 1.55874 -2.683901 0.795609 -3 0 -3 
C -0.795609 -3 -1.55874 -2.683901 -2.12132 -2.12132 
C -2.683901 -1.55874 -3 -0.795609 -3 0 
C -3 0.795609 -2.683901 1.55874 -2.12132 2.12132 
C -1.55874 2.683901 -0.795609 3 0 3 
z
" style="stroke: #228b8d"/>
    </defs>
    <g clip-path="url(#p1ebd18b618)">
     <use xlink:href="#mb79299f067" x="70.434052" y="102.408489" style="fill: #228b8d; stroke: #228b8d"/>
     <use xlink:href="#mb79299f067" x="109.077778" y="67.510487" style="fill: #228b8d; stroke: #228b8d"/>
     <use xlink:href="#mb79299f067" x="147.721505" y="54.760631" style="fill: #228b8d; stroke: #228b8d"/>
     <use xlink:href="#mb79299f067" x="186.365231" y="48.630456" style="fill: #228b8d; stroke: #228b8d"/>
     <use xlink:href="#mb79299f067" x="225.008958" y="45.072175" style="fill: #228b8d; stroke: #228b8d"/>
     <use xlink:href="#mb79299f067" x="263.652685" y="42.785744" style="fill: #228b8d; stroke: #228b8d"/>
     <use xlink:href="#mb79299f067" x="302.296411" y="41.219795" style="fill: #228b8d; stroke: #228b8d"/>
     <use xlink:href="#mb79299f067" x="340.940138" y="40.099522" style="fill: #228b8d; stroke: #228b8d"/>
     <use xlink:href="#mb79299f067" x="379.583864" y="39.272417" style="fill: #228b8d; stroke: #228b8d"/>
     <use xlink:href="#mb79299f067" x="418.227591" y="38.647065" style="fill: #228b8d; stroke: #228b8d"/>
    </g>
   </g>
   <g id="line2d_28">
    <path d="M 70.434052 120.958023 
L 109.077778 78.705492 
L 147.721505 62.423383 
L 186.365231 54.38812 
L 225.008958 49.62476 
L 263.652685 46.500965 
L 302.296411 44.316258 
L 340.940138 42.718826 
L 379.583864 41.512259 
L 418.227591 40.578177 
" clip-path="url(#p1ebd18b618)" style="fill: none; stroke: #26ad81; stroke-width: 2; stroke-linecap: square"/>
    <defs>
     <path id="m10426ce584" d="M 0 3 
C 0.795609 3 1.55874 2.683901 2.12132 2.12132 
C 2.683901 1.55874 3 0.795609 3 0 
C 3 -0.795609 2.683901 -1.55874 2.12132 -2.12132 
C 1.55874 -2.683901 0.795609 -3 0 -3 
C -0.795609 -3 -1.55874 -2.683901 -2.12132 -2.12132 
C -2.683901 -1.55874 -3 -0.795609 -3 0 
C -3 0.795609 -2.683901 1.55874 -2.12132 2.12132 
C -1.55874 2.683901 -0.795609 3 0 3 
z
" style="stroke: #26ad81"/>
    </defs>
    <g clip-path="url(#p1ebd18b618)">
     <use xlink:href="#m10426ce584" x="70.434052" y="120.958023" style="fill: #26ad81; stroke: #26ad81"/>
     <use xlink:href="#m10426ce584" x="109.077778" y="78.705492" style="fill: #26ad81; stroke: #26ad81"/>
     <use xlink:href="#m10426ce584" x="147.721505" y="62.423383" style="fill: #26ad81; stroke: #26ad81"/>
     <use xlink:href="#m10426ce584" x="186.365231" y="54.38812" style="fill: #26ad81; stroke: #26ad81"/>
     <use xlink:href="#m10426ce584" x="225.008958" y="49.62476" style="fill: #26ad81; stroke: #26ad81"/>
     <use xlink:href="#m10426ce584" x="263.652685" y="46.500965" style="fill: #26ad81; stroke: #26ad81"/>
     <use xlink:href="#m10426ce584" x="302.296411" y="44.316258" style="fill: #26ad81; stroke: #26ad81"/>
     <use xlink:href="#m10426ce584" x="340.940138" y="42.718826" style="fill: #26ad81; stroke: #26ad81"/>
     <use xlink:href="#m10426ce584" x="379.583864" y="41.512259" style="fill: #26ad81; stroke: #26ad81"/>
     <use xlink:href="#m10426ce584" x="418.227591" y="40.578177" style="fill: #26ad81; stroke: #26ad81"/>
    </g>
   </g>
   <g id="line2d_29">
    <path d="M 70.434052 151.475995 
L 109.077778 99.155092 
L 147.721505 76.999882 
L 186.365231 65.62611 
L 225.008958 58.704761 
L 263.652685 54.065396 
L 302.296411 50.753535 
L 340.940138 48.282216 
L 379.583864 46.37658 
L 418.227591 44.869602 
" clip-path="url(#p1ebd18b618)" style="fill: none; stroke: #63cb5f; stroke-width: 2; stroke-linecap: square"/>
    <defs>
     <path id="m9c681437eb" d="M 0 3 
C 0.795609 3 1.55874 2.683901 2.12132 2.12132 
C 2.683901 1.55874 3 0.795609 3 0 
C 3 -0.795609 2.683901 -1.55874 2.12132 -2.12132 
C 1.55874 -2.683901 0.795609 -3 0 -3 
C -0.795609 -3 -1.55874 -2.683901 -2.12132 -2.12132 
C -2.683901 -1.55874 -3 -0.795609 -3 0 
C -3 0.795609 -2.683901 1.55874 -2.12132 2.12132 
C -1.55874 2.683901 -0.795609 3 0 3 
z
" style="stroke: #63cb5f"/>
    </defs>
    <g clip-path="url(#p1ebd18b618)">
     <use xlink:href="#m9c681437eb" x="70.434052" y="151.475995" style="fill: #63cb5f; stroke: #63cb5f"/>
     <use xlink:href="#m9c681437eb" x="109.077778" y="99.155092" style="fill: #63cb5f; stroke: #63cb5f"/>
     <use xlink:href="#m9c681437eb" x="147.721505" y="76.999882" style="fill: #63cb5f; stroke: #63cb5f"/>
     <use xlink:href="#m9c681437eb" x="186.365231" y="65.62611" style="fill: #63cb5f; stroke: #63cb5f"/>
     <use xlink:href="#m9c681437eb" x="225.008958" y="58.704761" style="fill: #63cb5f; stroke: #63cb5f"/>
     <use xlink:href="#m9c681437eb" x="263.652685" y="54.065396" style="fill: #63cb5f; stroke: #63cb5f"/>
     <use xlink:href="#m9c681437eb" x="302.296411" y="50.753535" style="fill: #63cb5f; stroke: #63cb5f"/>
     <use xlink:href="#m9c681437eb" x="340.940138" y="48.282216" style="fill: #63cb5f; stroke: #63cb5f"/>
     <use xlink:href="#m9c681437eb" x="379.583864" y="46.37658" style="fill: #63cb5f; stroke: #63cb5f"/>
     <use xlink:href="#m9c681437eb" x="418.227591" y="44.869602" style="fill: #63cb5f; stroke: #63cb5f"/>
    </g>
   </g>
   <g id="line2d_30">
    <path d="M 70.434052 193.124713 
L 109.077778 133.097254 
L 147.721505 102.950968 
L 186.365231 86.402601 
L 225.008958 75.940339 
L 263.652685 68.73717 
L 302.296411 63.483982 
L 340.940138 59.49033 
L 379.583864 56.357358 
L 418.227591 53.838504 
" clip-path="url(#p1ebd18b618)" style="fill: none; stroke: #bddf26; stroke-width: 2; stroke-linecap: square"/>
    <defs>
     <path id="mcbbdfb0cd3" d="M 0 3 
C 0.795609 3 1.55874 2.683901 2.12132 2.12132 
C 2.683901 1.55874 3 0.795609 3 0 
C 3 -0.795609 2.683901 -1.55874 2.12132 -2.12132 
C 1.55874 -2.683901 0.795609 -3 0 -3 
C -0.795609 -3 -1.55874 -2.683901 -2.12132 -2.12132 
C -2.683901 -1.55874 -3 -0.795609 -3 0 
C -3 0.795609 -2.683901 1.55874 -2.12132 2.12132 
C -1.55874 2.683901 -0.795609 3 0 3 
z
" style="stroke: #bddf26"/>
    </defs>
    <g clip-path="url(#p1ebd18b618)">
     <use xlink:href="#mcbbdfb0cd3" x="70.434052" y="193.124713" style="fill: #bddf26; stroke: #bddf26"/>
     <use xlink:href="#mcbbdfb0cd3" x="109.077778" y="133.097254" style="fill: #bddf26; stroke: #bddf26"/>
     <use xlink:href="#mcbbdfb0cd3" x="147.721505" y="102.950968" style="fill: #bddf26; stroke: #bddf26"/>
     <use xlink:href="#mcbbdfb0cd3" x="186.365231" y="86.402601" style="fill: #bddf26; stroke: #bddf26"/>
     <use xlink:href="#mcbbdfb0cd3" x="225.008958" y="75.940339" style="fill: #bddf26; stroke: #bddf26"/>
     <use xlink:href="#mcbbdfb0cd3" x="263.652685" y="68.73717" style="fill: #bddf26; stroke: #bddf26"/>
     <use xlink:href="#mcbbdfb0cd3" x="302.296411" y="63.483982" style="fill: #bddf26; stroke: #bddf26"/>
     <use xlink:href="#mcbbdfb0cd3" x="340.940138" y="59.49033" style="fill: #bddf26; stroke: #bddf26"/>
     <use xlink:href="#mcbbdfb0cd3" x="379.583864" y="56.357358" style="fill: #bddf26; stroke: #bddf26"/>
     <use xlink:href="#mcbbdfb0cd3" x="418.227591" y="53.838504" style="fill: #bddf26; stroke: #bddf26"/>
    </g>
   </g>
   <g id="patch_3">
    <path d="M 53.044375 293.7 
L 53.044375 23.28 
" style="fill: none; stroke: #000000; stroke-width: 0.8; stroke-linejoin: miter; stroke-linecap: square"/>
   </g>
   <g id="patch_4">
    <path d="M 435.617268 293.7 
L 435.617268 23.28 
" style="fill: none; stroke: #000000; stroke-width: 0.8; stroke-linejoin: miter; stroke-linecap: square"/>
   </g>
   <g id="patch_5">
    <path d="M 53.044375 293.7 
L 435.617268 293.7 
" style="fill: none; stroke: #000000; stroke-width: 0.8; stroke-linejoin: miter; stroke-linecap: square"/>
   </g>
   <g id="patch_6">
    <path d="M 53.044375 23.28 
L 435.617268 23.28 
" style="fill: none; stroke: #000000; stroke-width: 0.8; stroke-linejoin: miter; stroke-linecap: square"/>
   </g>
   <g id="text_14">
    <!-- (a) Repetition $[[3,1,3]]$ -->
    <g transform="translate(147.130821 17.28) scale(0.18 -0.18)">
     <defs>
      <path id="DejaVuSerif-28" d="M 2041 -997 
Q 1281 -656 893 83 
Q 506 822 506 1931 
Q 506 3044 893 3783 
Q 1281 4522 2041 4863 
L 2041 4556 
Q 1559 4225 1350 3623 
Q 1141 3022 1141 1931 
Q 1141 844 1350 242 
Q 1559 -359 2041 -691 
L 2041 -997 
z
" transform="scale(0.015625)"/>
      <path id="DejaVuSerif-29" d="M 453 -997 
L 453 -691 
Q 934 -359 1145 242 
Q 1356 844 1356 1931 
Q 1356 3022 1145 3623 
Q 934 4225 453 4556 
L 453 4863 
Q 1216 4522 1603 3783 
Q 1991 3044 1991 1931 
Q 1991 822 1603 83 
Q 1216 -656 453 -997 
z
" transform="scale(0.015625)"/>
      <path id="DejaVuSerif-52" d="M 3066 2316 
Q 3284 2256 3442 2114 
Q 3600 1972 3725 1716 
L 4403 331 
L 4972 331 
L 4972 0 
L 3872 0 
L 3144 1484 
Q 2934 1916 2759 2042 
Q 2584 2169 2278 2169 
L 1581 2169 
L 1581 331 
L 2241 331 
L 2241 0 
L 353 0 
L 353 331 
L 947 331 
L 947 4331 
L 353 4331 
L 353 4666 
L 2719 4666 
Q 3400 4666 3770 4341 
Q 4141 4016 4141 3419 
Q 4141 2938 3870 2661 
Q 3600 2384 3066 2316 
z
M 1581 2503 
L 2503 2503 
Q 2975 2503 3200 2726 
Q 3425 2950 3425 3419 
Q 3425 3888 3200 4109 
Q 2975 4331 2503 4331 
L 1581 4331 
L 1581 2503 
z
" transform="scale(0.015625)"/>
      <path id="DejaVuSerif-70" d="M 1313 1825 
L 1313 1497 
Q 1313 897 1542 583 
Q 1772 269 2209 269 
Q 2650 269 2876 622 
Q 3103 975 3103 1663 
Q 3103 2353 2876 2703 
Q 2650 3053 2209 3053 
Q 1772 3053 1542 2737 
Q 1313 2422 1313 1825 
z
M 738 2988 
L 184 2988 
L 184 3322 
L 1313 3322 
L 1313 2803 
Q 1481 3116 1742 3264 
Q 2003 3413 2388 3413 
Q 3000 3413 3387 2928 
Q 3775 2444 3775 1663 
Q 3775 881 3387 395 
Q 3000 -91 2388 -91 
Q 2003 -91 1742 57 
Q 1481 206 1313 519 
L 1313 -997 
L 1856 -997 
L 1856 -1331 
L 184 -1331 
L 184 -997 
L 738 -997 
L 738 2988 
z
" transform="scale(0.015625)"/>
      <path id="Cmr10-5b" d="M 756 -1600 
L 756 4800 
L 1631 4800 
L 1631 4544 
L 1013 4544 
L 1013 -1344 
L 1631 -1344 
L 1631 -1600 
L 756 -1600 
z
" transform="scale(0.015625)"/>
      <path id="Cmr10-33" d="M 609 494 
Q 759 275 1012 169 
Q 1266 63 1556 63 
Q 1928 63 2084 380 
Q 2241 697 2241 1100 
Q 2241 1281 2208 1462 
Q 2175 1644 2097 1800 
Q 2019 1956 1883 2050 
Q 1747 2144 1550 2144 
L 1125 2144 
Q 1069 2144 1069 2203 
L 1069 2259 
Q 1069 2309 1125 2309 
L 1478 2338 
Q 1703 2338 1851 2506 
Q 2000 2675 2069 2917 
Q 2138 3159 2138 3378 
Q 2138 3684 1994 3881 
Q 1850 4078 1556 4078 
Q 1313 4078 1091 3986 
Q 869 3894 738 3706 
Q 750 3709 759 3711 
Q 769 3713 781 3713 
Q 925 3713 1022 3613 
Q 1119 3513 1119 3372 
Q 1119 3234 1022 3134 
Q 925 3034 781 3034 
Q 641 3034 541 3134 
Q 441 3234 441 3372 
Q 441 3647 606 3850 
Q 772 4053 1033 4158 
Q 1294 4263 1556 4263 
Q 1750 4263 1965 4205 
Q 2181 4147 2356 4039 
Q 2531 3931 2642 3762 
Q 2753 3594 2753 3378 
Q 2753 3109 2633 2881 
Q 2513 2653 2303 2487 
Q 2094 2322 1844 2241 
Q 2122 2188 2372 2031 
Q 2622 1875 2773 1631 
Q 2925 1388 2925 1106 
Q 2925 753 2731 467 
Q 2538 181 2222 20 
Q 1906 -141 1556 -141 
Q 1256 -141 954 -26 
Q 653 88 461 316 
Q 269 544 269 863 
Q 269 1022 375 1128 
Q 481 1234 641 1234 
Q 744 1234 830 1186 
Q 916 1138 964 1050 
Q 1013 963 1013 863 
Q 1013 706 903 600 
Q 794 494 641 494 
L 609 494 
z
" transform="scale(0.015625)"/>
      <path id="Cmmi10-3b" d="M 634 -1153 
Q 634 -1125 659 -1100 
Q 891 -878 1019 -587 
Q 1147 -297 1147 25 
L 1147 103 
Q 1044 0 891 0 
Q 744 0 641 103 
Q 538 206 538 353 
Q 538 503 641 603 
Q 744 703 891 703 
Q 1119 703 1216 492 
Q 1313 281 1313 25 
Q 1313 -331 1170 -651 
Q 1028 -972 769 -1228 
Q 744 -1241 728 -1241 
Q 697 -1241 665 -1212 
Q 634 -1184 634 -1153 
z
" transform="scale(0.015625)"/>
      <path id="Cmr10-5d" d="M 141 -1600 
L 141 -1344 
L 763 -1344 
L 763 4544 
L 141 4544 
L 141 4800 
L 1019 4800 
L 1019 -1600 
L 141 -1600 
z
" transform="scale(0.015625)"/>
     </defs>
     <use xlink:href="#DejaVuSerif-28" transform="translate(0 0.015625)"/>
     <use xlink:href="#DejaVuSerif-61" transform="translate(39.013672 0.015625)"/>
     <use xlink:href="#DejaVuSerif-29" transform="translate(98.632812 0.015625)"/>
     <use xlink:href="#DejaVuSerif-20" transform="translate(137.646484 0.015625)"/>
     <use xlink:href="#DejaVuSerif-52" transform="translate(169.433594 0.015625)"/>
     <use xlink:href="#DejaVuSerif-65" transform="translate(244.726562 0.015625)"/>
     <use xlink:href="#DejaVuSerif-70" transform="translate(303.90625 0.015625)"/>
     <use xlink:href="#DejaVuSerif-65" transform="translate(367.919922 0.015625)"/>
     <use xlink:href="#DejaVuSerif-74" transform="translate(427.099609 0.015625)"/>
     <use xlink:href="#DejaVuSerif-69" transform="translate(467.285156 0.015625)"/>
     <use xlink:href="#DejaVuSerif-74" transform="translate(499.267578 0.015625)"/>
     <use xlink:href="#DejaVuSerif-69" transform="translate(539.453125 0.015625)"/>
     <use xlink:href="#DejaVuSerif-6f" transform="translate(571.435547 0.015625)"/>
     <use xlink:href="#DejaVuSerif-6e" transform="translate(631.640625 0.015625)"/>
     <use xlink:href="#DejaVuSerif-20" transform="translate(696.044922 0.015625)"/>
     <use xlink:href="#Cmr10-5b" transform="translate(727.832031 0.015625)"/>
     <use xlink:href="#Cmr10-5b" transform="translate(755.517578 0.015625)"/>
     <use xlink:href="#Cmr10-33" transform="translate(783.203125 0.015625)"/>
     <use xlink:href="#Cmmi10-3b" transform="translate(833.203125 0.015625)"/>
     <use xlink:href="#Cmr10-31" transform="translate(878.447266 0.015625)"/>
     <use xlink:href="#Cmmi10-3b" transform="translate(928.447266 0.015625)"/>
     <use xlink:href="#Cmr10-33" transform="translate(973.691406 0.015625)"/>
     <use xlink:href="#Cmr10-5d" transform="translate(1023.691406 0.015625)"/>
     <use xlink:href="#Cmr10-5d" transform="translate(1051.376953 0.015625)"/>
    </g>
   </g>
  </g>
  <g id="axes_2">
   <g id="patch_7">
    <path d="M 452.871482 293.7 
L 835.444375 293.7 
L 835.444375 23.28 
L 452.871482 23.28 
z
" style="fill: #ffffff"/>
   </g>
   <g id="matplotlib.axis_3">
    <g id="xtick_7">
     <g id="line2d_31">
      <path d="M 455.769762 293.7 
L 455.769762 23.28 
" clip-path="url(#pf936207989)" style="fill: none; stroke: #b0b0b0; stroke-opacity: 0.3; stroke-width: 0.5; stroke-linecap: square"/>
     </g>
     <g id="line2d_32">
      <g>
       <use xlink:href="#m9eb2d9c585" x="455.769762" y="293.7" style="stroke: #000000; stroke-width: 0.8"/>
      </g>
     </g>
     <g id="text_15">
      <!-- 0 -->
      <g transform="translate(451.316012 307.837812) scale(0.14 -0.14)">
       <use xlink:href="#DejaVuSerif-30"/>
      </g>
     </g>
    </g>
    <g id="xtick_8">
     <g id="line2d_33">
      <path d="M 528.226749 293.7 
L 528.226749 23.28 
" clip-path="url(#pf936207989)" style="fill: none; stroke: #b0b0b0; stroke-opacity: 0.3; stroke-width: 0.5; stroke-linecap: square"/>
     </g>
     <g id="line2d_34">
      <g>
       <use xlink:href="#m9eb2d9c585" x="528.226749" y="293.7" style="stroke: #000000; stroke-width: 0.8"/>
      </g>
     </g>
     <g id="text_16">
      <!-- 50 -->
      <g transform="translate(519.319249 307.837812) scale(0.14 -0.14)">
       <use xlink:href="#DejaVuSerif-35"/>
       <use xlink:href="#DejaVuSerif-30" transform="translate(63.623047 0)"/>
      </g>
     </g>
    </g>
    <g id="xtick_9">
     <g id="line2d_35">
      <path d="M 600.683736 293.7 
L 600.683736 23.28 
" clip-path="url(#pf936207989)" style="fill: none; stroke: #b0b0b0; stroke-opacity: 0.3; stroke-width: 0.5; stroke-linecap: square"/>
     </g>
     <g id="line2d_36">
      <g>
       <use xlink:href="#m9eb2d9c585" x="600.683736" y="293.7" style="stroke: #000000; stroke-width: 0.8"/>
      </g>
     </g>
     <g id="text_17">
      <!-- 100 -->
      <g transform="translate(587.322486 307.837812) scale(0.14 -0.14)">
       <use xlink:href="#DejaVuSerif-31"/>
       <use xlink:href="#DejaVuSerif-30" transform="translate(63.623047 0)"/>
       <use xlink:href="#DejaVuSerif-30" transform="translate(127.246094 0)"/>
      </g>
     </g>
    </g>
    <g id="xtick_10">
     <g id="line2d_37">
      <path d="M 673.140724 293.7 
L 673.140724 23.28 
" clip-path="url(#pf936207989)" style="fill: none; stroke: #b0b0b0; stroke-opacity: 0.3; stroke-width: 0.5; stroke-linecap: square"/>
     </g>
     <g id="line2d_38">
      <g>
       <use xlink:href="#m9eb2d9c585" x="673.140724" y="293.7" style="stroke: #000000; stroke-width: 0.8"/>
      </g>
     </g>
     <g id="text_18">
      <!-- 150 -->
      <g transform="translate(659.779474 307.837812) scale(0.14 -0.14)">
       <use xlink:href="#DejaVuSerif-31"/>
       <use xlink:href="#DejaVuSerif-35" transform="translate(63.623047 0)"/>
       <use xlink:href="#DejaVuSerif-30" transform="translate(127.246094 0)"/>
      </g>
     </g>
    </g>
    <g id="xtick_11">
     <g id="line2d_39">
      <path d="M 745.597711 293.7 
L 745.597711 23.28 
" clip-path="url(#pf936207989)" style="fill: none; stroke: #b0b0b0; stroke-opacity: 0.3; stroke-width: 0.5; stroke-linecap: square"/>
     </g>
     <g id="line2d_40">
      <g>
       <use xlink:href="#m9eb2d9c585" x="745.597711" y="293.7" style="stroke: #000000; stroke-width: 0.8"/>
      </g>
     </g>
     <g id="text_19">
      <!-- 200 -->
      <g transform="translate(732.236461 307.837812) scale(0.14 -0.14)">
       <use xlink:href="#DejaVuSerif-32"/>
       <use xlink:href="#DejaVuSerif-30" transform="translate(63.623047 0)"/>
       <use xlink:href="#DejaVuSerif-30" transform="translate(127.246094 0)"/>
      </g>
     </g>
    </g>
    <g id="xtick_12">
     <g id="line2d_41">
      <path d="M 818.054698 293.7 
L 818.054698 23.28 
" clip-path="url(#pf936207989)" style="fill: none; stroke: #b0b0b0; stroke-opacity: 0.3; stroke-width: 0.5; stroke-linecap: square"/>
     </g>
     <g id="line2d_42">
      <g>
       <use xlink:href="#m9eb2d9c585" x="818.054698" y="293.7" style="stroke: #000000; stroke-width: 0.8"/>
      </g>
     </g>
     <g id="text_20">
      <!-- 250 -->
      <g transform="translate(804.693448 307.837812) scale(0.14 -0.14)">
       <use xlink:href="#DejaVuSerif-32"/>
       <use xlink:href="#DejaVuSerif-35" transform="translate(63.623047 0)"/>
       <use xlink:href="#DejaVuSerif-30" transform="translate(127.246094 0)"/>
      </g>
     </g>
    </g>
   </g>
   <g id="matplotlib.axis_4">
    <g id="ytick_7">
     <g id="line2d_43">
      <path d="M 452.871482 293.7 
L 835.444375 293.7 
" clip-path="url(#pf936207989)" style="fill: none; stroke: #b0b0b0; stroke-opacity: 0.3; stroke-width: 0.5; stroke-linecap: square"/>
     </g>
     <g id="line2d_44">
      <g>
       <use xlink:href="#ma327b0db9e" x="452.871482" y="293.7" style="stroke: #000000; stroke-width: 0.8"/>
      </g>
     </g>
    </g>
    <g id="ytick_8">
     <g id="line2d_45">
      <path d="M 452.871482 242.191429 
L 835.444375 242.191429 
" clip-path="url(#pf936207989)" style="fill: none; stroke: #b0b0b0; stroke-opacity: 0.3; stroke-width: 0.5; stroke-linecap: square"/>
     </g>
     <g id="line2d_46">
      <g>
       <use xlink:href="#ma327b0db9e" x="452.871482" y="242.191429" style="stroke: #000000; stroke-width: 0.8"/>
      </g>
     </g>
    </g>
    <g id="ytick_9">
     <g id="line2d_47">
      <path d="M 452.871482 190.682857 
L 835.444375 190.682857 
" clip-path="url(#pf936207989)" style="fill: none; stroke: #b0b0b0; stroke-opacity: 0.3; stroke-width: 0.5; stroke-linecap: square"/>
     </g>
     <g id="line2d_48">
      <g>
       <use xlink:href="#ma327b0db9e" x="452.871482" y="190.682857" style="stroke: #000000; stroke-width: 0.8"/>
      </g>
     </g>
    </g>
    <g id="ytick_10">
     <g id="line2d_49">
      <path d="M 452.871482 139.174286 
L 835.444375 139.174286 
" clip-path="url(#pf936207989)" style="fill: none; stroke: #b0b0b0; stroke-opacity: 0.3; stroke-width: 0.5; stroke-linecap: square"/>
     </g>
     <g id="line2d_50">
      <g>
       <use xlink:href="#ma327b0db9e" x="452.871482" y="139.174286" style="stroke: #000000; stroke-width: 0.8"/>
      </g>
     </g>
    </g>
    <g id="ytick_11">
     <g id="line2d_51">
      <path d="M 452.871482 87.665714 
L 835.444375 87.665714 
" clip-path="url(#pf936207989)" style="fill: none; stroke: #b0b0b0; stroke-opacity: 0.3; stroke-width: 0.5; stroke-linecap: square"/>
     </g>
     <g id="line2d_52">
      <g>
       <use xlink:href="#ma327b0db9e" x="452.871482" y="87.665714" style="stroke: #000000; stroke-width: 0.8"/>
      </g>
     </g>
    </g>
    <g id="ytick_12">
     <g id="line2d_53">
      <path d="M 452.871482 36.157143 
L 835.444375 36.157143 
" clip-path="url(#pf936207989)" style="fill: none; stroke: #b0b0b0; stroke-opacity: 0.3; stroke-width: 0.5; stroke-linecap: square"/>
     </g>
     <g id="line2d_54">
      <g>
       <use xlink:href="#ma327b0db9e" x="452.871482" y="36.157143" style="stroke: #000000; stroke-width: 0.8"/>
      </g>
     </g>
    </g>
   </g>
   <g id="line2d_55">
    <path d="M 470.261159 124.542818 
L 508.904886 70.333648 
L 547.548612 56.056671 
L 586.192339 49.334594 
L 624.836065 45.565528 
L 663.479792 43.204011 
L 702.123519 41.612607 
L 740.767245 40.48581 
L 779.410972 39.655897 
L 818.054698 39.027089 
" clip-path="url(#pf936207989)" style="fill: none; stroke: #414487; stroke-width: 2; stroke-linecap: square"/>
    <defs>
     <path id="m9e6e35c67b" d="M -3 3 
L 3 3 
L 3 -3 
L -3 -3 
z
" style="stroke: #414487; stroke-linejoin: miter"/>
    </defs>
    <g clip-path="url(#pf936207989)">
     <use xlink:href="#m9e6e35c67b" x="470.261159" y="124.542818" style="fill: #414487; stroke: #414487; stroke-linejoin: miter"/>
     <use xlink:href="#m9e6e35c67b" x="508.904886" y="70.333648" style="fill: #414487; stroke: #414487; stroke-linejoin: miter"/>
     <use xlink:href="#m9e6e35c67b" x="547.548612" y="56.056671" style="fill: #414487; stroke: #414487; stroke-linejoin: miter"/>
     <use xlink:href="#m9e6e35c67b" x="586.192339" y="49.334594" style="fill: #414487; stroke: #414487; stroke-linejoin: miter"/>
     <use xlink:href="#m9e6e35c67b" x="624.836065" y="45.565528" style="fill: #414487; stroke: #414487; stroke-linejoin: miter"/>
     <use xlink:href="#m9e6e35c67b" x="663.479792" y="43.204011" style="fill: #414487; stroke: #414487; stroke-linejoin: miter"/>
     <use xlink:href="#m9e6e35c67b" x="702.123519" y="41.612607" style="fill: #414487; stroke: #414487; stroke-linejoin: miter"/>
     <use xlink:href="#m9e6e35c67b" x="740.767245" y="40.48581" style="fill: #414487; stroke: #414487; stroke-linejoin: miter"/>
     <use xlink:href="#m9e6e35c67b" x="779.410972" y="39.655897" style="fill: #414487; stroke: #414487; stroke-linejoin: miter"/>
     <use xlink:href="#m9e6e35c67b" x="818.054698" y="39.027089" style="fill: #414487; stroke: #414487; stroke-linejoin: miter"/>
    </g>
   </g>
   <g id="line2d_56">
    <path d="M 470.261159 138.056908 
L 508.904886 78.990257 
L 547.548612 61.990539 
L 586.192339 53.732352 
L 624.836065 48.993657 
L 663.479792 45.967312 
L 702.123519 43.892665 
L 740.767245 42.401543 
L 779.410972 41.288337 
L 818.054698 40.434936 
" clip-path="url(#pf936207989)" style="fill: none; stroke: #306a8e; stroke-width: 2; stroke-linecap: square"/>
    <defs>
     <path id="m4b942b5fea" d="M -3 3 
L 3 3 
L 3 -3 
L -3 -3 
z
" style="stroke: #306a8e; stroke-linejoin: miter"/>
    </defs>
    <g clip-path="url(#pf936207989)">
     <use xlink:href="#m4b942b5fea" x="470.261159" y="138.056908" style="fill: #306a8e; stroke: #306a8e; stroke-linejoin: miter"/>
     <use xlink:href="#m4b942b5fea" x="508.904886" y="78.990257" style="fill: #306a8e; stroke: #306a8e; stroke-linejoin: miter"/>
     <use xlink:href="#m4b942b5fea" x="547.548612" y="61.990539" style="fill: #306a8e; stroke: #306a8e; stroke-linejoin: miter"/>
     <use xlink:href="#m4b942b5fea" x="586.192339" y="53.732352" style="fill: #306a8e; stroke: #306a8e; stroke-linejoin: miter"/>
     <use xlink:href="#m4b942b5fea" x="624.836065" y="48.993657" style="fill: #306a8e; stroke: #306a8e; stroke-linejoin: miter"/>
     <use xlink:href="#m4b942b5fea" x="663.479792" y="45.967312" style="fill: #306a8e; stroke: #306a8e; stroke-linejoin: miter"/>
     <use xlink:href="#m4b942b5fea" x="702.123519" y="43.892665" style="fill: #306a8e; stroke: #306a8e; stroke-linejoin: miter"/>
     <use xlink:href="#m4b942b5fea" x="740.767245" y="42.401543" style="fill: #306a8e; stroke: #306a8e; stroke-linejoin: miter"/>
     <use xlink:href="#m4b942b5fea" x="779.410972" y="41.288337" style="fill: #306a8e; stroke: #306a8e; stroke-linejoin: miter"/>
     <use xlink:href="#m4b942b5fea" x="818.054698" y="40.434936" style="fill: #306a8e; stroke: #306a8e; stroke-linejoin: miter"/>
    </g>
   </g>
   <g id="line2d_57">
    <path d="M 470.261159 161.878554 
L 508.904886 98.256588 
L 547.548612 75.970929 
L 586.192339 64.461178 
L 624.836065 57.585895 
L 663.479792 53.059337 
L 702.123519 49.870911 
L 740.767245 47.523468 
L 779.410972 45.730483 
L 818.054698 44.327738 
" clip-path="url(#pf936207989)" style="fill: none; stroke: #228b8d; stroke-width: 2; stroke-linecap: square"/>
    <defs>
     <path id="m5d115e99f4" d="M -3 3 
L 3 3 
L 3 -3 
L -3 -3 
z
" style="stroke: #228b8d; stroke-linejoin: miter"/>
    </defs>
    <g clip-path="url(#pf936207989)">
     <use xlink:href="#m5d115e99f4" x="470.261159" y="161.878554" style="fill: #228b8d; stroke: #228b8d; stroke-linejoin: miter"/>
     <use xlink:href="#m5d115e99f4" x="508.904886" y="98.256588" style="fill: #228b8d; stroke: #228b8d; stroke-linejoin: miter"/>
     <use xlink:href="#m5d115e99f4" x="547.548612" y="75.970929" style="fill: #228b8d; stroke: #228b8d; stroke-linejoin: miter"/>
     <use xlink:href="#m5d115e99f4" x="586.192339" y="64.461178" style="fill: #228b8d; stroke: #228b8d; stroke-linejoin: miter"/>
     <use xlink:href="#m5d115e99f4" x="624.836065" y="57.585895" style="fill: #228b8d; stroke: #228b8d; stroke-linejoin: miter"/>
     <use xlink:href="#m5d115e99f4" x="663.479792" y="53.059337" style="fill: #228b8d; stroke: #228b8d; stroke-linejoin: miter"/>
     <use xlink:href="#m5d115e99f4" x="702.123519" y="49.870911" style="fill: #228b8d; stroke: #228b8d; stroke-linejoin: miter"/>
     <use xlink:href="#m5d115e99f4" x="740.767245" y="47.523468" style="fill: #228b8d; stroke: #228b8d; stroke-linejoin: miter"/>
     <use xlink:href="#m5d115e99f4" x="779.410972" y="45.730483" style="fill: #228b8d; stroke: #228b8d; stroke-linejoin: miter"/>
     <use xlink:href="#m5d115e99f4" x="818.054698" y="44.327738" style="fill: #228b8d; stroke: #228b8d; stroke-linejoin: miter"/>
    </g>
   </g>
   <g id="line2d_58">
    <path d="M 470.261159 176.643162 
L 508.904886 114.480237 
L 547.548612 88.633177 
L 586.192339 74.567467 
L 624.836065 65.90087 
L 663.479792 60.076539 
L 702.123519 55.902762 
L 740.767245 52.784877 
L 779.410972 50.369592 
L 818.054698 48.456253 
" clip-path="url(#pf936207989)" style="fill: none; stroke: #26ad81; stroke-width: 2; stroke-linecap: square"/>
    <defs>
     <path id="m1c820fdec7" d="M -3 3 
L 3 3 
L 3 -3 
L -3 -3 
z
" style="stroke: #26ad81; stroke-linejoin: miter"/>
    </defs>
    <g clip-path="url(#pf936207989)">
     <use xlink:href="#m1c820fdec7" x="470.261159" y="176.643162" style="fill: #26ad81; stroke: #26ad81; stroke-linejoin: miter"/>
     <use xlink:href="#m1c820fdec7" x="508.904886" y="114.480237" style="fill: #26ad81; stroke: #26ad81; stroke-linejoin: miter"/>
     <use xlink:href="#m1c820fdec7" x="547.548612" y="88.633177" style="fill: #26ad81; stroke: #26ad81; stroke-linejoin: miter"/>
     <use xlink:href="#m1c820fdec7" x="586.192339" y="74.567467" style="fill: #26ad81; stroke: #26ad81; stroke-linejoin: miter"/>
     <use xlink:href="#m1c820fdec7" x="624.836065" y="65.90087" style="fill: #26ad81; stroke: #26ad81; stroke-linejoin: miter"/>
     <use xlink:href="#m1c820fdec7" x="663.479792" y="60.076539" style="fill: #26ad81; stroke: #26ad81; stroke-linejoin: miter"/>
     <use xlink:href="#m1c820fdec7" x="702.123519" y="55.902762" style="fill: #26ad81; stroke: #26ad81; stroke-linejoin: miter"/>
     <use xlink:href="#m1c820fdec7" x="740.767245" y="52.784877" style="fill: #26ad81; stroke: #26ad81; stroke-linejoin: miter"/>
     <use xlink:href="#m1c820fdec7" x="779.410972" y="50.369592" style="fill: #26ad81; stroke: #26ad81; stroke-linejoin: miter"/>
     <use xlink:href="#m1c820fdec7" x="818.054698" y="48.456253" style="fill: #26ad81; stroke: #26ad81; stroke-linejoin: miter"/>
    </g>
   </g>
   <g id="line2d_59">
    <path d="M 470.261159 192.954725 
L 508.904886 139.658103 
L 547.548612 110.298195 
L 586.192339 92.734166 
L 624.836065 81.30994 
L 663.479792 73.380333 
L 702.123519 67.553417 
L 740.767245 63.115821 
L 779.410972 59.614238 
L 818.054698 56.79786 
" clip-path="url(#pf936207989)" style="fill: none; stroke: #63cb5f; stroke-width: 2; stroke-linecap: square"/>
    <defs>
     <path id="mbb84dd2232" d="M -3 3 
L 3 3 
L 3 -3 
L -3 -3 
z
" style="stroke: #63cb5f; stroke-linejoin: miter"/>
    </defs>
    <g clip-path="url(#pf936207989)">
     <use xlink:href="#mbb84dd2232" x="470.261159" y="192.954725" style="fill: #63cb5f; stroke: #63cb5f; stroke-linejoin: miter"/>
     <use xlink:href="#mbb84dd2232" x="508.904886" y="139.658103" style="fill: #63cb5f; stroke: #63cb5f; stroke-linejoin: miter"/>
     <use xlink:href="#mbb84dd2232" x="547.548612" y="110.298195" style="fill: #63cb5f; stroke: #63cb5f; stroke-linejoin: miter"/>
     <use xlink:href="#mbb84dd2232" x="586.192339" y="92.734166" style="fill: #63cb5f; stroke: #63cb5f; stroke-linejoin: miter"/>
     <use xlink:href="#mbb84dd2232" x="624.836065" y="81.30994" style="fill: #63cb5f; stroke: #63cb5f; stroke-linejoin: miter"/>
     <use xlink:href="#mbb84dd2232" x="663.479792" y="73.380333" style="fill: #63cb5f; stroke: #63cb5f; stroke-linejoin: miter"/>
     <use xlink:href="#mbb84dd2232" x="702.123519" y="67.553417" style="fill: #63cb5f; stroke: #63cb5f; stroke-linejoin: miter"/>
     <use xlink:href="#mbb84dd2232" x="740.767245" y="63.115821" style="fill: #63cb5f; stroke: #63cb5f; stroke-linejoin: miter"/>
     <use xlink:href="#mbb84dd2232" x="779.410972" y="59.614238" style="fill: #63cb5f; stroke: #63cb5f; stroke-linejoin: miter"/>
     <use xlink:href="#mbb84dd2232" x="818.054698" y="56.79786" style="fill: #63cb5f; stroke: #63cb5f; stroke-linejoin: miter"/>
    </g>
   </g>
   <g id="line2d_60">
    <path d="M 470.261159 207.168425 
L 508.904886 170.689233 
L 547.548612 142.034763 
L 586.192339 121.796959 
L 624.836065 107.268103 
L 663.479792 96.614018 
L 702.123519 88.460143 
L 740.767245 82.072851 
L 779.410972 76.898003 
L 818.054698 72.655668 
" clip-path="url(#pf936207989)" style="fill: none; stroke: #bddf26; stroke-width: 2; stroke-linecap: square"/>
    <defs>
     <path id="m86d6b4c0ed" d="M -3 3 
L 3 3 
L 3 -3 
L -3 -3 
z
" style="stroke: #bddf26; stroke-linejoin: miter"/>
    </defs>
    <g clip-path="url(#pf936207989)">
     <use xlink:href="#m86d6b4c0ed" x="470.261159" y="207.168425" style="fill: #bddf26; stroke: #bddf26; stroke-linejoin: miter"/>
     <use xlink:href="#m86d6b4c0ed" x="508.904886" y="170.689233" style="fill: #bddf26; stroke: #bddf26; stroke-linejoin: miter"/>
     <use xlink:href="#m86d6b4c0ed" x="547.548612" y="142.034763" style="fill: #bddf26; stroke: #bddf26; stroke-linejoin: miter"/>
     <use xlink:href="#m86d6b4c0ed" x="586.192339" y="121.796959" style="fill: #bddf26; stroke: #bddf26; stroke-linejoin: miter"/>
     <use xlink:href="#m86d6b4c0ed" x="624.836065" y="107.268103" style="fill: #bddf26; stroke: #bddf26; stroke-linejoin: miter"/>
     <use xlink:href="#m86d6b4c0ed" x="663.479792" y="96.614018" style="fill: #bddf26; stroke: #bddf26; stroke-linejoin: miter"/>
     <use xlink:href="#m86d6b4c0ed" x="702.123519" y="88.460143" style="fill: #bddf26; stroke: #bddf26; stroke-linejoin: miter"/>
     <use xlink:href="#m86d6b4c0ed" x="740.767245" y="82.072851" style="fill: #bddf26; stroke: #bddf26; stroke-linejoin: miter"/>
     <use xlink:href="#m86d6b4c0ed" x="779.410972" y="76.898003" style="fill: #bddf26; stroke: #bddf26; stroke-linejoin: miter"/>
     <use xlink:href="#m86d6b4c0ed" x="818.054698" y="72.655668" style="fill: #bddf26; stroke: #bddf26; stroke-linejoin: miter"/>
    </g>
   </g>
   <g id="patch_8">
    <path d="M 452.871482 293.7 
L 452.871482 23.28 
" style="fill: none; stroke: #000000; stroke-width: 0.8; stroke-linejoin: miter; stroke-linecap: square"/>
   </g>
   <g id="patch_9">
    <path d="M 835.444375 293.7 
L 835.444375 23.28 
" style="fill: none; stroke: #000000; stroke-width: 0.8; stroke-linejoin: miter; stroke-linecap: square"/>
   </g>
   <g id="patch_10">
    <path d="M 452.871482 293.7 
L 835.444375 293.7 
" style="fill: none; stroke: #000000; stroke-width: 0.8; stroke-linejoin: miter; stroke-linecap: square"/>
   </g>
   <g id="patch_11">
    <path d="M 452.871482 23.28 
L 835.444375 23.28 
" style="fill: none; stroke: #000000; stroke-width: 0.8; stroke-linejoin: miter; stroke-linecap: square"/>
   </g>
   <g id="text_21">
    <!-- (b) Bacon-Shor $[[4,1,1,2]]$ -->
    <g transform="translate(532.467929 17.28) scale(0.18 -0.18)">
     <defs>
      <path id="DejaVuSerif-62" d="M 738 331 
L 738 4531 
L 184 4531 
L 184 4863 
L 1313 4863 
L 1313 2803 
Q 1481 3116 1742 3264 
Q 2003 3413 2388 3413 
Q 3000 3413 3387 2928 
Q 3775 2444 3775 1663 
Q 3775 881 3387 395 
Q 3000 -91 2388 -91 
Q 2003 -91 1742 57 
Q 1481 206 1313 519 
L 1313 0 
L 184 0 
L 184 331 
L 738 331 
z
M 1313 1497 
Q 1313 897 1542 583 
Q 1772 269 2209 269 
Q 2650 269 2876 622 
Q 3103 975 3103 1663 
Q 3103 2353 2876 2703 
Q 2650 3053 2209 3053 
Q 1772 3053 1542 2737 
Q 1313 2422 1313 1825 
L 1313 1497 
z
" transform="scale(0.015625)"/>
      <path id="DejaVuSerif-42" d="M 1581 331 
L 2516 331 
Q 3078 331 3337 575 
Q 3597 819 3597 1350 
Q 3597 1878 3339 2120 
Q 3081 2363 2516 2363 
L 1581 2363 
L 1581 331 
z
M 1581 2694 
L 2375 2694 
Q 2888 2694 3123 2891 
Q 3359 3088 3359 3513 
Q 3359 3941 3123 4136 
Q 2888 4331 2375 4331 
L 1581 4331 
L 1581 2694 
z
M 353 0 
L 353 331 
L 947 331 
L 947 4331 
L 353 4331 
L 353 4666 
L 2656 4666 
Q 3363 4666 3720 4377 
Q 4078 4088 4078 3513 
Q 4078 3097 3829 2850 
Q 3581 2603 3103 2547 
Q 3697 2472 4005 2167 
Q 4313 1863 4313 1350 
Q 4313 656 3875 328 
Q 3438 0 2509 0 
L 353 0 
z
" transform="scale(0.015625)"/>
      <path id="DejaVuSerif-63" d="M 3291 997 
Q 3169 466 2822 187 
Q 2475 -91 1925 -91 
Q 1200 -91 759 389 
Q 319 869 319 1663 
Q 319 2459 759 2936 
Q 1200 3413 1925 3413 
Q 2241 3413 2553 3339 
Q 2866 3266 3181 3116 
L 3181 2266 
L 2847 2266 
Q 2781 2703 2561 2903 
Q 2341 3103 1931 3103 
Q 1466 3103 1228 2742 
Q 991 2381 991 1663 
Q 991 944 1227 581 
Q 1463 219 1931 219 
Q 2303 219 2525 412 
Q 2747 606 2828 997 
L 3291 997 
z
" transform="scale(0.015625)"/>
      <path id="DejaVuSerif-2d" d="M 281 1959 
L 1881 1959 
L 1881 1472 
L 281 1472 
L 281 1959 
z
" transform="scale(0.015625)"/>
      <path id="DejaVuSerif-53" d="M 594 225 
L 594 1288 
L 953 1284 
Q 969 753 1261 498 
Q 1553 244 2150 244 
Q 2706 244 2998 464 
Q 3291 684 3291 1106 
Q 3291 1444 3114 1625 
Q 2938 1806 2369 1978 
L 1753 2163 
Q 1084 2366 811 2669 
Q 538 2972 538 3500 
Q 538 4094 959 4422 
Q 1381 4750 2144 4750 
Q 2469 4750 2856 4679 
Q 3244 4609 3681 4475 
L 3681 3481 
L 3328 3481 
Q 3275 3975 2998 4195 
Q 2722 4416 2156 4416 
Q 1663 4416 1405 4214 
Q 1147 4013 1147 3628 
Q 1147 3294 1340 3103 
Q 1534 2913 2163 2725 
L 2741 2553 
Q 3375 2363 3645 2067 
Q 3916 1772 3916 1275 
Q 3916 597 3481 253 
Q 3047 -91 2188 -91 
Q 1803 -91 1404 -12 
Q 1006 66 594 225 
z
" transform="scale(0.015625)"/>
      <path id="DejaVuSerif-68" d="M 263 0 
L 263 331 
L 781 331 
L 781 4531 
L 231 4531 
L 231 4863 
L 1356 4863 
L 1356 2731 
Q 1516 3069 1770 3241 
Q 2025 3413 2363 3413 
Q 2913 3413 3172 3097 
Q 3431 2781 3431 2113 
L 3431 331 
L 3944 331 
L 3944 0 
L 2356 0 
L 2356 331 
L 2853 331 
L 2853 1931 
Q 2853 2541 2704 2764 
Q 2556 2988 2175 2988 
Q 1775 2988 1565 2697 
Q 1356 2406 1356 1850 
L 1356 331 
L 1856 331 
L 1856 0 
L 263 0 
z
" transform="scale(0.015625)"/>
      <path id="DejaVuSerif-72" d="M 3059 3328 
L 3059 2497 
L 2728 2497 
Q 2713 2744 2591 2866 
Q 2469 2988 2234 2988 
Q 1809 2988 1582 2694 
Q 1356 2400 1356 1850 
L 1356 331 
L 2022 331 
L 2022 0 
L 263 0 
L 263 331 
L 781 331 
L 781 2994 
L 231 2994 
L 231 3322 
L 1356 3322 
L 1356 2731 
Q 1525 3078 1790 3245 
Q 2056 3413 2438 3413 
Q 2578 3413 2733 3391 
Q 2888 3369 3059 3328 
z
" transform="scale(0.015625)"/>
      <path id="Cmr10-34" d="M 178 1056 
L 178 1281 
L 2156 4231 
Q 2178 4263 2222 4263 
L 2316 4263 
Q 2388 4263 2388 4191 
L 2388 1281 
L 3016 1281 
L 3016 1056 
L 2388 1056 
L 2388 428 
Q 2388 297 2575 261 
Q 2763 225 3009 225 
L 3009 0 
L 1247 0 
L 1247 225 
Q 1494 225 1681 261 
Q 1869 297 1869 428 
L 1869 1056 
L 178 1056 
z
M 391 1281 
L 1906 1281 
L 1906 3547 
L 391 1281 
z
" transform="scale(0.015625)"/>
      <path id="Cmr10-32" d="M 319 0 
L 319 172 
Q 319 188 331 206 
L 1325 1306 
Q 1550 1550 1690 1715 
Q 1831 1881 1968 2097 
Q 2106 2313 2186 2536 
Q 2266 2759 2266 3009 
Q 2266 3272 2169 3511 
Q 2072 3750 1880 3894 
Q 1688 4038 1416 4038 
Q 1138 4038 916 3870 
Q 694 3703 603 3438 
Q 628 3444 672 3444 
Q 816 3444 917 3347 
Q 1019 3250 1019 3097 
Q 1019 2950 917 2848 
Q 816 2747 672 2747 
Q 522 2747 420 2851 
Q 319 2956 319 3097 
Q 319 3338 409 3548 
Q 500 3759 670 3923 
Q 841 4088 1055 4175 
Q 1269 4263 1509 4263 
Q 1875 4263 2190 4108 
Q 2506 3953 2690 3670 
Q 2875 3388 2875 3009 
Q 2875 2731 2753 2481 
Q 2631 2231 2440 2026 
Q 2250 1822 1953 1562 
Q 1656 1303 1563 1216 
L 838 519 
L 1453 519 
Q 1906 519 2211 526 
Q 2516 534 2534 550 
Q 2609 631 2688 1141 
L 2875 1141 
L 2694 0 
L 319 0 
z
" transform="scale(0.015625)"/>
     </defs>
     <use xlink:href="#DejaVuSerif-28" transform="translate(0 0.015625)"/>
     <use xlink:href="#DejaVuSerif-62" transform="translate(39.013672 0.015625)"/>
     <use xlink:href="#DejaVuSerif-29" transform="translate(103.027344 0.015625)"/>
     <use xlink:href="#DejaVuSerif-20" transform="translate(142.041016 0.015625)"/>
     <use xlink:href="#DejaVuSerif-42" transform="translate(173.828125 0.015625)"/>
     <use xlink:href="#DejaVuSerif-61" transform="translate(247.314453 0.015625)"/>
     <use xlink:href="#DejaVuSerif-63" transform="translate(306.933594 0.015625)"/>
     <use xlink:href="#DejaVuSerif-6f" transform="translate(362.939453 0.015625)"/>
     <use xlink:href="#DejaVuSerif-6e" transform="translate(423.144531 0.015625)"/>
     <use xlink:href="#DejaVuSerif-2d" transform="translate(487.548828 0.015625)"/>
     <use xlink:href="#DejaVuSerif-53" transform="translate(521.337891 0.015625)"/>
     <use xlink:href="#DejaVuSerif-68" transform="translate(589.84375 0.015625)"/>
     <use xlink:href="#DejaVuSerif-6f" transform="translate(654.248047 0.015625)"/>
     <use xlink:href="#DejaVuSerif-72" transform="translate(714.453125 0.015625)"/>
     <use xlink:href="#DejaVuSerif-20" transform="translate(762.255859 0.015625)"/>
     <use xlink:href="#Cmr10-5b" transform="translate(794.042969 0.015625)"/>
     <use xlink:href="#Cmr10-5b" transform="translate(821.728516 0.015625)"/>
     <use xlink:href="#Cmr10-34" transform="translate(849.414062 0.015625)"/>
     <use xlink:href="#Cmmi10-3b" transform="translate(899.414062 0.015625)"/>
     <use xlink:href="#Cmr10-31" transform="translate(944.658203 0.015625)"/>
     <use xlink:href="#Cmmi10-3b" transform="translate(994.658203 0.015625)"/>
     <use xlink:href="#Cmr10-31" transform="translate(1039.902344 0.015625)"/>
     <use xlink:href="#Cmmi10-3b" transform="translate(1089.902344 0.015625)"/>
     <use xlink:href="#Cmr10-32" transform="translate(1135.146484 0.015625)"/>
     <use xlink:href="#Cmr10-5d" transform="translate(1185.146484 0.015625)"/>
     <use xlink:href="#Cmr10-5d" transform="translate(1212.832031 0.015625)"/>
    </g>
   </g>
   <g id="legend_1">
    <g id="patch_12">
     <path d="M 752.375469 288.7 
L 828.444375 288.7 
Q 830.444375 288.7 830.444375 286.7 
L 830.444375 183.985312 
Q 830.444375 181.985312 828.444375 181.985312 
L 752.375469 181.985312 
Q 750.375469 181.985312 750.375469 183.985312 
L 750.375469 286.7 
Q 750.375469 288.7 752.375469 288.7 
z
" style="fill: #ffffff; opacity: 0.9; stroke: #cccccc; stroke-linejoin: miter"/>
    </g>
    <g id="text_22">
     <!-- Temperature -->
     <g transform="translate(754.375469 194.343594) scale(0.11 -0.11)">
      <defs>
       <path id="DejaVuSerif-54" d="M 1222 0 
L 1222 331 
L 1819 331 
L 1819 4294 
L 447 4294 
L 447 3566 
L 63 3566 
L 63 4666 
L 4206 4666 
L 4206 3566 
L 3822 3566 
L 3822 4294 
L 2450 4294 
L 2450 331 
L 3047 331 
L 3047 0 
L 1222 0 
z
" transform="scale(0.015625)"/>
       <path id="DejaVuSerif-6d" d="M 3316 2675 
Q 3481 3041 3739 3227 
Q 3997 3413 4341 3413 
Q 4863 3413 5119 3089 
Q 5375 2766 5375 2113 
L 5375 331 
L 5894 331 
L 5894 0 
L 4300 0 
L 4300 331 
L 4800 331 
L 4800 2047 
Q 4800 2556 4650 2772 
Q 4500 2988 4153 2988 
Q 3769 2988 3567 2697 
Q 3366 2406 3366 1850 
L 3366 331 
L 3866 331 
L 3866 0 
L 2291 0 
L 2291 331 
L 2791 331 
L 2791 2069 
Q 2791 2566 2641 2777 
Q 2491 2988 2144 2988 
Q 1759 2988 1557 2697 
Q 1356 2406 1356 1850 
L 1356 331 
L 1856 331 
L 1856 0 
L 263 0 
L 263 331 
L 781 331 
L 781 2994 
L 231 2994 
L 231 3322 
L 1356 3322 
L 1356 2731 
Q 1516 3063 1762 3238 
Q 2009 3413 2322 3413 
Q 2709 3413 2968 3220 
Q 3228 3028 3316 2675 
z
" transform="scale(0.015625)"/>
       <path id="DejaVuSerif-75" d="M 2266 3322 
L 3341 3322 
L 3341 331 
L 3884 331 
L 3884 0 
L 2766 0 
L 2766 588 
Q 2606 256 2353 82 
Q 2100 -91 1766 -91 
Q 1213 -91 952 223 
Q 691 538 691 1209 
L 691 2988 
L 172 2988 
L 172 3322 
L 1269 3322 
L 1269 1388 
Q 1269 781 1417 556 
Q 1566 331 1947 331 
Q 2347 331 2556 625 
Q 2766 919 2766 1478 
L 2766 2988 
L 2266 2988 
L 2266 3322 
z
" transform="scale(0.015625)"/>
      </defs>
      <use xlink:href="#DejaVuSerif-54"/>
      <use xlink:href="#DejaVuSerif-65" transform="translate(58.949219 0)"/>
      <use xlink:href="#DejaVuSerif-6d" transform="translate(118.128906 0)"/>
      <use xlink:href="#DejaVuSerif-70" transform="translate(212.953125 0)"/>
      <use xlink:href="#DejaVuSerif-65" transform="translate(276.966797 0)"/>
      <use xlink:href="#DejaVuSerif-72" transform="translate(336.146484 0)"/>
      <use xlink:href="#DejaVuSerif-61" transform="translate(383.949219 0)"/>
      <use xlink:href="#DejaVuSerif-74" transform="translate(443.568359 0)"/>
      <use xlink:href="#DejaVuSerif-75" transform="translate(483.753906 0)"/>
      <use xlink:href="#DejaVuSerif-72" transform="translate(548.158203 0)"/>
      <use xlink:href="#DejaVuSerif-65" transform="translate(595.960938 0)"/>
     </g>
    </g>
    <g id="line2d_61">
     <path d="M 762.481797 205.729688 
L 769.981797 205.729688 
L 777.481797 205.729688 
" style="fill: none; stroke: #414487; stroke-width: 2; stroke-linecap: square"/>
     <g>
      <use xlink:href="#m9e6e35c67b" x="769.981797" y="205.729688" style="fill: #414487; stroke: #414487; stroke-linejoin: miter"/>
     </g>
    </g>
    <g id="text_23">
     <!-- 8 mK -->
     <g transform="translate(785.481797 209.229688) scale(0.1 -0.1)">
      <defs>
       <path id="DejaVuSerif-4b" d="M 353 0 
L 353 331 
L 947 331 
L 947 4331 
L 353 4331 
L 353 4666 
L 2175 4666 
L 2175 4331 
L 1581 4331 
L 1581 2566 
L 3591 4331 
L 3084 4331 
L 3084 4666 
L 4634 4666 
L 4634 4331 
L 4109 4331 
L 2106 2572 
L 4347 331 
L 4878 331 
L 4878 0 
L 3794 0 
L 1581 2216 
L 1581 331 
L 2175 331 
L 2175 0 
L 353 0 
z
" transform="scale(0.015625)"/>
      </defs>
      <use xlink:href="#DejaVuSerif-38"/>
      <use xlink:href="#DejaVuSerif-20" transform="translate(63.623047 0)"/>
      <use xlink:href="#DejaVuSerif-6d" transform="translate(95.410156 0)"/>
      <use xlink:href="#DejaVuSerif-4b" transform="translate(190.234375 0)"/>
     </g>
    </g>
    <g id="line2d_62">
     <path d="M 762.481797 220.407813 
L 769.981797 220.407813 
L 777.481797 220.407813 
" style="fill: none; stroke: #306a8e; stroke-width: 2; stroke-linecap: square"/>
     <g>
      <use xlink:href="#m4b942b5fea" x="769.981797" y="220.407813" style="fill: #306a8e; stroke: #306a8e; stroke-linejoin: miter"/>
     </g>
    </g>
    <g id="text_24">
     <!-- 10 mK -->
     <g transform="translate(785.481797 223.907813) scale(0.1 -0.1)">
      <use xlink:href="#DejaVuSerif-31"/>
      <use xlink:href="#DejaVuSerif-30" transform="translate(63.623047 0)"/>
      <use xlink:href="#DejaVuSerif-20" transform="translate(127.246094 0)"/>
      <use xlink:href="#DejaVuSerif-6d" transform="translate(159.033203 0)"/>
      <use xlink:href="#DejaVuSerif-4b" transform="translate(253.857422 0)"/>
     </g>
    </g>
    <g id="line2d_63">
     <path d="M 762.481797 235.085938 
L 769.981797 235.085938 
L 777.481797 235.085938 
" style="fill: none; stroke: #228b8d; stroke-width: 2; stroke-linecap: square"/>
     <g>
      <use xlink:href="#m5d115e99f4" x="769.981797" y="235.085938" style="fill: #228b8d; stroke: #228b8d; stroke-linejoin: miter"/>
     </g>
    </g>
    <g id="text_25">
     <!-- 15 mK -->
     <g transform="translate(785.481797 238.585938) scale(0.1 -0.1)">
      <use xlink:href="#DejaVuSerif-31"/>
      <use xlink:href="#DejaVuSerif-35" transform="translate(63.623047 0)"/>
      <use xlink:href="#DejaVuSerif-20" transform="translate(127.246094 0)"/>
      <use xlink:href="#DejaVuSerif-6d" transform="translate(159.033203 0)"/>
      <use xlink:href="#DejaVuSerif-4b" transform="translate(253.857422 0)"/>
     </g>
    </g>
    <g id="line2d_64">
     <path d="M 762.481797 249.764063 
L 769.981797 249.764063 
L 777.481797 249.764063 
" style="fill: none; stroke: #26ad81; stroke-width: 2; stroke-linecap: square"/>
     <g>
      <use xlink:href="#m1c820fdec7" x="769.981797" y="249.764063" style="fill: #26ad81; stroke: #26ad81; stroke-linejoin: miter"/>
     </g>
    </g>
    <g id="text_26">
     <!-- 20 mK -->
     <g transform="translate(785.481797 253.264063) scale(0.1 -0.1)">
      <use xlink:href="#DejaVuSerif-32"/>
      <use xlink:href="#DejaVuSerif-30" transform="translate(63.623047 0)"/>
      <use xlink:href="#DejaVuSerif-20" transform="translate(127.246094 0)"/>
      <use xlink:href="#DejaVuSerif-6d" transform="translate(159.033203 0)"/>
      <use xlink:href="#DejaVuSerif-4b" transform="translate(253.857422 0)"/>
     </g>
    </g>
    <g id="line2d_65">
     <path d="M 762.481797 264.442188 
L 769.981797 264.442188 
L 777.481797 264.442188 
" style="fill: none; stroke: #63cb5f; stroke-width: 2; stroke-linecap: square"/>
     <g>
      <use xlink:href="#mbb84dd2232" x="769.981797" y="264.442188" style="fill: #63cb5f; stroke: #63cb5f; stroke-linejoin: miter"/>
     </g>
    </g>
    <g id="text_27">
     <!-- 30 mK -->
     <g transform="translate(785.481797 267.942188) scale(0.1 -0.1)">
      <defs>
       <path id="DejaVuSerif-33" d="M 622 4469 
Q 988 4606 1323 4678 
Q 1659 4750 1953 4750 
Q 2638 4750 3022 4454 
Q 3406 4159 3406 3634 
Q 3406 3213 3140 2930 
Q 2875 2647 2388 2547 
Q 2963 2466 3280 2130 
Q 3597 1794 3597 1259 
Q 3597 606 3158 257 
Q 2719 -91 1894 -91 
Q 1528 -91 1179 -12 
Q 831 66 488 225 
L 488 1131 
L 838 1131 
Q 869 681 1141 450 
Q 1413 219 1906 219 
Q 2384 219 2661 495 
Q 2938 772 2938 1253 
Q 2938 1803 2653 2086 
Q 2369 2369 1819 2369 
L 1522 2369 
L 1522 2688 
L 1678 2688 
Q 2225 2688 2498 2914 
Q 2772 3141 2772 3597 
Q 2772 4006 2547 4223 
Q 2322 4441 1900 4441 
Q 1478 4441 1245 4241 
Q 1013 4041 972 3647 
L 622 3647 
L 622 4469 
z
" transform="scale(0.015625)"/>
      </defs>
      <use xlink:href="#DejaVuSerif-33"/>
      <use xlink:href="#DejaVuSerif-30" transform="translate(63.623047 0)"/>
      <use xlink:href="#DejaVuSerif-20" transform="translate(127.246094 0)"/>
      <use xlink:href="#DejaVuSerif-6d" transform="translate(159.033203 0)"/>
      <use xlink:href="#DejaVuSerif-4b" transform="translate(253.857422 0)"/>
     </g>
    </g>
    <g id="line2d_66">
     <path d="M 762.481797 279.120313 
L 769.981797 279.120313 
L 777.481797 279.120313 
" style="fill: none; stroke: #bddf26; stroke-width: 2; stroke-linecap: square"/>
     <g>
      <use xlink:href="#m86d6b4c0ed" x="769.981797" y="279.120313" style="fill: #bddf26; stroke: #bddf26; stroke-linejoin: miter"/>
     </g>
    </g>
    <g id="text_28">
     <!-- 50 mK -->
     <g transform="translate(785.481797 282.620313) scale(0.1 -0.1)">
      <use xlink:href="#DejaVuSerif-35"/>
      <use xlink:href="#DejaVuSerif-30" transform="translate(63.623047 0)"/>
      <use xlink:href="#DejaVuSerif-20" transform="translate(127.246094 0)"/>
      <use xlink:href="#DejaVuSerif-6d" transform="translate(159.033203 0)"/>
      <use xlink:href="#DejaVuSerif-4b" transform="translate(253.857422 0)"/>
     </g>
    </g>
   </g>
  </g>
  <g id="text_29">
   <!-- Penalty Energy $E_p$ [MHz] -->
   <g transform="translate(316.484375 340.5) scale(0.16 -0.16)">
    <defs>
     <path id="DejaVuSerif-50" d="M 1581 2375 
L 2406 2375 
Q 2872 2375 3115 2626 
Q 3359 2878 3359 3353 
Q 3359 3831 3115 4081 
Q 2872 4331 2406 4331 
L 1581 4331 
L 1581 2375 
z
M 353 0 
L 353 331 
L 947 331 
L 947 4331 
L 353 4331 
L 353 4666 
L 2559 4666 
Q 3259 4666 3668 4311 
Q 4078 3956 4078 3353 
Q 4078 2753 3668 2397 
Q 3259 2041 2559 2041 
L 1581 2041 
L 1581 331 
L 2303 331 
L 2303 0 
L 353 0 
z
" transform="scale(0.015625)"/>
     <path id="DejaVuSerif-45" d="M 353 0 
L 353 331 
L 947 331 
L 947 4331 
L 353 4331 
L 353 4666 
L 4109 4666 
L 4109 3628 
L 3725 3628 
L 3725 4281 
L 1581 4281 
L 1581 2719 
L 3109 2719 
L 3109 3303 
L 3494 3303 
L 3494 1753 
L 3109 1753 
L 3109 2338 
L 1581 2338 
L 1581 384 
L 3775 384 
L 3775 1038 
L 4159 1038 
L 4159 0 
L 353 0 
z
" transform="scale(0.015625)"/>
     <path id="DejaVuSerif-67" d="M 3359 2988 
L 3359 72 
Q 3359 -644 2965 -1033 
Q 2572 -1422 1844 -1422 
Q 1516 -1422 1216 -1362 
Q 916 -1303 641 -1184 
L 641 -488 
L 941 -488 
Q 997 -813 1206 -963 
Q 1416 -1113 1806 -1113 
Q 2313 -1113 2548 -827 
Q 2784 -541 2784 72 
L 2784 519 
Q 2616 206 2355 57 
Q 2094 -91 1709 -91 
Q 1097 -91 708 395 
Q 319 881 319 1663 
Q 319 2444 706 2928 
Q 1094 3413 1709 3413 
Q 2094 3413 2355 3264 
Q 2616 3116 2784 2803 
L 2784 3322 
L 3909 3322 
L 3909 2988 
L 3359 2988 
z
M 2784 1825 
Q 2784 2422 2554 2737 
Q 2325 3053 1888 3053 
Q 1444 3053 1217 2703 
Q 991 2353 991 1663 
Q 991 975 1217 622 
Q 1444 269 1888 269 
Q 2325 269 2554 583 
Q 2784 897 2784 1497 
L 2784 1825 
z
" transform="scale(0.015625)"/>
     <path id="Cmmi10-45" d="M 300 0 
Q 238 0 238 84 
Q 241 100 250 139 
Q 259 178 276 201 
Q 294 225 319 225 
Q 709 225 863 269 
Q 947 297 984 441 
L 1863 3956 
Q 1875 4019 1875 4044 
Q 1875 4113 1797 4122 
Q 1678 4147 1338 4147 
Q 1275 4147 1275 4231 
Q 1278 4247 1287 4286 
Q 1297 4325 1314 4348 
Q 1331 4372 1356 4372 
L 4825 4372 
Q 4891 4372 4891 4288 
L 4738 2963 
Q 4738 2947 4714 2926 
Q 4691 2906 4672 2906 
L 4616 2906 
Q 4550 2906 4550 2988 
Q 4588 3300 4588 3450 
Q 4588 3706 4500 3848 
Q 4413 3991 4267 4053 
Q 4122 4116 3945 4131 
Q 3769 4147 3481 4147 
L 2753 4147 
Q 2578 4147 2522 4117 
Q 2466 4088 2419 3928 
L 2034 2381 
L 2534 2381 
Q 2859 2381 3025 2426 
Q 3191 2472 3287 2615 
Q 3384 2759 3463 3072 
Q 3469 3094 3486 3111 
Q 3503 3128 3525 3128 
L 3584 3128 
Q 3647 3128 3647 3047 
L 3250 1466 
Q 3238 1409 3188 1409 
L 3128 1409 
Q 3066 1409 3066 1491 
Q 3128 1747 3128 1869 
Q 3128 2056 2959 2106 
Q 2791 2156 2509 2156 
L 1978 2156 
L 1544 416 
Q 1516 338 1516 275 
Q 1516 225 1734 225 
L 2509 225 
Q 2972 225 3259 297 
Q 3547 369 3736 526 
Q 3925 684 4062 928 
Q 4200 1172 4397 1638 
Q 4409 1678 4453 1678 
L 4513 1678 
Q 4538 1678 4556 1656 
Q 4575 1634 4575 1606 
Q 4575 1594 4569 1581 
L 3909 38 
Q 3897 0 3859 0 
L 300 0 
z
" transform="scale(0.015625)"/>
     <path id="Cmmi10-70" d="M -159 -1241 
Q -219 -1241 -219 -1159 
Q -197 -1019 -134 -1019 
Q 66 -1019 145 -983 
Q 225 -947 269 -800 
L 991 2081 
Q 1038 2200 1038 2388 
Q 1038 2663 850 2663 
Q 650 2663 553 2423 
Q 456 2184 366 1819 
Q 366 1778 313 1778 
L 238 1778 
Q 222 1778 203 1801 
Q 184 1825 184 1844 
Q 253 2122 317 2315 
Q 381 2509 517 2668 
Q 653 2828 856 2828 
Q 1075 2828 1240 2704 
Q 1406 2581 1453 2369 
Q 1628 2572 1840 2700 
Q 2053 2828 2278 2828 
Q 2547 2828 2745 2684 
Q 2944 2541 3044 2308 
Q 3144 2075 3144 1806 
Q 3144 1394 2933 953 
Q 2722 513 2361 220 
Q 2000 -72 1588 -72 
Q 1400 -72 1248 34 
Q 1097 141 1013 313 
L 722 -825 
Q 706 -919 703 -934 
Q 703 -1019 1125 -1019 
Q 1191 -1019 1191 -1100 
Q 1169 -1184 1155 -1212 
Q 1141 -1241 1081 -1241 
L -159 -1241 
z
M 1594 97 
Q 1816 97 2006 280 
Q 2197 463 2316 691 
Q 2403 863 2479 1111 
Q 2556 1359 2612 1640 
Q 2669 1922 2669 2088 
Q 2669 2234 2630 2362 
Q 2591 2491 2502 2577 
Q 2413 2663 2266 2663 
Q 2031 2663 1823 2495 
Q 1616 2328 1447 2081 
L 1447 2059 
L 1094 647 
Q 1138 419 1263 258 
Q 1388 97 1594 97 
z
" transform="scale(0.015625)"/>
     <path id="DejaVuSerif-5b" d="M 550 4863 
L 2003 4863 
L 2003 4531 
L 1147 4531 
L 1147 -513 
L 2003 -513 
L 2003 -844 
L 550 -844 
L 550 4863 
z
" transform="scale(0.015625)"/>
     <path id="DejaVuSerif-4d" d="M 353 0 
L 353 331 
L 947 331 
L 947 4331 
L 319 4331 
L 319 4666 
L 1678 4666 
L 3316 1344 
L 4953 4666 
L 6228 4666 
L 6228 4331 
L 5606 4331 
L 5606 331 
L 6203 331 
L 6203 0 
L 4378 0 
L 4378 331 
L 4972 331 
L 4972 3938 
L 3372 684 
L 2931 684 
L 1331 3938 
L 1331 331 
L 1925 331 
L 1925 0 
L 353 0 
z
" transform="scale(0.015625)"/>
     <path id="DejaVuSerif-48" d="M 353 0 
L 353 331 
L 947 331 
L 947 4331 
L 353 4331 
L 353 4666 
L 2175 4666 
L 2175 4331 
L 1581 4331 
L 1581 2719 
L 4000 2719 
L 4000 4331 
L 3406 4331 
L 3406 4666 
L 5228 4666 
L 5228 4331 
L 4634 4331 
L 4634 331 
L 5228 331 
L 5228 0 
L 3406 0 
L 3406 331 
L 4000 331 
L 4000 2338 
L 1581 2338 
L 1581 331 
L 2175 331 
L 2175 0 
L 353 0 
z
" transform="scale(0.015625)"/>
     <path id="DejaVuSerif-7a" d="M 256 0 
L 256 269 
L 2338 2988 
L 691 2988 
L 691 2413 
L 359 2413 
L 359 3322 
L 3078 3322 
L 3078 3053 
L 997 331 
L 2803 331 
L 2803 934 
L 3138 934 
L 3138 0 
L 256 0 
z
" transform="scale(0.015625)"/>
     <path id="DejaVuSerif-5d" d="M 1947 4863 
L 1947 -844 
L 494 -844 
L 494 -513 
L 1350 -513 
L 1350 4531 
L 494 4531 
L 494 4863 
L 1947 4863 
z
" transform="scale(0.015625)"/>
    </defs>
    <use xlink:href="#DejaVuSerif-50" transform="translate(0 0.015625)"/>
    <use xlink:href="#DejaVuSerif-65" transform="translate(67.285156 0.015625)"/>
    <use xlink:href="#DejaVuSerif-6e" transform="translate(126.464844 0.015625)"/>
    <use xlink:href="#DejaVuSerif-61" transform="translate(190.869141 0.015625)"/>
    <use xlink:href="#DejaVuSerif-6c" transform="translate(250.488281 0.015625)"/>
    <use xlink:href="#DejaVuSerif-74" transform="translate(282.470703 0.015625)"/>
    <use xlink:href="#DejaVuSerif-79" transform="translate(322.65625 0.015625)"/>
    <use xlink:href="#DejaVuSerif-20" transform="translate(379.150391 0.015625)"/>
    <use xlink:href="#DejaVuSerif-45" transform="translate(410.9375 0.015625)"/>
    <use xlink:href="#DejaVuSerif-6e" transform="translate(483.935547 0.015625)"/>
    <use xlink:href="#DejaVuSerif-65" transform="translate(548.339844 0.015625)"/>
    <use xlink:href="#DejaVuSerif-72" transform="translate(607.519531 0.015625)"/>
    <use xlink:href="#DejaVuSerif-67" transform="translate(655.322266 0.015625)"/>
    <use xlink:href="#DejaVuSerif-79" transform="translate(719.335938 0.015625)"/>
    <use xlink:href="#DejaVuSerif-20" transform="translate(775.830078 0.015625)"/>
    <use xlink:href="#Cmmi10-45" transform="translate(807.617188 0.015625)"/>
    <use xlink:href="#Cmmi10-70" transform="translate(881.396484 -16.990625) scale(0.7)"/>
    <use xlink:href="#DejaVuSerif-20" transform="translate(922.978906 0.015625)"/>
    <use xlink:href="#DejaVuSerif-5b" transform="translate(954.766016 0.015625)"/>
    <use xlink:href="#DejaVuSerif-4d" transform="translate(993.779688 0.015625)"/>
    <use xlink:href="#DejaVuSerif-48" transform="translate(1096.172266 0.015625)"/>
    <use xlink:href="#DejaVuSerif-7a" transform="translate(1183.379297 0.015625)"/>
    <use xlink:href="#DejaVuSerif-5d" transform="translate(1236.064844 0.015625)"/>
   </g>
  </g>
 </g>
 <defs>
  <clipPath id="p1ebd18b618">
   <rect x="53.044375" y="23.28" width="382.572893" height="270.42"/>
  </clipPath>
  <clipPath id="pf936207989">
   <rect x="452.871482" y="23.28" width="382.572893" height="270.42"/>
  </clipPath>
 </defs>
</svg>
